<svg width="126" height="126" viewBox="0 0 126 126" fill="none" xmlns="http://www.w3.org/2000/svg">
<g clip-path="url(#clip0_450_6831)">
<path d="M49.25 52.62C49.25 50.5453 48.6348 48.5172 47.4821 46.7921C46.3295 45.067 44.6912 43.7225 42.7744 42.9285C40.8576 42.1345 38.7484 41.9268 36.7135 42.3316C34.6787 42.7363 32.8095 43.7354 31.3425 45.2025C29.8754 46.6695 28.8764 48.5387 28.4716 50.5735C28.0668 52.6084 28.2746 54.7175 29.0685 56.6343C29.8625 58.5511 31.207 60.1895 32.9321 61.3421C34.6572 62.4948 36.6853 63.11 38.76 63.11C41.5421 63.11 44.2103 62.0048 46.1776 60.0376C48.1448 58.0703 49.25 55.4021 49.25 52.62ZM62.93 -1.11232e-06C50.4852 -0.00197899 38.3193 3.68654 27.9708 10.5991C17.6224 17.5116 9.5562 27.3377 4.7924 38.8346C0.0286016 50.3316 -1.21885 62.983 1.2078 75.189C3.63445 87.3949 9.62621 98.6071 18.4253 107.408C27.2245 116.208 38.4357 122.202 50.6413 124.63C62.8468 127.059 75.4985 125.813 86.9962 121.051C98.4939 116.289 108.321 108.225 115.235 97.8775C122.15 87.5302 125.84 75.3648 125.84 62.92C125.841 54.6577 124.215 46.4761 121.054 38.8423C117.893 31.2086 113.26 24.2722 107.418 18.4294C101.576 12.5866 94.6402 7.95185 87.007 4.7897C79.3737 1.62755 71.1923 -1.21671e-06 62.93 -1.11232e-06ZM62.93 115.91C52.4476 115.91 42.2006 112.802 33.4848 106.978C24.769 101.154 17.9759 92.8767 13.9644 83.1922C9.95297 73.5077 8.90339 62.8512 10.9484 52.5702C12.9934 42.2892 18.0412 32.8455 25.4534 25.4333C32.8655 18.0212 42.3092 12.9734 52.5902 10.9284C62.8712 8.88336 73.5278 9.93294 83.2123 13.9444C92.8967 17.9558 101.174 24.749 106.998 33.4648C112.822 42.1806 115.93 52.4276 115.93 62.91C115.93 76.9665 110.346 90.4472 100.407 100.387C90.4673 110.326 76.9865 115.91 62.93 115.91ZM87.07 42.13C84.9953 42.13 82.9672 42.7452 81.2421 43.8979C79.517 45.0505 78.1725 46.6889 77.3785 48.6056C76.5846 50.5224 76.3768 52.6316 76.7816 54.6665C77.1864 56.7014 78.1854 58.5705 79.6525 60.0376C81.1195 61.5046 82.9887 62.5037 85.0235 62.9084C87.0584 63.3132 89.1676 63.1055 91.0844 62.3115C93.0012 61.5175 94.6395 60.173 95.7922 58.4479C96.9448 56.7229 97.56 54.6947 97.56 52.62C97.56 51.2407 97.288 49.875 96.7596 48.601C96.2312 47.327 95.4567 46.1697 94.4805 45.1954C93.5043 44.221 92.3455 43.4488 91.0705 42.9228C89.7955 42.3968 88.4293 42.1274 87.05 42.13H87.07ZM62.93 70.74C59.6225 70.74 56.3474 71.3916 53.2917 72.6577C50.2361 73.9237 47.4599 75.7793 45.1215 78.1186C42.7832 80.4578 40.9287 83.2348 39.6639 86.291C38.399 89.3471 37.7487 92.6225 37.75 95.93H88.12C88.12 89.2492 85.4661 82.842 80.7421 78.118C76.018 73.3939 69.6108 70.74 62.93 70.74Z" fill="url(#paint0_linear_450_6831)"/>
</g>
<defs>
<linearGradient id="paint0_linear_450_6831" x1="62.92" y1="-1.90735e-06" x2="62.92" y2="125.84" gradientUnits="userSpaceOnUse">
<stop stop-color="#F9F295"/>
<stop offset="0.375" stop-color="#E0AA3E"/>
<stop offset="0.692708" stop-color="#F7EF8A"/>
<stop offset="1" stop-color="#B88A44"/>
</linearGradient>
<clipPath id="clip0_450_6831">
<rect width="125.84" height="125.84" fill="white"/>
</clipPath>
</defs>
</svg>
