<svg width="125" height="125" viewBox="0 0 125 125" fill="none" xmlns="http://www.w3.org/2000/svg">
<path d="M86.459 41.8488C84.3977 41.8468 82.3822 42.4563 80.6673 43.6001C78.9524 44.7438 77.6153 46.3705 76.8251 48.2743C76.035 50.1782 75.8272 52.2736 76.2281 54.2955C76.629 56.3174 77.6207 58.175 79.0776 59.6333C80.5344 61.0915 82.3911 62.0849 84.4126 62.4878C86.4342 62.8907 88.5298 62.6849 90.4343 61.8965C92.3389 61.1081 93.9669 59.7726 95.1123 58.0588C96.2577 56.3451 96.8691 54.3301 96.8691 52.2688C96.8691 49.5069 95.7726 46.8581 93.8206 44.9042C91.8687 42.9504 89.2209 41.8514 86.459 41.8488ZM48.9113 52.2688C48.9113 50.2079 48.3002 48.1933 47.1553 46.4797C46.0103 44.7662 44.3829 43.4306 42.4789 42.642C40.5749 41.8533 38.4798 41.647 36.4585 42.049C34.4373 42.4511 32.5806 43.4435 31.1233 44.9007C29.6661 46.358 28.6737 48.2147 28.2716 50.2359C27.8696 52.2572 28.0759 54.3523 28.8646 56.2563C29.6532 58.1603 30.9888 59.7877 32.7023 60.9327C34.4159 62.0776 36.4305 62.6888 38.4914 62.6888C41.2549 62.6888 43.9053 61.5909 45.8594 59.6368C47.8135 57.6827 48.9113 55.0323 48.9113 52.2688ZM62.4702 7.10486e-06C50.1102 0.00590033 38.0294 3.67647 27.7552 10.5476C17.4811 17.4188 9.47491 27.182 4.749 38.6029C0.0230963 50.0238 -1.21036 62.5896 1.20459 74.7114C3.61953 86.8333 9.57442 97.9669 18.3164 106.705C27.0584 115.443 38.1948 121.392 50.3178 123.801C62.4408 126.21 75.006 124.971 86.4246 120.24C97.8433 115.508 107.603 107.497 114.469 97.22C121.335 86.9426 125 74.8601 125 62.5C125 54.2899 123.382 46.1602 120.24 38.5754C117.097 30.9906 112.49 24.0993 106.684 18.2953C100.877 12.4912 93.9834 7.88814 86.3971 4.74898C78.8108 1.60981 70.6804 -0.00390745 62.4702 7.10486e-06ZM62.4702 115.126C52.0578 115.126 41.8792 112.039 33.2216 106.254C24.5639 100.469 17.8161 92.2468 13.8315 82.627C9.8468 73.0071 8.80422 62.4217 10.8356 52.2094C12.867 41.997 17.881 32.6163 25.2437 25.2536C32.6064 17.8909 41.9871 12.8769 52.1995 10.8455C62.4118 8.81414 72.9972 9.85671 82.6171 13.8414C92.2369 17.826 100.459 24.5738 106.244 33.2315C112.029 41.8891 115.116 52.0677 115.116 62.4801C115.116 76.4428 109.57 89.8335 99.6967 99.7066C89.8237 109.58 76.4329 115.126 62.4702 115.126ZM62.4702 77.9065C57.9197 77.8478 53.4221 78.887 49.3586 80.936C45.295 82.9851 41.7854 85.9836 39.1271 89.6774C38.4092 90.7035 38.1283 91.9728 38.3463 93.206C38.5642 94.4392 39.2632 95.5353 40.2893 96.2532C41.3154 96.9711 42.5847 97.2519 43.8179 97.034C45.0511 96.816 46.1472 96.1171 46.8651 95.091C48.6986 92.6861 51.0624 90.7368 53.7726 89.3951C56.4827 88.0533 59.466 87.3553 62.4901 87.3553C65.5142 87.3553 68.4975 88.0533 71.2076 89.3951C73.9178 90.7368 76.2816 92.6861 78.1151 95.091C78.4706 95.5991 78.9226 96.0322 79.4455 96.3656C79.9683 96.6989 80.5517 96.9261 81.1623 97.034C81.7729 97.1419 82.3988 97.1285 83.0043 96.9945C83.6097 96.8606 84.1828 96.6086 84.6909 96.2532C85.199 95.8977 85.6321 95.4457 85.9655 94.9228C86.2989 94.4 86.526 93.8166 86.6339 93.206C86.7418 92.5954 86.7284 91.9695 86.5945 91.364C86.4605 90.7586 86.2086 90.1855 85.8531 89.6774C83.1939 85.975 79.6785 82.9708 75.6068 80.9211C71.5352 78.8715 67.0281 77.8372 62.4702 77.9065Z" fill="url(#paint0_linear_450_6853)" fill-opacity="0.7"/>
<defs>
<linearGradient id="paint0_linear_450_6853" x1="132.143" y1="125" x2="-259.503" y2="-147.532" gradientUnits="userSpaceOnUse">
<stop stop-color="#48647D"/>
<stop offset="0.234375" stop-color="#6B8299"/>
<stop offset="0.442708" stop-color="#DAE2EB"/>
<stop offset="0.682292" stop-color="#8CA2B7"/>
<stop offset="1" stop-color="#EDF2F7"/>
</linearGradient>
</defs>
</svg>
