<svg width="126" height="126" viewBox="0 0 126 126" fill="none" xmlns="http://www.w3.org/2000/svg">
<g clip-path="url(#clip0_450_6827)">
<path d="M62.92 0C50.4756 0 38.3107 3.69019 27.9636 10.6039C17.6164 17.5177 9.55181 27.3444 4.78955 38.8416C0.0272818 50.3387 -1.21877 62.9898 1.20901 75.1951C3.63679 87.4004 9.62937 98.6116 18.4289 107.411C27.2284 116.211 38.4397 122.203 50.645 124.631C62.8502 127.059 75.5014 125.813 86.9985 121.051C98.4956 116.288 108.322 108.224 115.236 97.8765C122.15 87.5294 125.84 75.3644 125.84 62.92C125.837 46.2334 119.207 30.231 107.408 18.4318C95.609 6.63256 79.6067 0.0026514 62.92 0ZM62.92 115.9C52.4376 115.9 42.1906 112.792 33.4748 106.968C24.759 101.144 17.9659 92.8667 13.9544 83.1822C9.94299 73.4977 8.8934 62.8412 10.9384 52.5602C12.9834 42.2792 18.0312 32.8355 25.4434 25.4233C32.8556 18.0112 42.2993 12.9634 52.5803 10.9184C62.8613 8.87336 73.5178 9.92294 83.2023 13.9344C92.8868 17.9458 101.164 24.739 106.988 33.4548C112.812 42.1706 115.92 52.4176 115.92 62.9C115.92 76.9565 110.336 90.4372 100.397 100.377C90.4573 110.316 76.9765 115.9 62.92 115.9ZM87.07 42.13C84.9949 42.128 82.9658 42.7416 81.2394 43.893C79.513 45.0445 78.1669 46.6821 77.3714 48.5987C76.5759 50.5153 76.3668 52.6249 76.7704 54.6604C77.174 56.6959 78.1723 58.5659 79.6389 60.034C81.1056 61.502 82.9747 62.5021 85.0099 62.9077C87.045 63.3133 89.1547 63.1061 91.0721 62.3124C92.9895 61.5188 94.6284 60.1743 95.7815 58.449C96.9346 56.7237 97.55 54.6951 97.55 52.62C97.55 49.8396 96.4462 47.173 94.4811 45.206C92.516 43.239 89.8504 42.1327 87.07 42.13ZM49.26 52.62C49.26 50.5444 48.6443 48.5155 47.4907 46.79C46.3372 45.0645 44.6977 43.72 42.7798 42.9266C40.8618 42.1332 38.7516 41.9267 36.7162 42.333C34.6808 42.7394 32.8117 43.7405 31.3454 45.2096C29.8792 46.6786 28.8817 48.5496 28.4792 50.5858C28.0767 52.622 28.2873 54.7318 29.0843 56.6482C29.8813 58.5647 31.229 60.2016 32.9567 61.3518C34.6844 62.5021 36.7145 63.114 38.79 63.11C41.5687 63.1047 44.2317 61.9972 46.1947 60.0305C48.1576 58.0638 49.26 55.3987 49.26 52.62ZM76.4 81.15H49.45C48.1876 81.15 46.9769 81.6515 46.0842 82.5442C45.1915 83.4368 44.69 84.6476 44.69 85.91C44.69 87.1724 45.1915 88.3831 46.0842 89.2758C46.9769 90.1685 48.1876 90.67 49.45 90.67H76.4C77.6625 90.67 78.8732 90.1685 79.7659 89.2758C80.6585 88.3831 81.16 87.1724 81.16 85.91C81.16 84.6476 80.6585 83.4368 79.7659 82.5442C78.8732 81.6515 77.6625 81.15 76.4 81.15Z" fill="url(#paint0_linear_450_6827)"/>
</g>
<defs>
<linearGradient id="paint0_linear_450_6827" x1="62.92" y1="0" x2="62.92" y2="125.84" gradientUnits="userSpaceOnUse">
<stop stop-color="#F9F295"/>
<stop offset="0.375" stop-color="#E0AA3E"/>
<stop offset="0.692708" stop-color="#F7EF8A"/>
<stop offset="1" stop-color="#B88A44"/>
</linearGradient>
<clipPath id="clip0_450_6827">
<rect width="125.84" height="125.84" fill="white"/>
</clipPath>
</defs>
</svg>
