<svg width="125" height="125" viewBox="0 0 125 125" fill="none" xmlns="http://www.w3.org/2000/svg">
<g clip-path="url(#clip0_450_6825)">
<path d="M62.5 7.89621e-07C50.1383 9.45759e-07 38.0542 3.66609 27.7759 10.5347C17.4976 17.4032 9.4868 27.1658 4.75661 38.5877C0.0264261 50.0095 -1.21071 62.5777 1.20167 74.7027C3.61406 86.8278 9.56756 97.9651 18.3093 106.706C27.0511 115.447 38.1885 121.399 50.313 123.81C62.4374 126.221 75.0044 124.982 86.4246 120.249C97.8448 115.517 107.605 107.504 114.472 97.2236C121.338 86.9434 125.002 74.8578 125 62.495C125 54.2872 123.383 46.1598 120.242 38.5769C117.101 30.994 112.497 24.1042 106.694 18.3008C100.89 12.4975 93.9997 7.89438 86.417 4.75429C78.8342 1.61421 70.7072 -0.0013039 62.5 7.89621e-07ZM62.5 115.126C52.0876 115.126 41.909 112.038 33.2513 106.252C24.5937 100.467 17.8459 92.2442 13.8613 82.6236C9.87659 73.003 8.83403 62.4168 10.8654 52.2036C12.8968 41.9904 17.9108 32.609 25.2735 25.2457C32.6362 17.8824 42.0169 12.8679 52.2293 10.8364C62.4416 8.80489 73.027 9.84755 82.6469 13.8325C92.2667 17.8175 100.489 24.5658 106.274 33.2242C112.059 41.8825 115.146 52.0619 115.146 62.4752C115.146 76.4389 109.6 89.8307 99.7265 99.7046C89.8534 109.578 76.4627 115.126 62.5 115.126ZM48.9312 52.263C48.9312 50.2015 48.3198 48.1864 47.1744 46.4725C46.029 44.7586 44.4011 43.4229 42.4965 42.6345C40.5919 41.846 38.4963 41.6402 36.4747 42.0431C34.4532 42.446 32.5965 43.4395 31.1397 44.8979C29.6828 46.3562 28.6912 48.214 28.2902 50.2361C27.8893 52.2582 28.0971 54.3538 28.8873 56.2577C29.6775 58.1617 31.0145 59.7885 32.7294 60.9324C34.4443 62.0762 36.4599 62.6858 38.5212 62.6838C41.283 62.6812 43.9308 61.5821 45.8828 59.6281C47.8347 57.6741 48.9312 55.025 48.9312 52.263ZM86.4789 41.8422C84.418 41.8422 82.4034 42.4533 80.6899 43.5984C78.9763 44.7434 77.6407 46.3709 76.8521 48.2751C76.0634 50.1793 75.8571 52.2745 76.2591 54.296C76.6612 56.3174 77.6536 58.1742 79.1108 59.6316C80.5681 61.089 82.4248 62.0815 84.4461 62.4836C86.4674 62.8856 88.5624 62.6793 90.4664 61.8905C92.3704 61.1018 93.9978 59.7662 95.1428 58.0525C96.2878 56.3388 96.8989 54.324 96.8989 52.263C96.8989 49.4992 95.8011 46.8486 93.8469 44.8943C91.8928 42.9401 89.2424 41.8422 86.4789 41.8422ZM84.7008 78.767C84.1935 78.4105 83.6209 78.1576 83.0157 78.0226C82.4106 77.8876 81.7848 77.8732 81.1741 77.9802C80.5634 78.0872 79.9798 78.3136 79.4566 78.6463C78.9334 78.979 78.4809 79.4116 78.125 79.9193C76.2916 82.3244 73.9277 84.2738 71.2176 85.6157C68.5074 86.9576 65.5241 87.6556 62.5 87.6556C59.4759 87.6556 56.4926 86.9576 53.7825 85.6157C51.0724 84.2738 48.7085 82.3244 46.875 79.9193C46.5302 79.3846 46.081 78.9249 45.5543 78.5679C45.0276 78.2109 44.4343 77.9638 43.8099 77.8416C43.1855 77.7193 42.5429 77.7243 41.9204 77.8563C41.298 77.9883 40.7086 78.2447 40.1876 78.6099C39.6666 78.9751 39.2246 79.4417 38.8882 79.9818C38.5518 80.5219 38.3278 81.1243 38.2297 81.753C38.1316 82.3817 38.1614 83.0238 38.3173 83.6407C38.4732 84.2576 38.752 84.8367 39.137 85.3433C41.7972 89.0396 45.3102 92.039 49.3777 94.0867C53.4451 96.1344 57.9468 97.1699 62.5 97.1052C67.0501 97.1676 71.548 96.1309 75.6119 94.0832C79.6757 92.0356 83.1855 89.0374 85.8432 85.3433C86.2001 84.8366 86.4536 84.2644 86.5894 83.6596C86.7251 83.0548 86.7405 82.4292 86.6344 81.8185C86.5283 81.2077 86.3029 80.6239 85.9712 80.1003C85.6394 79.5768 85.2077 79.1237 84.7008 78.767Z" fill="url(#paint0_linear_450_6825)"/>
</g>
<defs>
<linearGradient id="paint0_linear_450_6825" x1="62.5" y1="0" x2="62.5" y2="125.01" gradientUnits="userSpaceOnUse">
<stop stop-color="#F9F295"/>
<stop offset="0.375" stop-color="#E0AA3E"/>
<stop offset="0.692708" stop-color="#F7EF8A"/>
<stop offset="1" stop-color="#B88A44"/>
</linearGradient>
<clipPath id="clip0_450_6825">
<rect width="125" height="125" fill="white"/>
</clipPath>
</defs>
</svg>
