<svg width="125" height="125" viewBox="0 0 125 125" fill="none" xmlns="http://www.w3.org/2000/svg">
<g clip-path="url(#clip0_450_6823)">
<path d="M62.5 0C50.1387 0 38.0549 3.66556 27.7769 10.5331C17.4988 17.4007 9.48803 27.1619 4.75755 38.5823C0.0270774 50.0027 -1.21063 62.5693 1.20095 74.6932C3.61253 86.817 9.56507 97.9534 18.3059 106.694C27.0466 115.435 38.1831 121.388 50.3069 123.799C62.4307 126.211 74.9974 124.973 86.4178 120.242C97.8382 115.512 107.599 107.501 114.467 97.2232C121.334 86.9451 125 74.8614 125 62.5C124.997 45.9248 118.412 30.0292 106.691 18.3087C94.9709 6.58829 79.0752 0.00263371 62.5 0ZM62.5 115.126C52.0876 115.126 41.909 112.039 33.2514 106.254C24.5938 100.469 17.846 92.2468 13.8613 82.627C9.87663 73.0071 8.83407 62.4217 10.8654 52.2094C12.8968 41.997 17.9109 32.6163 25.2736 25.2536C32.6363 17.8909 42.0169 12.8769 52.2293 10.8455C62.4416 8.81413 73.027 9.85671 82.6469 13.8414C92.2667 17.826 100.489 24.5738 106.274 33.2315C112.059 41.8891 115.146 52.0677 115.146 62.4801C115.146 76.4428 109.6 89.8335 99.7265 99.7066C89.8535 109.58 76.4627 115.126 62.5 115.126ZM48.9312 52.2687C48.9312 50.2079 48.3201 48.1933 47.1751 46.4797C46.0302 44.7662 44.4028 43.4306 42.4988 42.6419C40.5948 41.8533 38.4997 41.6469 36.4784 42.049C34.4571 42.4511 32.6005 43.4435 31.1432 44.9007C29.686 46.358 28.6935 48.2147 28.2915 50.2359C27.8894 52.2572 28.0958 54.3523 28.8844 56.2563C29.6731 58.1603 31.0087 59.7877 32.7222 60.9327C34.4358 62.0776 36.4504 62.6887 38.5113 62.6887C39.8796 62.6887 41.2346 62.4192 42.4988 61.8956C43.763 61.3719 44.9117 60.6044 45.8793 59.6368C46.8469 58.6692 47.6144 57.5205 48.138 56.2563C48.6617 54.9921 48.9312 53.6371 48.9312 52.2687ZM86.4789 41.8488C84.418 41.8488 82.4034 42.4599 80.6899 43.6049C78.9763 44.7498 77.6408 46.3772 76.8521 48.2812C76.0635 50.1852 75.8571 52.2803 76.2591 54.3016C76.6612 56.3229 77.6536 58.1796 79.1109 59.6368C80.5681 61.0941 82.4248 62.0865 84.4461 62.4885C86.4673 62.8906 88.5624 62.6842 90.4664 61.8956C92.3704 61.1069 93.9978 59.7713 95.1428 58.0578C96.2878 56.3442 96.8989 54.3296 96.8989 52.2687C96.8989 50.9004 96.6294 49.5454 96.1057 48.2812C95.5821 47.017 94.8145 45.8683 93.8469 44.9007C92.8793 43.9331 91.7307 43.1656 90.4664 42.6419C89.2022 42.1183 87.8473 41.8488 86.4789 41.8488ZM62.5 102.273C65.9642 102.273 69.3944 101.59 72.5948 100.264C75.7951 98.9383 78.7028 96.9948 81.1519 94.5448C83.601 92.0948 85.5434 89.1863 86.8682 85.9855C88.193 82.7847 88.8742 79.3542 88.8728 75.89H36.1173C36.1173 82.8871 38.8969 89.5977 43.8446 94.5454C48.7923 99.4931 55.5029 102.273 62.5 102.273Z" fill="url(#paint0_linear_450_6823)"/>
</g>
<defs>
<linearGradient id="paint0_linear_450_6823" x1="62.5" y1="0" x2="62.5" y2="125" gradientUnits="userSpaceOnUse">
<stop stop-color="#F9F295"/>
<stop offset="0.375" stop-color="#E0AA3E"/>
<stop offset="0.692708" stop-color="#F7EF8A"/>
<stop offset="1" stop-color="#B88A44"/>
</linearGradient>
<clipPath id="clip0_450_6823">
<rect width="125" height="125" fill="white"/>
</clipPath>
</defs>
</svg>
