<svg width="18" height="18" viewBox="0 0 18 18" fill="none" xmlns="http://www.w3.org/2000/svg">
<path d="M8.4474 0.189618C8.60539 0.0667231 8.79984 0 9 0C9.20016 0 9.39461 0.0667231 9.5526 0.189618L16.9578 5.94942C17.2826 6.20204 17.5453 6.52553 17.7259 6.8952C17.9065 7.26486 18.0003 7.67091 18 8.08234V16.2001C18 16.6774 17.8104 17.1353 17.4728 17.4728C17.1352 17.8104 16.6774 18 16.2 18H12.6C12.1226 18 11.6648 17.8104 11.3272 17.4728C10.9896 17.1353 10.8 16.6774 10.8 16.2001V10.8003H7.2V16.2001C7.2 16.6774 7.01036 17.1353 6.67279 17.4728C6.33523 17.8104 5.87739 18 5.4 18H1.8C1.32261 18 0.864773 17.8104 0.527208 17.4728C0.189642 17.1353 0 16.6774 0 16.2001V8.08234C0 7.24717 0.3852 6.4624 1.044 5.94942L8.4474 0.189618ZM9 2.03995L2.1474 7.36957C2.03891 7.45396 1.95119 7.56208 1.89097 7.68564C1.83075 7.80919 1.79963 7.9449 1.8 8.08234V16.2001H5.4V10.8003C5.4 10.3229 5.58964 9.86506 5.92721 9.5275C6.26477 9.18995 6.72261 9.00031 7.2 9.00031H10.8C11.2774 9.00031 11.7352 9.18995 12.0728 9.5275C12.4104 9.86506 12.6 10.3229 12.6 10.8003V16.2001H16.2V8.08234C16.2004 7.9449 16.1693 7.80919 16.109 7.68564C16.0488 7.56208 15.9611 7.45396 15.8526 7.36957L9 2.04175V2.03995Z" fill="white"/>
</svg>
