<?xml version="1.0" standalone="no"?>
<!DOCTYPE svg PUBLIC "-//W3C//DTD SVG 20010904//EN"
 "http://www.w3.org/TR/2001/REC-SVG-20010904/DTD/svg10.dtd">
<svg version="1.0" xmlns="http://www.w3.org/2000/svg"
 width="512.000000pt" height="512.000000pt" viewBox="0 0 512.000000 512.000000"
 preserveAspectRatio="xMidYMid meet">
<metadata>
Created by potrace 1.16, written by Peter Selinger 2001-2019
</metadata>
<g transform="translate(0.000000,512.000000) scale(0.100000,-0.100000)"
fill="#000000" stroke="none">
<path d="M2483 5096 l-28 -24 -5 -189 -5 -188 -40 -2 c-566 -36 -1137 -333
-1502 -784 -273 -336 -452 -784 -475 -1189 l-3 -45 -188 -5 -189 -5 -24 -28
c-34 -39 -34 -115 0 -154 l24 -28 189 -5 188 -5 3 -45 c23 -405 202 -853 475
-1189 365 -450 937 -748 1502 -784 l40 -2 5 -188 5 -189 28 -24 c39 -34 115
-34 154 0 l28 24 5 189 5 188 90 7 c398 33 819 207 1144 471 440 358 734 906
779 1452 l7 90 188 5 189 5 24 28 c34 39 34 115 0 154 l-24 28 -189 5 -188 5
-3 45 c-19 336 -154 726 -354 1024 -357 535 -953 892 -1574 944 l-89 7 -5 188
-5 189 -28 24 c-21 18 -40 24 -77 24 -37 0 -56 -6 -77 -24z m-31 -811 c3 -177
4 -185 26 -207 18 -19 33 -23 82 -23 49 0 64 4 82 23 22 22 23 30 26 209 l3
186 77 -7 c305 -28 669 -163 917 -341 375 -268 639 -654 750 -1095 25 -98 55
-278 55 -329 l0 -30 -185 -3 c-177 -3 -185 -4 -207 -26 -33 -33 -33 -131 0
-164 22 -22 30 -23 207 -26 l185 -3 0 -27 c-1 -54 -30 -237 -54 -331 -120
-472 -414 -882 -821 -1143 -239 -154 -570 -269 -847 -294 l-77 -7 -3 186 c-3
179 -4 187 -26 209 -33 33 -131 33 -164 0 -22 -22 -23 -30 -26 -208 l-3 -186
-77 7 c-218 19 -478 96 -692 206 -356 183 -636 462 -819 819 -109 213 -188
475 -207 689 l-6 80 186 3 c178 3 186 4 208 26 33 33 33 131 0 164 -22 22 -30
23 -208 26 l-186 3 6 80 c19 214 98 476 207 689 183 356 462 636 819 819 230
118 526 203 732 210 l37 1 3 -185z"/>
<path d="M2391 3184 c-228 -61 -396 -230 -456 -459 -20 -78 -20 -252 0 -330
60 -233 230 -401 465 -461 98 -25 292 -16 382 18 188 70 316 198 386 386 34
90 43 284 18 382 -60 235 -228 405 -461 465 -76 19 -260 19 -334 -1z m319
-233 c168 -65 280 -238 268 -414 -13 -181 -128 -326 -301 -379 -169 -51 -357
16 -460 162 -161 231 -52 552 218 640 78 26 196 22 275 -9z"/>
</g>
</svg>
