




<svg data-name="Component 2 \xE2\x80\x93 1" width="85.531" height="16.409" fill="none"
 xmlns="http://www.w3.org/2000/svg" viewBox="0 0 85.531 16.409"><path data-name="Path 728" d="M33.746 12.836a20.705 20.705 0 01-11.69 3.573 21.155 21.155 0 01-14.279-5.447c-.3-.267-.032-.632.324-.425a28.741 28.741 0 0014.292 3.793 28.427 28.427 0 0010.9-2.23c.534-.227.982.352.459.738z" fill="#f49800" fill-rule="evenodd"></path><path data-name="Path 729" d="M35.066 11.334c-.4-.518-2.672-.246-3.692-.124-.308.037-.356-.233-.078-.428 1.81-1.271 4.775-.9 5.119-.479s-.091 3.4-1.786 4.82c-.261.218-.509.1-.393-.187.382-.953 1.236-3.086.831-3.6z" fill="#f49800" fill-rule="evenodd"></path><path data-name="Path 730" d="M31.447 1.805V.571a.305.305 0 01.313-.313h5.535a.308.308 0 01.319.312v1.059a1.736 1.736 0 01-.416.777l-2.867 4.093a6.148 6.148 0 013.157.678.567.567 0 01.294.482v1.318c0 .182-.2.392-.408.282a6.374 6.374 0 00-5.847.011c-.192.1-.394-.1-.394-.286V7.732a1.488 1.488 0 01.206-.849l3.321-4.766h-2.893a.309.309 0 01-.32-.311z" fill="#fff" fill-rule="evenodd"></path><path data-name="Path 731" d="M11.259 9.518H9.574a.318.318 0 01-.3-.285V.591A.317.317 0 019.599.28h1.568a.317.317 0 01.306.291v1.128h.032a2.313 2.313 0 014.4 0 2.487 2.487 0 014.275-.655 4.588 4.588 0 01.425 2.709v5.454a.318.318 0 01-.325.311h-1.683a.316.316 0 01-.3-.311V4.625a11.021 11.021 0 00-.048-1.618.878.878 0 00-.99-.746 1.116 1.116 0 00-1.006.709 5.238 5.238 0 00-.157 1.655v4.581a.317.317 0 01-.324.311h-1.684a.316.316 0 01-.3-.311V4.624c0-.963.157-2.382-1.037-2.382-1.21 0-1.163 1.382-1.163 2.382v4.581a.318.318 0 01-.325.311z" fill="#fff" fill-rule="evenodd"></path><path data-name="Path 732" d="M42.392 1.862c-1.241 0-1.32 1.691-1.32 2.746s-.016 3.31 1.3 3.31c1.3 0 1.368-1.818 1.368-2.927a7.979 7.979 0 00-.252-2.291 1.054 1.054 0 00-1.1-.837zM42.378.098c2.5 0 3.851 2.146 3.851 4.873 0 2.637-1.493 4.728-3.851 4.728-2.452 0-3.788-2.146-3.788-4.819 0-2.691 1.352-4.783 3.788-4.783z" fill="#fff" fill-rule="evenodd"></path><path data-name="Path 733" d="M49.469 9.518h-1.677a.317.317 0 01-.3-.311V.562a.319.319 0 01.324-.282h1.562a.322.322 0 01.3.242v1.322h.031A2.29 2.29 0 0152.004.098a2.206 2.206 0 011.965 1.018 5.5 5.5 0 01.44 2.691v5.438a.32.32 0 01-.323.272h-1.694a.318.318 0 01-.3-.272V4.553c0-.946.11-2.328-1.053-2.328a1.1 1.1 0 00-.975.691 3.846 3.846 0 00-.268 1.637v4.653a.322.322 0 01-.328.311z" fill="#fff" fill-rule="evenodd"></path><path data-name="Path 734" d="M28.732 9.496a.346.346 0 01-.4.039 4.109 4.109 0 01-.966-1.122 3.336 3.336 0 01-2.776 1.224 2.39 2.39 0 01-2.52-2.624 2.86 2.86 0 011.8-2.752 11.648 11.648 0 013.166-.583v-.219a2.157 2.157 0 00-.2-1.221 1.126 1.126 0 00-.945-.438 1.283 1.283 0 00-1.354 1.011.355.355 0 01-.292.31l-1.632-.177a.3.3 0 01-.252-.352C22.732.64 24.475.031 26.061.015h.125a3.785 3.785 0 012.478.838c.819.766.74 1.786.74 2.9v2.623a2.3 2.3 0 00.636 1.56.317.317 0 01-.006.448c-.344.288-.955.819-1.291 1.118zm-1.7-4.105a3.3 3.3 0 01-.316 1.786 1.368 1.368 0 01-1.166.765c-.645 0-1.024-.492-1.024-1.221 0-1.434 1.286-1.695 2.5-1.695v.365z" fill="#fff" fill-rule="evenodd"></path><path data-name="Path 735" d="M6.659 9.496a.347.347 0 01-.4.039 4.082 4.082 0 01-.965-1.122 3.337 3.337 0 01-2.776 1.224A2.39 2.39 0 010 7.013a2.86 2.86 0 011.8-2.752 11.651 11.651 0 013.166-.583v-.219a2.157 2.157 0 00-.2-1.221 1.126 1.126 0 00-.945-.438 1.282 1.282 0 00-1.353 1.011.356.356 0 01-.293.31L.543 2.944a.3.3 0 01-.251-.352C.662.64 2.405.031 3.992.015h.125a3.784 3.784 0 012.478.838c.819.766.74 1.786.74 2.9v2.623a2.3 2.3 0 00.635 1.56.318.318 0 01-.005.448 71.8 71.8 0 00-1.292 1.118zm-1.7-4.105a3.3 3.3 0 01-.315 1.786 1.368 1.368 0 01-1.166.765c-.645 0-1.024-.492-1.024-1.221 0-1.434 1.287-1.695 2.5-1.695v.365z" fill="#fff" fill-rule="evenodd"></path><path data-name="Path 736" d="M77.419 12.618v-.635c0-.181.089-.306.277-.294a3.957 3.957 0 001.2.027 1.4 1.4 0 00.988-.871c.276-.631.459-1.139.574-1.474l-3.5-8.677c-.059-.147-.076-.421.218-.421H78.4a.381.381 0 01.381.294l2.539 7.049L83.744.567a.382.382 0 01.381-.294h1.155c.292 0 .276.273.218.421l-3.474 8.948c-.45 1.191-1.049 3.088-2.4 3.418a3.558 3.558 0 01-2.031-.1.394.394 0 01-.175-.345z" fill="#fff" fill-rule="evenodd"></path><path data-name="Path 737" d="M75.786 8.988a.3.3 0 01-.295.294h-.864a.336.336 0 01-.337-.294l-.087-.588a5.056 5.056 0 01-1.412.837 3.551 3.551 0 01-3.178-.15 2.532 2.532 0 01-1.1-2.19 2.684 2.684 0 01.681-1.864 3.452 3.452 0 012.631-1.007 8.2 8.2 0 012.3.3V3.143c0-1.2-.507-1.724-1.842-1.724a8.952 8.952 0 00-2.888.492.265.265 0 01-.276-.288V.949a.42.42 0 01.288-.366 8.719 8.719 0 013.044-.588c1.522 0 3.333.344 3.333 2.686v6.3zm-1.659-1.727V5.476a9.229 9.229 0 00-1.91-.224 2.205 2.205 0 00-1.563.5 1.471 1.471 0 00-.364 1.012 1.352 1.352 0 00.548 1.186 2.232 2.232 0 001.788.082 3.905 3.905 0 001.5-.771z" fill="#fff" fill-rule="evenodd"></path><path data-name="Path 738" d="M63.054 1.451c1.916 0 2.438 1.506 2.438 3.232a3.88 3.88 0 01-.805 2.794 2.18 2.18 0 01-1.712.565A4.158 4.158 0 0160.75 7.2V2.268a3.963 3.963 0 012.3-.817zm-2.6 11.476h-1.157a.294.294 0 01-.294-.294V.582a.294.294 0 01.294-.294h.885a.336.336 0 01.337.294l.093.631A4.549 4.549 0 0163.526.005c2.849 0 3.785 2.347 3.785 4.787 0 2.612-1.433 4.71-3.856 4.71a4.058 4.058 0 01-2.708-1.031v4.162a.294.294 0 01-.293.294z" fill="#fff" fill-rule="evenodd"></path></svg>