<svg width="26" height="15" viewBox="0 0 26 15" fill="none" xmlns="http://www.w3.org/2000/svg">
<g clip-path="url(#clip0)">
<path d="M6.84666 0H6.67333C6.06666 0.0789474 5.54666 0.315789 5.11333 0.631579C4.94 0.631579 4.85333 0.710526 4.76666 0.789474C4.76666 0.789474 4.76666 0.789474 4.76666 0.710526C4.76666 0.631579 4.76666 0.473684 4.68 0.394737C4.68 0.236842 4.50666 0.157895 4.33333 0.157895H3.9C3.64 0.157895 3.55333 0.236842 3.55333 0.473684V8.44737C3.55333 8.60526 3.64 8.60526 3.72666 8.60526H4.59333C4.68 8.60526 4.76666 8.52632 4.76666 8.44737V8.36842V5.60526L4.85333 5.68421C5.63333 6.23684 6.41333 6.39474 7.36666 6.23684C8.23333 6.07895 8.84 5.60526 9.18666 4.89474C9.44666 4.34211 9.62 3.86842 9.62 3.23684C9.62 2.60526 9.62 1.97368 9.27333 1.42105C8.92666 0.710526 8.32 0.157895 7.45333 0C7.45333 0 7.28 0 7.19333 0C7.02 0 6.93333 0 6.84666 0ZM13.52 0H13.4333C13 0 12.6533 0.0789474 12.22 0.157895C11.96 0.236842 11.7 0.315789 11.44 0.394737C11.3533 0.394737 11.2667 0.552632 11.2667 0.710526C11.2667 0.868421 11.2667 0.947368 11.2667 1.10526C11.2667 1.26316 11.3533 1.34211 11.5267 1.26316C11.8733 1.18421 12.1333 1.10526 12.48 1.02632C13 0.947368 13.52 0.868421 14.04 0.947369C14.3 1.02632 14.56 1.02632 14.7333 1.26316C14.9067 1.42105 14.9067 1.65789 14.9933 1.89474C14.9933 2.21053 14.9933 2.44737 14.9933 2.76316C14.9933 2.76316 14.9933 2.76316 14.9933 2.84211H14.9067C14.4733 2.76316 14.04 2.68421 13.6067 2.68421C13.1733 2.68421 12.6533 2.68421 12.22 2.84211C11.7 3 11.2667 3.31579 11.0067 3.78947C10.8333 4.18421 10.7467 4.57895 10.8333 4.97368C10.92 5.52632 11.18 5.92105 11.7 6.1579C12.22 6.31579 12.74 6.31579 13.3467 6.31579C13.9533 6.23684 14.56 6 14.9933 5.60526C14.9933 5.60526 14.9933 5.60526 15.08 5.52632C15.08 5.68421 15.1667 5.84211 15.1667 5.92105C15.1667 6.07895 15.2533 6.07895 15.4267 6.1579H16.12C16.2067 6.1579 16.2933 6.07895 16.2933 6V5.92105V1.97368C16.2933 1.81579 16.2933 1.65789 16.2067 1.5C16.12 1.02632 15.86 0.631579 15.4267 0.315789C15.1667 0.157895 14.82 0.0789474 14.56 0.0789474C14.3867 0.0789474 14.3 0.0789474 14.1267 0H13.52V0ZM17.0733 0C16.9867 0 16.9 0.0789474 16.9 0.157895C16.9 0.236842 16.9867 0.315789 16.9867 0.394737C17.7667 2.21053 18.6333 4.02632 19.4133 5.84211C19.5 6 19.5 6.1579 19.4133 6.31579C19.24 6.55263 19.1533 6.86842 19.0667 7.18421C18.98 7.42105 18.72 7.57895 18.46 7.6579C18.2867 7.73684 18.0267 7.73684 17.8533 7.6579C17.7667 7.6579 17.68 7.6579 17.5067 7.6579C17.3333 7.6579 17.3333 7.73684 17.2467 7.89474V8.28947C17.2467 8.52632 17.3333 8.60526 17.5933 8.60526C17.8533 8.60526 18.0267 8.68421 18.2867 8.68421C18.98 8.68421 19.5867 8.44737 19.9333 7.89474C20.1067 7.6579 20.1933 7.42105 20.28 7.18421C21.2333 4.89474 22.2733 2.68421 23.2267 0.394737C23.2267 0.315789 23.3133 0.236842 23.3133 0.157895C23.3133 0.0789474 23.3133 0 23.14 0H22.36C22.1867 0 22.1 0.0789474 22.0133 0.157895C22.0133 0.236842 22.0133 0.236842 21.9267 0.315789L20.4533 4.10526C20.3667 4.34211 20.28 4.6579 20.1067 4.97368C20.1067 4.89474 20.1067 4.89474 20.1067 4.89474C19.5867 3.55263 19.0667 2.21053 18.5467 0.868421C18.46 0.631579 18.3733 0.394737 18.2867 0.236842C18.2 0.0789474 18.1133 0 18.0267 0C17.68 0 17.42 0 17.0733 0ZM6.84666 0.947369C7.45333 1.02632 7.97333 1.26316 8.23333 1.89474C8.32 2.36842 8.40666 2.76316 8.40666 3.15789C8.40666 3.55263 8.40666 3.86842 8.23333 4.26316C7.97333 5.05263 7.28 5.36842 6.5 5.36842C5.89333 5.36842 5.46 5.13158 4.94 4.81579C4.85333 4.81579 4.85333 4.73684 4.85333 4.73684V1.57895C4.85333 1.5 4.85333 1.5 4.94 1.42105C5.46 1.10526 6.15333 0.947369 6.84666 0.947369ZM13.3467 3.47368C13.52 3.47368 13.6933 3.47368 13.8667 3.47368C14.2133 3.47368 14.56 3.55263 14.9067 3.63158C14.9933 3.63158 14.9933 3.63158 14.9933 3.71053C14.9933 3.86842 14.9933 4.10526 14.9933 4.26316C14.9933 4.42105 14.9933 4.57895 14.9933 4.81579C14.9933 4.89474 14.9933 4.89474 14.9067 4.89474C14.4733 5.21053 13.9533 5.36842 13.3467 5.44737C13.0867 5.44737 12.9133 5.44737 12.6533 5.36842C12.3933 5.28947 12.22 5.05263 12.1333 4.89474C12.0467 4.65789 12.0467 4.42105 12.1333 4.18421C12.22 3.86842 12.48 3.71053 12.8267 3.63158C13 3.47368 13.1733 3.47368 13.3467 3.47368Z" fill="#2E2728"/>
<path d="M24.2666 9.47369C23.4866 9.47369 22.5333 9.63159 21.7533 10.1053C21.4933 10.2632 21.58 10.4211 21.84 10.4211C22.62 10.3421 24.44 10.1053 24.7866 10.5C25.1333 10.8947 24.44 12.4737 24.0933 13.1053C24.0066 13.3421 24.18 13.4211 24.44 13.2632C25.8266 12.2369 26.1733 10.0263 25.9133 9.71054C25.74 9.63159 25.1333 9.47369 24.2666 9.47369Z" fill="#FFA900"/>
<path d="M0.173313 10.2632C-2.06633e-05 10.2632 -0.0866873 10.5 0.086646 10.6579C3.46665 13.579 7.97331 15 13 15C16.5533 15 20.7133 13.9737 23.4866 11.9211C23.92 11.6053 23.5733 11.1316 23.0533 11.2895C19.9333 12.6316 16.4666 13.2632 13.26 13.2632C8.57998 13.2632 4.07331 12.3948 0.433313 10.3421C0.346646 10.2632 0.259979 10.2632 0.173313 10.2632Z" fill="#FFA900"/>
</g>
<defs>
<clipPath id="clip0">
<rect width="26" height="15" fill="white"/>
</clipPath>
</defs>
</svg>
