<svg width="20" height="20" viewBox="0 0 20 20" fill="none" xmlns="http://www.w3.org/2000/svg">
<path fill-rule="evenodd" clip-rule="evenodd" d="M0.843723 9.42268C-0.070063 7.43174 -0.708181 4.26055 1.49103 2.82555C4.93993 0.574773 4.20788 2.27268 6.44845 6.41943C6.55054 6.60525 6.50562 6.79363 6.36983 6.94984L5.59949 7.8335C5.11554 8.38943 5.05122 9.20265 5.59286 9.74429L10.2562 14.4077C10.7979 14.9493 11.6111 14.885 12.167 14.4005L13.0507 13.6307C13.2069 13.4944 13.3953 13.4515 13.5811 13.5516C17.7278 15.7926 19.4257 15.0606 17.175 18.5095C15.74 20.7087 12.5683 20.0701 10.5778 19.1568C6.53421 17.3001 2.70039 13.4673 0.843723 9.42268Z" fill="black"/>
<path d="M10.0084 1.0297C9.94086 1.03023 9.87386 1.01745 9.81125 0.992082C9.74864 0.966712 9.69165 0.929251 9.64353 0.88184C9.5954 0.834429 9.5571 0.777999 9.5308 0.715775C9.5045 0.65355 9.49072 0.586753 9.49026 0.519201C9.48965 0.451606 9.50238 0.384556 9.52772 0.321888C9.55306 0.25922 9.59051 0.202165 9.63793 0.153989C9.68535 0.105813 9.7418 0.0674613 9.80406 0.0411301C9.86632 0.0147989 9.93315 0.00100488 10.0007 0.000537702C11.3177 -0.013191 12.6242 0.236101 13.8436 0.733804C15.0631 1.23151 16.1709 1.96761 17.1021 2.89896C18.0334 3.83032 18.7694 4.93819 19.2669 6.15765C19.7645 7.37711 20.0137 8.68363 19.9998 10.0006C19.9947 10.1343 19.9377 10.2607 19.8409 10.3531C19.7442 10.4454 19.6153 10.4965 19.4815 10.4954C19.3478 10.4944 19.2197 10.4413 19.1244 10.3474C19.0291 10.2535 18.9742 10.1262 18.9712 9.99245C18.9829 8.81218 18.7591 7.64143 18.3128 6.54872C17.8666 5.45601 17.2068 4.46329 16.3722 3.62867C15.5376 2.79405 14.5449 2.1343 13.4521 1.68804C12.3594 1.24177 11.1887 1.01796 10.0084 1.0297Z" fill="black"/>
<path d="M9.98938 3.67604C9.92179 3.67665 9.85474 3.66392 9.79207 3.63858C9.7294 3.61324 9.67235 3.57579 9.62417 3.52837C9.576 3.48095 9.53764 3.4245 9.51131 3.36224C9.48498 3.29998 9.47119 3.23314 9.47072 3.16555C9.47018 3.098 9.48296 3.031 9.50833 2.96839C9.5337 2.90578 9.57116 2.84879 9.61858 2.80067C9.66599 2.75254 9.72242 2.71424 9.78464 2.68794C9.84686 2.66164 9.91366 2.64786 9.98121 2.64739C10.9524 2.63695 11.916 2.82049 12.8153 3.18726C13.7147 3.55402 14.5318 4.09664 15.2188 4.7833C15.9057 5.46995 16.4487 6.28683 16.8158 7.18605C17.1829 8.08527 17.3669 9.04873 17.3568 10.02C17.3563 10.0875 17.3424 10.1542 17.3161 10.2164C17.2897 10.2785 17.2513 10.3349 17.2032 10.3822C17.1551 10.4295 17.0981 10.4669 17.0355 10.4922C16.9729 10.5175 16.9059 10.5303 16.8384 10.5297C16.7709 10.5291 16.7042 10.5153 16.642 10.4889C16.5799 10.4625 16.5235 10.4242 16.4762 10.3761C16.4289 10.3279 16.3915 10.2709 16.3662 10.2083C16.3409 10.1458 16.3281 10.0788 16.3287 10.0113C16.3367 9.17676 16.1781 8.34903 15.8623 7.57653C15.5465 6.80403 15.0798 6.10227 14.4895 5.51234C13.8992 4.92241 13.1971 4.45614 12.4244 4.14084C11.6517 3.82553 10.8239 3.66752 9.98938 3.67604Z" fill="black"/>
<path d="M9.96978 6.31897C9.83605 6.31595 9.70876 6.26098 9.61487 6.16571C9.52098 6.07044 9.46788 5.94236 9.46681 5.8086C9.46575 5.67485 9.51681 5.54594 9.60918 5.44919C9.70154 5.35244 9.82795 5.29546 9.96161 5.29032C10.587 5.28348 11.2074 5.40162 11.7865 5.63779C12.3656 5.87395 12.8917 6.2234 13.3339 6.66563C13.7761 7.10785 14.1256 7.63394 14.3617 8.21304C14.5979 8.79213 14.7161 9.41256 14.7092 10.0379C14.704 10.1716 14.647 10.298 14.5502 10.3903C14.4534 10.4827 14.3244 10.5337 14.1907 10.5325C14.0569 10.5314 13.9288 10.4782 13.8336 10.3843C13.7384 10.2903 13.6835 10.163 13.6806 10.0292C13.6853 9.5405 13.5926 9.05571 13.4077 8.60324C13.2229 8.15078 12.9497 7.73972 12.604 7.39413C12.2584 7.04855 11.8473 6.77536 11.3948 6.59058C10.9423 6.40579 10.4575 6.3131 9.96876 6.31795L9.96978 6.31897Z" fill="black"/>
</svg>
