<svg xmlns="http://www.w3.org/2000/svg" width="13.185" height="16.78" viewBox="0 0 13.185 16.78">
  <g id="Group_9578" data-name="Group 9578" transform="translate(-48.736 -239.627)">
    <g id="iconmonstr-phone-3" transform="translate(42.363 239.627)" fill="none">
      <path d="M11.554,0l-.6.348-.491.285,2.411,4.2L13.966,4.2Zm5.592,9.736-1.091.633,2.411,4.2,1.091-.633Z" stroke="none"/>
      <path d="M 11.55427360534668 -4.76837158203125e-06 L 13.96612358093262 4.197835922241211 L 12.87478446960449 4.830825805664062 L 10.46359443664551 0.6329851150512695 L 11.55427360534668 -4.76837158203125e-06 Z M 17.14599418640137 9.736315727233887 L 19.55783462524414 13.93480587005615 L 18.46649551391602 14.567795753479 L 16.05530548095703 10.36930561065674 L 17.14599418640137 9.736315727233887 Z" stroke="none" fill="#400082"/>
    </g>
    <path id="iconmonstr-phone-3-2" data-name="iconmonstr-phone-3" d="M13.05,16.67l-.775.427C7.745,19.448-.113,5.739,4.3,3.149l.743-.414,2.411,4.2-.739.41c-1.342.808,1.792,6.3,3.168,5.548l.754-.417Z" transform="translate(46.701 238.188)" fill="none" stroke="#400082" stroke-width="1.5"/>
  </g>
</svg>
