<svg width="18" height="17" viewBox="0 0 18 17" fill="none" xmlns="http://www.w3.org/2000/svg">
<path d="M17.6063 3.49875C17.4374 3.28184 17.2219 3.10597 16.9758 2.98424C16.7298 2.8625 16.4595 2.79803 16.1852 2.79564H4.64415L4.28396 1.38844C4.18636 0.993021 3.95992 0.641648 3.64059 0.390103C3.32125 0.138557 2.92733 0.00125769 2.52136 0H0.591448C0.445784 0.0146714 0.310744 0.0831148 0.212532 0.192051C0.114319 0.300986 0.0599365 0.442646 0.0599365 0.589544C0.0599365 0.736441 0.114319 0.878101 0.212532 0.987037C0.310744 1.09597 0.445784 1.16442 0.591448 1.17909H2.52136C2.66068 1.17927 2.79595 1.22609 2.90576 1.31212C3.01557 1.39816 3.09363 1.5185 3.12759 1.65408L5.43934 10.8962C5.53698 11.2918 5.76357 11.6433 6.0831 11.8948C6.40264 12.1464 6.79679 12.2836 7.20293 12.2846H14.7631C15.1698 12.2862 15.5651 12.1499 15.885 11.8979C16.2049 11.6459 16.4307 11.293 16.5257 10.8962L17.9478 5.0363C18.0152 4.77111 18.0194 4.49373 17.9601 4.22661C17.9007 3.95949 17.7795 3.71014 17.6063 3.49875ZM16.7914 4.77264L15.3703 10.6296C15.3364 10.7651 15.2583 10.8855 15.1485 10.9715C15.0387 11.0576 14.9034 11.1044 14.7641 11.1046H7.20293C7.06361 11.1044 6.92833 11.0576 6.81852 10.9715C6.70871 10.8855 6.63065 10.7651 6.5967 10.6296L4.94727 3.99349H16.1852C16.2805 3.99454 16.3743 4.01731 16.4596 4.06007C16.5448 4.10284 16.6193 4.1645 16.6773 4.24037C16.7373 4.31347 16.779 4.39996 16.7989 4.49257C16.8188 4.58518 16.8162 4.68122 16.7914 4.77264Z" fill="#FF118E"/>
<path d="M7.59665 13.045C7.20736 13.045 6.82681 13.1608 6.50312 13.3779C6.17944 13.5949 5.92716 13.9033 5.77818 14.2642C5.62921 14.6251 5.59023 15.0222 5.66618 15.4053C5.74212 15.7885 5.92958 16.1404 6.20485 16.4166C6.48013 16.6928 6.83084 16.8809 7.21265 16.9571C7.59446 17.0333 7.99022 16.9942 8.34988 16.8447C8.70954 16.6952 9.01694 16.4421 9.23322 16.1173C9.4495 15.7925 9.56494 15.4107 9.56494 15.02C9.56133 14.4973 9.35279 13.9971 8.98445 13.6275C8.6161 13.2579 8.11756 13.0486 7.59665 13.045ZM7.59665 15.8021C7.44288 15.8021 7.29256 15.7564 7.16471 15.6707C7.03685 15.5849 6.9372 15.4631 6.87835 15.3206C6.81951 15.178 6.80411 15.0211 6.83411 14.8698C6.86411 14.7185 6.93816 14.5795 7.04689 14.4704C7.15562 14.3613 7.29415 14.287 7.44497 14.2569C7.59578 14.2268 7.75211 14.2422 7.89417 14.3013C8.03624 14.3603 8.15766 14.4603 8.24309 14.5886C8.32852 14.7169 8.37412 14.8677 8.37412 15.022C8.37009 15.2276 8.28689 15.4237 8.14195 15.5692C7.99701 15.7146 7.80158 15.7981 7.59665 15.8021Z" fill="#FF118E"/>
<path d="M14.1166 13.045C13.7273 13.045 13.3468 13.1608 13.0231 13.3779C12.6994 13.5949 12.4471 13.9033 12.2981 14.2642C12.1492 14.6251 12.1102 15.0222 12.1861 15.4053C12.2621 15.7885 12.4495 16.1404 12.7248 16.4166C13.0001 16.6928 13.3508 16.8809 13.7326 16.9571C14.1144 17.0333 14.5102 16.9942 14.8698 16.8447C15.2295 16.6952 15.5369 16.4421 15.7532 16.1173C15.9695 15.7925 16.0849 15.4107 16.0849 15.02C16.0813 14.4973 15.8728 13.9971 15.5044 13.6275C15.1361 13.2579 14.6375 13.0486 14.1166 13.045ZM14.1166 15.8021C13.9628 15.8021 13.8125 15.7564 13.6847 15.6707C13.5568 15.5849 13.4572 15.4631 13.3983 15.3206C13.3395 15.178 13.3241 15.0211 13.3541 14.8698C13.3841 14.7185 13.4581 14.5795 13.5668 14.4704C13.6756 14.3613 13.8141 14.287 13.9649 14.2569C14.1157 14.2268 14.2721 14.2422 14.4141 14.3013C14.5562 14.3603 14.6776 14.4603 14.763 14.5886C14.8485 14.7169 14.8941 14.8677 14.8941 15.022C14.89 15.2276 14.8068 15.4237 14.6619 15.5692C14.517 15.7146 14.3215 15.7981 14.1166 15.8021Z" fill="#FF118E"/>
</svg>
