<svg width="10" height="10" viewBox="0 0 10 10" fill="none" xmlns="http://www.w3.org/2000/svg">
<path d="M5.3 1.66667C5.3 1.50098 5.16569 1.36667 5 1.36667C4.83431 1.36667 4.7 1.50098 4.7 1.66667V5V5.1741L4.85116 5.26047L7.76782 6.92714C7.91168 7.00934 8.09494 6.95936 8.17714 6.81551C8.25934 6.67165 8.20936 6.4884 8.06551 6.40619L5.3 4.8259V1.66667ZM9.7 5C9.7 7.59574 7.59574 9.7 5 9.7C2.40426 9.7 0.3 7.59574 0.3 5C0.3 2.40426 2.40426 0.3 5 0.3C7.59574 0.3 9.7 2.40426 9.7 5Z" stroke="white" stroke-width="0.6" stroke-linecap="round"/>
</svg>
