<svg width="17" height="22" viewBox="0 0 17 22" fill="none" xmlns="http://www.w3.org/2000/svg">
<path d="M15.7604 2.56018H11.0442V1.33831C11.044 0.983591 10.9031 0.643458 10.6523 0.392553C10.4016 0.141648 10.0615 0.000468969 9.70682 0H7.29318C6.93846 0.000468969 6.59842 0.141648 6.34768 0.392553C6.09694 0.643458 5.95599 0.983591 5.95575 1.33831V2.56018H1.23958C0.910825 2.56018 0.595533 2.69078 0.363066 2.92325C0.130599 3.15571 0 3.47101 0 3.79977V5.2607C0.000150262 5.57457 0.119357 5.87669 0.333563 6.1061C0.547768 6.3355 0.841022 6.47511 1.15414 6.49674V19.6359C1.15473 20.2514 1.39936 20.8415 1.83439 21.2768C2.26942 21.7122 2.85935 21.9573 3.47482 21.9583H13.5243C14.1398 21.9573 14.7297 21.7122 15.1647 21.2768C15.5998 20.8415 15.8444 20.2514 15.845 19.6359V6.49807C16.1582 6.47665 16.4517 6.33714 16.6661 6.10771C16.8805 5.87828 16.9998 5.57604 17 5.26203V3.80109C17.0002 3.6382 16.9682 3.47686 16.906 3.32632C16.8438 3.17577 16.7525 3.03896 16.6374 2.92372C16.5223 2.80847 16.3856 2.71704 16.2351 2.65467C16.0846 2.59229 15.9233 2.56018 15.7604 2.56018ZM6.66409 1.33831C6.6642 1.17142 6.73049 1.01138 6.84842 0.89329C6.96634 0.775198 7.12629 0.708685 7.29318 0.708333H9.70682C9.87371 0.708685 10.0337 0.775198 10.1516 0.89329C10.2695 1.01138 10.3358 1.17142 10.3359 1.33831V2.56018H6.66409V1.33831ZM15.1375 19.6359C15.1372 20.0636 14.9672 20.4736 14.665 20.7762C14.3628 21.0788 13.9529 21.2492 13.5252 21.25H3.4757C3.04803 21.2492 2.63813 21.0788 2.33588 20.7762C2.03364 20.4736 1.86371 20.0636 1.86336 19.6359V6.50161H15.1375V19.6359ZM16.2917 5.26203C16.2917 5.40293 16.2357 5.53805 16.1361 5.63768C16.0364 5.73731 15.9013 5.79328 15.7604 5.79328H1.23958C1.09869 5.79328 0.963561 5.73731 0.863933 5.63768C0.764304 5.53805 0.708333 5.40293 0.708333 5.26203V3.80109C0.708333 3.6602 0.764304 3.52507 0.863933 3.42544C0.963561 3.32581 1.09869 3.26984 1.23958 3.26984H15.7604C15.9013 3.26984 16.0364 3.32581 16.1361 3.42544C16.2357 3.52507 16.2917 3.6602 16.2917 3.80109V5.26203Z" fill="#ff118e"/>
<path d="M5.72062 19.1081C5.81455 19.1081 5.90464 19.0708 5.97106 19.0044C6.03747 18.938 6.07479 18.8479 6.07479 18.7539V8.95548C6.07479 8.86155 6.03747 8.77147 5.97106 8.70505C5.90464 8.63863 5.81455 8.60132 5.72062 8.60132C5.62669 8.60132 5.53661 8.63863 5.47019 8.70505C5.40377 8.77147 5.36646 8.86155 5.36646 8.95548V18.7539C5.36646 18.8479 5.40377 18.938 5.47019 19.0044C5.53661 19.0708 5.62669 19.1081 5.72062 19.1081Z" fill="#ff118e"/>
<path d="M11.1288 19.1081C11.2228 19.1081 11.3128 19.0708 11.3793 19.0044C11.4457 18.938 11.483 18.8479 11.483 18.7539V8.95548C11.483 8.86155 11.4457 8.77147 11.3793 8.70505C11.3128 8.63863 11.2228 8.60132 11.1288 8.60132C11.0349 8.60132 10.9448 8.63863 10.8784 8.70505C10.812 8.77147 10.7747 8.86155 10.7747 8.95548V18.7539C10.7747 18.8479 10.812 18.938 10.8784 19.0044C10.9448 19.0708 11.0349 19.1081 11.1288 19.1081Z" fill="#ff118e"/>
</svg>
