<svg id="Layer_1" data-name="Layer 1" xmlns="http://www.w3.org/2000/svg" xmlns:xlink="http://www.w3.org/1999/xlink" viewBox="0 0 42.44 40.64"><defs><style>.cls-1{fill:#4d4d4d;}.cls-2{fill:#f0f0f0;}.cls-3{fill:#cacaca;}.cls-4{fill:#979797;}.cls-5{fill:#e4e4e4;}.cls-6{fill:#ffd2aa;}.cls-7{fill:#ee9a64;}.cls-8{fill:url(#linear-gradient);}.cls-9{fill:#b1b1b1;}.cls-10{fill:#000b1a;}.cls-11{fill:#021227;}.cls-12{fill:url(#radial-gradient);}.cls-13{fill:#ffc19a;}.cls-14{fill:#ffffb5;}.cls-15{fill:#f9ae3a;}.cls-16{opacity:0.5;}.cls-17{fill:url(#linear-gradient-2);}.cls-18{fill:#ec121d;}.cls-19{fill:#333;}.cls-20{fill:#fff;}.cls-21{fill:url(#linear-gradient-3);}.cls-22{fill:#f5b733;}.cls-23{fill:#055ada;}</style><linearGradient id="linear-gradient" x1="4.3" y1="24.28" x2="39.3" y2="2.28" gradientTransform="matrix(1, 0, 0, -1, 0, 41.89)" gradientUnits="userSpaceOnUse"><stop offset="0" stop-color="#d3634e"/><stop offset="1" stop-color="#aa4e61"/></linearGradient><radialGradient id="radial-gradient" cx="-275.28" cy="440.55" r="1" gradientTransform="matrix(382.9, 0, 0, -297.81, 107185.4, 133314.68)" gradientUnits="userSpaceOnUse"><stop offset="0" stop-color="#ffcf84"/><stop offset="0.98" stop-color="#ffb88b"/></radialGradient><linearGradient id="linear-gradient-2" x1="1.33" y1="36.38" x2="14.59" y2="36.38" gradientTransform="matrix(1, 0, 0, -1, 0, 41.89)" gradientUnits="userSpaceOnUse"><stop offset="0" stop-color="#d3b8d6"/><stop offset="1" stop-color="#fff"/></linearGradient><linearGradient id="linear-gradient-3" x1="24.34" y1="37.15" x2="35.72" y2="34.32" xlink:href="#linear-gradient"/></defs><path d="M42.44,35.35a5.31,5.31,0,1,1-5.31-5.3A5.31,5.31,0,0,1,42.44,35.35Z" transform="translate(0 -0.02)"/><path class="cls-1" d="M41.11,35.35a4,4,0,1,1-4-4A4,4,0,0,1,41.11,35.35Z" transform="translate(0 -0.02)"/><path class="cls-2" d="M39.79,35.35a2.66,2.66,0,1,1-2.66-2.65A2.65,2.65,0,0,1,39.79,35.35Z" transform="translate(0 -0.02)"/><path d="M13.91,35.35a5.31,5.31,0,1,1-5.3-5.3A5.3,5.3,0,0,1,13.91,35.35Z" transform="translate(0 -0.02)"/><path class="cls-1" d="M12.59,35.35a4,4,0,1,1-4-4A4,4,0,0,1,12.59,35.35Z" transform="translate(0 -0.02)"/><path class="cls-3" d="M11.26,35.35A2.65,2.65,0,1,1,8.61,32.7,2.65,2.65,0,0,1,11.26,35.35Z" transform="translate(0 -0.02)"/><path class="cls-4" d="M9.93,35.35A1.33,1.33,0,1,1,8.61,34,1.33,1.33,0,0,1,9.93,35.35Z" transform="translate(0 -0.02)"/><path class="cls-3" d="M39.79,35.35a2.66,2.66,0,1,1-2.66-2.65A2.65,2.65,0,0,1,39.79,35.35Z" transform="translate(0 -0.02)"/><path class="cls-4" d="M38.46,35.35A1.33,1.33,0,1,1,37.13,34,1.33,1.33,0,0,1,38.46,35.35Z" transform="translate(0 -0.02)"/><path class="cls-5" d="M37.59,34.79a.57.57,0,0,1-.8.8l-5.88-5.87a.57.57,0,0,1,.8-.8Z" transform="translate(0 -0.02)"/><path class="cls-6" d="M29.58,16.44l.58-.09s.36-1.56,1.22-.55a1.43,1.43,0,0,1-.18,2.27c-.5.14-.59-.12-.59-.12s.54-1.33,0-1.46-.59.82-.59.82l-.83.06Z" transform="translate(0 -0.02)"/><path class="cls-7" d="M24.07,11.49c.25,0,.57-.57.92,5.13l4.19.45s-1.08,1.43-.87,2.37c0,0-4.35-1-5-1.77S21.66,11.25,24.07,11.49Z" transform="translate(0 -0.02)"/><path class="cls-8" d="M29.08,17.27s1.05-1.88,1.92-1.81,1.08,1.33,1.08,1.33a1.6,1.6,0,0,1,.87-.42,4.93,4.93,0,0,0,0,3.15s-.4.11-.79-.44c0,0-.82,1.1.43,3.1s1.83,5.9,1.83,5.9,5.61-2.5,8,2.94c0,0-4.14-3-7.73,0s-2,3-4.3,3.74A5.18,5.18,0,0,1,31,33.48a5,5,0,0,1-3.67,1.87c-2.26,0-10.78-.15-10.78-.15s-.94-.11-1-.77L1.27,34.24s-3.52,1.41,1.15-4.61c0,0,1.26-.74.22-2.21,0,0,.43-.92,2.66-.22,0,0,.79-2.33-1.15-2.77V24h9.2l0,.48S19,23.58,21.47,24c0,0-4.56,4.06-.78,8.84,0,0,1.22,1.34,8.73,0,0,0,1.13-.7.41-5.68s1.39-4.72,1.39-4.72Z" transform="translate(0 -0.02)"/><path d="M21.85,22.51c.83.09,1.31,2.38-.9,2.22s-6.39,0-6.39,0S11.9,22,14.19,20,13.29,21.62,21.85,22.51Z" transform="translate(0 -0.02)"/><path class="cls-6" d="M24.62,32.7l-.75-.31.58-1,.75.31Z" transform="translate(0 -0.02)"/><path class="cls-9" d="M23.37,32.56a1,1,0,0,0,.79,0,2.26,2.26,0,0,1,1.45-.08.88.88,0,0,1,.49.78s-1.87.64-2.92,0C23.18,33.27,23.16,32.62,23.37,32.56Z" transform="translate(0 -0.02)"/><path class="cls-6" d="M21.93,32.7l-.71-.29.61-1,.72.29Z" transform="translate(0 -0.02)"/><path class="cls-10" d="M16.81,18.75s-1.76.56-.35,1.44,7.5,1.35,9.78.83c0,0-1.57,2.49-1.56,4.24a30.31,30.31,0,0,1-.89,5.31,3.47,3.47,0,0,1,1.17.8s3.66-9.24,2.74-11-6.53-2.3-6.53-2.3C20.67,18.49,18.51,18.64,16.81,18.75Z" transform="translate(0 -0.02)"/><path class="cls-11" d="M16.44,18.11a1.71,1.71,0,0,0,0,2.41c1.2,1.09,6.32,1.5,8.55,1.34a10.88,10.88,0,0,0-2.15,4,23.21,23.21,0,0,1-1.52,4.53,3.55,3.55,0,0,1,1,1s4.77-8,4.17-9.89-5.81-3.33-5.81-3.33C20.13,18.46,18.07,18.27,16.44,18.11Z" transform="translate(0 -0.02)"/><path class="cls-6" d="M17,16.82A6.53,6.53,0,0,0,15.91,18s3.42.32,4,0C19.89,18,18.22,16.56,17,16.82Z" transform="translate(0 -0.02)"/><path class="cls-6" d="M25.2,10.44l1.21-1.61,1.44.8-1.48,1.85Z" transform="translate(0 -0.02)"/><path class="cls-12" d="M23.9,8.84a4.73,4.73,0,0,0-3.15,1,17.54,17.54,0,0,0-3.19,2.63,10.7,10.7,0,0,0-3,4.91,2.42,2.42,0,0,1,1.79.45c1.16.66,4.43,0,4.43,0A16.68,16.68,0,0,1,23.73,15c1.09-.57,2.57-2.33,2.65-3.29S27.27,10.27,23.9,8.84Z" transform="translate(0 -0.02)"/><path class="cls-6" d="M26.7,18h.85a1.19,1.19,0,0,1,1.8-.2c1.17.79.35,1.47-.39,1.5s-.85-.16-.85-.16.86-.82.06-1-.9.47-.9.47l-1.22-.07Z" transform="translate(0 -0.02)"/><path class="cls-13" d="M23.87,11.56c.26.08.78-.37-.4,4.67l4.38,1.35s-1.55,1-1.58,1.86c0,0-4.4-1.86-4.88-2.68S21.35,10.8,23.87,11.56Z" transform="translate(0 -0.02)"/><path class="cls-9" d="M20.65,32.24a1,1,0,0,0,.79.11,2.23,2.23,0,0,1,1.45.08.89.89,0,0,1,.39.84s-1.93.42-2.89-.34C20.39,32.93,20.44,32.28,20.65,32.24Z" transform="translate(0 -0.02)"/><path d="M29.18,18.77c0,.37-.6.67-1.33.67s-1.33-.3-1.33-.67.6-.66,1.33-.66S29.18,18.41,29.18,18.77Z" transform="translate(0 -0.02)"/><path class="cls-14" d="M33.15,17.45c0,1.1-.29,2-.66,2s-.66-.89-.66-2,.3-2,.66-2S33.15,16.35,33.15,17.45Z" transform="translate(0 -0.02)"/><path class="cls-15" d="M2.65,28.06A.66.66,0,1,1,2,27.39.66.66,0,0,1,2.65,28.06Z" transform="translate(0 -0.02)"/><g class="cls-16"><path class="cls-17" d="M14.59,5.51,14,5.64c-.36.06-.88.19-1.5.25l-1,.11c-.35,0-.73.09-1.12.09L8,6.18,5.52,6.09A10,10,0,0,1,4.4,6l-1-.11c-.62-.06-1.14-.19-1.5-.25l-.57-.13.57-.13c.36,0,.88-.18,1.5-.24L4.4,5a10,10,0,0,1,1.12-.09L8,4.85l2.43.09A9.77,9.77,0,0,1,11.51,5l1,.11c.62.06,1.14.19,1.5.24Z" transform="translate(0 -0.02)"/></g><path class="cls-5" d="M34.43,5.45s0,4-1.61,4.64c0,0-7.45-2.46-5.23-7.71S33.37,3.81,34.43,5.45Z" transform="translate(0 -0.02)"/><path class="cls-18" d="M24.86,9l5.7,3.39s2.61-1.63,2.55-2.39c0,0-4.19-1.36-4.94-4.66-.8-3.51,6.43.52,6.43.52s1-6.17-7-5.79C22,.05,24.86,9,24.86,9Z" transform="translate(0 -0.02)"/><path class="cls-19" d="M24.7,8.39l-.23.53,6.18,3.67.17-.25Z" transform="translate(0 -0.02)"/><path class="cls-5" d="M34.43,5.45s0,4-1.61,4.64c0,0-7.45-2.46-5.23-7.71S33.37,3.81,34.43,5.45Z" transform="translate(0 -0.02)"/><path class="cls-20" d="M30.09,2.28l-4,2.62,0,1.27L31.28,2.7Z" transform="translate(0 -0.02)"/><path class="cls-20" d="M31,2.81,26.48,7l1.6,2,4.1-5.43Z" transform="translate(0 -0.02)"/><path class="cls-21" d="M24.86,9l5.7,3.39s2.61-1.63,2.55-2.39c0,0-4.19-1.36-4.94-4.66-.8-3.51,6.43.52,6.43.52s1-6.17-7-5.79C22,.05,24.86,9,24.86,9Z" transform="translate(0 -0.02)"/><path class="cls-19" d="M24.7,8.39l-.23.53,6.18,3.67.17-.25Z" transform="translate(0 -0.02)"/><path class="cls-22" d="M13,16.23l-8.5.29-.24-.6,8.5-.3Z" transform="translate(0 -0.02)"/><path class="cls-23" d="M13.26,20.1A3.32,3.32,0,0,1,10,23.42H6A3.32,3.32,0,0,1,2.65,20.1h0A3.32,3.32,0,0,1,6,16.79h4a3.31,3.31,0,0,1,3.31,3.31Z" transform="translate(0 -0.02)"/><path class="cls-23" d="M13.26,23.42H2.65v-3l.65-3L7,16.79h6.27Z" transform="translate(0 -0.02)"/></svg>