<svg id="Layer_1" data-name="Layer 1" xmlns="http://www.w3.org/2000/svg" xmlns:xlink="http://www.w3.org/1999/xlink" viewBox="0 0 35.01 40"><defs><style>.cls-1{fill:url(#linear-gradient);}.cls-2{fill:#ededed;}</style><linearGradient id="linear-gradient" x1="17.5" y1="-0.11" x2="17.5" y2="39.89" gradientTransform="matrix(1, 0, 0, -1, 0, 39.89)" gradientUnits="userSpaceOnUse"><stop offset="0.02" stop-color="#d4634d"/><stop offset="1" stop-color="#a94d61"/></linearGradient></defs><path class="cls-1" d="M35,17.44a17.43,17.43,0,0,1-9.35,15.44C23.22,34.17,17.3,40,17.3,40s-5.57-5.84-8-7.15A17.47,17.47,0,1,1,35,17.44Z" transform="translate(0 0)"/><path class="cls-2" d="M21.6,25a6.57,6.57,0,0,1-3,1.13L18.67,29a8.19,8.19,0,0,0,2.63-.69,16.23,16.23,0,0,1,.26-3.17A.74.74,0,0,0,21.6,25Z" transform="translate(0 0)"/><path class="cls-2" d="M29.6,17.06a12.19,12.19,0,0,0-1.67-6.15,12,12,0,0,0-4.56-4.43A12,12,0,0,0,6.9,11.6a12.16,12.16,0,0,0,.79,12.27A12,12,0,0,0,12.52,28l.08-3.1a9.25,9.25,0,1,1,11-.71v3.35A11.94,11.94,0,0,0,28,23.11,12.13,12.13,0,0,0,29.6,17.06Z" transform="translate(0 0)"/><path class="cls-2" d="M13.6,25l.1,3.32a13,13,0,0,0,3.8.68l.1-3a10.12,10.12,0,0,1-4-1Z" transform="translate(0 0)"/><path class="cls-2" d="M25.6,17a8,8,0,0,0-1-3.93A8,8,0,0,0,17.85,9a7.88,7.88,0,0,0-4,.9,8.07,8.07,0,0,0-3,2.73A8,8,0,0,0,13,23.57L13.09,21c-1-.42-1.06-1.35-1.07-2.34V15c0-.16.07-.26.17-.26s.17.1.17.26v3.59h.53V15c0-.16.08-.26.19-.26s.15.1.15.26v3.59h.6V15c0-.16.08-.26.18-.26s.16.1.16.26v3.59h.52V15c0-.16.1-.26.19-.26s.19.11.19.27v3.64c0,1-.15,1.93-1.21,2.31L14,24.14a8,8,0,0,0,3.25.85l.13-4.08a2.6,2.6,0,0,1-1.74-2.6c0-1.9.94-3.93,2.1-3.93s2.09,2,2.09,3.93a2.55,2.55,0,0,1-1.74,2.6L18.19,25a7.79,7.79,0,0,0,3.38-1.06c.48-1.52.11-.79-.11-1-1.62-1.25-1-4.4-1-4.4a10.1,10.1,0,0,1,1.14-3.09,1.56,1.56,0,0,1,.75-.73c.29,0,.49.23.49.72V23a7.94,7.94,0,0,0,2.78-6Z" transform="translate(0 0)"/><path class="cls-2" d="M20.68,19.25A3.74,3.74,0,0,0,21.2,22a9.4,9.4,0,0,1-.24-2.7A22.81,22.81,0,0,1,21.6,17a8.74,8.74,0,0,0-.92,2.26Z" transform="translate(0 0)"/><path class="cls-2" d="M16.24,18a2.54,2.54,0,0,0,1,2.05c.12,0-.71-1.05-.68-2.07a14.18,14.18,0,0,1,.26-1.93A6.64,6.64,0,0,0,16.24,18Z" transform="translate(0 0)"/></svg>