<svg xmlns="http://www.w3.org/2000/svg" width="14.607" height="9.296" viewBox="0 0 14.607 9.296">
  <g id="noun_Email_1563155" transform="translate(0 0)">
    <g id="Group_1939" data-name="Group 1939" transform="translate(0 0)">
      <g id="Path_1114" data-name="Path 1114" transform="translate(-6 -974.362)" fill="#400082">
        <path d="M 19.44528007507324 983.4576416015625 L 7.16193962097168 983.4576416015625 C 6.640510082244873 983.4576416015625 6.199999809265137 983.01708984375 6.199999809265137 982.49560546875 L 6.199999809265137 975.5240478515625 C 6.199999809265137 975.0025634765625 6.640510082244873 974.56201171875 7.16193962097168 974.56201171875 L 19.44528007507324 974.56201171875 C 19.96670913696289 974.56201171875 20.40721893310547 975.0025634765625 20.40721893310547 975.5240478515625 L 20.40721893310547 982.49560546875 C 20.40721893310547 983.01708984375 19.96670913696289 983.4576416015625 19.44528007507324 983.4576416015625 Z M 11.31159973144531 979.5612182617188 L 11.17959976196289 979.669677734375 L 7.724889755249023 982.5071411132812 L 7.293210029602051 982.8616943359375 L 7.851830005645752 982.8616943359375 L 18.75539016723633 982.8616943359375 L 19.31401062011719 982.8616943359375 L 18.8823299407959 982.5071411132812 L 15.4276294708252 979.669677734375 L 15.29562950134277 979.5612182617188 L 15.16790008544922 979.6746826171875 L 14.01114940643311 980.7017822265625 C 13.81377983093262 980.87744140625 13.5625696182251 980.97412109375 13.30360984802246 980.97412109375 C 13.04465961456299 980.97412109375 12.79344940185547 980.87744140625 12.59626007080078 980.701904296875 L 11.43933010101318 979.6746826171875 L 11.31159973144531 979.5612182617188 Z M 19.811279296875 975.5402221679688 L 19.47838020324707 975.8362426757812 L 15.91993999481201 979.0004272460938 L 15.74500942230225 979.156005859375 L 15.92595958709717 979.3045043945312 L 19.48439979553223 982.2249145507812 L 19.811279296875 982.4931640625 L 19.811279296875 982.0703125 L 19.811279296875 975.9857177734375 L 19.811279296875 975.5402221679688 Z M 6.795949935913086 975.5402221679688 L 6.795949935913086 975.9857177734375 L 6.795949935913086 982.0703125 L 6.795949935913086 982.4931640625 L 7.122829914093018 982.2249145507812 L 10.68126010894775 979.3045043945312 L 10.86221027374268 979.156005859375 L 10.68727970123291 979.0004272460938 L 7.128849983215332 975.8362426757812 L 6.795949935913086 975.5402221679688 Z M 7.264489650726318 975.1580810546875 L 7.656529903411865 975.5074462890625 L 12.98900032043457 980.2588500976562 C 13.08665943145752 980.3458251953125 13.22803020477295 980.3587646484375 13.30360984802246 980.3587646484375 C 13.37918949127197 980.3587646484375 13.5205602645874 980.3458251953125 13.61812973022461 980.2589721679688 L 18.9506893157959 975.5074462890625 L 19.34272956848145 975.1580810546875 L 18.81764030456543 975.1580810546875 L 7.78957986831665 975.1580810546875 L 7.264489650726318 975.1580810546875 Z" stroke="none"/>
        <path d="M 7.16193962097168 974.7620239257812 C 6.748929977416992 974.7620239257812 6.399999618530273 975.1109619140625 6.399999618530273 975.5240478515625 L 6.399999618530273 982.49560546875 C 6.399999618530273 982.90869140625 6.748929977416992 983.2576293945312 7.16193962097168 983.2576293945312 L 19.44528007507324 983.2576293945312 C 19.85828971862793 983.2576293945312 20.20722007751465 982.90869140625 20.20722007751465 982.49560546875 L 20.20722007751465 975.5240478515625 C 20.20722007751465 975.1109619140625 19.85828971862793 974.7620239257812 19.44528007507324 974.7620239257812 L 7.16193962097168 974.7620239257812 M 13.30360984802246 980.5587768554688 C 13.19960975646973 980.5587768554688 13.00319004058838 980.5392456054688 12.85594940185547 980.408203125 L 6.739398956298828 974.9580688476562 L 19.8678092956543 974.9580688476562 L 13.75107955932617 980.4083862304688 C 13.60402965545654 980.5392456054688 13.4076099395752 980.5587768554688 13.30360984802246 980.5587768554688 M 6.595939636230469 982.9160766601562 L 6.595939636230469 975.0947875976562 L 11.17004013061523 979.162109375 L 6.595939636230469 982.9160766601562 M 20.01127052307129 982.9160766601562 L 15.43717956542969 979.162109375 L 20.01127052307129 975.0947875976562 L 20.01127052307129 982.9160766601562 M 13.30360984802246 980.7741088867188 C 13.5134801864624 980.7741088867188 13.7174596786499 980.6954345703125 13.8783597946167 980.5521850585938 L 15.29057025909424 979.2982788085938 L 19.87261962890625 983.0617065429688 L 6.734590530395508 983.0617065429688 L 11.31665992736816 979.2982788085938 L 12.72923946380615 980.5525512695312 C 12.88976001739502 980.6954345703125 13.09373950958252 980.7741088867188 13.30360984802246 980.7741088867188 M 7.16193962097168 974.3619995117188 L 19.44528007507324 974.3619995117188 C 20.08036041259766 974.3619995117188 20.60721969604492 974.8888549804688 20.60721969604492 975.5240478515625 L 20.60721969604492 982.49560546875 C 20.60721969604492 983.1307373046875 20.08036041259766 983.6576538085938 19.44528007507324 983.6576538085938 L 7.16193962097168 983.6576538085938 C 6.526859283447266 983.6576538085938 6 983.1307373046875 6 982.49560546875 L 6 975.5240478515625 C 6 974.8888549804688 6.526859283447266 974.3619995117188 7.16193962097168 974.3619995117188 Z M 7.789579391479492 975.3580932617188 L 13.12205028533936 980.1095581054688 C 13.19576930999756 980.1751098632812 13.41145038604736 980.1751098632812 13.48516941070557 980.1095581054688 L 18.81763076782227 975.3580932617188 L 7.789579391479492 975.3580932617188 Z M 6.995939254760742 982.0703125 L 10.55438041687012 979.14990234375 L 6.995939254760742 975.9857177734375 L 6.995939254760742 982.0703125 Z M 19.61127090454102 982.0703125 L 19.61127090454102 975.9857177734375 L 16.05284118652344 979.14990234375 L 19.61127090454102 982.0703125 Z M 13.30361366271973 981.1741333007812 C 13.00432777404785 981.1741333007812 12.70503997802734 981.0665283203125 12.46327972412109 980.851318359375 L 11.30653953552246 979.82421875 L 7.851829528808594 982.6616821289062 L 18.75539016723633 982.6616821289062 L 15.30068969726562 979.82421875 L 14.14393997192383 980.851318359375 C 13.90218448638916 981.0665283203125 13.6028995513916 981.1741333007812 13.30361366271973 981.1741333007812 Z" stroke="none" fill="#400082"/>
      </g>
    </g>
  </g>
</svg>
