<svg data-name="Group 3347" width="50" height="50" viewBox="0 0 50 50"
 xmlns="http://www.w3.org/2000/svg"><circle data-name="Ellipse 103" cx="25" cy="25" r="25" fill="#a84ec3"></circle><g data-name="Group 2961"><path data-name="Subtraction 1" d="M35.826 35.328h-7.084a1.458 1.458 0 01-.856-.275l.274-.227-.03-.407a.806.806 0 00.612.279h7.084a.8.8 0 00.748-.5l.057-.307v-.011l.713-3.858h-6.043l.44-.487.043-.143h6.332l.695-5.187H25.758l.193 1.44-.648.009-.235-1.727a.312.312 0 01.081-.245.327.327 0 01.242-.11h.516l-.461-3.013h-.556a.319.319 0 01-.322-.315v-2.5a.319.319 0 01.322-.315h1.5l.925-2.247a.322.322 0 01.3-.2h9.34a.325.325 0 01.3.2l.913 2.246h1.51a.319.319 0 01.322.315v2.5a.319.319 0 01-.322.315h-.556l-.46 3.012h.516a.327.327 0 01.242.107.309.309 0 01.077.248l-.778 5.817a.318.318 0 01-.32.274h-.4l-.731 3.955a1.364 1.364 0 01-.076.4v.018a1.444 1.444 0 01-1.366.939zm-9.728-14.769l.46 3.013h11.453l.457-3.013zm-.886-2.5v1.87h14.144v-1.871zm2.621-2.446h0l-.744 1.815h10.39l-.744-1.815h-8.9zm4.1 13.281h0l.205-.686a2.16 2.16 0 001-.62 2.1 2.1 0 00.575-1.159 1.009 1.009 0 00-.265-.881.926.926 0 00-.643-.232 1.822 1.822 0 00-1.079.4l-.218-.142h-.575l.027-.03a2.622 2.622 0 011.844-.877 1.552 1.552 0 011.085.407 1.636 1.636 0 01.464 1.426 2.746 2.746 0 01-.746 1.525 2.68 2.68 0 01-1.672.866zm.591-1.974h0l.17-.569-.255-.169a1.826 1.826 0 00.149-.12.965.965 0 00.176-.359.321.321 0 01.311-.242.3.3 0 01.08.01.321.321 0 01.234.39 1.583 1.583 0 01-.346.658 4.634 4.634 0 01-.475.371l-.012.009-.027.02z" fill="#fff" stroke="#fff" stroke-width="0.3"></path><g data-name="Group 2947"><g data-name="Group 2813"><path data-name="Path 48875" d="M28.121 35.301H13.99v-2.826h14.6V35.3zm-13.207-.925H27.66V33.4H14.914z" fill="#fff"></path></g><g data-name="Group 2814"><path data-name="Path 48876" d="M28.55 33.365l-.351-.855.175.428-.177-.427a6.849 6.849 0 003.908-6.384H10.85a6.85 6.85 0 003.907 6.384l-.352.855a7.5 7.5 0 01-2.344-1.7 7.958 7.958 0 01-2.126-6.01v-.452h23.006l.072.443a7.96 7.96 0 01-2.125 6.02 7.5 7.5 0 01-2.338 1.698z" fill="#fff"></path></g><g data-name="Group 2815"><path data-name="Rectangle 2027" fill="#fff" d="M10.502 27.03h12.876v.925H10.502z"></path></g><g data-name="Group 2824"><path data-name="Path 48883" d="M19.649 25.787l.891-.248c-.053-.191-1.364-4.694-7.495-6.067l-.2.9c5.566 1.25 6.756 5.246 6.804 5.415z" fill="#fff"></path></g><g data-name="Group 2825"><path data-name="Path 48884" d="M16.887 26.101l.3-.875c-1.312-.445-1.518-1.033-1.433-1.316l.28-.583-.66-.045c-1.6-.177-1.709-.913-1.716-1l.039-.512-.521.049a1.7 1.7 0 01-1.345-.383 1.2 1.2 0 01-.284-.852l.011-.119-.048-.114a1.3 1.3 0 01-.095-1.124 1.252 1.252 0 01.815-.5l.174-.028.114-.137a1.483 1.483 0 011.074-.641 1.956 1.956 0 011.245.581l.18.194.258-.056c1.854-.4 2.3.783 2.318.834l.113.317.336-.01c1.955-.054 2.13 1.179 2.132 1.192l.03.238.211.113a2.211 2.211 0 011.213 1.819c.032.035-.265 2.131-.266 2.137l.905.19s.247-1.846.281-2.089a2.886 2.886 0 00-1.507-2.763 2.662 2.662 0 00-2.722-1.76 2.753 2.753 0 00-3-1.167 2.705 2.705 0 00-1.757-.693 2.291 2.291 0 00-1.654.855 1.869 1.869 0 00-1.289 2.773 2.107 2.107 0 00.527 1.439 2.352 2.352 0 001.679.682 2.38 2.38 0 001.995 1.391 1.56 1.56 0 00.141.538 3.046 3.046 0 001.926 1.425z" fill="#fff"></path></g><g data-name="Group 2826"><path data-name="Path 48885" d="M25.012 25.754l-.906-.183.453.092-.454-.089a1.379 1.379 0 00-.852-1.612l-.326-.111.012-.344a1.4 1.4 0 00-.292-.932.527.527 0 00-.486-.084l-.163-.91a1.446 1.446 0 011.257.3 2.035 2.035 0 01.6 1.332 2.313 2.313 0 011.157 2.541z" fill="#fff"></path></g></g></g></svg>