<svg width="31" height="22" viewBox="0 0 31 22" fill="none" xmlns="http://www.w3.org/2000/svg">
<path d="M25.9117 21.346H18.8277C18.5205 21.3468 18.2209 21.2506 17.9717 21.071L18.2457 20.844L18.2157 20.437C18.2916 20.5248 18.3856 20.5952 18.4912 20.6434C18.5968 20.6915 18.7116 20.7163 18.8277 20.716H25.9117C26.0721 20.7173 26.2292 20.6703 26.3626 20.5811C26.496 20.492 26.5995 20.3647 26.6597 20.216L26.7167 19.909V19.898L27.4297 16.04H21.3867L21.8267 15.553L21.8697 15.41H28.2017L28.8967 10.223H15.8437L16.0367 11.663L15.3887 11.672L15.1537 9.94501C15.1489 9.90075 15.1537 9.856 15.1677 9.81374C15.1816 9.77148 15.2045 9.7327 15.2347 9.70001C15.2651 9.66575 15.3023 9.63826 15.344 9.61931C15.3857 9.60036 15.4309 9.59037 15.4767 9.59001H15.9927L15.5317 6.57701H14.9757C14.8913 6.57781 14.8099 6.5451 14.7496 6.48605C14.6892 6.42701 14.6547 6.34644 14.6537 6.26201V3.76201C14.6547 3.67758 14.6892 3.59701 14.7496 3.53796C14.8099 3.47891 14.8913 3.44621 14.9757 3.44701H16.4757L17.4007 1.20001C17.425 1.14054 17.4666 1.08972 17.5201 1.05408C17.5735 1.01844 17.6364 0.999606 17.7007 1.00001H27.0407C27.1048 1.00001 27.1676 1.019 27.221 1.05459C27.2744 1.09018 27.316 1.14078 27.3407 1.20001L28.2537 3.44601H29.7637C29.8481 3.44521 29.9294 3.47791 29.9898 3.53696C30.0501 3.59601 30.0846 3.67658 30.0857 3.76101V6.26101C30.0846 6.34544 30.0501 6.42601 29.9898 6.48505C29.9294 6.5441 29.8481 6.57681 29.7637 6.57601H29.2077L28.7477 9.58801H29.2637C29.3093 9.588 29.3543 9.59751 29.396 9.61594C29.4377 9.63436 29.475 9.66129 29.5057 9.69501C29.5357 9.72828 29.5582 9.7677 29.5715 9.81053C29.5848 9.85335 29.5886 9.89856 29.5827 9.94301L28.8047 15.76C28.794 15.8369 28.7555 15.9071 28.6966 15.9576C28.6376 16.0081 28.5623 16.0352 28.4847 16.034H28.0847L27.3537 19.989C27.3485 20.1254 27.3229 20.2602 27.2777 20.389V20.398V20.407C27.174 20.6849 26.9872 20.924 26.7428 21.092C26.4984 21.26 26.2082 21.3487 25.9117 21.346ZM16.1837 6.57701L16.6437 9.59001H28.0967L28.5537 6.57701H16.1837ZM15.2977 4.07701V5.94701H29.4417V4.07601L15.2977 4.07701ZM17.9187 1.63101L17.1747 3.44601H27.5647L26.8207 1.63101H17.9207H17.9187ZM22.0187 14.912L22.2237 14.226C22.608 14.1159 22.9541 13.9012 23.2237 13.606C23.5326 13.2898 23.7338 12.8842 23.7987 12.447C23.8275 12.2897 23.8185 12.1277 23.7724 11.9745C23.7264 11.8214 23.6445 11.6813 23.5337 11.566C23.3568 11.4095 23.1268 11.3265 22.8907 11.334C22.4973 11.3473 22.1187 11.4876 21.8117 11.734L21.5937 11.592H21.0187L21.0457 11.562C21.2788 11.2999 21.5621 11.0873 21.8788 10.9366C22.1955 10.786 22.5393 10.7004 22.8897 10.685C23.2903 10.6755 23.6791 10.8213 23.9747 11.092C24.1601 11.2755 24.299 11.5007 24.3797 11.7487C24.4604 11.9968 24.4806 12.2605 24.4387 12.518C24.3573 13.0924 24.0962 13.6262 23.6927 14.043C23.2584 14.5244 22.6644 14.8321 22.0207 14.909L22.0187 14.912ZM22.6097 12.938L22.7797 12.369L22.5247 12.2C22.5764 12.1626 22.6262 12.1226 22.6737 12.08C22.7568 11.9739 22.8167 11.8516 22.8497 11.721C22.8672 11.6518 22.9074 11.5905 22.9637 11.5467C23.02 11.5028 23.0893 11.479 23.1607 11.479C23.1877 11.4787 23.2146 11.4821 23.2407 11.489C23.2817 11.4992 23.3203 11.5173 23.3543 11.5425C23.3883 11.5676 23.4169 11.5992 23.4387 11.6354C23.4604 11.6716 23.4748 11.7118 23.481 11.7536C23.4871 11.7954 23.485 11.838 23.4747 11.879C23.4132 12.1227 23.2946 12.3482 23.1287 12.537C22.9786 12.6708 22.8199 12.7948 22.6537 12.908L22.6417 12.917L22.6147 12.937L22.6097 12.938Z" fill="url(#paint0_linear_2_38)" stroke="url(#paint1_linear_2_38)" stroke-width="0.3"/>
<mask id="path-2-inside-1_2_38" fill="white">
<path d="M18.2067 21.319H4.07571V18.493H18.6757V21.318L18.2067 21.319ZM4.99973 20.394H17.7457V19.418H4.99973V20.394Z"/>
</mask>
<path d="M18.2067 21.319H4.07571V18.493H18.6757V21.318L18.2067 21.319ZM4.99973 20.394H17.7457V19.418H4.99973V20.394Z" fill="url(#paint2_linear_2_38)"/>
<path d="M18.2067 21.319V22.319L18.2088 22.319L18.2067 21.319ZM4.07571 21.319H3.07571V22.319H4.07571V21.319ZM4.07571 18.493V17.493H3.07571V18.493H4.07571ZM18.6757 18.493H19.6757V17.493H18.6757V18.493ZM18.6757 21.318L18.6778 22.318L19.6757 22.3159V21.318H18.6757ZM4.99973 20.394H3.99973V21.394H4.99973V20.394ZM17.7457 20.394V21.394H18.7457V20.394H17.7457ZM17.7457 19.418H18.7457V18.418H17.7457V19.418ZM4.99973 19.418V18.418H3.99973V19.418H4.99973ZM18.2067 20.319H4.07571V22.319H18.2067V20.319ZM5.07571 21.319V18.493H3.07571V21.319H5.07571ZM4.07571 19.493H18.6757V17.493H4.07571V19.493ZM17.6757 18.493V21.318H19.6757V18.493H17.6757ZM18.6736 20.318L18.2046 20.319L18.2088 22.319L18.6778 22.318L18.6736 20.318ZM4.99973 21.394H17.7457V19.394H4.99973V21.394ZM18.7457 20.394V19.418H16.7457V20.394H18.7457ZM17.7457 18.418H4.99973V20.418H17.7457V18.418ZM3.99973 19.418V20.394H5.99973V19.418H3.99973Z" fill="url(#paint3_linear_2_38)" mask="url(#path-2-inside-1_2_38)"/>
<mask id="path-4-inside-2_2_38" fill="white">
<path d="M18.6357 19.3831L18.2847 18.528L18.4597 18.9561L18.2827 18.5291C19.4833 17.9589 20.492 17.0517 21.186 15.9182C21.8799 14.7846 22.2289 13.4736 22.1907 12.145H0.935654C0.897418 13.4734 1.24645 14.7843 1.94017 15.9178C2.63389 17.0514 3.64238 17.9586 4.8427 18.5291L4.49071 19.384C3.60637 18.975 2.81014 18.3976 2.14665 17.684C1.39717 16.8829 0.821412 15.9355 0.455552 14.9012C0.0896915 13.867 -0.0583494 12.7682 0.0206764 11.674V11.222H23.0267L23.0987 11.665C23.1791 12.7608 23.0318 13.8613 22.6661 14.8974C22.3004 15.9335 21.7242 16.8826 20.9737 17.6851C20.3118 18.3973 19.5177 18.974 18.6357 19.3831Z"/>
</mask>
<path d="M18.6357 19.3831L18.2847 18.528L18.4597 18.9561L18.2827 18.5291C19.4833 17.9589 20.492 17.0517 21.186 15.9182C21.8799 14.7846 22.2289 13.4736 22.1907 12.145H0.935654C0.897418 13.4734 1.24645 14.7843 1.94017 15.9178C2.63389 17.0514 3.64238 17.9586 4.8427 18.5291L4.49071 19.384C3.60637 18.975 2.81014 18.3976 2.14665 17.684C1.39717 16.8829 0.821412 15.9355 0.455552 14.9012C0.0896915 13.867 -0.0583494 12.7682 0.0206764 11.674V11.222H23.0267L23.0987 11.665C23.1791 12.7608 23.0318 13.8613 22.6661 14.8974C22.3004 15.9335 21.7242 16.8826 20.9737 17.6851C20.3118 18.3973 19.5177 18.974 18.6357 19.3831Z" fill="url(#paint4_linear_2_38)"/>
<path d="M18.6357 19.3831L17.7106 19.7628L18.1077 20.7303L19.0564 20.2902L18.6357 19.3831ZM18.2847 18.528L19.2097 18.1482L17.3591 18.9065L18.2847 18.528ZM18.4597 18.9561L17.5359 19.339L19.3853 18.5775L18.4597 18.9561ZM18.2827 18.5291L17.8537 17.6257L16.9948 18.0336L17.3589 18.912L18.2827 18.5291ZM22.1907 12.145L23.1902 12.1162L23.1623 11.145H22.1907V12.145ZM0.935654 12.145V11.145H-0.0359764L-0.0639316 12.1162L0.935654 12.145ZM4.8427 18.5291L5.7674 18.9097L6.1284 18.0329L5.27192 17.6259L4.8427 18.5291ZM4.49071 19.384L4.07091 20.2917L5.01811 20.7298L5.41541 19.7647L4.49071 19.384ZM2.14665 17.684L2.87898 17.0031L2.8769 17.0008L2.14665 17.684ZM0.0206764 11.674L1.01808 11.746L1.02068 11.7101V11.674H0.0206764ZM0.0206764 11.222V10.222H-0.979324V11.222H0.0206764ZM23.0267 11.222L24.0137 11.0616L23.8772 10.222H23.0267V11.222ZM23.0987 11.665L24.096 11.5918L24.0928 11.548L24.0857 11.5046L23.0987 11.665ZM20.9737 17.6851L20.2433 17.002L20.2412 17.0043L20.9737 17.6851ZM19.5607 19.0033L19.2097 18.1482L17.3596 18.9078L17.7106 19.7628L19.5607 19.0033ZM17.3591 18.9065L17.5341 19.3346L19.3853 18.5775L19.2102 18.1495L17.3591 18.9065ZM19.3835 18.5731L19.2065 18.1461L17.3589 18.912L17.5359 19.339L19.3835 18.5731ZM18.7117 19.4324C20.0876 18.7789 21.2436 17.7393 22.0388 16.4403L20.3331 15.3961C19.7405 16.3641 18.879 17.1388 17.8537 17.6257L18.7117 19.4324ZM22.0388 16.4403C22.8341 15.1411 23.2341 13.6387 23.1902 12.1162L21.1911 12.1738C21.2238 13.3084 20.9257 14.428 20.3331 15.3961L22.0388 16.4403ZM22.1907 11.145H0.935654V13.145H22.1907V11.145ZM-0.0639316 12.1162C-0.10775 13.6386 0.292238 15.1408 1.08723 16.4398L2.79312 15.3958C2.20067 14.4278 1.90259 13.3083 1.93524 12.1738L-0.0639316 12.1162ZM1.08723 16.4398C1.88222 17.7389 3.03794 18.7786 4.41348 19.4323L5.27192 17.6259C4.24682 17.1387 3.38556 16.3639 2.79312 15.3958L1.08723 16.4398ZM3.918 18.1484L3.56601 19.0033L5.41541 19.7647L5.7674 18.9097L3.918 18.1484ZM4.9105 18.4764C4.14406 18.1219 3.45399 17.6215 2.87898 17.0031L1.41433 18.365C2.16629 19.1737 3.06867 19.8281 4.07091 20.2917L4.9105 18.4764ZM2.8769 17.0008C2.22159 16.3004 1.71819 15.472 1.3983 14.5678L-0.487201 15.2347C-0.075362 16.399 0.572745 17.4654 1.4164 18.3672L2.8769 17.0008ZM1.3983 14.5678C1.07842 13.6635 0.948982 12.7028 1.01808 11.746L-0.976726 11.602C-1.06568 12.8337 -0.899042 14.0705 -0.487201 15.2347L1.3983 14.5678ZM1.02068 11.674V11.222H-0.979324V11.674H1.02068ZM0.0206764 12.222H23.0267V10.222H0.0206764V12.222ZM22.0396 11.3825L22.1116 11.8255L24.0857 11.5046L24.0137 11.0616L22.0396 11.3825ZM22.1014 11.7383C22.1717 12.6964 22.0429 13.6586 21.7231 14.5645L23.6091 15.2303C24.0208 14.0641 24.1865 12.8252 24.096 11.5918L22.1014 11.7383ZM21.7231 14.5645C21.4034 15.4704 20.8995 16.3004 20.2433 17.002L21.704 18.3681C22.5488 17.4649 23.1974 16.3965 23.6091 15.2303L21.7231 14.5645ZM20.2412 17.0043C19.6675 17.6215 18.9793 18.1213 18.2149 18.4759L19.0564 20.2902C20.0561 19.8266 20.956 19.173 21.7062 18.3658L20.2412 17.0043Z" fill="url(#paint5_linear_2_38)" mask="url(#path-4-inside-2_2_38)"/>
<mask id="path-6-inside-3_2_38" fill="white">
<path d="M13.4637 13.048H0.587708V13.973H13.4637V13.048Z"/>
</mask>
<path d="M13.4637 13.048H0.587708V13.973H13.4637V13.048Z" fill="url(#paint6_linear_2_38)"/>
<path d="M0.587708 13.048V12.048H-0.412292V13.048H0.587708ZM13.4637 13.048H14.4637V12.048H13.4637V13.048ZM13.4637 13.973V14.973H14.4637V13.973H13.4637ZM0.587708 13.973H-0.412292V14.973H0.587708V13.973ZM0.587708 14.048H13.4637V12.048H0.587708V14.048ZM12.4637 13.048V13.973H14.4637V13.048H12.4637ZM13.4637 12.973H0.587708V14.973H13.4637V12.973ZM1.58771 13.973V13.048H-0.412292V13.973H1.58771Z" fill="url(#paint7_linear_2_38)" mask="url(#path-6-inside-3_2_38)"/>
<mask id="path-8-inside-4_2_38" fill="white">
<path d="M9.73468 11.805L10.6257 11.557C10.5727 11.366 9.26168 6.86299 3.13068 5.48999L2.93066 6.39001C8.49666 7.64001 9.68668 11.636 9.73468 11.805Z"/>
</mask>
<path d="M9.73468 11.805L10.6257 11.557C10.5727 11.366 9.26168 6.86299 3.13068 5.48999L2.93066 6.39001C8.49666 7.64001 9.68668 11.636 9.73468 11.805Z" fill="url(#paint8_linear_2_38)"/>
<path d="M9.73468 11.805L8.77273 12.0782L9.04451 13.0351L10.0028 12.7684L9.73468 11.805ZM10.6257 11.557L10.8938 12.5204L11.8564 12.2525L11.5893 11.2896L10.6257 11.557ZM3.13068 5.48999L3.34921 4.51416L2.37178 4.29527L2.15449 5.27305L3.13068 5.48999ZM2.93066 6.39001L1.95448 6.17308L1.73803 7.14708L2.71154 7.36571L2.93066 6.39001ZM10.0028 12.7684L10.8938 12.5204L10.3575 10.5936L9.46655 10.8416L10.0028 12.7684ZM11.5893 11.2896C11.4904 10.9332 9.99876 6.00329 3.34921 4.51416L2.91215 6.46582C5.7464 7.10053 7.41873 8.44205 8.38912 9.60683C8.87899 10.1948 9.19688 10.7466 9.39311 11.1548C9.49113 11.3587 9.55833 11.5258 9.60112 11.6424C9.62251 11.7006 9.63774 11.7461 9.64764 11.7771C9.65755 11.8081 9.66209 11.8244 9.66208 11.8244L11.5893 11.2896ZM2.15449 5.27305L1.95448 6.17308L3.90685 6.60695L4.10686 5.70693L2.15449 5.27305ZM2.71154 7.36571C7.77017 8.50177 8.77447 12.0843 8.77273 12.0782L10.6966 11.5318C10.5989 11.1876 9.22316 6.77826 3.14978 5.41432L2.71154 7.36571Z" fill="url(#paint9_linear_2_38)" mask="url(#path-8-inside-4_2_38)"/>
<mask id="path-10-inside-5_2_38" fill="white">
<path d="M6.97269 12.119L7.27267 11.244C5.96067 10.799 5.75469 10.211 5.83969 9.92798L6.11966 9.34503L5.45969 9.29999C3.85969 9.12299 3.75068 8.38699 3.74368 8.29999L3.78268 7.78802L3.26169 7.83704C3.02316 7.87223 2.77984 7.85626 2.54794 7.79022C2.31605 7.72419 2.10086 7.60955 1.91666 7.45398C1.71528 7.21744 1.61348 6.91204 1.63266 6.60199L1.64365 6.48303L1.59567 6.36902C1.49643 6.20083 1.43634 6.01246 1.41989 5.81787C1.40344 5.62328 1.4311 5.42745 1.5007 5.245C1.69552 4.97707 1.98859 4.79728 2.3157 4.745L2.48965 4.71698L2.60367 4.58002C2.72519 4.40139 2.88428 4.25147 3.06979 4.14075C3.25531 4.03003 3.4628 3.96119 3.6777 3.93903C4.1493 3.97578 4.5916 4.18218 4.9227 4.52002L5.10269 4.71399L5.36069 4.65802C7.21469 4.25802 7.66068 5.441 7.67868 5.492L7.79166 5.80902L8.12766 5.79901C10.0827 5.74501 10.2577 6.97803 10.2597 6.99103L10.2897 7.229L10.5007 7.34198C10.8432 7.51403 11.1351 7.77217 11.3477 8.09106C11.5604 8.40996 11.6865 8.77868 11.7137 9.16101C11.7457 9.19601 11.4487 11.292 11.4477 11.298L12.3527 11.488C12.3527 11.488 12.5997 9.64199 12.6337 9.39899C12.6769 8.84199 12.5575 8.28446 12.2899 7.79401C12.0224 7.30355 11.6183 6.90126 11.1267 6.63599C10.93 6.08389 10.5566 5.61217 10.0644 5.29395C9.57226 4.97572 8.98887 4.82884 8.40469 4.87604C8.09033 4.39134 7.6314 4.01779 7.09299 3.80835C6.55457 3.59891 5.96396 3.56413 5.40469 3.70898C4.92132 3.27438 4.29758 3.02838 3.64767 3.01599C3.32749 3.03479 3.01481 3.1206 2.72989 3.26788C2.44497 3.41517 2.19417 3.62068 1.99368 3.87103C1.69853 3.92402 1.42046 4.04723 1.18295 4.23029C0.945445 4.41334 0.75546 4.65087 0.629059 4.92279C0.502658 5.19472 0.443536 5.49302 0.456696 5.7926C0.469855 6.09218 0.554924 6.38419 0.704682 6.64398C0.693502 7.17279 0.8816 7.68649 1.23166 8.08301C1.45252 8.30207 1.71464 8.47516 2.00284 8.59222C2.29104 8.70929 2.59962 8.76802 2.91068 8.76501C3.08741 9.15484 3.36598 9.48976 3.71707 9.73456C4.06817 9.97936 4.47879 10.125 4.90567 10.156C4.92006 10.3423 4.96781 10.5246 5.04666 10.694C5.2547 11.0494 5.53264 11.3589 5.86368 11.6038C6.19472 11.8487 6.572 12.024 6.97269 12.119Z"/>
</mask>
<path d="M6.97269 12.119L7.27267 11.244C5.96067 10.799 5.75469 10.211 5.83969 9.92798L6.11966 9.34503L5.45969 9.29999C3.85969 9.12299 3.75068 8.38699 3.74368 8.29999L3.78268 7.78802L3.26169 7.83704C3.02316 7.87223 2.77984 7.85626 2.54794 7.79022C2.31605 7.72419 2.10086 7.60955 1.91666 7.45398C1.71528 7.21744 1.61348 6.91204 1.63266 6.60199L1.64365 6.48303L1.59567 6.36902C1.49643 6.20083 1.43634 6.01246 1.41989 5.81787C1.40344 5.62328 1.4311 5.42745 1.5007 5.245C1.69552 4.97707 1.98859 4.79728 2.3157 4.745L2.48965 4.71698L2.60367 4.58002C2.72519 4.40139 2.88428 4.25147 3.06979 4.14075C3.25531 4.03003 3.4628 3.96119 3.6777 3.93903C4.1493 3.97578 4.5916 4.18218 4.9227 4.52002L5.10269 4.71399L5.36069 4.65802C7.21469 4.25802 7.66068 5.441 7.67868 5.492L7.79166 5.80902L8.12766 5.79901C10.0827 5.74501 10.2577 6.97803 10.2597 6.99103L10.2897 7.229L10.5007 7.34198C10.8432 7.51403 11.1351 7.77217 11.3477 8.09106C11.5604 8.40996 11.6865 8.77868 11.7137 9.16101C11.7457 9.19601 11.4487 11.292 11.4477 11.298L12.3527 11.488C12.3527 11.488 12.5997 9.64199 12.6337 9.39899C12.6769 8.84199 12.5575 8.28446 12.2899 7.79401C12.0224 7.30355 11.6183 6.90126 11.1267 6.63599C10.93 6.08389 10.5566 5.61217 10.0644 5.29395C9.57226 4.97572 8.98887 4.82884 8.40469 4.87604C8.09033 4.39134 7.6314 4.01779 7.09299 3.80835C6.55457 3.59891 5.96396 3.56413 5.40469 3.70898C4.92132 3.27438 4.29758 3.02838 3.64767 3.01599C3.32749 3.03479 3.01481 3.1206 2.72989 3.26788C2.44497 3.41517 2.19417 3.62068 1.99368 3.87103C1.69853 3.92402 1.42046 4.04723 1.18295 4.23029C0.945445 4.41334 0.75546 4.65087 0.629059 4.92279C0.502658 5.19472 0.443536 5.49302 0.456696 5.7926C0.469855 6.09218 0.554924 6.38419 0.704682 6.64398C0.693502 7.17279 0.8816 7.68649 1.23166 8.08301C1.45252 8.30207 1.71464 8.47516 2.00284 8.59222C2.29104 8.70929 2.59962 8.76802 2.91068 8.76501C3.08741 9.15484 3.36598 9.48976 3.71707 9.73456C4.06817 9.97936 4.47879 10.125 4.90567 10.156C4.92006 10.3423 4.96781 10.5246 5.04666 10.694C5.2547 11.0494 5.53264 11.3589 5.86368 11.6038C6.19472 11.8487 6.572 12.024 6.97269 12.119Z" fill="url(#paint10_linear_2_38)"/>
<path d="M7.27267 11.244L8.21862 11.5683L8.544 10.6193L7.59388 10.297L7.27267 11.244ZM5.83969 9.92798L4.93826 9.49505L4.90443 9.56549L4.88196 9.64032L5.83969 9.92798ZM6.11966 9.34503L7.02109 9.77796L7.6599 8.44783L6.18775 8.34735L6.11966 9.34503ZM5.45969 9.29999L5.34973 10.2939L5.37062 10.2962L5.39159 10.2977L5.45969 9.29999ZM3.74368 8.29999L2.74657 8.22403L2.74062 8.30212L2.7469 8.38019L3.74368 8.29999ZM3.78268 7.78802L4.7798 7.86399L4.86989 6.68133L3.68903 6.79242L3.78268 7.78802ZM3.26169 7.83704L3.16803 6.84143L3.1418 6.8439L3.11573 6.84775L3.26169 7.83704ZM1.91666 7.45398L1.15523 8.10223L1.20857 8.16489L1.27144 8.21798L1.91666 7.45398ZM1.63266 6.60199L0.636898 6.51003L0.635504 6.52512L0.634568 6.54024L1.63266 6.60199ZM1.64365 6.48303L2.63941 6.575L2.66242 6.32583L2.56537 6.0952L1.64365 6.48303ZM1.59567 6.36902L2.5174 5.98118L2.49122 5.91897L2.45692 5.86083L1.59567 6.36902ZM1.5007 5.245L0.691918 4.65689L0.613752 4.76439L0.566379 4.88857L1.5007 5.245ZM2.3157 4.745L2.47353 5.73246L2.47471 5.73227L2.3157 4.745ZM2.48965 4.71698L2.64866 5.70426L3.01853 5.64469L3.25821 5.35676L2.48965 4.71698ZM2.60367 4.58002L3.37223 5.2198L3.40322 5.18256L3.43047 5.14251L2.60367 4.58002ZM3.6777 3.93903L3.7554 2.94205L3.66515 2.93502L3.57511 2.9443L3.6777 3.93903ZM4.9227 4.52002L5.65572 3.83982L5.64644 3.82982L5.6369 3.82008L4.9227 4.52002ZM5.10269 4.71399L4.36967 5.39419L4.7575 5.81214L5.3147 5.69126L5.10269 4.71399ZM5.36069 4.65802L5.14979 3.68051L5.14868 3.68075L5.36069 4.65802ZM7.67868 5.492L6.73569 5.82483L6.73671 5.8277L7.67868 5.492ZM7.79166 5.80902L6.84969 6.14471L7.09399 6.83025L7.82143 6.80858L7.79166 5.80902ZM8.12766 5.79901L8.10004 4.79939L8.09788 4.79945L8.12766 5.79901ZM10.2597 6.99103L11.2518 6.86583L11.2501 6.85238L11.248 6.83897L10.2597 6.99103ZM10.2897 7.229L9.29757 7.3542L9.36225 7.86673L9.81767 8.11059L10.2897 7.229ZM10.5007 7.34198L10.0287 8.22356L10.0402 8.22972L10.0518 8.23558L10.5007 7.34198ZM11.7137 9.16101L10.7162 9.23191L10.7408 9.57898L10.9756 9.83578L11.7137 9.16101ZM11.4477 11.298L10.4613 11.1336L10.3036 12.0796L11.2422 12.2767L11.4477 11.298ZM12.3527 11.488L12.1472 12.4667L13.2011 12.6879L13.3439 11.6207L12.3527 11.488ZM12.6337 9.39899L13.6241 9.53755L13.6283 9.50703L13.6307 9.47629L12.6337 9.39899ZM11.1267 6.63599L10.1847 6.97158L10.3136 7.33359L10.6518 7.51606L11.1267 6.63599ZM8.40469 4.87604L7.56571 5.42019L7.89043 5.92085L8.48523 5.87279L8.40469 4.87604ZM5.40469 3.70898L4.7361 4.45261L5.13549 4.81171L5.65543 4.67704L5.40469 3.70898ZM3.64767 3.01599L3.66673 2.01617L3.62787 2.01543L3.58907 2.01771L3.64767 3.01599ZM1.99368 3.87103L2.17037 4.8553L2.5397 4.789L2.77424 4.49611L1.99368 3.87103ZM0.704682 6.64398L1.70446 6.66512L1.71035 6.38624L1.57104 6.14457L0.704682 6.64398ZM1.23166 8.08301L0.482001 8.74483L0.503925 8.76967L0.527445 8.793L1.23166 8.08301ZM2.91068 8.76501L3.82145 8.3521L3.55245 7.75878L2.90103 7.76506L2.91068 8.76501ZM4.90567 10.156L5.9027 10.079L5.83642 9.22106L4.97821 9.15864L4.90567 10.156ZM5.04666 10.694L4.14002 11.1159L4.15988 11.1586L4.18366 11.1992L5.04666 10.694ZM7.91864 12.4433L8.21862 11.5683L6.32672 10.9197L6.02674 11.7947L7.91864 12.4433ZM7.59388 10.297C7.0345 10.1073 6.83693 9.92716 6.79021 9.87288C6.74808 9.82393 6.87691 9.951 6.79742 10.2156L4.88196 9.64032C4.71747 10.188 4.9068 10.7505 5.27441 11.1776C5.63742 11.5994 6.19885 11.9358 6.95147 12.191L7.59388 10.297ZM6.74112 10.3609L7.02109 9.77796L5.21823 8.91211L4.93826 9.49505L6.74112 10.3609ZM6.18775 8.34735L5.52778 8.30231L5.39159 10.2977L6.05157 10.3427L6.18775 8.34735ZM5.56964 8.30605C4.91079 8.23317 4.71544 8.06252 4.69353 8.04168C4.68143 8.03018 4.72884 8.07534 4.74046 8.21979L2.7469 8.38019C2.76553 8.61163 2.87094 9.0683 3.31509 9.49079C3.74943 9.90395 4.40858 10.1898 5.34973 10.2939L5.56964 8.30605ZM4.74079 8.37595L4.7798 7.86399L2.78557 7.71206L2.74657 8.22403L4.74079 8.37595ZM3.68903 6.79242L3.16803 6.84143L3.35535 8.83264L3.87634 8.78363L3.68903 6.79242ZM3.11573 6.84775C3.01757 6.86223 2.91735 6.85566 2.82181 6.82846L2.27407 8.75199C2.64232 8.85685 3.02875 8.88223 3.40764 8.82633L3.11573 6.84775ZM2.82181 6.82846C2.72642 6.80129 2.6378 6.7541 2.56188 6.68998L1.27144 8.21798C1.56393 8.465 1.90568 8.64709 2.27407 8.75199L2.82181 6.82846ZM2.67808 6.80573C2.64452 6.7663 2.62755 6.71541 2.63075 6.66374L0.634568 6.54024C0.599402 7.10868 0.786039 7.66859 1.15523 8.10223L2.67808 6.80573ZM2.62842 6.69395L2.63941 6.575L0.647884 6.39107L0.636898 6.51003L2.62842 6.69395ZM2.56537 6.0952L2.5174 5.98118L0.673945 6.75686L0.721918 6.87087L2.56537 6.0952ZM2.45692 5.86083C2.43398 5.82195 2.42013 5.77848 2.41634 5.73365L0.423444 5.90209C0.452549 6.24644 0.558888 6.57971 0.734427 6.87721L2.45692 5.86083ZM2.41634 5.73365C2.41256 5.6889 2.41891 5.64367 2.43503 5.60142L0.566379 4.88857C0.443288 5.21123 0.394333 5.55766 0.423444 5.90209L2.41634 5.73365ZM2.30949 5.8331C2.3487 5.77918 2.40769 5.74299 2.47353 5.73246L2.15788 3.75753C1.56949 3.85157 1.04235 4.17497 0.691918 4.65689L2.30949 5.8331ZM2.47471 5.73227L2.64866 5.70426L2.33065 3.7297L2.1567 3.75772L2.47471 5.73227ZM3.25821 5.35676L3.37223 5.2198L1.83511 3.94024L1.7211 4.0772L3.25821 5.35676ZM3.43047 5.14251C3.47005 5.08433 3.52187 5.0355 3.58229 4.99944L2.5573 3.28206C2.24669 3.46744 1.98033 3.71845 1.77687 4.01753L3.43047 5.14251ZM3.58229 4.99944C3.64264 4.96342 3.71023 4.94098 3.7803 4.93375L3.57511 2.9443C3.21537 2.98141 2.86797 3.09664 2.5573 3.28206L3.58229 4.99944ZM3.60001 4.936C3.83051 4.95397 4.04668 5.05485 4.2085 5.21996L5.6369 3.82008C5.13653 3.30952 4.4681 2.99759 3.7554 2.94205L3.60001 4.936ZM4.18968 5.20022L4.36967 5.39419L5.83572 4.03379L5.65572 3.83982L4.18968 5.20022ZM5.3147 5.69126L5.57269 5.63529L5.14868 3.68075L4.89068 3.73672L5.3147 5.69126ZM5.57158 5.63553C6.26079 5.48683 6.53543 5.6529 6.61871 5.71368C6.74047 5.80252 6.76358 5.90383 6.73569 5.82482L8.62167 5.15918C8.57579 5.02918 8.3669 4.51349 7.79765 4.0981C7.18994 3.65463 6.31458 3.42921 5.14979 3.68051L5.57158 5.63553ZM6.73671 5.8277L6.84969 6.14471L8.73363 5.47333L8.62065 5.15631L6.73671 5.8277ZM7.82143 6.80858L8.15743 6.79857L8.09788 4.79945L7.76188 4.80946L7.82143 6.80858ZM8.15527 6.79863C8.90367 6.77796 9.14306 6.9977 9.20153 7.05915C9.24441 7.10423 9.26493 7.14531 9.27381 7.16723C9.27825 7.17817 9.27919 7.18296 9.27807 7.17854C9.27748 7.17621 9.27633 7.17135 9.27483 7.16351C9.27407 7.15957 9.27325 7.155 9.27238 7.14978C9.27158 7.14493 9.27028 7.13645 9.2713 7.14309L11.248 6.83897C11.2489 6.84479 11.2472 6.83312 11.2455 6.82284C11.2437 6.8122 11.2416 6.79998 11.2389 6.7863C11.2337 6.759 11.2267 6.72636 11.2173 6.68918C11.1986 6.61506 11.1702 6.5218 11.1274 6.41617C11.0418 6.20492 10.8961 5.93869 10.6506 5.68063C10.1323 5.13583 9.30664 4.76606 8.10004 4.79939L8.15527 6.79863ZM9.26754 7.11622L9.29757 7.3542L11.2818 7.10381L11.2518 6.86583L9.26754 7.11622ZM9.81767 8.11059L10.0287 8.22356L10.9727 6.4604L10.7617 6.34742L9.81767 8.11059ZM10.0518 8.23558C10.2394 8.32979 10.3993 8.47117 10.5158 8.64587L12.1797 7.53626C11.8709 7.07317 11.447 6.69826 10.9496 6.44838L10.0518 8.23558ZM10.5158 8.64587C10.6322 8.82049 10.7013 9.02245 10.7162 9.23191L12.7111 9.09012C12.6717 8.53491 12.4886 7.99943 12.1797 7.53626L10.5158 8.64587ZM10.9756 9.83578C10.8638 9.71346 10.8096 9.59271 10.7864 9.535C10.76 9.46924 10.746 9.41389 10.7387 9.38114C10.7244 9.31652 10.7201 9.26544 10.7185 9.24541C10.7152 9.20132 10.7162 9.16973 10.7162 9.16654C10.7165 9.1539 10.717 9.15489 10.7149 9.17953C10.7112 9.22375 10.7037 9.29568 10.6924 9.3937C10.67 9.58661 10.6368 9.84534 10.6018 10.1086C10.5303 10.6455 10.4584 11.151 10.4613 11.1336L12.4341 11.4624C12.4379 11.4391 12.515 10.8935 12.5843 10.3722C12.6197 10.1063 12.6547 9.83411 12.6791 9.62398C12.6911 9.52049 12.7016 9.42287 12.708 9.34575C12.711 9.30972 12.7145 9.26207 12.7157 9.21488C12.7162 9.19441 12.717 9.14907 12.7129 9.095C12.711 9.06997 12.7061 9.01485 12.6911 8.94715C12.6873 8.93023 12.6444 8.69706 12.4517 8.48624L10.9756 9.83578ZM11.2422 12.2767L12.1472 12.4667L12.5582 10.5094L11.6531 10.3194L11.2422 12.2767ZM12.3527 11.488C13.3439 11.6207 13.3439 11.6207 13.3439 11.6206C13.3439 11.6206 13.3439 11.6206 13.3439 11.6206C13.3439 11.6205 13.3439 11.6204 13.3439 11.6203C13.3439 11.6201 13.344 11.6198 13.344 11.6193C13.3442 11.6184 13.3443 11.6171 13.3446 11.6154C13.345 11.6119 13.3457 11.6067 13.3466 11.5999C13.3485 11.5863 13.3511 11.5664 13.3545 11.5409C13.3613 11.49 13.3711 11.4169 13.383 11.3285C13.4066 11.1517 13.4386 10.9135 13.4716 10.6676C13.5379 10.1736 13.6076 9.65543 13.6241 9.53755L11.6433 9.26042C11.6258 9.38555 11.555 9.91194 11.4893 10.4016C11.4563 10.6477 11.4244 10.8861 11.4007 11.063C11.3888 11.1515 11.379 11.2246 11.3722 11.2756C11.3688 11.3011 11.3661 11.321 11.3643 11.3346C11.3634 11.3414 11.3627 11.3466 11.3622 11.3501C11.362 11.3519 11.3618 11.3532 11.3617 11.3541C11.3616 11.3545 11.3616 11.3549 11.3616 11.3551C11.3616 11.3552 11.3615 11.3553 11.3615 11.3553C11.3615 11.3554 11.3615 11.3554 11.3615 11.3554C11.3615 11.3554 11.3615 11.3554 12.3527 11.488ZM13.6307 9.47629C13.6889 8.72626 13.528 7.97554 13.1679 7.31518L11.412 8.27284C11.5869 8.59338 11.6649 8.95773 11.6367 9.32168L13.6307 9.47629ZM13.1679 7.31518C12.8077 6.6548 12.2636 6.11311 11.6015 5.75591L10.6518 7.51606C10.9731 7.6894 11.2372 7.9523 11.412 8.27284L13.1679 7.31518ZM12.0687 6.30039C11.7981 5.54087 11.2844 4.89194 10.6074 4.45419L9.52145 6.1337C9.82876 6.3324 10.0619 6.62692 10.1847 6.97158L12.0687 6.30039ZM10.6074 4.45419C9.93033 4.01641 9.12777 3.81436 8.32416 3.87929L8.48523 5.87279C8.84997 5.84332 9.21419 5.93503 9.52145 6.1337L10.6074 4.45419ZM9.24368 4.33188C8.81512 3.67112 8.18951 3.1619 7.45552 2.87638L6.73045 4.74032C7.07329 4.87369 7.36553 5.11156 7.56571 5.42019L9.24368 4.33188ZM7.45552 2.87638C6.72156 2.59087 5.91639 2.54345 5.15396 2.74093L5.65543 4.67704C6.01152 4.58481 6.38758 4.60694 6.73045 4.74032L7.45552 2.87638ZM6.07329 2.96536C5.4112 2.37008 4.55689 2.03314 3.66673 2.01617L3.62862 4.01581C4.03828 4.02362 4.43143 4.17868 4.7361 4.45261L6.07329 2.96536ZM3.58907 2.01771C3.12914 2.04471 2.67998 2.16797 2.27069 2.37955L3.18909 4.15621C3.34963 4.07323 3.52584 4.02487 3.70628 4.01427L3.58907 2.01771ZM2.27069 2.37955C1.86131 2.59117 1.50106 2.8864 1.21312 3.24595L2.77424 4.49611C2.88728 4.35496 3.02863 4.23916 3.18909 4.15621L2.27069 2.37955ZM1.81699 2.88677C1.36395 2.96809 0.937097 3.15722 0.572489 3.43824L1.79342 5.02233C1.90382 4.93723 2.03311 4.87994 2.17037 4.8553L1.81699 2.88677ZM0.572489 3.43824C0.207914 3.71924 -0.0837209 4.08384 -0.277758 4.50127L1.53588 5.34431C1.59464 5.21789 1.68298 5.10745 1.79342 5.02233L0.572489 3.43824ZM-0.277758 4.50127C-0.471778 4.91866 -0.562543 5.37659 -0.542341 5.83649L1.45573 5.74872C1.44961 5.60946 1.47709 5.47077 1.53588 5.34431L-0.277758 4.50127ZM-0.542341 5.83649C-0.522138 6.2964 -0.391544 6.74464 -0.161682 7.1434L1.57104 6.14457C1.50139 6.02373 1.46185 5.88796 1.45573 5.74872L-0.542341 5.83649ZM-0.295095 6.62285C-0.31158 7.40259 -0.034226 8.1601 0.482001 8.74483L1.98132 7.42118C1.79743 7.21289 1.69858 6.94299 1.70446 6.66512L-0.295095 6.62285ZM0.527445 8.793C0.842185 9.10518 1.21574 9.35186 1.62651 9.51871L2.37917 7.66574C2.21353 7.59846 2.06285 7.49896 1.93587 7.37302L0.527445 8.793ZM1.62651 9.51871C2.03727 9.68556 2.47704 9.76924 2.92032 9.76497L2.90103 7.76506C2.7222 7.76679 2.54482 7.73302 2.37917 7.66574L1.62651 9.51871ZM1.9999 9.17793C2.2509 9.73154 2.64652 10.2072 3.14513 10.5549L4.28902 8.91427C4.08543 8.77232 3.92392 8.57813 3.82145 8.3521L1.9999 9.17793ZM3.14513 10.5549C3.64373 10.9025 4.22687 11.1093 4.83313 11.1534L4.97821 9.15864C4.7307 9.14064 4.49261 9.05622 4.28902 8.91427L3.14513 10.5549ZM3.90864 10.233C3.93226 10.5388 4.0106 10.8378 4.14002 11.1159L5.95331 10.2721C5.92502 10.2114 5.90787 10.1459 5.9027 10.079L3.90864 10.233ZM4.18366 11.1992C4.46001 11.6713 4.82921 12.0824 5.2689 12.4077L6.45846 10.7999C6.23607 10.6354 6.04939 10.4275 5.90966 10.1888L4.18366 11.1992ZM5.2689 12.4077C5.70862 12.733 6.20975 12.9659 6.74199 13.092L7.20339 11.146C6.93425 11.0822 6.68082 10.9644 6.45846 10.7999L5.2689 12.4077Z" fill="url(#paint11_linear_2_38)" mask="url(#path-10-inside-5_2_38)"/>
<mask id="path-12-inside-6_2_38" fill="white">
<path d="M15.0977 11.772L14.1917 11.589L14.6447 11.681L14.1907 11.592C14.2692 11.2657 14.226 10.9219 14.0692 10.6251C13.9123 10.3283 13.6526 10.099 13.3387 9.98003L13.0127 9.869L13.0247 9.52501C13.0424 9.18936 12.9388 8.85855 12.7327 8.593C12.6647 8.54042 12.5848 8.50529 12.5001 8.49065C12.4154 8.47601 12.3284 8.48232 12.2467 8.50902L12.0837 7.59905C12.3021 7.54814 12.5294 7.54875 12.7476 7.60082C12.9657 7.65288 13.1688 7.75497 13.3407 7.89903C13.6987 8.25347 13.9125 8.72804 13.9407 9.231C14.3841 9.47066 14.737 9.84863 14.9459 10.3073C15.1547 10.766 15.208 11.2803 15.0977 11.772Z"/>
</mask>
<path d="M15.0977 11.772L14.1917 11.589L14.6447 11.681L14.1907 11.592C14.2692 11.2657 14.226 10.9219 14.0692 10.6251C13.9123 10.3283 13.6526 10.099 13.3387 9.98003L13.0127 9.869L13.0247 9.52501C13.0424 9.18936 12.9388 8.85855 12.7327 8.593C12.6647 8.54042 12.5848 8.50529 12.5001 8.49065C12.4154 8.47601 12.3284 8.48232 12.2467 8.50902L12.0837 7.59905C12.3021 7.54814 12.5294 7.54875 12.7476 7.60082C12.9657 7.65288 13.1688 7.75497 13.3407 7.89903C13.6987 8.25347 13.9125 8.72804 13.9407 9.231C14.3841 9.47066 14.737 9.84863 14.9459 10.3073C15.1547 10.766 15.208 11.2803 15.0977 11.772Z" fill="url(#paint12_linear_2_38)"/>
<path d="M14.1917 11.589L14.3897 10.6088L13.9927 12.569L14.1917 11.589ZM14.6447 11.681L14.4524 12.6623L14.8437 10.701L14.6447 11.681ZM14.1907 11.592L13.2185 11.3581L12.9744 12.3726L13.9984 12.5734L14.1907 11.592ZM13.3387 9.98003L13.6931 9.04494L13.6772 9.03891L13.6611 9.03342L13.3387 9.98003ZM13.0127 9.869L12.0133 9.83407L11.9874 10.5762L12.6903 10.8156L13.0127 9.869ZM13.0247 9.52501L12.0261 9.47235L12.0256 9.48121L12.0253 9.49008L13.0247 9.52501ZM12.7327 8.593L13.5228 7.97995L13.4449 7.87956L13.3443 7.80185L12.7327 8.593ZM12.2467 8.50902L11.2624 8.68536L11.465 9.81646L12.5573 9.45956L12.2467 8.50902ZM12.0837 7.59905L11.8567 6.62514L10.9319 6.84067L11.0994 7.77539L12.0837 7.59905ZM13.3407 7.89903L14.0443 7.18842L14.0148 7.15924L13.983 7.1326L13.3407 7.89903ZM13.9407 9.231L12.9423 9.28707L12.9736 9.84498L13.4652 10.1107L13.9407 9.231ZM15.2957 10.7918L14.3897 10.6088L13.9937 12.5692L14.8997 12.7522L15.2957 10.7918ZM13.9927 12.569L14.4457 12.661L14.8437 10.701L14.3907 10.609L13.9927 12.569ZM14.8371 10.6997L14.3831 10.6107L13.9984 12.5734L14.4524 12.6623L14.8371 10.6997ZM15.163 11.8259C15.2984 11.2629 15.2238 10.6698 14.9533 10.1578L13.185 11.0924C13.2282 11.174 13.24 11.2685 13.2185 11.3581L15.163 11.8259ZM14.9533 10.1578C14.6826 9.64579 14.2345 9.25015 13.6931 9.04494L12.9843 10.9151C13.0706 10.9478 13.142 11.0109 13.185 11.0924L14.9533 10.1578ZM13.6611 9.03342L13.3351 8.9224L12.6903 10.8156L13.0163 10.9266L13.6611 9.03342ZM14.0121 9.90394L14.0241 9.55994L12.0253 9.49008L12.0133 9.83407L14.0121 9.90394ZM14.0233 9.57767C14.0537 9.0023 13.876 8.43518 13.5228 7.97995L11.9427 9.20606C12.0015 9.28191 12.0312 9.37643 12.0261 9.47235L14.0233 9.57767ZM13.3443 7.80185C13.1471 7.64939 12.9157 7.54765 12.6704 7.50526L12.3298 9.47604C12.2539 9.46292 12.1823 9.43145 12.1211 9.38416L13.3443 7.80185ZM12.6704 7.50526C12.4249 7.46282 12.1728 7.48113 11.9361 7.55847L12.5573 9.45956C12.484 9.4835 12.4059 9.48919 12.3298 9.47604L12.6704 7.50526ZM13.231 8.33267L13.068 7.4227L11.0994 7.77539L11.2624 8.68536L13.231 8.33267ZM12.3106 8.57295C12.378 8.55725 12.4481 8.55743 12.5154 8.5735L12.9797 6.62813C12.6107 6.54006 12.2262 6.53903 11.8567 6.62514L12.3106 8.57295ZM12.5154 8.5735C12.5828 8.58957 12.6454 8.62108 12.6984 8.66547L13.983 7.1326C13.6922 6.88886 13.3487 6.71619 12.9797 6.62813L12.5154 8.5735ZM12.6371 8.60964C12.8192 8.78995 12.9279 9.03133 12.9423 9.28707L14.9392 9.17494C14.897 8.42476 14.5781 7.71698 14.0443 7.18842L12.6371 8.60964ZM13.4652 10.1107C13.7168 10.2467 13.9172 10.4613 14.0358 10.7217L15.856 9.8929C15.5568 9.23599 15.0514 8.69461 14.4163 8.35131L13.4652 10.1107ZM14.0358 10.7217C14.1543 10.9821 14.1846 11.274 14.122 11.5531L16.0735 11.9909C16.2315 11.2865 16.1551 10.5499 15.856 9.8929L14.0358 10.7217Z" fill="url(#paint13_linear_2_38)" mask="url(#path-12-inside-6_2_38)"/>
<defs>
<linearGradient id="paint0_linear_2_38" x1="30.9675" y1="21.3461" x2="-25.1608" y2="-8.27825" gradientUnits="userSpaceOnUse">
<stop stop-color="#48647D"/>
<stop offset="0.234375" stop-color="#6B8299"/>
<stop offset="0.442708" stop-color="#DAE2EB"/>
<stop offset="0.682292" stop-color="#8CA2B7"/>
<stop offset="1" stop-color="#EDF2F7"/>
</linearGradient>
<linearGradient id="paint1_linear_2_38" x1="30.9675" y1="21.3461" x2="-25.1608" y2="-8.27825" gradientUnits="userSpaceOnUse">
<stop stop-color="#48647D"/>
<stop offset="0.234375" stop-color="#6B8299"/>
<stop offset="0.442708" stop-color="#DAE2EB"/>
<stop offset="0.682292" stop-color="#8CA2B7"/>
<stop offset="1" stop-color="#EDF2F7"/>
</linearGradient>
<linearGradient id="paint2_linear_2_38" x1="19.51" y1="21.319" x2="14.634" y2="3.7897" gradientUnits="userSpaceOnUse">
<stop stop-color="#48647D"/>
<stop offset="0.234375" stop-color="#6B8299"/>
<stop offset="0.442708" stop-color="#DAE2EB"/>
<stop offset="0.682292" stop-color="#8CA2B7"/>
<stop offset="1" stop-color="#EDF2F7"/>
</linearGradient>
<linearGradient id="paint3_linear_2_38" x1="19.51" y1="21.319" x2="14.634" y2="3.7897" gradientUnits="userSpaceOnUse">
<stop stop-color="#48647D"/>
<stop offset="0.234375" stop-color="#6B8299"/>
<stop offset="0.442708" stop-color="#DAE2EB"/>
<stop offset="0.682292" stop-color="#8CA2B7"/>
<stop offset="1" stop-color="#EDF2F7"/>
</linearGradient>
<linearGradient id="paint4_linear_2_38" x1="24.4412" y1="19.384" x2="2.43356" y2="-23.9961" gradientUnits="userSpaceOnUse">
<stop stop-color="#48647D"/>
<stop offset="0.234375" stop-color="#6B8299"/>
<stop offset="0.442708" stop-color="#DAE2EB"/>
<stop offset="0.682292" stop-color="#8CA2B7"/>
<stop offset="1" stop-color="#EDF2F7"/>
</linearGradient>
<linearGradient id="paint5_linear_2_38" x1="24.4412" y1="19.384" x2="2.43356" y2="-23.9961" gradientUnits="userSpaceOnUse">
<stop stop-color="#48647D"/>
<stop offset="0.234375" stop-color="#6B8299"/>
<stop offset="0.442708" stop-color="#DAE2EB"/>
<stop offset="0.682292" stop-color="#8CA2B7"/>
<stop offset="1" stop-color="#EDF2F7"/>
</linearGradient>
<linearGradient id="paint6_linear_2_38" x1="14.1995" y1="13.973" x2="13.568" y2="7.85662" gradientUnits="userSpaceOnUse">
<stop stop-color="#48647D"/>
<stop offset="0.234375" stop-color="#6B8299"/>
<stop offset="0.442708" stop-color="#DAE2EB"/>
<stop offset="0.682292" stop-color="#8CA2B7"/>
<stop offset="1" stop-color="#EDF2F7"/>
</linearGradient>
<linearGradient id="paint7_linear_2_38" x1="14.1995" y1="13.973" x2="13.568" y2="7.85662" gradientUnits="userSpaceOnUse">
<stop stop-color="#48647D"/>
<stop offset="0.234375" stop-color="#6B8299"/>
<stop offset="0.442708" stop-color="#DAE2EB"/>
<stop offset="0.682292" stop-color="#8CA2B7"/>
<stop offset="1" stop-color="#EDF2F7"/>
</linearGradient>
<linearGradient id="paint8_linear_2_38" x1="11.0654" y1="11.805" x2="-9.75174" y2="-5.84648" gradientUnits="userSpaceOnUse">
<stop stop-color="#48647D"/>
<stop offset="0.234375" stop-color="#6B8299"/>
<stop offset="0.442708" stop-color="#DAE2EB"/>
<stop offset="0.682292" stop-color="#8CA2B7"/>
<stop offset="1" stop-color="#EDF2F7"/>
</linearGradient>
<linearGradient id="paint9_linear_2_38" x1="11.0654" y1="11.805" x2="-9.75174" y2="-5.84648" gradientUnits="userSpaceOnUse">
<stop stop-color="#48647D"/>
<stop offset="0.234375" stop-color="#6B8299"/>
<stop offset="0.442708" stop-color="#DAE2EB"/>
<stop offset="0.682292" stop-color="#8CA2B7"/>
<stop offset="1" stop-color="#EDF2F7"/>
</linearGradient>
<linearGradient id="paint10_linear_2_38" x1="13.3388" y1="12.119" x2="-17.0021" y2="-16.1479" gradientUnits="userSpaceOnUse">
<stop stop-color="#48647D"/>
<stop offset="0.234375" stop-color="#6B8299"/>
<stop offset="0.442708" stop-color="#DAE2EB"/>
<stop offset="0.682292" stop-color="#8CA2B7"/>
<stop offset="1" stop-color="#EDF2F7"/>
</linearGradient>
<linearGradient id="paint11_linear_2_38" x1="13.3388" y1="12.119" x2="-17.0021" y2="-16.1479" gradientUnits="userSpaceOnUse">
<stop stop-color="#48647D"/>
<stop offset="0.234375" stop-color="#6B8299"/>
<stop offset="0.442708" stop-color="#DAE2EB"/>
<stop offset="0.682292" stop-color="#8CA2B7"/>
<stop offset="1" stop-color="#EDF2F7"/>
</linearGradient>
<linearGradient id="paint12_linear_2_38" x1="15.3292" y1="11.772" x2="3.975" y2="6.01121" gradientUnits="userSpaceOnUse">
<stop stop-color="#48647D"/>
<stop offset="0.234375" stop-color="#6B8299"/>
<stop offset="0.442708" stop-color="#DAE2EB"/>
<stop offset="0.682292" stop-color="#8CA2B7"/>
<stop offset="1" stop-color="#EDF2F7"/>
</linearGradient>
<linearGradient id="paint13_linear_2_38" x1="15.3292" y1="11.772" x2="3.975" y2="6.01121" gradientUnits="userSpaceOnUse">
<stop stop-color="#48647D"/>
<stop offset="0.234375" stop-color="#6B8299"/>
<stop offset="0.442708" stop-color="#DAE2EB"/>
<stop offset="0.682292" stop-color="#8CA2B7"/>
<stop offset="1" stop-color="#EDF2F7"/>
</linearGradient>
</defs>
</svg>
