<svg width="31" height="22" viewBox="0 0 31 22" fill="none" xmlns="http://www.w3.org/2000/svg">
<path d="M25.9117 21.346H18.8277C18.5205 21.3468 18.2209 21.2506 17.9717 21.071L18.2457 20.844L18.2157 20.437C18.2916 20.5248 18.3856 20.5952 18.4912 20.6434C18.5968 20.6915 18.7116 20.7163 18.8277 20.716H25.9117C26.0721 20.7173 26.2292 20.6703 26.3626 20.5811C26.496 20.492 26.5995 20.3647 26.6597 20.216L26.7167 19.909V19.898L27.4297 16.04H21.3867L21.8267 15.553L21.8697 15.41H28.2017L28.8967 10.223H15.8437L16.0367 11.663L15.3887 11.672L15.1537 9.94501C15.1489 9.90075 15.1537 9.856 15.1677 9.81374C15.1816 9.77148 15.2045 9.7327 15.2347 9.70001C15.2651 9.66575 15.3023 9.63826 15.344 9.61931C15.3857 9.60036 15.4309 9.59038 15.4767 9.59001H15.9927L15.5317 6.57701H14.9757C14.8913 6.57781 14.8099 6.5451 14.7496 6.48605C14.6892 6.42701 14.6547 6.34644 14.6537 6.26201V3.76201C14.6547 3.67758 14.6892 3.59701 14.7496 3.53796C14.8099 3.47891 14.8913 3.44621 14.9757 3.44701H16.4757L17.4007 1.20001C17.425 1.14054 17.4666 1.08972 17.5201 1.05408C17.5735 1.01844 17.6364 0.999606 17.7007 1.00001H27.0407C27.1048 1.00001 27.1676 1.019 27.221 1.05459C27.2744 1.09018 27.316 1.14078 27.3407 1.20001L28.2537 3.44601H29.7637C29.8481 3.44521 29.9294 3.47791 29.9898 3.53696C30.0501 3.59601 30.0846 3.67658 30.0857 3.76101V6.26101C30.0846 6.34544 30.0501 6.42601 29.9898 6.48505C29.9294 6.5441 29.8481 6.57681 29.7637 6.57601H29.2077L28.7477 9.58801H29.2637C29.3093 9.588 29.3543 9.59751 29.396 9.61594C29.4377 9.63436 29.475 9.66129 29.5057 9.69501C29.5357 9.72828 29.5582 9.7677 29.5715 9.81053C29.5848 9.85335 29.5886 9.89856 29.5827 9.94301L28.8047 15.76C28.794 15.8369 28.7555 15.9071 28.6966 15.9576C28.6376 16.0081 28.5623 16.0352 28.4847 16.034H28.0847L27.3537 19.989C27.3485 20.1254 27.3229 20.2602 27.2777 20.389V20.398V20.407C27.174 20.6849 26.9872 20.924 26.7428 21.092C26.4984 21.26 26.2082 21.3487 25.9117 21.346V21.346ZM16.1837 6.57701L16.6437 9.59001H28.0967L28.5537 6.57701H16.1837ZM15.2977 4.07701V5.94701H29.4417V4.07601L15.2977 4.07701ZM17.9187 1.63101L17.1747 3.44601H27.5647L26.8207 1.63101H17.9207H17.9187ZM22.0187 14.912L22.2237 14.226C22.608 14.1159 22.9541 13.9012 23.2237 13.606C23.5326 13.2898 23.7338 12.8842 23.7987 12.447C23.8275 12.2897 23.8185 12.1277 23.7724 11.9745C23.7264 11.8214 23.6445 11.6813 23.5337 11.566C23.3568 11.4095 23.1268 11.3265 22.8907 11.334C22.4973 11.3473 22.1187 11.4876 21.8117 11.734L21.5937 11.592H21.0187L21.0457 11.562C21.2788 11.2999 21.5621 11.0873 21.8788 10.9366C22.1955 10.786 22.5393 10.7004 22.8897 10.685C23.2903 10.6755 23.6791 10.8213 23.9747 11.092C24.1601 11.2755 24.299 11.5007 24.3797 11.7487C24.4604 11.9968 24.4806 12.2605 24.4387 12.518C24.3573 13.0924 24.0962 13.6262 23.6927 14.043C23.2584 14.5244 22.6644 14.8321 22.0207 14.909L22.0187 14.912ZM22.6097 12.938L22.7797 12.369L22.5247 12.2C22.5764 12.1626 22.6262 12.1226 22.6737 12.08C22.7568 11.9739 22.8167 11.8516 22.8497 11.721C22.8672 11.6518 22.9074 11.5905 22.9637 11.5467C23.02 11.5028 23.0893 11.479 23.1607 11.479C23.1877 11.4787 23.2146 11.4821 23.2407 11.489C23.2817 11.4992 23.3203 11.5173 23.3543 11.5425C23.3883 11.5676 23.4169 11.5992 23.4387 11.6354C23.4604 11.6716 23.4748 11.7118 23.481 11.7536C23.4871 11.7954 23.485 11.838 23.4747 11.879C23.4132 12.1227 23.2946 12.3482 23.1287 12.537C22.9786 12.6708 22.8199 12.7948 22.6537 12.908L22.6417 12.917L22.6147 12.937L22.6097 12.938Z" fill="url(#paint0_linear_2_390)" stroke="url(#paint1_linear_2_390)" stroke-width="0.3"/>
<mask id="path-2-inside-1_2_390" fill="white">
<path d="M18.2067 21.319H4.07568V18.493H18.6757V21.318L18.2067 21.319ZM4.99969 20.394H17.7457V19.418H4.99969V20.394Z"/>
</mask>
<path d="M18.2067 21.319H4.07568V18.493H18.6757V21.318L18.2067 21.319ZM4.99969 20.394H17.7457V19.418H4.99969V20.394Z" fill="url(#paint2_linear_2_390)"/>
<path d="M18.2067 21.319V22.319L18.2087 22.319L18.2067 21.319ZM4.07568 21.319H3.07568V22.319H4.07568V21.319ZM4.07568 18.493V17.493H3.07568V18.493H4.07568ZM18.6757 18.493H19.6757V17.493H18.6757V18.493ZM18.6757 21.318L18.6777 22.318L19.6757 22.3159V21.318H18.6757ZM4.99969 20.394H3.99969V21.394H4.99969V20.394ZM17.7457 20.394V21.394H18.7457V20.394H17.7457ZM17.7457 19.418H18.7457V18.418H17.7457V19.418ZM4.99969 19.418V18.418H3.99969V19.418H4.99969ZM18.2067 20.319H4.07568V22.319H18.2067V20.319ZM5.07568 21.319V18.493H3.07568V21.319H5.07568ZM4.07568 19.493H18.6757V17.493H4.07568V19.493ZM17.6757 18.493V21.318H19.6757V18.493H17.6757ZM18.6736 20.318L18.2046 20.319L18.2087 22.319L18.6777 22.318L18.6736 20.318ZM4.99969 21.394H17.7457V19.394H4.99969V21.394ZM18.7457 20.394V19.418H16.7457V20.394H18.7457ZM17.7457 18.418H4.99969V20.418H17.7457V18.418ZM3.99969 19.418V20.394H5.99969V19.418H3.99969Z" fill="url(#paint3_linear_2_390)" mask="url(#path-2-inside-1_2_390)"/>
<mask id="path-4-inside-2_2_390" fill="white">
<path d="M18.6357 19.383L18.2847 18.528L18.4597 18.956L18.2827 18.529C19.4833 17.9589 20.492 17.0517 21.186 15.9181C21.8799 14.7846 22.2289 13.4735 22.1907 12.145H0.935654C0.897418 13.4734 1.24645 14.7843 1.94017 15.9178C2.63389 17.0513 3.64238 17.9586 4.8427 18.529L4.49071 19.384C3.60637 18.975 2.81014 18.3975 2.14665 17.684C1.39717 16.8829 0.821412 15.9355 0.455552 14.9012C0.0896915 13.867 -0.0583494 12.7682 0.0206764 11.674V11.222H23.0267L23.0987 11.665C23.1791 12.7608 23.0318 13.8613 22.6661 14.8974C22.3004 15.9334 21.7242 16.8826 20.9737 17.685C20.3118 18.3972 19.5177 18.9739 18.6357 19.383Z"/>
</mask>
<path d="M18.6357 19.383L18.2847 18.528L18.4597 18.956L18.2827 18.529C19.4833 17.9589 20.492 17.0517 21.186 15.9181C21.8799 14.7846 22.2289 13.4735 22.1907 12.145H0.935654C0.897418 13.4734 1.24645 14.7843 1.94017 15.9178C2.63389 17.0513 3.64238 17.9586 4.8427 18.529L4.49071 19.384C3.60637 18.975 2.81014 18.3975 2.14665 17.684C1.39717 16.8829 0.821412 15.9355 0.455552 14.9012C0.0896915 13.867 -0.0583494 12.7682 0.0206764 11.674V11.222H23.0267L23.0987 11.665C23.1791 12.7608 23.0318 13.8613 22.6661 14.8974C22.3004 15.9334 21.7242 16.8826 20.9737 17.685C20.3118 18.3972 19.5177 18.9739 18.6357 19.383Z" fill="url(#paint4_linear_2_390)"/>
<path d="M18.6357 19.383L17.7106 19.7628L18.1077 20.7302L19.0564 20.2902L18.6357 19.383ZM18.2847 18.528L19.2097 18.1482L17.3591 18.9065L18.2847 18.528ZM18.4597 18.956L17.5359 19.339L19.3853 18.5775L18.4597 18.956ZM18.2827 18.529L17.8537 17.6257L16.9948 18.0336L17.3589 18.9119L18.2827 18.529ZM22.1907 12.145L23.1902 12.1162L23.1623 11.145H22.1907V12.145ZM0.935654 12.145V11.145H-0.0359764L-0.0639316 12.1162L0.935654 12.145ZM4.8427 18.529L5.7674 18.9097L6.1284 18.0328L5.27192 17.6258L4.8427 18.529ZM4.49071 19.384L4.07091 20.2916L5.01811 20.7297L5.41541 19.7647L4.49071 19.384ZM2.14665 17.684L2.87898 17.003L2.8769 17.0008L2.14665 17.684ZM0.0206764 11.674L1.01808 11.746L1.02068 11.71V11.674H0.0206764ZM0.0206764 11.222V10.222H-0.979324V11.222H0.0206764ZM23.0267 11.222L24.0137 11.0615L23.8772 10.222H23.0267V11.222ZM23.0987 11.665L24.096 11.5918L24.0928 11.5479L24.0857 11.5045L23.0987 11.665ZM20.9737 17.685L20.2433 17.002L20.2412 17.0043L20.9737 17.685ZM19.5607 19.0033L19.2097 18.1482L17.3596 18.9078L17.7106 19.7628L19.5607 19.0033ZM17.3591 18.9065L17.5341 19.3345L19.3853 18.5775L19.2102 18.1495L17.3591 18.9065ZM19.3835 18.5731L19.2065 18.1461L17.3589 18.9119L17.5359 19.339L19.3835 18.5731ZM18.7117 19.4323C20.0876 18.7789 21.2436 17.7393 22.0388 16.4402L20.3331 15.396C19.7405 16.3641 18.879 17.1388 17.8537 17.6257L18.7117 19.4323ZM22.0388 16.4402C22.8341 15.1411 23.2341 13.6387 23.1902 12.1162L21.1911 12.1738C21.2238 13.3084 20.9257 14.428 20.3331 15.396L22.0388 16.4402ZM22.1907 11.145H0.935654V13.145H22.1907V11.145ZM-0.0639316 12.1162C-0.10775 13.6386 0.292238 15.1408 1.08723 16.4398L2.79312 15.3958C2.20067 14.4278 1.90259 13.3082 1.93524 12.1738L-0.0639316 12.1162ZM1.08723 16.4398C1.88222 17.7388 3.03794 18.7785 4.41348 19.4322L5.27192 17.6258C4.24682 17.1387 3.38556 16.3639 2.79312 15.3958L1.08723 16.4398ZM3.918 18.1483L3.56601 19.0033L5.41541 19.7647L5.7674 18.9097L3.918 18.1483ZM4.9105 18.4764C4.14406 18.1219 3.45399 17.6214 2.87898 17.003L1.41433 18.3649C2.16629 19.1736 3.06867 19.8281 4.07091 20.2916L4.9105 18.4764ZM2.8769 17.0008C2.22159 16.3003 1.71819 15.472 1.3983 14.5677L-0.487201 15.2347C-0.075362 16.3989 0.572745 17.4654 1.4164 18.3672L2.8769 17.0008ZM1.3983 14.5677C1.07842 13.6635 0.948982 12.7027 1.01808 11.746L-0.976726 11.6019C-1.06568 12.8336 -0.899042 14.0705 -0.487201 15.2347L1.3983 14.5677ZM1.02068 11.674V11.222H-0.979324V11.674H1.02068ZM0.0206764 12.222H23.0267V10.222H0.0206764V12.222ZM22.0396 11.3825L22.1116 11.8255L24.0857 11.5045L24.0137 11.0615L22.0396 11.3825ZM22.1014 11.7382C22.1717 12.6963 22.0429 13.6586 21.7231 14.5645L23.6091 15.2302C24.0208 14.064 24.1865 12.8252 24.096 11.5918L22.1014 11.7382ZM21.7231 14.5645C21.4034 15.4704 20.8995 16.3003 20.2433 17.002L21.704 18.3681C22.5488 17.4648 23.1974 16.3964 23.6091 15.2302L21.7231 14.5645ZM20.2412 17.0043C19.6675 17.6215 18.9793 18.1213 18.2149 18.4759L19.0564 20.2902C20.0561 19.8265 20.956 19.173 21.7062 18.3658L20.2412 17.0043Z" fill="url(#paint5_linear_2_390)" mask="url(#path-4-inside-2_2_390)"/>
<mask id="path-6-inside-3_2_390" fill="white">
<path d="M13.4636 13.048H0.587646V13.973H13.4636V13.048Z"/>
</mask>
<path d="M13.4636 13.048H0.587646V13.973H13.4636V13.048Z" fill="url(#paint6_linear_2_390)"/>
<path d="M0.587646 13.048V12.048H-0.412354V13.048H0.587646ZM13.4636 13.048H14.4636V12.048H13.4636V13.048ZM13.4636 13.973V14.973H14.4636V13.973H13.4636ZM0.587646 13.973H-0.412354V14.973H0.587646V13.973ZM0.587646 14.048H13.4636V12.048H0.587646V14.048ZM12.4636 13.048V13.973H14.4636V13.048H12.4636ZM13.4636 12.973H0.587646V14.973H13.4636V12.973ZM1.58765 13.973V13.048H-0.412354V13.973H1.58765Z" fill="url(#paint7_linear_2_390)" mask="url(#path-6-inside-3_2_390)"/>
<mask id="path-8-inside-4_2_390" fill="white">
<path d="M9.73468 11.805L10.6257 11.557C10.5727 11.366 9.26168 6.863 3.13068 5.49L2.93066 6.39002C8.49666 7.64002 9.68668 11.636 9.73468 11.805Z"/>
</mask>
<path d="M9.73468 11.805L10.6257 11.557C10.5727 11.366 9.26168 6.863 3.13068 5.49L2.93066 6.39002C8.49666 7.64002 9.68668 11.636 9.73468 11.805Z" fill="url(#paint8_linear_2_390)"/>
<path d="M9.73468 11.805L8.77273 12.0782L9.04451 13.0351L10.0028 12.7684L9.73468 11.805ZM10.6257 11.557L10.8938 12.5204L11.8564 12.2525L11.5893 11.2896L10.6257 11.557ZM3.13068 5.49L3.34921 4.51417L2.37178 4.29528L2.15449 5.27306L3.13068 5.49ZM2.93066 6.39002L1.95448 6.17308L1.73803 7.14709L2.71154 7.36572L2.93066 6.39002ZM10.0028 12.7684L10.8938 12.5204L10.3575 10.5936L9.46655 10.8416L10.0028 12.7684ZM11.5893 11.2896C11.4904 10.9332 9.99876 6.00329 3.34921 4.51417L2.91215 6.46583C5.7464 7.10054 7.41873 8.44206 8.38912 9.60684C8.87899 10.1948 9.19688 10.7466 9.39311 11.1548C9.49113 11.3587 9.55833 11.5258 9.60112 11.6424C9.62251 11.7007 9.63774 11.7461 9.64764 11.7771C9.65755 11.8081 9.66209 11.8244 9.66208 11.8244L11.5893 11.2896ZM2.15449 5.27306L1.95448 6.17308L3.90685 6.60696L4.10686 5.70694L2.15449 5.27306ZM2.71154 7.36572C7.77017 8.50177 8.77447 12.0843 8.77273 12.0782L10.6966 11.5318C10.5989 11.1877 9.22316 6.77827 3.14978 5.41432L2.71154 7.36572Z" fill="url(#paint9_linear_2_390)" mask="url(#path-8-inside-4_2_390)"/>
<mask id="path-10-inside-5_2_390" fill="white">
<path d="M6.97263 12.119L7.27261 11.244C5.96061 10.799 5.75463 10.211 5.83963 9.92798L6.1196 9.34503L5.45963 9.29999C3.85963 9.12299 3.75062 8.38699 3.74362 8.29999L3.78262 7.78802L3.26163 7.83704C3.0231 7.87223 2.77977 7.85626 2.54788 7.79022C2.31599 7.72419 2.1008 7.60955 1.9166 7.45398C1.71522 7.21745 1.61342 6.91204 1.6326 6.60199L1.64359 6.48303L1.59561 6.36902C1.49637 6.20083 1.43628 6.01246 1.41983 5.81787C1.40338 5.62328 1.43104 5.42745 1.50064 5.245C1.69546 4.97707 1.98853 4.79728 2.31564 4.745L2.48959 4.71698L2.60361 4.58002C2.72513 4.40139 2.88422 4.25147 3.06973 4.14075C3.25525 4.03003 3.46274 3.96119 3.67764 3.93903C4.14924 3.97578 4.59154 4.18218 4.92264 4.52002L5.10263 4.71399L5.36063 4.65802C7.21463 4.25802 7.66062 5.441 7.67862 5.492L7.7916 5.80902L8.12759 5.79901C10.0826 5.74501 10.2576 6.97803 10.2596 6.99103L10.2896 7.229L10.5006 7.34198C10.8432 7.51403 11.135 7.77217 11.3477 8.09106C11.5603 8.40996 11.6864 8.77868 11.7136 9.16101C11.7456 9.19601 11.4486 11.292 11.4476 11.298L12.3526 11.488C12.3526 11.488 12.5996 9.64199 12.6336 9.39899C12.6768 8.84199 12.5574 8.28446 12.2899 7.79401C12.0224 7.30355 11.6183 6.90126 11.1266 6.63599C10.9299 6.08389 10.5565 5.61217 10.0644 5.29395C9.5722 4.97572 8.98881 4.82884 8.40463 4.87604C8.09027 4.39134 7.63134 4.01779 7.09293 3.80835C6.55451 3.59891 5.96389 3.56413 5.40463 3.70898C4.92126 3.27438 4.29752 3.02838 3.64761 3.01599C3.32743 3.03479 3.01475 3.1206 2.72983 3.26788C2.44491 3.41517 2.19411 3.62068 1.99362 3.87103C1.69847 3.92402 1.4204 4.04723 1.18289 4.23029C0.945384 4.41334 0.755399 4.65087 0.628998 4.92279C0.502597 5.19472 0.443475 5.49302 0.456635 5.7926C0.469794 6.09218 0.554863 6.38419 0.70462 6.64398C0.693441 7.17279 0.881539 7.68649 1.2316 8.08301C1.45245 8.30207 1.71457 8.47516 2.00278 8.59222C2.29098 8.70929 2.59956 8.76802 2.91061 8.76501C3.08735 9.15484 3.36592 9.48976 3.71701 9.73456C4.06811 9.97936 4.47873 10.125 4.90561 10.156C4.92 10.3423 4.96775 10.5246 5.0466 10.694C5.25464 11.0494 5.53258 11.3589 5.86362 11.6038C6.19465 11.8487 6.57194 12.024 6.97263 12.119V12.119Z"/>
</mask>
<path d="M6.97263 12.119L7.27261 11.244C5.96061 10.799 5.75463 10.211 5.83963 9.92798L6.1196 9.34503L5.45963 9.29999C3.85963 9.12299 3.75062 8.38699 3.74362 8.29999L3.78262 7.78802L3.26163 7.83704C3.0231 7.87223 2.77977 7.85626 2.54788 7.79022C2.31599 7.72419 2.1008 7.60955 1.9166 7.45398C1.71522 7.21745 1.61342 6.91204 1.6326 6.60199L1.64359 6.48303L1.59561 6.36902C1.49637 6.20083 1.43628 6.01246 1.41983 5.81787C1.40338 5.62328 1.43104 5.42745 1.50064 5.245C1.69546 4.97707 1.98853 4.79728 2.31564 4.745L2.48959 4.71698L2.60361 4.58002C2.72513 4.40139 2.88422 4.25147 3.06973 4.14075C3.25525 4.03003 3.46274 3.96119 3.67764 3.93903C4.14924 3.97578 4.59154 4.18218 4.92264 4.52002L5.10263 4.71399L5.36063 4.65802C7.21463 4.25802 7.66062 5.441 7.67862 5.492L7.7916 5.80902L8.12759 5.79901C10.0826 5.74501 10.2576 6.97803 10.2596 6.99103L10.2896 7.229L10.5006 7.34198C10.8432 7.51403 11.135 7.77217 11.3477 8.09106C11.5603 8.40996 11.6864 8.77868 11.7136 9.16101C11.7456 9.19601 11.4486 11.292 11.4476 11.298L12.3526 11.488C12.3526 11.488 12.5996 9.64199 12.6336 9.39899C12.6768 8.84199 12.5574 8.28446 12.2899 7.79401C12.0224 7.30355 11.6183 6.90126 11.1266 6.63599C10.9299 6.08389 10.5565 5.61217 10.0644 5.29395C9.5722 4.97572 8.98881 4.82884 8.40463 4.87604C8.09027 4.39134 7.63134 4.01779 7.09293 3.80835C6.55451 3.59891 5.96389 3.56413 5.40463 3.70898C4.92126 3.27438 4.29752 3.02838 3.64761 3.01599C3.32743 3.03479 3.01475 3.1206 2.72983 3.26788C2.44491 3.41517 2.19411 3.62068 1.99362 3.87103C1.69847 3.92402 1.4204 4.04723 1.18289 4.23029C0.945384 4.41334 0.755399 4.65087 0.628998 4.92279C0.502597 5.19472 0.443475 5.49302 0.456635 5.7926C0.469794 6.09218 0.554863 6.38419 0.70462 6.64398C0.693441 7.17279 0.881539 7.68649 1.2316 8.08301C1.45245 8.30207 1.71457 8.47516 2.00278 8.59222C2.29098 8.70929 2.59956 8.76802 2.91061 8.76501C3.08735 9.15484 3.36592 9.48976 3.71701 9.73456C4.06811 9.97936 4.47873 10.125 4.90561 10.156C4.92 10.3423 4.96775 10.5246 5.0466 10.694C5.25464 11.0494 5.53258 11.3589 5.86362 11.6038C6.19465 11.8487 6.57194 12.024 6.97263 12.119V12.119Z" fill="url(#paint10_linear_2_390)"/>
<path d="M7.27261 11.244L8.21856 11.5683L8.54394 10.6193L7.59382 10.297L7.27261 11.244ZM5.83963 9.92798L4.9382 9.49505L4.90437 9.56549L4.8819 9.64032L5.83963 9.92798ZM6.1196 9.34503L7.02103 9.77796L7.65984 8.44783L6.18769 8.34735L6.1196 9.34503ZM5.45963 9.29999L5.34967 10.2939L5.37056 10.2962L5.39153 10.2977L5.45963 9.29999ZM3.74362 8.29999L2.74651 8.22403L2.74056 8.30212L2.74684 8.38019L3.74362 8.29999ZM3.78262 7.78802L4.77973 7.86399L4.86983 6.68133L3.68896 6.79242L3.78262 7.78802ZM3.26163 7.83704L3.16797 6.84143L3.14174 6.8439L3.11567 6.84775L3.26163 7.83704ZM1.9166 7.45398L1.15517 8.10223L1.20851 8.16489L1.27138 8.21798L1.9166 7.45398ZM1.6326 6.60199L0.636837 6.51003L0.635443 6.52512L0.634507 6.54024L1.6326 6.60199ZM1.64359 6.48303L2.63935 6.575L2.66236 6.32583L2.56531 6.0952L1.64359 6.48303ZM1.59561 6.36902L2.51734 5.98118L2.49116 5.91897L2.45686 5.86083L1.59561 6.36902ZM1.50064 5.245L0.691857 4.65689L0.613691 4.76439L0.566318 4.88857L1.50064 5.245ZM2.31564 4.745L2.47347 5.73246L2.47465 5.73227L2.31564 4.745ZM2.48959 4.71698L2.6486 5.70426L3.01847 5.64469L3.25815 5.35676L2.48959 4.71698ZM2.60361 4.58002L3.37217 5.2198L3.40316 5.18256L3.43041 5.14251L2.60361 4.58002ZM3.67764 3.93903L3.75534 2.94205L3.66509 2.93502L3.57505 2.9443L3.67764 3.93903ZM4.92264 4.52002L5.65566 3.83982L5.64638 3.82982L5.63684 3.82008L4.92264 4.52002ZM5.10263 4.71399L4.36961 5.39419L4.75743 5.81214L5.31464 5.69126L5.10263 4.71399ZM5.36063 4.65802L5.14973 3.68051L5.14862 3.68075L5.36063 4.65802ZM7.67862 5.492L6.73562 5.82483L6.73665 5.8277L7.67862 5.492ZM7.7916 5.80902L6.84962 6.14471L7.09393 6.83025L7.82137 6.80858L7.7916 5.80902ZM8.12759 5.79901L8.09998 4.79939L8.09782 4.79945L8.12759 5.79901ZM10.2596 6.99103L11.2517 6.86583L11.25 6.85238L11.248 6.83897L10.2596 6.99103ZM10.2896 7.229L9.29751 7.3542L9.36219 7.86673L9.81761 8.11059L10.2896 7.229ZM10.5006 7.34198L10.0286 8.22356L10.0401 8.22972L10.0518 8.23558L10.5006 7.34198ZM11.7136 9.16101L10.7161 9.23191L10.7408 9.57898L10.9756 9.83578L11.7136 9.16101ZM11.4476 11.298L10.4612 11.1336L10.3035 12.0796L11.2421 12.2767L11.4476 11.298ZM12.3526 11.488L12.1472 12.4667L13.201 12.6879L13.3438 11.6207L12.3526 11.488ZM12.6336 9.39899L13.624 9.53755L13.6283 9.50703L13.6306 9.47629L12.6336 9.39899ZM11.1266 6.63599L10.1846 6.97158L10.3136 7.33359L10.6518 7.51606L11.1266 6.63599ZM8.40463 4.87604L7.56565 5.42019L7.89037 5.92085L8.48517 5.87279L8.40463 4.87604ZM5.40463 3.70898L4.73604 4.45261L5.13543 4.81171L5.65537 4.67704L5.40463 3.70898ZM3.64761 3.01599L3.66667 2.01617L3.62781 2.01543L3.58901 2.01771L3.64761 3.01599ZM1.99362 3.87103L2.17031 4.8553L2.53963 4.789L2.77418 4.49611L1.99362 3.87103ZM0.70462 6.64398L1.7044 6.66512L1.71029 6.38624L1.57098 6.14457L0.70462 6.64398ZM1.2316 8.08301L0.48194 8.74483L0.503864 8.76967L0.527384 8.793L1.2316 8.08301ZM2.91061 8.76501L3.82139 8.3521L3.55239 7.75878L2.90097 7.76506L2.91061 8.76501ZM4.90561 10.156L5.90264 10.079L5.83636 9.22106L4.97814 9.15864L4.90561 10.156ZM5.0466 10.694L4.13996 11.1159L4.15982 11.1586L4.1836 11.1992L5.0466 10.694ZM7.91858 12.4433L8.21856 11.5683L6.32666 10.9197L6.02668 11.7947L7.91858 12.4433ZM7.59382 10.297C7.03444 10.1073 6.83687 9.92716 6.79015 9.87288C6.74802 9.82393 6.87685 9.951 6.79736 10.2156L4.8819 9.64032C4.71741 10.188 4.90673 10.7505 5.27435 11.1776C5.63736 11.5994 6.19878 11.9358 6.95141 12.191L7.59382 10.297ZM6.74106 10.3609L7.02103 9.77796L5.21817 8.91211L4.9382 9.49505L6.74106 10.3609ZM6.18769 8.34735L5.52772 8.30231L5.39153 10.2977L6.05151 10.3427L6.18769 8.34735ZM5.56958 8.30605C4.91073 8.23317 4.71538 8.06252 4.69347 8.04168C4.68137 8.03018 4.72878 8.07534 4.7404 8.21979L2.74684 8.38019C2.76547 8.61163 2.87088 9.0683 3.31503 9.49079C3.74937 9.90395 4.40852 10.1898 5.34967 10.2939L5.56958 8.30605ZM4.74073 8.37595L4.77973 7.86399L2.78551 7.71206L2.74651 8.22403L4.74073 8.37595ZM3.68896 6.79242L3.16797 6.84143L3.35529 8.83264L3.87628 8.78363L3.68896 6.79242ZM3.11567 6.84775C3.01751 6.86223 2.91729 6.85566 2.82175 6.82846L2.27401 8.75199C2.64226 8.85685 3.02869 8.88223 3.40758 8.82633L3.11567 6.84775ZM2.82175 6.82846C2.72636 6.80129 2.63774 6.7541 2.56182 6.68998L1.27138 8.21798C1.56387 8.465 1.90562 8.64709 2.27401 8.75199L2.82175 6.82846ZM2.67802 6.80573C2.64446 6.7663 2.62749 6.71541 2.63069 6.66374L0.634507 6.54024C0.599341 7.10868 0.785978 7.66859 1.15517 8.10223L2.67802 6.80573ZM2.62836 6.69395L2.63935 6.575L0.647823 6.39107L0.636837 6.51003L2.62836 6.69395ZM2.56531 6.0952L2.51734 5.98118L0.673883 6.75685L0.721857 6.87087L2.56531 6.0952ZM2.45686 5.86083C2.43392 5.82195 2.42007 5.77848 2.41628 5.73365L0.423383 5.90209C0.452488 6.24644 0.558827 6.57971 0.734366 6.87721L2.45686 5.86083ZM2.41628 5.73365C2.4125 5.6889 2.41885 5.64367 2.43496 5.60142L0.566318 4.88857C0.443227 5.21123 0.394272 5.55766 0.423383 5.90209L2.41628 5.73365ZM2.30942 5.8331C2.34864 5.77918 2.40762 5.74299 2.47347 5.73246L2.15782 3.75753C1.56943 3.85157 1.04229 4.17497 0.691857 4.65689L2.30942 5.8331ZM2.47465 5.73227L2.6486 5.70426L2.33059 3.7297L2.15664 3.75772L2.47465 5.73227ZM3.25815 5.35676L3.37217 5.2198L1.83505 3.94024L1.72104 4.0772L3.25815 5.35676ZM3.43041 5.14251C3.46999 5.08433 3.52181 5.0355 3.58223 4.99944L2.55724 3.28206C2.24663 3.46744 1.98027 3.71845 1.7768 4.01753L3.43041 5.14251ZM3.58223 4.99944C3.64258 4.96342 3.71017 4.94098 3.78024 4.93375L3.57505 2.9443C3.21531 2.98141 2.86791 3.09664 2.55724 3.28206L3.58223 4.99944ZM3.59995 4.936C3.83045 4.95397 4.04662 5.05485 4.20844 5.21996L5.63684 3.82008C5.13647 3.30952 4.46804 2.99759 3.75534 2.94205L3.59995 4.936ZM4.18961 5.20022L4.36961 5.39419L5.83565 4.03379L5.65566 3.83982L4.18961 5.20022ZM5.31464 5.69126L5.57263 5.63529L5.14862 3.68075L4.89062 3.73672L5.31464 5.69126ZM5.57152 5.63553C6.26073 5.48683 6.53537 5.6529 6.61865 5.71368C6.74041 5.80252 6.76351 5.90383 6.73563 5.82482L8.62161 5.15918C8.57572 5.02918 8.36684 4.51349 7.79759 4.0981C7.18988 3.65463 6.31452 3.42921 5.14973 3.68051L5.57152 5.63553ZM6.73665 5.8277L6.84962 6.14471L8.73357 5.47333L8.62059 5.15631L6.73665 5.8277ZM7.82137 6.80858L8.15737 6.79857L8.09782 4.79945L7.76182 4.80946L7.82137 6.80858ZM8.1552 6.79863C8.90361 6.77796 9.143 6.9977 9.20147 7.05916C9.24435 7.10423 9.26487 7.14531 9.27375 7.16723C9.27819 7.17817 9.27912 7.18296 9.27801 7.17854C9.27742 7.17621 9.27627 7.17135 9.27477 7.16351C9.27401 7.15957 9.27319 7.155 9.27232 7.14978C9.27152 7.14492 9.27022 7.13645 9.27124 7.14309L11.248 6.83897C11.2489 6.84479 11.2471 6.83312 11.2454 6.82284C11.2437 6.8122 11.2415 6.79998 11.2389 6.7863C11.2336 6.759 11.2266 6.72636 11.2172 6.68918C11.1985 6.61506 11.1702 6.5218 11.1274 6.41617C11.0418 6.20492 10.896 5.93869 10.6505 5.68063C10.1322 5.13583 9.30658 4.76606 8.09998 4.79939L8.1552 6.79863ZM9.26748 7.11622L9.29751 7.3542L11.2818 7.10381L11.2517 6.86583L9.26748 7.11622ZM9.81761 8.11059L10.0286 8.22356L10.9727 6.4604L10.7617 6.34742L9.81761 8.11059ZM10.0518 8.23558C10.2393 8.32979 10.3992 8.47117 10.5157 8.64587L12.1797 7.53626C11.8709 7.07317 11.447 6.69826 10.9495 6.44838L10.0518 8.23558ZM10.5157 8.64587C10.6322 8.82049 10.7012 9.02245 10.7161 9.23191L12.7111 9.09011C12.6716 8.53491 12.4885 7.99943 12.1797 7.53626L10.5157 8.64587ZM10.9756 9.83578C10.8637 9.71346 10.8096 9.59271 10.7864 9.535C10.7599 9.46924 10.746 9.41389 10.7387 9.38114C10.7243 9.31652 10.72 9.26544 10.7185 9.24541C10.7152 9.20132 10.7161 9.16973 10.7162 9.16654C10.7165 9.1539 10.7169 9.15489 10.7149 9.17953C10.7112 9.22375 10.7037 9.29568 10.6923 9.3937C10.67 9.58661 10.6367 9.84534 10.6017 10.1086C10.5303 10.6455 10.4583 11.151 10.4612 11.1336L12.434 11.4624C12.4379 11.4391 12.5149 10.8935 12.5842 10.3722C12.6196 10.1063 12.6547 9.83411 12.679 9.62398C12.691 9.52049 12.7015 9.42287 12.7079 9.34575C12.7109 9.30972 12.7145 9.26207 12.7156 9.21488C12.7161 9.19441 12.7169 9.14907 12.7128 9.095C12.7109 9.06997 12.7061 9.01485 12.691 8.94715C12.6873 8.93023 12.6444 8.69706 12.4516 8.48624L10.9756 9.83578ZM11.2421 12.2767L12.1472 12.4667L12.5581 10.5094L11.6531 10.3194L11.2421 12.2767ZM12.3526 11.488C13.3438 11.6207 13.3438 11.6207 13.3438 11.6206C13.3438 11.6206 13.3438 11.6206 13.3438 11.6206C13.3438 11.6205 13.3438 11.6204 13.3438 11.6203C13.3439 11.6201 13.3439 11.6198 13.344 11.6193C13.3441 11.6184 13.3443 11.6171 13.3445 11.6154C13.345 11.6119 13.3457 11.6067 13.3466 11.5999C13.3484 11.5863 13.3511 11.5664 13.3545 11.5409C13.3613 11.49 13.3711 11.4169 13.3829 11.3285C13.4066 11.1517 13.4385 10.9135 13.4715 10.6676C13.5378 10.1736 13.6075 9.65543 13.624 9.53755L11.6433 9.26042C11.6258 9.38555 11.555 9.91194 11.4893 10.4016C11.4563 10.6477 11.4243 10.8861 11.4006 11.063C11.3888 11.1515 11.379 11.2246 11.3722 11.2756C11.3687 11.3011 11.3661 11.321 11.3642 11.3346C11.3633 11.3414 11.3626 11.3466 11.3622 11.3501C11.3619 11.3519 11.3618 11.3532 11.3616 11.3541C11.3616 11.3545 11.3615 11.3549 11.3615 11.3551C11.3615 11.3552 11.3615 11.3553 11.3615 11.3553C11.3615 11.3554 11.3615 11.3554 11.3615 11.3554C11.3615 11.3554 11.3615 11.3554 12.3526 11.488ZM13.6306 9.47629C13.6888 8.72626 13.528 7.97554 13.1678 7.31518L11.412 8.27284C11.5868 8.59338 11.6648 8.95773 11.6366 9.32168L13.6306 9.47629ZM13.1678 7.31518C12.8076 6.6548 12.2635 6.11311 11.6014 5.75591L10.6518 7.51606C10.9731 7.6894 11.2372 7.9523 11.412 8.27284L13.1678 7.31518ZM12.0686 6.30039C11.798 5.54087 11.2843 4.89194 10.6073 4.45419L9.52139 6.1337C9.8287 6.3324 10.0618 6.62692 10.1846 6.97158L12.0686 6.30039ZM10.6073 4.45419C9.93027 4.01642 9.12771 3.81436 8.3241 3.87929L8.48517 5.87279C8.84991 5.84332 9.21413 5.93503 9.52139 6.1337L10.6073 4.45419ZM9.24362 4.33188C8.81506 3.67112 8.18945 3.1619 7.45546 2.87638L6.73039 4.74032C7.07323 4.87369 7.36547 5.11156 7.56565 5.42019L9.24362 4.33188ZM7.45546 2.87638C6.7215 2.59087 5.91633 2.54345 5.1539 2.74093L5.65537 4.67704C6.01146 4.58481 6.38752 4.60694 6.73039 4.74032L7.45546 2.87638ZM6.07323 2.96536C5.41114 2.37008 4.55683 2.03314 3.66667 2.01617L3.62856 4.01581C4.03822 4.02362 4.43137 4.17868 4.73604 4.45261L6.07323 2.96536ZM3.58901 2.01771C3.12908 2.04471 2.67992 2.16797 2.27062 2.37955L3.18903 4.15621C3.34957 4.07323 3.52578 4.02487 3.70622 4.01427L3.58901 2.01771ZM2.27062 2.37955C1.86125 2.59117 1.501 2.8864 1.21306 3.24595L2.77418 4.49611C2.88722 4.35496 3.02857 4.23916 3.18903 4.15621L2.27062 2.37955ZM1.81693 2.88677C1.36389 2.96809 0.937036 3.15722 0.572428 3.43824L1.79336 5.02233C1.90376 4.93723 2.03305 4.87994 2.17031 4.8553L1.81693 2.88677ZM0.572428 3.43824C0.207853 3.71924 -0.083782 4.08384 -0.277819 4.50127L1.53581 5.34431C1.59458 5.21789 1.68292 5.10745 1.79336 5.02233L0.572428 3.43824ZM-0.277819 4.50127C-0.471839 4.91866 -0.562604 5.37659 -0.542402 5.83649L1.45567 5.74872C1.44955 5.60946 1.47703 5.47077 1.53581 5.34431L-0.277819 4.50127ZM-0.542402 5.83649C-0.5222 6.2964 -0.391605 6.74464 -0.161743 7.1434L1.57098 6.14457C1.50133 6.02373 1.46179 5.88796 1.45567 5.74872L-0.542402 5.83649ZM-0.295156 6.62285C-0.311641 7.40259 -0.034287 8.1601 0.48194 8.74483L1.98126 7.42118C1.79737 7.21289 1.69852 6.94299 1.7044 6.66512L-0.295156 6.62285ZM0.527384 8.793C0.842124 9.10518 1.21568 9.35186 1.62644 9.51871L2.37911 7.66574C2.21347 7.59846 2.06279 7.49896 1.93581 7.37302L0.527384 8.793ZM1.62644 9.51871C2.0372 9.68556 2.47698 9.76924 2.92026 9.76497L2.90097 7.76506C2.72214 7.76679 2.54476 7.73302 2.37911 7.66574L1.62644 9.51871ZM1.99984 9.17793C2.25083 9.73154 2.64646 10.2072 3.14507 10.5549L4.28895 8.91427C4.08537 8.77232 3.92386 8.57813 3.82139 8.3521L1.99984 9.17793ZM3.14507 10.5549C3.64367 10.9025 4.22681 11.1093 4.83307 11.1534L4.97814 9.15864C4.73064 9.14064 4.49255 9.05622 4.28895 8.91427L3.14507 10.5549ZM3.90858 10.233C3.9322 10.5387 4.01054 10.8378 4.13996 11.1159L5.95325 10.2721C5.92496 10.2114 5.90781 10.1459 5.90264 10.079L3.90858 10.233ZM4.1836 11.1992C4.45995 11.6713 4.82915 12.0824 5.26884 12.4077L6.4584 10.7999C6.23601 10.6354 6.04933 10.4275 5.9096 10.1888L4.1836 11.1992ZM5.26884 12.4077C5.70855 12.733 6.20969 12.9659 6.74193 13.092L7.20332 11.146C6.93418 11.0822 6.68075 10.9644 6.4584 10.7999L5.26884 12.4077Z" fill="url(#paint11_linear_2_390)" mask="url(#path-10-inside-5_2_390)"/>
<mask id="path-12-inside-6_2_390" fill="white">
<path d="M15.0977 11.772L14.1917 11.589L14.6447 11.681L14.1907 11.592C14.2692 11.2657 14.2259 10.9219 14.0691 10.6251C13.9122 10.3283 13.6525 10.099 13.3386 9.98002L13.0126 9.869L13.0247 9.525C13.0424 9.18936 12.9387 8.85854 12.7327 8.593C12.6647 8.54042 12.5848 8.50528 12.5001 8.49064C12.4154 8.476 12.3284 8.48231 12.2466 8.50901L12.0836 7.59904C12.3021 7.54813 12.5293 7.54874 12.7475 7.60081C12.9657 7.65287 13.1687 7.75496 13.3406 7.89903C13.6986 8.25346 13.9124 8.72804 13.9407 9.231C14.384 9.47066 14.737 9.84862 14.9458 10.3073C15.1546 10.766 15.208 11.2803 15.0977 11.772V11.772Z"/>
</mask>
<path d="M15.0977 11.772L14.1917 11.589L14.6447 11.681L14.1907 11.592C14.2692 11.2657 14.2259 10.9219 14.0691 10.6251C13.9122 10.3283 13.6525 10.099 13.3386 9.98002L13.0126 9.869L13.0247 9.525C13.0424 9.18936 12.9387 8.85854 12.7327 8.593C12.6647 8.54042 12.5848 8.50528 12.5001 8.49064C12.4154 8.476 12.3284 8.48231 12.2466 8.50901L12.0836 7.59904C12.3021 7.54813 12.5293 7.54874 12.7475 7.60081C12.9657 7.65287 13.1687 7.75496 13.3406 7.89903C13.6986 8.25346 13.9124 8.72804 13.9407 9.231C14.384 9.47066 14.737 9.84862 14.9458 10.3073C15.1546 10.766 15.208 11.2803 15.0977 11.772V11.772Z" fill="url(#paint12_linear_2_390)"/>
<path d="M14.1917 11.589L14.3896 10.6088L13.9927 12.569L14.1917 11.589ZM14.6447 11.681L14.4523 12.6623L14.8436 10.701L14.6447 11.681ZM14.1907 11.592L13.2184 11.3581L12.9744 12.3726L13.9983 12.5733L14.1907 11.592ZM13.3386 9.98002L13.693 9.04494L13.6771 9.0389L13.661 9.03341L13.3386 9.98002ZM13.0126 9.869L12.0132 9.83406L11.9873 10.5762L12.6902 10.8156L13.0126 9.869ZM13.0247 9.525L12.026 9.47234L12.0256 9.4812L12.0253 9.49007L13.0247 9.525ZM12.7327 8.593L13.5227 7.97994L13.4448 7.87956L13.3443 7.80184L12.7327 8.593ZM12.2466 8.50901L11.2623 8.68536L11.465 9.81645L12.5572 9.45956L12.2466 8.50901ZM12.0836 7.59904L11.8566 6.62514L10.9318 6.84067L11.0993 7.77538L12.0836 7.59904ZM13.3406 7.89903L14.0442 7.18842L14.0148 7.15923L13.983 7.13259L13.3406 7.89903ZM13.9407 9.231L12.9422 9.28706L12.9736 9.84497L13.4651 10.1107L13.9407 9.231ZM15.2956 10.7918L14.3896 10.6088L13.9937 12.5692L14.8997 12.7522L15.2956 10.7918ZM13.9927 12.569L14.4457 12.661L14.8436 10.701L14.3906 10.609L13.9927 12.569ZM14.837 10.6997L14.383 10.6107L13.9983 12.5733L14.4523 12.6623L14.837 10.6997ZM15.1629 11.8259C15.2984 11.2629 15.2238 10.6698 14.9532 10.1578L13.185 11.0924C13.2281 11.174 13.24 11.2685 13.2184 11.3581L15.1629 11.8259ZM14.9532 10.1578C14.6826 9.64578 14.2345 9.25015 13.693 9.04494L12.9842 10.9151C13.0705 10.9478 13.1419 11.0109 13.185 11.0924L14.9532 10.1578ZM13.661 9.03341L13.335 8.92239L12.6902 10.8156L13.0162 10.9266L13.661 9.03341ZM14.012 9.90393L14.024 9.55993L12.0253 9.49007L12.0132 9.83406L14.012 9.90393ZM14.0233 9.57766C14.0536 9.00229 13.876 8.43517 13.5227 7.97994L11.9426 9.20605C12.0015 9.2819 12.0311 9.37642 12.026 9.47234L14.0233 9.57766ZM13.3443 7.80184C13.1471 7.64939 12.9157 7.54764 12.6704 7.50525L12.3297 9.47603C12.2539 9.46292 12.1822 9.43145 12.121 9.38415L13.3443 7.80184ZM12.6704 7.50525C12.4248 7.46281 12.1728 7.48113 11.9361 7.55846L12.5572 9.45956C12.484 9.4835 12.4059 9.48918 12.3297 9.47603L12.6704 7.50525ZM13.231 8.33266L13.0679 7.42269L11.0993 7.77538L11.2623 8.68536L13.231 8.33266ZM12.3106 8.57294C12.3779 8.55724 12.448 8.55743 12.5154 8.57349L12.9796 6.62813C12.6106 6.54006 12.2262 6.53902 11.8566 6.62514L12.3106 8.57294ZM12.5154 8.57349C12.5827 8.58957 12.6453 8.62107 12.6983 8.66546L13.983 7.13259C13.6921 6.88885 13.3486 6.71618 12.9796 6.62813L12.5154 8.57349ZM12.6371 8.60963C12.8192 8.78995 12.9279 9.03132 12.9422 9.28706L14.9391 9.17493C14.897 8.42475 14.5781 7.71697 14.0442 7.18842L12.6371 8.60963ZM13.4651 10.1107C13.7168 10.2467 13.9171 10.4613 14.0357 10.7217L15.8559 9.89289C15.5568 9.23598 15.0513 8.69461 14.4162 8.3513L13.4651 10.1107ZM14.0357 10.7217C14.1543 10.9821 14.1845 11.274 14.1219 11.5531L16.0734 11.9909C16.2314 11.2865 16.155 10.5499 15.8559 9.89289L14.0357 10.7217Z" fill="url(#paint13_linear_2_390)" mask="url(#path-12-inside-6_2_390)"/>
<defs>
<linearGradient id="paint0_linear_2_390" x1="22.3697" y1="1" x2="22.3697" y2="21.3461" gradientUnits="userSpaceOnUse">
<stop stop-color="#F9F295"/>
<stop offset="0.375" stop-color="#E0AA3E"/>
<stop offset="0.692708" stop-color="#F7EF8A"/>
<stop offset="1" stop-color="#B88A44"/>
</linearGradient>
<linearGradient id="paint1_linear_2_390" x1="22.3697" y1="1" x2="22.3697" y2="21.3461" gradientUnits="userSpaceOnUse">
<stop stop-color="#F9F295"/>
<stop offset="0.375" stop-color="#E0AA3E"/>
<stop offset="0.692708" stop-color="#F7EF8A"/>
<stop offset="1" stop-color="#B88A44"/>
</linearGradient>
<linearGradient id="paint2_linear_2_390" x1="11.3757" y1="18.493" x2="11.3757" y2="21.319" gradientUnits="userSpaceOnUse">
<stop stop-color="#F9F295"/>
<stop offset="0.375" stop-color="#E0AA3E"/>
<stop offset="0.692708" stop-color="#F7EF8A"/>
<stop offset="1" stop-color="#B88A44"/>
</linearGradient>
<linearGradient id="paint3_linear_2_390" x1="11.3757" y1="18.493" x2="11.3757" y2="21.319" gradientUnits="userSpaceOnUse">
<stop stop-color="#F9F295"/>
<stop offset="0.375" stop-color="#E0AA3E"/>
<stop offset="0.692708" stop-color="#F7EF8A"/>
<stop offset="1" stop-color="#B88A44"/>
</linearGradient>
<linearGradient id="paint4_linear_2_390" x1="11.56" y1="11.222" x2="11.56" y2="19.384" gradientUnits="userSpaceOnUse">
<stop stop-color="#F9F295"/>
<stop offset="0.375" stop-color="#E0AA3E"/>
<stop offset="0.692708" stop-color="#F7EF8A"/>
<stop offset="1" stop-color="#B88A44"/>
</linearGradient>
<linearGradient id="paint5_linear_2_390" x1="11.56" y1="11.222" x2="11.56" y2="19.384" gradientUnits="userSpaceOnUse">
<stop stop-color="#F9F295"/>
<stop offset="0.375" stop-color="#E0AA3E"/>
<stop offset="0.692708" stop-color="#F7EF8A"/>
<stop offset="1" stop-color="#B88A44"/>
</linearGradient>
<linearGradient id="paint6_linear_2_390" x1="7.02565" y1="13.048" x2="7.02565" y2="13.973" gradientUnits="userSpaceOnUse">
<stop stop-color="#F9F295"/>
<stop offset="0.375" stop-color="#E0AA3E"/>
<stop offset="0.692708" stop-color="#F7EF8A"/>
<stop offset="1" stop-color="#B88A44"/>
</linearGradient>
<linearGradient id="paint7_linear_2_390" x1="7.02565" y1="13.048" x2="7.02565" y2="13.973" gradientUnits="userSpaceOnUse">
<stop stop-color="#F9F295"/>
<stop offset="0.375" stop-color="#E0AA3E"/>
<stop offset="0.692708" stop-color="#F7EF8A"/>
<stop offset="1" stop-color="#B88A44"/>
</linearGradient>
<linearGradient id="paint8_linear_2_390" x1="6.77817" y1="5.49" x2="6.77817" y2="11.805" gradientUnits="userSpaceOnUse">
<stop stop-color="#F9F295"/>
<stop offset="0.375" stop-color="#E0AA3E"/>
<stop offset="0.692708" stop-color="#F7EF8A"/>
<stop offset="1" stop-color="#B88A44"/>
</linearGradient>
<linearGradient id="paint9_linear_2_390" x1="6.77817" y1="5.49" x2="6.77817" y2="11.805" gradientUnits="userSpaceOnUse">
<stop stop-color="#F9F295"/>
<stop offset="0.375" stop-color="#E0AA3E"/>
<stop offset="0.692708" stop-color="#F7EF8A"/>
<stop offset="1" stop-color="#B88A44"/>
</linearGradient>
<linearGradient id="paint10_linear_2_390" x1="6.54855" y1="3.01599" x2="6.54855" y2="12.119" gradientUnits="userSpaceOnUse">
<stop stop-color="#F9F295"/>
<stop offset="0.375" stop-color="#E0AA3E"/>
<stop offset="0.692708" stop-color="#F7EF8A"/>
<stop offset="1" stop-color="#B88A44"/>
</linearGradient>
<linearGradient id="paint11_linear_2_390" x1="6.54855" y1="3.01599" x2="6.54855" y2="12.119" gradientUnits="userSpaceOnUse">
<stop stop-color="#F9F295"/>
<stop offset="0.375" stop-color="#E0AA3E"/>
<stop offset="0.692708" stop-color="#F7EF8A"/>
<stop offset="1" stop-color="#B88A44"/>
</linearGradient>
<linearGradient id="paint12_linear_2_390" x1="13.6187" y1="7.5613" x2="13.6187" y2="11.772" gradientUnits="userSpaceOnUse">
<stop stop-color="#F9F295"/>
<stop offset="0.375" stop-color="#E0AA3E"/>
<stop offset="0.692708" stop-color="#F7EF8A"/>
<stop offset="1" stop-color="#B88A44"/>
</linearGradient>
<linearGradient id="paint13_linear_2_390" x1="13.6187" y1="7.5613" x2="13.6187" y2="11.772" gradientUnits="userSpaceOnUse">
<stop stop-color="#F9F295"/>
<stop offset="0.375" stop-color="#E0AA3E"/>
<stop offset="0.692708" stop-color="#F7EF8A"/>
<stop offset="1" stop-color="#B88A44"/>
</linearGradient>
</defs>
</svg>
