<svg width="21" height="26" viewBox="0 0 21 26" fill="none" xmlns="http://www.w3.org/2000/svg">
<path d="M19.8666 5.95532C20.0316 4.37532 20.0386 2.30732 19.1326 1.42532C18.8901 1.19699 18.5811 1.05206 18.2505 1.01159C17.9199 0.97112 17.585 1.03725 17.2946 1.20034C16.2636 1.63734 15.1566 3.04133 13.9246 5.47833C13.7904 4.93224 13.4792 4.44595 13.0396 4.09533C12.9281 4.02435 12.8038 3.97577 12.6736 3.95232C12.6476 3.86932 12.6146 3.77633 12.5736 3.67733C12.4223 3.26219 12.1419 2.90644 11.7736 2.66232C11.5158 2.50669 11.2174 2.43181 10.9166 2.44732C10.9161 2.22685 10.8611 2.00994 10.7564 1.81591C10.6517 1.62188 10.5006 1.45678 10.3167 1.33532C10.1098 1.26508 9.88766 1.25264 9.67426 1.29934C9.46085 1.34604 9.26427 1.45012 9.10565 1.60033C8.90859 1.451 8.68011 1.34846 8.43756 1.30047C8.19501 1.25248 7.94471 1.26029 7.70563 1.32333C7.50165 1.41817 7.32577 1.56432 7.19519 1.74749C7.06461 1.93066 6.98379 2.14458 6.96063 2.36834C6.42419 2.55325 5.96606 2.91412 5.66064 3.39233C5.47446 3.7199 5.39572 4.09764 5.43561 4.47231C4.98489 4.5288 4.57033 4.74783 4.26965 5.08831C4.08276 5.35025 3.96054 5.65277 3.91309 5.97103C3.86563 6.28929 3.89429 6.61427 3.99664 6.91933C3.71363 7.44832 3.5756 8.04276 3.59662 8.64233C3.2067 8.27207 2.71106 8.03263 2.17865 7.95733C2.12265 7.94633 2.04564 7.93133 2.02264 7.92333C1.9212 7.88585 1.80901 7.89017 1.71075 7.93536C1.6125 7.98055 1.53616 8.06291 1.4986 8.16433C1.46111 8.26578 1.46549 8.37796 1.51068 8.47622C1.55587 8.57448 1.63821 8.65075 1.73962 8.68832C1.83195 8.71911 1.92661 8.74252 2.02264 8.75832C2.44098 8.80622 2.8276 9.00455 3.1106 9.31634L2.91962 9.38934L2.58765 9.51632C2.05461 9.74469 1.61241 10.1435 1.33044 10.6503C1.04848 11.157 0.942663 11.743 1.0296 12.3163L1.88965 23.0163C1.93464 23.5595 2.18142 24.0661 2.58142 24.4363C2.98142 24.8065 3.50558 25.0134 4.0506 25.0163H16.1426C16.6878 25.0137 17.2122 24.8069 17.6124 24.4366C18.0126 24.0664 18.2596 23.5597 18.3046 23.0163L19.1646 12.3013C19.1646 12.2963 19.1646 12.2903 19.1646 12.2853C19.1646 12.2803 19.1646 12.2743 19.1646 12.2693C19.1646 12.2643 19.1646 12.2693 19.1646 12.2693C19.1646 12.2693 19.1646 12.2533 19.1646 12.2463C19.1646 12.2393 19.1646 12.2343 19.1646 12.2283C19.1646 12.2223 19.1646 12.2133 19.1646 12.2053C19.1646 12.1973 19.1646 12.1933 19.1646 12.1873C19.1646 12.1813 19.1646 12.1733 19.1596 12.1663L19.1546 12.1483L19.1476 12.1303L19.1396 12.1113L19.1317 12.0953L19.1216 12.0763L19.1126 12.0613L19.1006 12.0423L19.0896 12.0283L19.0766 12.0113L19.0636 11.9973L19.0496 11.9823L19.0346 11.9693L19.0206 11.9563L19.0036 11.9443L18.9886 11.9333L18.9706 11.9223L18.9547 11.9123L18.9366 11.9033L18.9186 11.8953L18.9016 11.8893L18.8806 11.8823H18.8636L18.8406 11.8773H18.8236H18.8006H18.7546C18.6546 11.8773 18.5616 11.8773 18.4706 11.8863C19.1649 9.97028 19.6334 7.97984 19.8666 5.95532ZM17.6136 1.95532C18.1686 1.72032 18.4216 1.87634 18.5636 2.01434C19.0726 2.50934 19.2556 3.95232 19.0546 5.87432C18.802 8.00102 18.2836 10.0876 17.5116 12.0853C17.3736 12.1403 17.2517 12.1993 17.1317 12.2573C16.7449 12.4717 16.3076 12.5785 15.8656 12.5663C15.4243 12.5784 14.9879 12.4721 14.6016 12.2583L14.5306 12.2243L14.5156 12.2163C14.0413 11.9754 13.5145 11.8562 12.9826 11.8693C12.6862 11.8654 12.3905 11.899 12.1026 11.9693C12.3026 11.4033 12.5536 10.7243 12.8386 9.99334V9.98132C13.0386 9.48132 13.2387 8.97232 13.4467 8.48132C13.6907 7.90232 13.9366 7.34532 14.1796 6.82632C15.8236 3.30132 16.9536 2.23032 17.6116 1.95132L17.6136 1.95532ZM8.7926 6.14834C8.77408 6.15246 8.75495 6.15286 8.73627 6.14956C8.71758 6.14626 8.69976 6.1393 8.68378 6.12908C8.66779 6.11886 8.65396 6.10556 8.64313 6.08999C8.63229 6.07442 8.62463 6.05686 8.62061 6.03832C8.61643 6.0198 8.616 6.00063 8.61926 5.98193C8.62252 5.96322 8.62945 5.94533 8.63965 5.92931C8.66014 5.89725 8.69247 5.87461 8.72961 5.86633L11.1426 5.32934C11.1533 5.32813 11.164 5.32813 11.1746 5.32934C11.2019 5.3296 11.2287 5.33755 11.2516 5.35232C11.2676 5.36243 11.2813 5.3756 11.2921 5.39105C11.3029 5.40649 11.3106 5.4239 11.3146 5.44231C11.3189 5.46083 11.3194 5.48003 11.3161 5.49874C11.3128 5.51746 11.3059 5.53533 11.2957 5.55132C11.2756 5.58231 11.2445 5.60449 11.2086 5.61334H11.1946L8.79462 6.14632L8.7926 6.14834ZM8.9046 7.96133C9.05615 7.83523 9.1743 7.67372 9.2486 7.49111C9.3229 7.3085 9.35109 7.11041 9.33063 6.91433L9.32562 6.86532L11.0176 6.48931L11.0246 6.51531C11.0787 6.70499 11.1788 6.87842 11.3159 7.02023C11.453 7.16203 11.6229 7.26785 11.8106 7.32833C12.0867 7.39305 12.326 7.5641 12.4766 7.80431C12.4866 7.83031 12.5226 7.92931 12.6386 8.30431C12.4646 8.72031 12.2936 9.14333 12.1286 9.56533L10.5146 10.4803C10.0844 10.7237 9.59893 10.8528 9.10461 10.8553H8.65161C8.48461 9.07434 8.46564 8.72233 8.46564 8.65533C8.51319 8.374 8.67035 8.123 8.90265 7.95733L8.9046 7.96133ZM8.78662 12.2373C8.77762 12.0913 8.76264 11.9463 8.74164 11.8053L8.72864 11.6673H9.1076C9.74179 11.6641 10.3646 11.4985 10.9166 11.1863L11.6716 10.7583C11.4366 11.3913 11.2396 11.9503 11.0906 12.3823C10.7744 12.5147 10.4333 12.5775 10.0906 12.5663C9.6486 12.5784 9.21141 12.4717 8.82465 12.2573L8.78662 12.2373ZM4.82764 6.87533C4.73981 6.67385 4.70064 6.45452 4.71332 6.2351C4.726 6.01568 4.79018 5.80234 4.90063 5.61233C5.03461 5.48872 5.19237 5.39374 5.36432 5.33321C5.53626 5.27269 5.71877 5.24791 5.90063 5.26034C5.96689 5.26534 6.03333 5.25399 6.09418 5.22732C6.15503 5.20064 6.20842 5.15943 6.24963 5.10732C6.29098 5.05545 6.31905 4.99427 6.33142 4.9291C6.34379 4.86393 6.34008 4.79675 6.32062 4.73333C6.26314 4.58343 6.23805 4.42304 6.24701 4.26275C6.25597 4.10246 6.29879 3.9459 6.37262 3.80334C6.62665 3.44655 6.99793 3.1903 7.42163 3.07934C7.50232 3.05981 7.57516 3.0161 7.63037 2.95409C7.68558 2.89209 7.72057 2.81473 7.73065 2.73232C7.77365 2.37832 7.87664 2.13233 8.00464 2.08733C8.20464 2.00833 8.63161 2.23733 8.86261 2.43133C8.93781 2.49535 9.03369 2.52994 9.13245 2.52865C9.2312 2.52736 9.3261 2.4903 9.3996 2.42434C9.7796 2.08234 9.94565 2.07434 9.96765 2.07534C10.0991 2.33272 10.1517 2.6232 10.1187 2.91033C10.1146 2.97658 10.1268 3.0428 10.1542 3.10326C10.1815 3.16373 10.2232 3.21661 10.2756 3.25732C10.3279 3.29823 10.3894 3.32572 10.4548 3.3374C10.5201 3.34907 10.5874 3.3446 10.6506 3.32433C10.7628 3.27826 10.8839 3.25776 11.0049 3.26434C11.126 3.27091 11.2441 3.30438 11.3506 3.36233C11.678 3.63467 11.8951 4.01675 11.9616 4.43734C11.971 4.49298 11.9919 4.54603 12.0229 4.59319C12.0539 4.64036 12.0943 4.68059 12.1416 4.71133C12.189 4.74212 12.2423 4.76272 12.298 4.77184C12.3538 4.78097 12.4109 4.77842 12.4656 4.76434C12.4905 4.75697 12.5167 4.75546 12.5422 4.75997C12.5677 4.76448 12.5918 4.7749 12.6126 4.79034C12.7196 4.85734 13.0846 5.18333 13.3896 6.60033C13.293 6.809 13.196 7.02266 13.0986 7.24133C12.8396 6.90574 12.4784 6.66355 12.0696 6.55132C12.0092 6.53243 11.9544 6.49888 11.9101 6.4537C11.8658 6.40851 11.8333 6.35308 11.8156 6.29232L11.7916 6.20834C11.9277 6.09567 12.03 5.94763 12.0873 5.78054C12.1447 5.61346 12.1548 5.43379 12.1166 5.26131C12.0894 5.13839 12.0381 5.02208 11.9656 4.91909C11.8932 4.81611 11.8011 4.72852 11.6946 4.66134C11.5883 4.5934 11.4696 4.54718 11.3453 4.52538C11.2211 4.50359 11.0937 4.50662 10.9706 4.53433L8.55762 5.07131C8.43471 5.09858 8.31843 5.14992 8.21545 5.22234C8.11248 5.29477 8.02486 5.38689 7.95764 5.49334C7.88965 5.59962 7.84339 5.71834 7.82159 5.84261C7.79979 5.96689 7.80287 6.09426 7.83063 6.21734C7.86901 6.3885 7.9535 6.54588 8.07495 6.67245C8.19641 6.79901 8.35022 6.88993 8.51965 6.93533L8.52661 7.00231C8.53284 7.06528 8.5234 7.12883 8.49915 7.18728C8.4749 7.24572 8.43661 7.29727 8.38763 7.33733C8.17589 7.48913 8.00041 7.68597 7.87384 7.91369C7.74727 8.14141 7.67276 8.39435 7.65564 8.65432C7.65564 8.69432 7.65561 8.78033 7.69861 9.29733C7.54461 9.07433 7.37265 8.84634 7.17865 8.60934C6.99997 8.34521 6.74618 8.14073 6.45007 8.02236C6.15397 7.90399 5.82916 7.87717 5.51764 7.94534C5.12226 8.05672 4.75717 8.256 4.44965 8.52831L4.41364 8.55734C4.41137 8.0855 4.53753 7.62193 4.77863 7.21633C4.81126 7.16578 4.83232 7.10862 4.84027 7.04897C4.84822 6.98933 4.84289 6.92867 4.82465 6.87133L4.82764 6.87533ZM2.87665 10.2823L3.2066 10.1563C3.5156 10.0393 3.7196 9.95632 3.8916 9.88332C4.04998 9.81215 4.2016 9.7268 4.3446 9.62832V9.62832C4.4886 9.52832 4.64462 9.40532 4.89062 9.21432L4.95062 9.16732C5.57262 8.66732 6.0326 8.50433 6.5376 9.12533C7.1146 9.77839 7.54889 10.5447 7.81262 11.3753C7.86248 11.5483 7.90125 11.7244 7.92865 11.9023V11.9023V11.9343C7.68875 11.8884 7.44487 11.8663 7.20062 11.8683C6.63531 11.8557 6.0764 11.9901 5.57861 12.2583C5.19185 12.4727 4.75466 12.5794 4.31262 12.5673C3.87058 12.5794 3.4334 12.4727 3.04663 12.2583C2.66727 12.0546 2.25123 11.9281 1.82263 11.8863C1.81622 11.5438 1.91302 11.2072 2.10046 10.9205C2.28791 10.6337 2.55728 10.4099 2.8736 10.2783L2.87665 10.2823ZM17.4886 22.9563C17.4599 23.2948 17.3055 23.6103 17.0558 23.8408C16.8062 24.0712 16.4794 24.1998 16.1396 24.2013H4.04761C3.70805 24.1995 3.38146 24.0708 3.13202 23.8404C2.88257 23.61 2.72835 23.2947 2.69965 22.9563L1.87665 12.7113C2.16452 12.7569 2.44247 12.8512 2.69861 12.9903C3.19638 13.2586 3.7553 13.393 4.32062 13.3803C4.8856 13.3928 5.44417 13.2584 5.94165 12.9903C6.32842 12.7759 6.7656 12.6692 7.20764 12.6813C7.55793 12.6695 7.9064 12.7361 8.2276 12.8763V12.8763H8.23462H8.24164C8.31764 12.9093 8.3916 12.9453 8.4696 12.9833C8.96739 13.2515 9.5263 13.3859 10.0916 13.3733C10.6112 13.3861 11.126 13.2721 11.5916 13.0413L11.7116 12.9833C12.0987 12.7688 12.5363 12.6621 12.9786 12.6743C13.3819 12.6615 13.7819 12.7506 14.1416 12.9333L14.1596 12.9423L14.2456 12.9843C14.7426 13.2517 15.3004 13.3857 15.8646 13.3733C16.43 13.3857 16.989 13.2509 17.4866 12.9823C17.6357 12.9048 17.7901 12.838 17.9486 12.7823V12.7823C18.0642 12.7459 18.1826 12.7192 18.3026 12.7023L17.4886 22.9563Z" fill="url(#paint0_linear_2_383)" stroke="url(#paint1_linear_2_383)" stroke-width="0.2"/>
<mask id="path-2-inside-1_2_383" fill="white">
<path d="M15.9196 6.06231C15.9396 6.06374 15.9596 6.06374 15.9796 6.06231C16.0767 6.0619 16.1706 6.02667 16.244 5.963C16.3174 5.89933 16.3655 5.81146 16.3796 5.71532C16.3915 5.5745 16.4567 5.44354 16.5619 5.34914C16.6671 5.25474 16.8043 5.20402 16.9456 5.20733C17.2479 5.27084 17.5618 5.25077 17.8536 5.14928C18.1453 5.0478 18.4039 4.86872 18.6016 4.63131L18.6526 4.58431C18.7325 4.51147 18.7802 4.4099 18.7853 4.3019C18.7903 4.1939 18.7523 4.08831 18.6796 4.00832C18.6068 3.92842 18.5052 3.88069 18.3972 3.87563C18.2892 3.87057 18.1836 3.90858 18.1036 3.98131L18.0516 4.02831C17.9276 4.16366 17.7824 4.27784 17.6216 4.36632C17.4067 4.40717 17.187 4.41594 16.9696 4.39232C16.6287 4.38201 16.2962 4.49932 16.0373 4.72127C15.7783 4.94323 15.6115 5.25384 15.5696 5.59231C15.561 5.64624 15.5632 5.70137 15.5763 5.75442C15.5893 5.80746 15.6128 5.85737 15.6454 5.90117C15.678 5.94498 15.7191 5.9818 15.7662 6.00948C15.8133 6.03716 15.8654 6.05511 15.9196 6.06231Z"/>
</mask>
<path d="M15.9196 6.06231C15.9396 6.06374 15.9596 6.06374 15.9796 6.06231C16.0767 6.0619 16.1706 6.02667 16.244 5.963C16.3174 5.89933 16.3655 5.81146 16.3796 5.71532C16.3915 5.5745 16.4567 5.44354 16.5619 5.34914C16.6671 5.25474 16.8043 5.20402 16.9456 5.20733C17.2479 5.27084 17.5618 5.25077 17.8536 5.14928C18.1453 5.0478 18.4039 4.86872 18.6016 4.63131L18.6526 4.58431C18.7325 4.51147 18.7802 4.4099 18.7853 4.3019C18.7903 4.1939 18.7523 4.08831 18.6796 4.00832C18.6068 3.92842 18.5052 3.88069 18.3972 3.87563C18.2892 3.87057 18.1836 3.90858 18.1036 3.98131L18.0516 4.02831C17.9276 4.16366 17.7824 4.27784 17.6216 4.36632C17.4067 4.40717 17.187 4.41594 16.9696 4.39232C16.6287 4.38201 16.2962 4.49932 16.0373 4.72127C15.7783 4.94323 15.6115 5.25384 15.5696 5.59231C15.561 5.64624 15.5632 5.70137 15.5763 5.75442C15.5893 5.80746 15.6128 5.85737 15.6454 5.90117C15.678 5.94498 15.7191 5.9818 15.7662 6.00948C15.8133 6.03716 15.8654 6.05511 15.9196 6.06231Z" fill="url(#paint2_linear_2_383)"/>
<path d="M15.9196 6.06231L15.7879 7.05359L15.8178 7.05758L15.848 7.05974L15.9196 6.06231ZM15.9796 6.06231L15.9754 5.06232L15.9417 5.06246L15.908 5.06487L15.9796 6.06231ZM16.3796 5.71532L17.369 5.86063L17.3734 5.83029L17.376 5.79973L16.3796 5.71532ZM16.9456 5.20733L17.1512 4.22869L17.061 4.20975L16.969 4.2076L16.9456 5.20733ZM18.6016 4.63131L17.9239 3.89596L17.8753 3.94073L17.8331 3.99149L18.6016 4.63131ZM18.6526 4.58431L17.9789 3.84529L17.9749 3.84897L18.6526 4.58431ZM18.6796 4.00832L19.4195 3.33557L19.4186 3.33463L18.6796 4.00832ZM18.1036 3.98131L18.7741 4.72322L18.7763 4.72118L18.1036 3.98131ZM18.0516 4.02831L17.3811 3.2864L17.346 3.31808L17.3141 3.35291L18.0516 4.02831ZM17.6216 4.36632L17.8084 5.34872L17.9645 5.31904L18.1037 5.24244L17.6216 4.36632ZM16.9696 4.39232L17.0775 3.39817L17.0388 3.39396L16.9998 3.39278L16.9696 4.39232ZM15.5696 5.59231L16.557 5.75016L16.5598 5.73277L16.562 5.7153L15.5696 5.59231ZM15.848 7.05974C15.9156 7.0646 15.9835 7.0646 16.0512 7.05974L15.908 5.06487C15.9357 5.06289 15.9635 5.06289 15.9912 5.06487L15.848 7.05974ZM15.9837 7.0623C16.3201 7.0609 16.645 6.93895 16.8992 6.71838L15.5887 5.20763C15.6961 5.1144 15.8334 5.06291 15.9754 5.06232L15.9837 7.0623ZM16.8992 6.71838C17.1535 6.4978 17.3201 6.19342 17.369 5.86063L15.3902 5.57001C15.4108 5.42949 15.4812 5.30086 15.5887 5.20763L16.8992 6.71838ZM17.376 5.79973C17.3664 5.91268 17.3141 6.01768 17.2298 6.09335L15.8939 4.60493C15.5993 4.8694 15.4166 5.23632 15.3831 5.63091L17.376 5.79973ZM17.2298 6.09335C17.1455 6.16904 17.0355 6.2097 16.9222 6.20705L16.969 4.2076C16.5731 4.19834 16.1886 4.34045 15.8939 4.60493L17.2298 6.09335ZM16.74 6.18597C17.2201 6.28683 17.7187 6.25496 18.1821 6.09378L17.5251 4.20479C17.4049 4.24658 17.2756 4.25484 17.1512 4.22869L16.74 6.18597ZM18.1821 6.09378C18.6455 5.93259 19.0562 5.64816 19.3701 5.27112L17.8331 3.99149C17.7517 4.08927 17.6452 4.16301 17.5251 4.20479L18.1821 6.09378ZM19.2793 5.36665L19.3303 5.31965L17.9749 3.84897L17.9239 3.89596L19.2793 5.36665ZM19.3263 5.32332C19.602 5.07198 19.7667 4.72147 19.7842 4.34872L17.7864 4.25508C17.7937 4.09834 17.863 3.95096 17.9789 3.8453L19.3263 5.32332ZM19.7842 4.34872C19.8016 3.97603 19.6705 3.61163 19.4195 3.33557L17.9397 4.68107C17.8342 4.565 17.779 4.41178 17.7864 4.25508L19.7842 4.34872ZM19.4186 3.33463C19.1673 3.05892 18.8167 2.8942 18.444 2.87673L18.3504 4.87453C18.1936 4.86719 18.0462 4.79792 17.9406 4.68201L19.4186 3.33463ZM18.444 2.87673C18.0714 2.85926 17.7069 2.99038 17.4308 3.24145L18.7763 4.72118C18.6602 4.82677 18.507 4.88188 18.3504 4.87453L18.444 2.87673ZM17.4331 3.23941L17.3811 3.2864L18.7221 4.77022L18.7741 4.72322L17.4331 3.23941ZM17.3141 3.35291C17.2637 3.40792 17.2047 3.4543 17.1395 3.49021L18.1037 5.24244C18.36 5.10138 18.5915 4.91939 18.789 4.70371L17.3141 3.35291ZM17.4348 3.38392C17.3171 3.40631 17.1967 3.41111 17.0775 3.39817L16.8616 5.38648C17.1773 5.42077 17.4964 5.40804 17.8084 5.34872L17.4348 3.38392ZM16.9998 3.39278C16.4099 3.37494 15.8346 3.57793 15.3865 3.96202L16.6881 5.48053C16.7579 5.4207 16.8475 5.38909 16.9393 5.39187L16.9998 3.39278ZM15.3865 3.96202C14.9384 4.34608 14.6498 4.88358 14.5772 5.46932L16.562 5.7153C16.5733 5.6241 16.6182 5.54038 16.6881 5.48053L15.3865 3.96202ZM14.5821 5.43445C14.5524 5.6204 14.5603 5.81028 14.6051 5.99288L16.5474 5.51595C16.5662 5.59246 16.5695 5.67208 16.557 5.75016L14.5821 5.43445ZM14.6051 5.99288C14.6499 6.17543 14.7309 6.34737 14.8434 6.49844L16.4475 5.30391C16.4947 5.36736 16.5286 5.43949 16.5474 5.51595L14.6051 5.99288ZM14.8434 6.49844C14.9559 6.6495 15.0974 6.77632 15.2595 6.87158L16.2729 5.14738C16.3408 5.18729 16.4002 5.24047 16.4475 5.30391L14.8434 6.49844ZM15.2595 6.87158C15.4218 6.967 15.6015 7.02883 15.7879 7.05359L16.0513 5.07102C16.1294 5.0814 16.2048 5.10732 16.2729 5.14738L15.2595 6.87158Z" fill="url(#paint3_linear_2_383)" mask="url(#path-2-inside-1_2_383)"/>
<mask id="path-4-inside-2_2_383" fill="white">
<path d="M14.7446 8.92638C14.802 8.95621 14.8658 8.97163 14.9306 8.97136C15.0054 8.97131 15.0788 8.95076 15.1428 8.91198C15.2067 8.8732 15.2589 8.81763 15.2936 8.75133C15.2936 8.74433 15.6546 8.07337 16.2206 8.11437C16.5357 8.16853 16.8596 8.13889 17.1597 8.02849C17.4598 7.9181 17.7256 7.73081 17.9306 7.48534C17.9946 7.42434 18.0646 7.35733 18.1426 7.28533C18.2225 7.21249 18.2702 7.11092 18.2753 7.00292C18.2803 6.89492 18.2423 6.78933 18.1696 6.70934C18.0967 6.62944 17.9951 6.58171 17.8871 6.57665C17.7791 6.57159 17.6736 6.60963 17.5936 6.68236C17.5086 6.75936 17.4336 6.83138 17.3666 6.89538C17.2443 7.06139 17.0762 7.18813 16.8829 7.26006C16.6897 7.332 16.4797 7.34598 16.2786 7.30034C15.922 7.30664 15.574 7.41059 15.2723 7.60082C14.9706 7.79105 14.7269 8.06033 14.5676 8.37938C14.5186 8.47542 14.5098 8.5869 14.543 8.68944C14.5761 8.79199 14.6486 8.87722 14.7446 8.92638Z"/>
</mask>
<path d="M14.7446 8.92638C14.802 8.95621 14.8658 8.97163 14.9306 8.97136C15.0054 8.97131 15.0788 8.95076 15.1428 8.91198C15.2067 8.8732 15.2589 8.81763 15.2936 8.75133C15.2936 8.74433 15.6546 8.07337 16.2206 8.11437C16.5357 8.16853 16.8596 8.13889 17.1597 8.02849C17.4598 7.9181 17.7256 7.73081 17.9306 7.48534C17.9946 7.42434 18.0646 7.35733 18.1426 7.28533C18.2225 7.21249 18.2702 7.11092 18.2753 7.00292C18.2803 6.89492 18.2423 6.78933 18.1696 6.70934C18.0967 6.62944 17.9951 6.58171 17.8871 6.57665C17.7791 6.57159 17.6736 6.60963 17.5936 6.68236C17.5086 6.75936 17.4336 6.83138 17.3666 6.89538C17.2443 7.06139 17.0762 7.18813 16.8829 7.26006C16.6897 7.332 16.4797 7.34598 16.2786 7.30034C15.922 7.30664 15.574 7.41059 15.2723 7.60082C14.9706 7.79105 14.7269 8.06033 14.5676 8.37938C14.5186 8.47542 14.5098 8.5869 14.543 8.68944C14.5761 8.79199 14.6486 8.87722 14.7446 8.92638Z" fill="url(#paint4_linear_2_383)"/>
<path d="M14.7446 8.92638L15.2054 8.03888L15.2007 8.03645L14.7446 8.92638ZM14.9306 8.97136L14.9298 7.97136L14.9264 7.97137L14.9306 8.97136ZM15.2936 8.75133L16.1797 9.21475L16.2936 8.99703V8.75133H15.2936ZM16.2206 8.11437L16.3899 7.12882L16.3417 7.12052L16.2928 7.11698L16.2206 8.11437ZM17.9306 7.48534L17.2406 6.76147L17.1994 6.80075L17.1629 6.84444L17.9306 7.48534ZM18.1426 7.28533L17.4689 6.5463L17.4643 6.55053L18.1426 7.28533ZM18.1696 6.70934L18.9094 6.03659L18.9086 6.03565L18.1696 6.70934ZM17.5936 6.68236L18.2649 7.42349L18.2663 7.42223L17.5936 6.68236ZM17.3666 6.89538L16.6758 6.17227L16.613 6.23229L16.5615 6.30225L17.3666 6.89538ZM16.2786 7.30034L16.4999 6.32514L16.3819 6.29836L16.2609 6.3005L16.2786 7.30034ZM14.5676 8.37938L15.4586 8.83345L15.4622 8.82618L14.5676 8.37938ZM14.2837 9.81387C14.485 9.91836 14.7084 9.9723 14.9347 9.97136L14.9264 7.97137C15.0233 7.97097 15.1191 7.99406 15.2054 8.03889L14.2837 9.81387ZM14.9313 9.97136C15.1888 9.97116 15.4411 9.90046 15.6611 9.76718L14.6245 8.05678C14.7164 8.00106 14.822 7.97145 14.9298 7.97136L14.9313 9.97136ZM15.6611 9.76718C15.8812 9.63378 16.0605 9.44271 16.1797 9.21475L14.4074 8.28792C14.4573 8.19256 14.5323 8.11262 14.6245 8.05678L15.6611 9.76718ZM16.2936 8.75133C16.2927 8.7937 16.2869 8.86642 16.2829 8.89673C16.2793 8.9194 16.2717 8.95947 16.2678 8.97687C16.259 9.01465 16.2498 9.04429 16.2445 9.06072C16.2337 9.09389 16.2235 9.11924 16.219 9.12999C16.2093 9.15377 16.2008 9.1717 16.1978 9.17802C16.1905 9.19348 16.1847 9.20452 16.1828 9.20815C16.1801 9.21324 16.1782 9.21676 16.1772 9.21854C16.1761 9.22047 16.1755 9.22154 16.1754 9.22177C16.1752 9.22202 16.1794 9.21475 16.1877 9.20253C16.2054 9.17634 16.2302 9.14406 16.2573 9.11651C16.2862 9.08722 16.2983 9.08292 16.2875 9.08837C16.2705 9.09693 16.2193 9.1169 16.1483 9.11176L16.2928 7.11698C15.5793 7.06529 15.0761 7.46559 14.8323 7.71319C14.6984 7.84913 14.5977 7.98334 14.53 8.08365C14.4955 8.13467 14.4671 8.18065 14.445 8.21878C14.4342 8.23742 14.4232 8.25716 14.4128 8.277C14.4081 8.28592 14.4002 8.30112 14.3914 8.31953C14.3877 8.32732 14.3787 8.34642 14.3686 8.37106C14.364 8.38223 14.3537 8.40793 14.3428 8.44138C14.3374 8.45795 14.3282 8.48769 14.3194 8.52557C14.3133 8.55166 14.2936 8.63827 14.2936 8.75133H16.2936ZM16.0512 9.09992C16.5391 9.18377 17.0404 9.13786 17.5049 8.96701L16.8144 7.08997C16.6787 7.13991 16.5323 7.15328 16.3899 7.12882L16.0512 9.09992ZM17.5049 8.96701C17.9694 8.79615 18.3809 8.50624 18.6982 8.12624L17.1629 6.84444C17.0703 6.95538 16.9501 7.04005 16.8144 7.08997L17.5049 8.96701ZM18.6205 8.20921C18.6865 8.1463 18.75 8.08552 18.8209 8.02013L17.4643 6.55053C17.3791 6.62914 17.3026 6.70239 17.2406 6.76147L18.6205 8.20921ZM18.8163 8.02434C19.092 7.773 19.2567 7.42248 19.2742 7.04974L17.2764 6.9561C17.2837 6.79936 17.353 6.65198 17.4689 6.54632L18.8163 8.02434ZM19.2742 7.04974C19.2916 6.67685 19.1603 6.31251 18.9094 6.03659L17.4297 7.38209C17.3243 7.26616 17.269 7.11299 17.2764 6.9561L19.2742 7.04974ZM18.9086 6.03565C18.6572 5.75994 18.3067 5.59522 17.934 5.57775L17.8403 7.57555C17.6836 7.56821 17.5362 7.49894 17.4305 7.38303L18.9086 6.03565ZM17.934 5.57775C17.5611 5.56027 17.1967 5.69161 16.9208 5.94249L18.2663 7.42223C18.1504 7.52764 17.9972 7.58291 17.8403 7.57555L17.934 5.57775ZM16.9222 5.94124C16.8255 6.02887 16.7403 6.11068 16.6758 6.17227L18.0573 7.61849C18.1268 7.55207 18.1917 7.48986 18.2649 7.42349L16.9222 5.94124ZM16.5615 6.30225C16.5546 6.31161 16.5451 6.3188 16.5341 6.32288L17.2318 8.19724C17.6073 8.05745 17.934 7.81118 18.1717 7.4885L16.5615 6.30225ZM16.5341 6.32288C16.5232 6.32693 16.5113 6.32774 16.4999 6.32514L16.0573 8.27555C16.448 8.36421 16.8561 8.33707 17.2318 8.19724L16.5341 6.32288ZM16.2609 6.3005C15.7215 6.31002 15.1951 6.46727 14.7389 6.75497L15.8057 8.44667C15.9528 8.35391 16.1225 8.30326 16.2962 8.30019L16.2609 6.3005ZM14.7389 6.75497C14.2826 7.0427 13.9139 7.45 13.6729 7.93259L15.4622 8.82618C15.5399 8.67066 15.6587 8.5394 15.8057 8.44667L14.7389 6.75497ZM13.6766 7.92534C13.5074 8.25734 13.4768 8.64283 13.5915 8.99731L15.4944 8.38158C15.5427 8.53097 15.5299 8.69349 15.4585 8.83343L13.6766 7.92534ZM13.5915 8.99731C13.7062 9.35163 13.9567 9.64629 14.2885 9.81632L15.2007 8.03645C15.3406 8.10816 15.4461 8.23234 15.4944 8.38158L13.5915 8.99731Z" fill="url(#paint5_linear_2_383)" mask="url(#path-4-inside-2_2_383)"/>
<path d="M16.8254 9.69716L16.6136 9.46337L16.8715 9.74698L16.8715 9.74701L16.8877 9.76482L16.8877 9.76485L16.8872 9.76536L16.8866 9.76477L16.8254 9.69717C16.8255 9.69705 16.8256 9.69694 16.8257 9.69683L16.8257 9.69682L16.8254 9.69716Z" fill="url(#paint6_linear_2_383)" stroke="url(#paint7_linear_2_383)"/>
<mask id="path-7-inside-3_2_383" fill="white">
<path d="M4.47266 20.8423H6.79767C6.90588 20.8423 7.00967 20.7994 7.08618 20.7228C7.1627 20.6463 7.20569 20.5425 7.20569 20.4343C7.20569 20.3261 7.1627 20.2223 7.08618 20.1458C7.00967 20.0693 6.90588 20.0263 6.79767 20.0263H4.47266C4.36445 20.0263 4.26072 20.0693 4.1842 20.1458C4.10769 20.2223 4.0647 20.3261 4.0647 20.4343C4.0647 20.5425 4.10769 20.6463 4.1842 20.7228C4.26072 20.7994 4.36445 20.8423 4.47266 20.8423V20.8423Z"/>
</mask>
<path d="M4.47266 20.8423H6.79767C6.90588 20.8423 7.00967 20.7994 7.08618 20.7228C7.1627 20.6463 7.20569 20.5425 7.20569 20.4343C7.20569 20.3261 7.1627 20.2223 7.08618 20.1458C7.00967 20.0693 6.90588 20.0263 6.79767 20.0263H4.47266C4.36445 20.0263 4.26072 20.0693 4.1842 20.1458C4.10769 20.2223 4.0647 20.3261 4.0647 20.4343C4.0647 20.5425 4.10769 20.6463 4.1842 20.7228C4.26072 20.7994 4.36445 20.8423 4.47266 20.8423V20.8423Z" fill="url(#paint8_linear_2_383)"/>
<path d="M7.20569 20.4343L6.20569 20.4343L7.20569 20.4343ZM6.79767 20.0263L6.79767 21.0263L6.79767 20.0263ZM4.0647 20.4343L5.0647 20.4343L4.0647 20.4343ZM4.47266 21.8423H6.79767V19.8423H4.47266V21.8423ZM6.79767 21.8423C7.1711 21.8423 7.52924 21.694 7.79329 21.4299L6.37907 20.0157C6.49009 19.9047 6.64066 19.8423 6.79767 19.8423V21.8423ZM7.79329 21.4299C8.05734 21.1659 8.20569 20.8078 8.20569 20.4343L6.20569 20.4343C6.20569 20.2773 6.26806 20.1268 6.37907 20.0157L7.79329 21.4299ZM8.20569 20.4343C8.20569 20.0609 8.05734 19.7028 7.79329 19.4387L6.37907 20.8529C6.26806 20.7419 6.20569 20.5913 6.20569 20.4343L8.20569 20.4343ZM7.79329 19.4387C7.52924 19.1747 7.1711 19.0263 6.79767 19.0263L6.79767 21.0263C6.64066 21.0263 6.49009 20.9639 6.37907 20.8529L7.79329 19.4387ZM6.79767 19.0263H4.47266V21.0263H6.79767V19.0263ZM4.47266 19.0263C4.09907 19.0263 3.74103 19.1748 3.4771 19.4387L4.89131 20.8529C4.78041 20.9638 4.62983 21.0263 4.47266 21.0263V19.0263ZM3.4771 19.4387C3.21305 19.7028 3.0647 20.0609 3.0647 20.4343L5.0647 20.4343C5.0647 20.5913 5.00233 20.7419 4.89131 20.8529L3.4771 19.4387ZM3.0647 20.4343C3.0647 20.8078 3.21305 21.1659 3.4771 21.4299L4.89131 20.0157C5.00233 20.1268 5.0647 20.2773 5.0647 20.4343L3.0647 20.4343ZM3.4771 21.4299C3.74103 21.6939 4.09907 21.8423 4.47266 21.8423L4.47266 19.8423C4.62983 19.8423 4.78041 19.9048 4.89131 20.0157L3.4771 21.4299Z" fill="url(#paint9_linear_2_383)" mask="url(#path-7-inside-3_2_383)"/>
<mask id="path-9-inside-4_2_383" fill="white">
<path d="M8.42462 21.7053H4.47162C4.36341 21.7053 4.25962 21.7483 4.18311 21.8248C4.10659 21.9013 4.0636 22.0051 4.0636 22.1133C4.0636 22.2216 4.10659 22.3253 4.18311 22.4019C4.25962 22.4784 4.36341 22.5213 4.47162 22.5213H8.42462C8.53283 22.5213 8.63662 22.4784 8.71313 22.4019C8.78965 22.3253 8.83264 22.2216 8.83264 22.1133C8.83264 22.0051 8.78965 21.9013 8.71313 21.8248C8.63662 21.7483 8.53283 21.7053 8.42462 21.7053V21.7053Z"/>
</mask>
<path d="M8.42462 21.7053H4.47162C4.36341 21.7053 4.25962 21.7483 4.18311 21.8248C4.10659 21.9013 4.0636 22.0051 4.0636 22.1133C4.0636 22.2216 4.10659 22.3253 4.18311 22.4019C4.25962 22.4784 4.36341 22.5213 4.47162 22.5213H8.42462C8.53283 22.5213 8.63662 22.4784 8.71313 22.4019C8.78965 22.3253 8.83264 22.2216 8.83264 22.1133C8.83264 22.0051 8.78965 21.9013 8.71313 21.8248C8.63662 21.7483 8.53283 21.7053 8.42462 21.7053V21.7053Z" fill="url(#paint10_linear_2_383)"/>
<path d="M4.0636 22.1133L5.0636 22.1133L4.0636 22.1133ZM4.47162 22.5213L4.47162 21.5213L4.47162 22.5213ZM8.83264 22.1133L7.83264 22.1133L8.83264 22.1133ZM8.42462 20.7053H4.47162V22.7053H8.42462V20.7053ZM4.47162 20.7053C4.09819 20.7053 3.74005 20.8537 3.476 21.1177L4.89021 22.5319C4.77919 22.643 4.62863 22.7053 4.47162 22.7053V20.7053ZM3.476 21.1177C3.21195 21.3818 3.0636 21.7399 3.0636 22.1133L5.0636 22.1133C5.0636 22.2704 5.00123 22.4209 4.89021 22.5319L3.476 21.1177ZM3.0636 22.1133C3.0636 22.4868 3.21195 22.8449 3.476 23.109L4.89021 21.6947C5.00123 21.8058 5.0636 21.9563 5.0636 22.1133L3.0636 22.1133ZM3.476 23.109C3.74032 23.3733 4.09857 23.5213 4.47162 23.5213L4.47162 21.5213C4.62825 21.5213 4.77892 21.5835 4.89021 21.6947L3.476 23.109ZM4.47162 23.5213H8.42462V21.5213H4.47162V23.5213ZM8.42462 23.5213C8.79767 23.5213 9.15592 23.3733 9.42024 23.109L8.00603 21.6947C8.11732 21.5835 8.26799 21.5213 8.42462 21.5213V23.5213ZM9.42024 23.109C9.68429 22.8449 9.83264 22.4868 9.83264 22.1133L7.83264 22.1133C7.83264 21.9563 7.89501 21.8058 8.00603 21.6947L9.42024 23.109ZM9.83264 22.1133C9.83264 21.7399 9.68429 21.3818 9.42024 21.1177L8.00603 22.5319C7.89501 22.4209 7.83264 22.2704 7.83264 22.1133L9.83264 22.1133ZM9.42024 21.1177C9.15619 20.8537 8.79805 20.7053 8.42462 20.7053L8.42462 22.7053C8.26761 22.7053 8.11705 22.643 8.00603 22.5319L9.42024 21.1177Z" fill="url(#paint11_linear_2_383)" mask="url(#path-9-inside-4_2_383)"/>
<defs>
<linearGradient id="paint0_linear_2_383" x1="10.4761" y1="1" x2="10.4761" y2="25.0163" gradientUnits="userSpaceOnUse">
<stop stop-color="#F9F295"/>
<stop offset="0.375" stop-color="#E0AA3E"/>
<stop offset="0.692708" stop-color="#F7EF8A"/>
<stop offset="1" stop-color="#B88A44"/>
</linearGradient>
<linearGradient id="paint1_linear_2_383" x1="10.4761" y1="1" x2="10.4761" y2="25.0163" gradientUnits="userSpaceOnUse">
<stop stop-color="#F9F295"/>
<stop offset="0.375" stop-color="#E0AA3E"/>
<stop offset="0.692708" stop-color="#F7EF8A"/>
<stop offset="1" stop-color="#B88A44"/>
</linearGradient>
<linearGradient id="paint2_linear_2_383" x1="17.1751" y1="3.87518" x2="17.1751" y2="6.06338" gradientUnits="userSpaceOnUse">
<stop stop-color="#F9F295"/>
<stop offset="0.375" stop-color="#E0AA3E"/>
<stop offset="0.692708" stop-color="#F7EF8A"/>
<stop offset="1" stop-color="#B88A44"/>
</linearGradient>
<linearGradient id="paint3_linear_2_383" x1="17.1751" y1="3.87518" x2="17.1751" y2="6.06338" gradientUnits="userSpaceOnUse">
<stop stop-color="#F9F295"/>
<stop offset="0.375" stop-color="#E0AA3E"/>
<stop offset="0.692708" stop-color="#F7EF8A"/>
<stop offset="1" stop-color="#B88A44"/>
</linearGradient>
<linearGradient id="paint4_linear_2_383" x1="16.3995" y1="6.5762" x2="16.3995" y2="8.97137" gradientUnits="userSpaceOnUse">
<stop stop-color="#F9F295"/>
<stop offset="0.375" stop-color="#E0AA3E"/>
<stop offset="0.692708" stop-color="#F7EF8A"/>
<stop offset="1" stop-color="#B88A44"/>
</linearGradient>
<linearGradient id="paint5_linear_2_383" x1="16.3995" y1="6.5762" x2="16.3995" y2="8.97137" gradientUnits="userSpaceOnUse">
<stop stop-color="#F9F295"/>
<stop offset="0.375" stop-color="#E0AA3E"/>
<stop offset="0.692708" stop-color="#F7EF8A"/>
<stop offset="1" stop-color="#B88A44"/>
</linearGradient>
<linearGradient id="paint6_linear_2_383" x1="15.4195" y1="9.35721" x2="15.4195" y2="11.7524" gradientUnits="userSpaceOnUse">
<stop stop-color="#F9F295"/>
<stop offset="0.375" stop-color="#E0AA3E"/>
<stop offset="0.692708" stop-color="#F7EF8A"/>
<stop offset="1" stop-color="#B88A44"/>
</linearGradient>
<linearGradient id="paint7_linear_2_383" x1="15.4195" y1="9.35721" x2="15.4195" y2="11.7524" gradientUnits="userSpaceOnUse">
<stop stop-color="#F9F295"/>
<stop offset="0.375" stop-color="#E0AA3E"/>
<stop offset="0.692708" stop-color="#F7EF8A"/>
<stop offset="1" stop-color="#B88A44"/>
</linearGradient>
<linearGradient id="paint8_linear_2_383" x1="5.63519" y1="20.0263" x2="5.63519" y2="20.8423" gradientUnits="userSpaceOnUse">
<stop stop-color="#F9F295"/>
<stop offset="0.375" stop-color="#E0AA3E"/>
<stop offset="0.692708" stop-color="#F7EF8A"/>
<stop offset="1" stop-color="#B88A44"/>
</linearGradient>
<linearGradient id="paint9_linear_2_383" x1="5.63519" y1="20.0263" x2="5.63519" y2="20.8423" gradientUnits="userSpaceOnUse">
<stop stop-color="#F9F295"/>
<stop offset="0.375" stop-color="#E0AA3E"/>
<stop offset="0.692708" stop-color="#F7EF8A"/>
<stop offset="1" stop-color="#B88A44"/>
</linearGradient>
<linearGradient id="paint10_linear_2_383" x1="6.44812" y1="21.7053" x2="6.44812" y2="22.5213" gradientUnits="userSpaceOnUse">
<stop stop-color="#F9F295"/>
<stop offset="0.375" stop-color="#E0AA3E"/>
<stop offset="0.692708" stop-color="#F7EF8A"/>
<stop offset="1" stop-color="#B88A44"/>
</linearGradient>
<linearGradient id="paint11_linear_2_383" x1="6.44812" y1="21.7053" x2="6.44812" y2="22.5213" gradientUnits="userSpaceOnUse">
<stop stop-color="#F9F295"/>
<stop offset="0.375" stop-color="#E0AA3E"/>
<stop offset="0.692708" stop-color="#F7EF8A"/>
<stop offset="1" stop-color="#B88A44"/>
</linearGradient>
</defs>
</svg>
