<svg width="50" height="50" viewBox="0 0 50 50"  xmlns="http://www.w3.org/2000/svg"><g data-name="Group 3585"><g data-name="Group 3347"><circle data-name="Ellipse 103" cx="25" cy="25" r="25" fill="#a84ec3"></circle></g><g data-name="Group 3436" fill="#fff"><path data-name="Path 50063" d="M34.863 17.942c.165-1.58.172-3.648-.734-4.53a1.564 1.564 0 00-1.838-.225c-1.031.437-2.138 1.841-3.37 4.278a2.546 2.546 0 00-.885-1.383 1.018 1.018 0 00-.366-.143 3.3 3.3 0 00-.1-.275 2.067 2.067 0 00-.8-1.015 1.508 1.508 0 00-.857-.215 1.336 1.336 0 00-.6-1.112 1.2 1.2 0 00-1.211.265 1.63 1.63 0 00-1.4-.277 1.3 1.3 0 00-.745 1.045 2.515 2.515 0 00-1.3 1.024 1.8 1.8 0 00-.225 1.08 1.865 1.865 0 00-1.166.616 2.037 2.037 0 00-.273 1.831 3.4 3.4 0 00-.4 1.723 2.585 2.585 0 00-1.418-.685c-.056-.011-.133-.026-.156-.034a.408.408 0 00-.524.241.408.408 0 00.241.524 1.837 1.837 0 00.283.07 1.736 1.736 0 011.088.558l-.191.073-.332.127a2.619 2.619 0 00-1.558 2.8l.86 10.7a2.18 2.18 0 002.161 2h12.092a2.18 2.18 0 002.162-2l.86-10.715v-.016-.016c0-.005 0 0 0 0v-.023-.018-.023-.018c0-.006 0-.014-.005-.021l-.005-.018-.007-.018-.008-.019-.008-.016-.01-.019-.009-.015-.012-.019-.011-.014-.013-.017-.013-.014-.014-.015-.015-.013-.014-.013-.017-.012-.015-.011-.018-.011-.016-.01-.018-.009-.018-.008-.017-.006-.021-.007h-.017l-.023-.005h-.086c-.1 0-.193 0-.284.009a26.223 26.223 0 001.396-5.931zm-2.253-4c.555-.235.808-.079.95.059.509.495.692 1.938.491 3.86a25.613 25.613 0 01-1.543 6.211c-.138.055-.26.114-.38.172a2.471 2.471 0 01-1.266.309 2.471 2.471 0 01-1.264-.308l-.071-.034h0l-.015-.008a3.21 3.21 0 00-1.533-.347 3.517 3.517 0 00-.88.1c.2-.566.451-1.245.736-1.976v-.012c.2-.5.4-1.009.608-1.5.244-.579.49-1.136.733-1.655 1.644-3.525 2.774-4.596 3.432-4.875zm-8.821 4.193a.144.144 0 01-.172-.11.144.144 0 01.019-.109.144.144 0 01.09-.063l2.413-.537a.142.142 0 01.032 0 .145.145 0 01.077.023.143.143 0 01.063.09.143.143 0 01-.019.109.145.145 0 01-.087.062h-.014l-2.4.533zm.112 1.813a1.2 1.2 0 00.426-1.047l-.005-.049 1.692-.376.007.026a1.2 1.2 0 00.786.813 1.076 1.076 0 01.666.476c.01.026.046.125.162.5-.174.416-.345.839-.51 1.261l-1.614.915a2.894 2.894 0 01-1.41.375h-.453c-.167-1.781-.186-2.133-.186-2.2a1.078 1.078 0 01.437-.698zm-.118 4.276a5.052 5.052 0 00-.045-.432l-.013-.138h.379a3.713 3.713 0 001.809-.481l.755-.428a74.075 74.075 0 00-.581 1.624 2.389 2.389 0 01-1 .184 2.472 2.472 0 01-1.266-.309zm-3.959-5.362a1.4 1.4 0 01.073-1.263 1.34 1.34 0 011-.352.406.406 0 00.349-.153.408.408 0 00.071-.374 1.137 1.137 0 01.052-.93 1.869 1.869 0 011.049-.724.408.408 0 00.309-.347c.043-.354.146-.6.274-.645.2-.079.627.15.858.344a.408.408 0 00.537-.007c.38-.342.546-.35.568-.349a1.467 1.467 0 01.151.835.408.408 0 00.157.347.407.407 0 00.375.067.816.816 0 01.7.038 1.755 1.755 0 01.611 1.075.408.408 0 00.18.274.408.408 0 00.324.053.167.167 0 01.147.026c.107.067.472.393.777 1.81q-.145.313-.291.641a1.953 1.953 0 00-1.029-.69.384.384 0 01-.254-.259l-.024-.084a.96.96 0 00.325-.947.953.953 0 00-.422-.6.955.955 0 00-.724-.127l-2.413.537a.954.954 0 00-.6.422.954.954 0 00-.127.724.961.961 0 00.689.718l.007.067a.384.384 0 01-.139.335 1.763 1.763 0 00-.732 1.317c0 .04 0 .126.043.643a10.558 10.558 0 00-.52-.688 1.594 1.594 0 00-1.661-.664 2.726 2.726 0 00-1.068.583l-.036.029a2.6 2.6 0 01.365-1.341.408.408 0 00.046-.345zm-1.951 3.407l.33-.126c.309-.117.513-.2.685-.273a2.88 2.88 0 00.453-.255h0c.144-.1.3-.223.546-.414l.06-.047c.622-.5 1.082-.663 1.587-.042a6.259 6.259 0 011.275 2.25 4.224 4.224 0 01.116.527h0v.032a3.707 3.707 0 00-.728-.066 3.266 3.266 0 00-1.622.39 2.472 2.472 0 01-1.266.309 2.472 2.472 0 01-1.266-.309 3.254 3.254 0 00-1.224-.372 1.707 1.707 0 011.051-1.608zm14.612 12.674a1.36 1.36 0 01-1.349 1.245H19.044a1.36 1.36 0 01-1.348-1.245l-.823-10.245a2.562 2.562 0 01.822.279 3.265 3.265 0 001.622.39 3.265 3.265 0 001.621-.39 2.472 2.472 0 011.266-.309 2.35 2.35 0 011.02.195h.014c.076.033.15.069.228.107a3.266 3.266 0 001.622.39 3.2 3.2 0 001.5-.332l.12-.058a2.472 2.472 0 011.267-.309 2.4 2.4 0 011.163.259l.018.009.086.042a3.266 3.266 0 001.619.389 3.265 3.265 0 001.622-.391 3.562 3.562 0 01.462-.2h0a2.193 2.193 0 01.354-.08z" stroke="#fff" stroke-width="0.2"></path><path data-name="Path 50069" d="M30.916 18.049a.419.419 0 00.06 0 .406.406 0 00.4-.347.555.555 0 01.566-.508 1.7 1.7 0 001.656-.576l.051-.047a.408.408 0 00.027-.576.408.408 0 00-.576-.027l-.052.047a1.684 1.684 0 01-.43.338 2.212 2.212 0 01-.652.026 1.369 1.369 0 00-1.4 1.2.409.409 0 00.35.47z"></path><path data-name="Path 50070" d="M29.741 20.913a.4.4 0 00.186.045.41.41 0 00.363-.22c0-.007.361-.678.927-.637a1.825 1.825 0 001.71-.629c.064-.061.134-.128.212-.2a.408.408 0 00.027-.576.408.408 0 00-.576-.027c-.085.077-.16.149-.227.213a1.06 1.06 0 01-1.088.405 1.951 1.951 0 00-1.711 1.079.407.407 0 00.177.547z"></path><path data-name="Path 50071" d="M31.61 21.45c-.085.077-.16.149-.227.213a1.06 1.06 0 01-1.088.405 1.951 1.951 0 00-1.711 1.079.407.407 0 00.177.547.4.4 0 00.186.045.41.41 0 00.363-.22c0-.007.362-.677.927-.637a1.825 1.825 0 001.71-.629c.064-.061.134-.128.212-.2a.408.408 0 00.027-.576.408.408 0 00-.576-.027z"></path><path data-name="Path 50072" d="M19.469 32.829h2.325a.408.408 0 00.408-.408.408.408 0 00-.408-.408h-2.325a.408.408 0 00-.408.408.408.408 0 00.408.408z"></path><path data-name="Path 50073" d="M23.421 33.692h-3.953a.408.408 0 00-.408.408.408.408 0 00.408.408h3.953a.408.408 0 00.408-.408.408.408 0 00-.408-.408z"></path></g></g></svg>