<svg xmlns="http://www.w3.org/2000/svg" width="15.45" height="13.303" viewBox="0 0 15.45 13.303">
  <path id="Path_55704" data-name="Path 55704" d="M18.98,16.379c-.386-.352-.587-.4-.755-.4h-.839A5.482,5.482,0,0,0,11.733,11.6a5.931,5.931,0,0,0-4.227,1.661,5.043,5.043,0,0,0-1.443,2.768H5.208c-.168,0-.369.05-.755.4-.369.336-.453.537-.453.721v2.231c0,.185.084.386.453.738.386.352.587.4.755.4H6.3a.126.126,0,0,0,.084-.017,4.785,4.785,0,0,0,3.271,3.573.492.492,0,0,0-.067.268.558.558,0,0,0,.554.554h2.13a.554.554,0,0,0,0-1.107H10.14a.285.285,0,0,0-.117.017,4.419,4.419,0,0,1-3.288-3.439.743.743,0,0,0,.352-.6v-3.02a3.9,3.9,0,0,1,1.191-2.718,4.787,4.787,0,0,1,3.439-1.342c2.634.034,4.513,1.661,4.647,3.976v3.087a.767.767,0,0,0,.788.738h1.09c.168,0,.369-.05.755-.4.369-.352.453-.554.453-.738V17.117C19.433,16.933,19.349,16.731,18.98,16.379Zm-13,3.036H5.342a1.243,1.243,0,0,1-.218-.2v-1.9a2.382,2.382,0,0,1,.218-.2h.637Zm12.346-.235a2.382,2.382,0,0,1-.218.2H17.47v-2.3h.637a1.243,1.243,0,0,1,.218.2Z" transform="translate(-4 -11.598)" fill="#400082"/>
</svg>
