<svg xmlns="http://www.w3.org/2000/svg" width="17.651" height="15.947" viewBox="0 0 17.651 15.947">
  <g id="noun_Home_3093843" transform="translate(17.351 15.648) rotate(180)">
    <g id="Group_2094" data-name="Group 2094" transform="translate(0 0)">
      <path id="Path_40797" data-name="Path 40797" d="M12.273,0a.25.25,0,0,1,.251.251V8.471a.251.251,0,0,1-.5,0V.5H8.167V5.529a.251.251,0,0,1-.251.251h-3.3a.253.253,0,0,1-.254-.251V.5H.5V8.471a.252.252,0,0,1-.5,0V.252A.252.252,0,0,1,.251,0h4.36a.252.252,0,0,1,.251.251V5.276h2.8V.252A.252.252,0,0,1,7.916,0Z" transform="translate(2.335 0)" stroke="#000" stroke-width="0.6"/>
      <path id="Path_40798" data-name="Path 40798" d="M16.619.169a.251.251,0,0,1,.3.4L8.744,6.791a.254.254,0,0,1-.3,0Q4.276,3.613.1.455a.25.25,0,0,1,.3-.4Q4.512,3.148,8.592,6.276Z" transform="translate(0 8.492)" stroke="#000" stroke-width="0.6"/>
    </g>
  </g>
</svg>
