<svg xmlns="http://www.w3.org/2000/svg" xmlns:xlink="http://www.w3.org/1999/xlink" width="98.562" height="186.036" viewBox="0 0 98.562 186.036">
  <defs>
    <linearGradient id="linear-gradient" x1="72.094" y1="0.895" x2="72.128" y2="0.058" gradientUnits="objectBoundingBox">
      <stop offset="0" stop-color="#965cf2"/>
      <stop offset="1" stop-color="#ff8adc"/>
    </linearGradient>
    <linearGradient id="linear-gradient-2" x1="82.351" y1="0.56" x2="82.443" y2="0.333" xlink:href="#linear-gradient"/>
    <linearGradient id="linear-gradient-3" x1="311.379" y1="0.845" x2="311.315" y2="0.349" xlink:href="#linear-gradient"/>
    <linearGradient id="linear-gradient-4" x1="405.875" y1="0.86" x2="406.329" y2="0.353" gradientUnits="objectBoundingBox">
      <stop offset="0" stop-color="#ff8a78"/>
      <stop offset="1" stop-color="#ffa799"/>
    </linearGradient>
    <linearGradient id="linear-gradient-5" x1="316.123" y1="0.139" x2="315.538" y2="0.645" gradientUnits="objectBoundingBox">
      <stop offset="0" stop-color="#1c8ef4"/>
      <stop offset="1" stop-color="#00cfdd"/>
    </linearGradient>
    <linearGradient id="linear-gradient-6" x1="280.141" y1="0.218" x2="279.7" y2="0.781" gradientUnits="objectBoundingBox">
      <stop offset="0" stop-color="#3e4795"/>
      <stop offset="1" stop-color="#273088"/>
    </linearGradient>
    <linearGradient id="linear-gradient-7" x1="165.193" y1="0.219" x2="164.268" y2="0.742" xlink:href="#linear-gradient-6"/>
    <linearGradient id="linear-gradient-8" x1="174.608" y1="0.761" x2="174.689" y2="0.287" xlink:href="#linear-gradient-5"/>
    <linearGradient id="linear-gradient-9" x1="497.737" y1="0.301" x2="497.613" y2="0.661" xlink:href="#linear-gradient-4"/>
    <linearGradient id="linear-gradient-10" x1="835.515" y1="0.429" x2="835.211" y2="0.705" gradientUnits="objectBoundingBox">
      <stop offset="0" stop-color="#ffb89e"/>
      <stop offset="1" stop-color="#ffa799"/>
    </linearGradient>
    <linearGradient id="linear-gradient-11" x1="443.999" y1="0.119" x2="443.282" y2="0.728" gradientUnits="objectBoundingBox">
      <stop offset="0" stop-color="#8a4791"/>
      <stop offset="1" stop-color="#562e65"/>
    </linearGradient>
    <linearGradient id="linear-gradient-12" x1="474.897" y1="0.705" x2="475.402" y2="0.272" xlink:href="#linear-gradient-4"/>
    <linearGradient id="linear-gradient-13" x1="129.206" y1="0.108" x2="128.748" y2="0.466" xlink:href="#linear-gradient-5"/>
  </defs>
  <g id="Group_5058" data-name="Group 5058" transform="translate(-127 -111)">
    <g id="Group_5045" data-name="Group 5045" transform="translate(-104.252 104.59)">
      <g id="Group_5041" data-name="Group 5041">
        <path id="Path_55707" data-name="Path 55707" d="M232.582,134.062l41.31-23.594c1.534-.7,3.786-1.362,5.29-.446l3.848,2.345c.774.471,3.319,2.036,1.616,2.962-5.008,2.723-37.009,21.421-42.1,24.187a7.123,7.123,0,0,1-3.846.59,9.655,9.655,0,0,1-4.165-1.241L233,137.917c-1.086-.67-1.688-1.4-1.746-2.1C231.2,135.127,231.641,134.492,232.582,134.062Z" fill="#f3ecf6" fill-rule="evenodd"/>
        <g id="Group_5040" data-name="Group 5040">
          <path id="Path_55708" data-name="Path 55708" d="M238.074,28.528A14.28,14.28,0,0,0,231.6,39.736l3.339,4.269,3-.588c1.639-2.863,7.943-5.362,6.471-11.209l18.6-8.707,18.412-12.522h0l1.546-2.186c-1.109-.634-2.187-1.322-3.262-1.947-1.438-.851-3.272-.325-4.619.452h0Z" fill="#273087" fill-rule="evenodd"/>
          <path id="Path_55709" data-name="Path 55709" d="M231.757,130.141c.006,2.045.73,3.485,1.895,4.162l3.391,2.01a7.058,7.058,0,0,0,.75-2.664l.3.173,1.794-42.42-1.948-47.985L231.6,39.736Z" fill="#1f2873" fill-rule="evenodd"/>
          <path id="Path_55710" data-name="Path 55710" d="M285.037,13.052c-.011-4.117-2.927-5.783-6.513-3.712L241.512,30.57a14.269,14.269,0,0,0-6.471,11.208l.154,90.406c.012,4.116,2.931,5.78,6.514,3.711l37.012-21.229a14.264,14.264,0,0,0,6.471-11.209Z" fill="#3e4794" fill-rule="evenodd"/>
        </g>
        <path id="Path_55711" data-name="Path 55711" d="M283.054,16.939c-.011-3.789-2.694-5.322-5.995-3.416L242.992,33.062a13.14,13.14,0,0,0-5.955,10.317l.142,84.917c.011,3.789,2.7,5.321,5.995,3.417l34.066-19.54a13.129,13.129,0,0,0,5.956-10.316Z" fill-rule="evenodd" fill="url(#linear-gradient)"/>
        <path id="Path_55712" data-name="Path 55712" d="M281.989,73.2c-.01-3.581-2.547-5.031-5.666-3.229l-32.2,18.469a12.418,12.418,0,0,0-5.629,9.751l.134,8.921c.01,3.581,2.55,5.029,5.667,3.229l32.2-18.469a12.412,12.412,0,0,0,5.63-9.751Z" fill="#fff" fill-rule="evenodd" opacity="0.2"/>
        <path id="Path_55713" data-name="Path 55713" d="M282.581,19.575c-.01-3.582-2.546-5.031-5.666-3.229l-32.2,18.469a12.418,12.418,0,0,0-5.63,9.751L238.923,80c.011,3.581,2.551,5.029,5.667,3.229l32.2-18.469a12.412,12.412,0,0,0,5.63-9.751Z" fill="#fff" fill-rule="evenodd" opacity="0.2"/>
      </g>
      <g id="Group_5044" data-name="Group 5044">
        <path id="Path_55714" data-name="Path 55714" d="M281.043,31.724c-.009-3.323-2.362-4.667-5.256-3L245.915,45.861a11.522,11.522,0,0,0-5.222,9.046l0,42.068c.01,3.322,2.366,4.665,5.257,3l29.871-17.134a11.513,11.513,0,0,0,5.223-9.046Z" fill="#fff" fill-rule="evenodd"/>
        <path id="Path_55715" data-name="Path 55715" d="M281.043,31.724c-.009-3.323-2.362-4.667-5.256-3L245.915,45.861a11.522,11.522,0,0,0-5.222,9.046l.011,3.147,40.35-23.143Z" fill-rule="evenodd" fill="url(#linear-gradient-2)"/>
        <g id="Group_5042" data-name="Group 5042">
          <path id="Path_55716" data-name="Path 55716" d="M276.569,32.013a1.95,1.95,0,0,0-1.258,1.665c-.066.753.392,1.228,1.022,1.061a1.954,1.954,0,0,0,1.259-1.665C277.657,32.321,277.2,31.846,276.569,32.013Z" fill="#fff" fill-rule="evenodd"/>
          <path id="Path_55717" data-name="Path 55717" d="M273.04,34.155a1.953,1.953,0,0,0-1.258,1.665c-.065.753.392,1.228,1.022,1.062a1.954,1.954,0,0,0,1.259-1.665C274.128,34.464,273.67,33.988,273.04,34.155Z" fill="#fff" fill-rule="evenodd"/>
          <path id="Path_55718" data-name="Path 55718" d="M269.512,36.3a1.954,1.954,0,0,0-1.259,1.666c-.065.752.393,1.228,1.022,1.061a1.953,1.953,0,0,0,1.259-1.665C270.6,36.606,270.142,36.131,269.512,36.3Z" fill="#fff" fill-rule="evenodd"/>
        </g>
        <g id="Group_5043" data-name="Group 5043">
          <path id="Path_55719" data-name="Path 55719" d="M261.415,76.776c-2.92.772-5.531,4.227-5.834,7.717s1.819,5.693,4.739,4.921,5.531-4.227,5.833-7.717S264.334,76,261.415,76.776Z" fill-rule="evenodd" opacity="0.2" fill="url(#linear-gradient-3)"/>
          <path id="Path_55720" data-name="Path 55720" d="M261.162,79.688a4.881,4.881,0,0,0-3.145,4.161c-.163,1.881.981,3.069,2.555,2.653a4.881,4.881,0,0,0,3.145-4.161C263.88,80.46,262.736,79.272,261.162,79.688Z" fill="#ff89db" fill-rule="evenodd"/>
        </g>
        <path id="Path_55721" data-name="Path 55721" d="M275.943,49.238c0-1.021-.725-1.421-1.614-.893L247.4,63.622a3.607,3.607,0,0,0-1.6,2.805v2.018c0,1.02.727,1.42,1.614.893L274.34,54.061a3.61,3.61,0,0,0,1.6-2.805Z" fill="#955cf1" fill-rule="evenodd" opacity="0.2"/>
        <path id="Path_55722" data-name="Path 55722" d="M275.943,62.253c0-1.021-.725-1.422-1.614-.894L247.4,76.637a3.607,3.607,0,0,0-1.6,2.8V81.46c0,1.02.727,1.42,1.614.893L274.34,67.076a3.61,3.61,0,0,0,1.6-2.8Z" fill="#955cf1" fill-rule="evenodd" opacity="0.2"/>
        <path id="Path_55723" data-name="Path 55723" d="M267.315,48.4c0-.437-.311-.608-.691-.382L255.1,54.555a1.547,1.547,0,0,0-.686,1.2v.863c0,.436.311.607.691.382l11.519-6.534a1.544,1.544,0,0,0,.686-1.2Z" fill="#955cf1" fill-rule="evenodd" opacity="0.2"/>
        <path id="Path_55724" data-name="Path 55724" d="M267.315,60.82c0-.436-.311-.608-.691-.382L255.1,66.972a1.545,1.545,0,0,0-.686,1.2v.863c0,.437.311.608.691.382l11.519-6.533a1.546,1.546,0,0,0,.686-1.2Z" fill="#955cf1" fill-rule="evenodd" opacity="0.2"/>
      </g>
    </g>
    <g id="Group_5055" data-name="Group 5055" transform="translate(281.771 106.209)">
      <g id="Group_5048" data-name="Group 5048">
        <g id="Group_5047" data-name="Group 5047">
          <g id="Group_5046" data-name="Group 5046">
            <path id="Path_55725" data-name="Path 55725" d="M-100.741,62.34c.182.406.356.816.547,1.218l.785,1.654c.191-.8.838-1.093,1.323-.678a1.414,1.414,0,0,1,.388.543c.083-.217.713-.7,1.527.511a.921.921,0,0,1,1.007.608,6.621,6.621,0,0,1,.334.866,3.441,3.441,0,0,1,.22,1.168c-.021.79-.073,1.646-.07,2.589,0,1.025,1.137,2.345,1.753,3.105l-3.826,1.127a21.242,21.242,0,0,0-1.441-1.881c-.584-.617-1.336-.7-1.9-1.182a7.362,7.362,0,0,1-1.014-1.395c-.435-.644-.666-1.335-1.079-2.038a1.859,1.859,0,0,1-.4-1.376,14.674,14.674,0,0,0-.252-1.62c.789-.374,1.384.6,1.36,1.542a2.338,2.338,0,0,1,.818,1.161c.637-.8.275-1.146.045-2.194a10.5,10.5,0,0,1-.851-2.111c-.115-.323-.229-.659-.352-1.02a1.011,1.011,0,0,1,.249-1.11C-101.423,61.735-101.047,61.786-100.741,62.34Z" fill-rule="evenodd" fill="url(#linear-gradient-4)"/>
            <path id="Path_55726" data-name="Path 55726" d="M-102.39,65.486a2.382,2.382,0,0,1,.729,1.7,5.123,5.123,0,0,1,.978,1.016,2.278,2.278,0,0,0-.8-1.1c.019-.749-.356-1.523-.91-1.615Zm2.914-.416a1.358,1.358,0,0,0,.8.86,2.041,2.041,0,0,1-.517-1.217,1.43,1.43,0,0,0-.217.5l-.067-.142Zm1.783,0a1.822,1.822,0,0,0,.61.9,3.219,3.219,0,0,1-.4-1.1.474.474,0,0,0-.205.2Zm2.184,1.749a2.457,2.457,0,0,1-.418-1.227,1.329,1.329,0,0,0-.244,0l-.017-.025A1.968,1.968,0,0,0-95.509,66.814Z" fill="#ff8978" fill-rule="evenodd"/>
          </g>
          <path id="Path_55727" data-name="Path 55727" d="M-86.841,84.6c-1.844-3.373-3.256-7.579-5.859-11.019-.217-.287-.736-.514-.922-.815q-.406-.656-.808-1.287a5.934,5.934,0,0,0-3.883,1.655q.212.675.415,1.342c.158.518-.188,1.612-.052,2.13,1.221,4.658,3.819,9.9,5.676,14.194C-87.735,95.763-83.378,89.988-86.841,84.6Z" fill-rule="evenodd" fill="url(#linear-gradient-5)"/>
        </g>
        <path id="Path_55728" data-name="Path 55728" d="M-86.841,84.518c-.276-.5-2.5-5.139-2.762-5.675.471,4.113-1.625,8.41-4.808,7.071.421.922,1.472,3.418,1.9,4.417C-87.968,95.3-83.378,89.91-86.841,84.518Z" fill="#0960ac" fill-rule="evenodd" opacity="0.35" style="mix-blend-mode: multiply;isolation: isolate"/>
      </g>
      <g id="Group_5054" data-name="Group 5054">
        <path id="Path_55729" data-name="Path 55729" d="M-58.836,177.827l-27.771-15.816c-3.027-1.384-7.36-2.485-10.445-.879-2.81,1.462-7.44,4.456-9.487,5.623-1.555.887-6.952,4.121-3.59,5.949,9.889,5.377,19.676,11.425,29.718,16.888a14.093,14.093,0,0,0,7.594,1.164,20.092,20.092,0,0,0,8.225-2.45q2.5-1.455,4.925-2.866c2.178-1.268,3.333-2.768,3.448-4.155C-56.107,179.931-56.978,178.675-58.836,177.827Z" fill="#f3ecf6" fill-rule="evenodd"/>
        <path id="Path_55730" data-name="Path 55730" d="M-82.8,170.82c-.506-.2-1.632-2.441-3.557-2.222-2.312.263-4.8-1.326-6.838-1.562-.363-.042-.813-.183-1.051-.037a1.5,1.5,0,0,0-.512,2.471,14.716,14.716,0,0,0,2.456,2.564,17.241,17.241,0,0,0,2.859,2.088c.876.486,1.5.5,2.3.885l-.025.747a3.923,3.923,0,0,0,1.76,1.171,4.715,4.715,0,0,0,3.7-1.377,8.493,8.493,0,0,0,.364-4.256Z" fill="#193161" fill-rule="evenodd"/>
        <path id="Path_55731" data-name="Path 55731" d="M-84.477,119.9c-.443,4.959-2.929,20.8-2.237,25.147,1.041,6.54.253,17.668.242,24.608.175,2.916,3.925,4.469,5.092,2.616.937-6.2,3.019-14.892,3.562-18.338.607-3.86.406-8.548-.573-11.084a131.968,131.968,0,0,1,3.869-14.872c.57-1.787,3.8-7.562.456-13.3Z" fill-rule="evenodd" fill="url(#linear-gradient-6)"/>
        <path id="Path_55732" data-name="Path 55732" d="M-86.582,138.2c-.122,1.431-.207,2.758-.239,3.9,1.308,6.557,4.775,15.764,6.794,22.357.662-3.559,1.542-6.715,1.957-9.041l.008-.043,0-.028,0-.015.007-.043.008-.043.014-.084.008-.042.007-.041.007-.042.008-.041.007-.04h0l.007-.04.007-.04.007-.04v0l.006-.035.007-.039.007-.039v-.009l.006-.03.006-.038.007-.038,0-.013,0-.025.006-.038.007-.037,0-.016,0-.021.006-.036.006-.036,0-.02,0-.016.006-.036.006-.036,0-.023v-.012l.006-.034,0-.035.005-.026v-.008l.006-.033.005-.034,0-.029v0l0-.033.006-.032,0-.032c.008-.054.017-.108.025-.162l.006-.045c.007-.046.014-.091.02-.137l0-.027.023-.163,0-.038.018-.138.005-.035c.007-.054.013-.109.02-.164l.005-.041.015-.126.006-.05c0-.048.011-.1.016-.143l.005-.055c0-.044.01-.087.014-.131l.006-.055.012-.125,0-.045.015-.166,0-.039.011-.125,0-.058.012-.155.005-.064.007-.1.005-.074c0-.051.007-.1.01-.152v-.034l.008-.138,0-.061.006-.124,0-.044c0-.053,0-.106.007-.16l0-.062,0-.1,0-.078v0l.005-.134v-.006l0-.075,0-.086,0-.083,0-.093,0-.142v-.24c0-.056,0-.112,0-.168v-.735l0-.188v-.063l0-.1,0-.054c0-.068-.005-.137-.008-.2v-.023l0-.117v-.019c-.006-.122-.012-.243-.019-.364l0-.024c-.01-.165-.021-.329-.033-.491l0-.018c-.009-.118-.019-.236-.03-.353l0-.022c-.027-.284-.058-.563-.093-.835v0a13.526,13.526,0,0,0-.7-3.03c.229-1.578.94-4.576,1.8-7.779-.1-.5-.187-1-.268-1.509a13.163,13.163,0,0,1,.517-5.958c-3.209-.559-1.824-4.52-3.363-6.856l-5.233,3.18c-.256,2.043-.57,4.47-.87,6.959l3.331,11.378C-84.24,140.729-85.743,138.941-86.582,138.2Z" fill="#1e2353" fill-rule="evenodd" opacity="0.3" style="mix-blend-mode: multiply;isolation: isolate"/>
        <g id="Group_5049" data-name="Group 5049">
          <path id="Path_55733" data-name="Path 55733" d="M-69.662,176.175c-.543-.012-2.372-1.732-4.1-.864-2.08,1.043-4.964.407-6.958.886-.355.086-.826.108-1,.328a1.5,1.5,0,0,0,.369,2.5,14.791,14.791,0,0,0,3.188,1.564,17.347,17.347,0,0,0,3.4.976c.989.156,1.577-.05,2.46.041l.234.71a3.92,3.92,0,0,0,2.055.494,4.715,4.715,0,0,0,3-2.565,8.5,8.5,0,0,0-1.123-4.121Z" fill="#193161" fill-rule="evenodd"/>
          <path id="Path_55734" data-name="Path 55734" d="M-84.156,148.32c3.009,6.814,8.309,21.019,10.727,27.952.915,1.935,4.365,3.164,5.726.664-.9-5.611-2.51-17.9-5.172-24.4A49.987,49.987,0,0,0-76.4,145.5c-.706-2.74-1.589-10.14-2.271-14.144.612-3.313,3.284-8.854-1.851-13.669-2.072,1.474-8.477,2.4-11.382.755C-92.376,131.528-89.164,136.985-84.156,148.32Z" fill-rule="evenodd" fill="url(#linear-gradient-7)"/>
        </g>
        <path id="Path_55735" data-name="Path 55735" d="M-72.83,102.114c-.431,3.888.738,7.711-.452,11.261-.054.366-.087,1.805-.15,2.2-.784,4.6-10.51,9.25-18.622,4.839-.044-.57.007-1.166-.037-2.222a12.587,12.587,0,0,0-.273-2.645c.012-2.5.79-3.782.417-6.566-.76-5.665-3.9-11.109-2.162-15.566A4.735,4.735,0,0,1-92.344,91.4c1.917-1.54,11.831-6.589,14.837-6.945C-68.781,83.322-72.362,97.9-72.83,102.114Z" fill-rule="evenodd" fill="url(#linear-gradient-8)"/>
        <path id="Path_55736" data-name="Path 55736" d="M-92.826,104.871c-1.125-4.162-2.594-8.092-1.283-11.459A4.735,4.735,0,0,1-92.344,91.4c1.916-1.54,1.662,2.6,4.668,2.245C-87.1,99.177-89.833,104.211-92.826,104.871Z" fill="#0960ac" fill-rule="evenodd" opacity="0.35" style="mix-blend-mode: multiply;isolation: isolate"/>
        <g id="Group_5052" data-name="Group 5052">
          <path id="Path_55737" data-name="Path 55737" d="M-86.707,82.713a21.4,21.4,0,0,1-.221,4.774c2.842-.092,6.791-.835,7.222-2.951-.02-.254-.038-.511-.051-.763a1.036,1.036,0,0,1,.116-.092c1.019-.677,2.7-1.18,3.788-2.419,1.732-1.98,2.652-4.64,1.293-7.317-2.482-4.889-8.484-4.973-11.827-1.019-.653.772-.175,1.571-.546,2.317-.073.145-.34.21-.65.466a11.137,11.137,0,0,0-1.643,5c.013.642,1.489,1.547,2.145,1.9A1.648,1.648,0,0,0-86.707,82.713Z" fill="#ffa698" fill-rule="evenodd"/>
          <path id="Path_55738" data-name="Path 55738" d="M-86.707,82.713a21.4,21.4,0,0,1-.221,4.774c2.842-.092,6.791-.835,7.222-2.951-.02-.254-.038-.511-.051-.763.039-.035.082-.06.116-.092,2.16-2.021-.729-4.338-4.379-2.342A2.832,2.832,0,0,1-86.707,82.713Z" fill-rule="evenodd" fill="url(#linear-gradient-9)"/>
          <path id="Path_55739" data-name="Path 55739" d="M-89.226,80.714c.013.281,1.176.7,1.662.77-.331-3.02,2.543-3.482,2.11-6.43-.26-1.773,1.563-2.413.847-3.711a8.29,8.29,0,0,0-1.78,1.583c-.653.772-.175,1.571-.546,2.317-.073.146-.34.21-.65.466A10.647,10.647,0,0,0-89.226,80.714Z" fill-rule="evenodd" fill="url(#linear-gradient-10)"/>
          <g id="Group_5050" data-name="Group 5050">
            <path id="Path_55740" data-name="Path 55740" d="M-85.31,79.487c.057-.676.33-.806.557-.626a1.812,1.812,0,0,1,.393,1.478c-.11,1.122-1.15,2.127-1.867,1.219.784.416,1.153-.588,1.187-1.3C-85.018,79.779-85.139,79.374-85.31,79.487Z" fill="#ffb49c" fill-rule="evenodd"/>
            <path id="Path_55741" data-name="Path 55741" d="M-85.059,79.919c-.418.316-.61.529-.6.707.005.123.108.308.474.179A1.6,1.6,0,0,0-85.059,79.919Z" fill="#ff9d8e" fill-rule="evenodd"/>
          </g>
          <path id="Path_55742" data-name="Path 55742" d="M-79.671,84.46c.841.259,1.626,1.124,1.472,1.679-.837,3.421-7.107,4.185-11.006,3.361-.047-.01,1.459-2,2.206-2.245C-84.545,87.5-80.428,86.48-79.671,84.46Z" fill="#03dfef" fill-rule="evenodd"/>
          <g id="Group_5051" data-name="Group 5051">
            <path id="Path_55743" data-name="Path 55743" d="M-79.37,84.248c1.04-1.109,2.8-1.639,3.927-2.93,1.114-1.272,2.333-3.226,1.589-5.233,1.311-4.123-3.17-7.393-6.943-8.136a2.931,2.931,0,0,0-3.142,4.323,3.955,3.955,0,0,0-.908,3.015,2.755,2.755,0,0,1-.191,2.206c-.3.7-1.038,2.378.3,1.313.867-.688,1.473.833,1.179,1.884a4.823,4.823,0,0,0-.188,2.032C-83.492,84.929-79.948,84.865-79.37,84.248Z" fill="#562e65" fill-rule="evenodd"/>
            <path id="Path_55744" data-name="Path 55744" d="M-75.105,74.219c.893-3.994-4.357-6.016-6.411-6.063-2.078-.048-3.707,3.372-1.242,4.524C-81.078,73.465-77.75,71.929-75.105,74.219Z" fill-rule="evenodd" fill="url(#linear-gradient-11)"/>
          </g>
        </g>
        <g id="Group_5053" data-name="Group 5053">
          <path id="Path_55745" data-name="Path 55745" d="M-116.734,79.873a2.673,2.673,0,0,1,.17.807,6.455,6.455,0,0,1,.391,1.225,11.427,11.427,0,0,1,.1,2.016,4.422,4.422,0,0,1-.176,1.239,11.383,11.383,0,0,0,2.039,2.406l-2.4,1.831c-1.012-.668-1.8-1.37-2.676-1.95a2.946,2.946,0,0,1-1.168-.659c-.555-.58-2.192-2.3-2.286-2.979a15.391,15.391,0,0,1,.266-3.443c.433-2.432,1.36-4.988,1.519-3.86.232.27.042,2.469.189,2.794.568.655.839.924,1.551,1.7a8.159,8.159,0,0,0,.945.572c.246.066.381-.1.39-.321a10.528,10.528,0,0,0-.272-1.3c0-1.042.258-1.633.816-1.578a.55.55,0,0,1,.523.487C-116.758,79.11-116.773,79.447-116.734,79.873Z" fill-rule="evenodd" fill="url(#linear-gradient-12)"/>
          <path id="Path_55746" data-name="Path 55746" d="M-92.54,90.081c-3.305.51-9.681,4.145-14.081,6.117-2.454-3.5-5.674-7.688-7.66-9.1a6.566,6.566,0,0,1-.988-.709q-.434-.529-.841-1.09c-1.242.172-3.04,1.722-3.016,2.454.2.366.4.749.61,1.143a7.436,7.436,0,0,1,.174,1.166c.673,2.449,4.388,8.1,6.12,10.628,1,1.458,1.352,2.314,2.03,2.75,1.087.7,2.546.317,5.357-.39,2.366-.594,10-1.984,13.518-3.838,2.478-1.308,4.379-3.663,3.4-6.375A4.271,4.271,0,0,0-92.54,90.081Z" fill-rule="evenodd" fill="url(#linear-gradient-13)"/>
        </g>
      </g>
    </g>
  </g>
</svg>
