<svg width="8" height="10" viewBox="0 0 8 10" fill="none" xmlns="http://www.w3.org/2000/svg">
<path d="M0.25 4.00016C0.25 1.92898 1.92971 0.25 4.00016 0.25C6.07059 0.25 7.75032 1.92896 7.75032 4.00056C7.75032 5.72412 6.98387 7.16843 6.11045 8.18733C5.6742 8.69624 5.21551 9.09381 4.82187 9.36219C4.62491 9.49647 4.4476 9.59612 4.30051 9.66125C4.14743 9.72905 4.04803 9.75 4.00016 9.75C3.95229 9.75 3.8529 9.72905 3.69981 9.66125C3.55273 9.59612 3.37541 9.49647 3.17845 9.36218C2.78482 9.0938 2.32613 8.69622 1.88988 8.18728C1.01646 7.16834 0.25 5.72392 0.25 4.00016ZM2.1501 4.00016C2.1501 5.02187 2.97845 5.85022 4.00016 5.85022C5.02187 5.85022 5.85022 5.02187 5.85022 4.00016C5.85022 2.97845 5.02187 2.1501 4.00016 2.1501C2.97845 2.1501 2.1501 2.97845 2.1501 4.00016Z" stroke="white" stroke-width="0.5"/>
</svg>
