<svg xmlns="http://www.w3.org/2000/svg" width="12.503" height="19.556" viewBox="0 0 12.503 19.556">
  <g id="noun_Address_2508903" transform="translate(0.5 0.5)">
    <g id="Group_1956" data-name="Group 1956" transform="translate(0 0)">
      <path id="Path_1134" data-name="Path 1134" d="M5.784,0A5.746,5.746,0,0,1,11.5,5.784a6.117,6.117,0,0,1-1.157,3.535L5.72,15.488l-4.5-6.169A5.769,5.769,0,0,1,5.784,0Zm0,2.506A3.25,3.25,0,0,1,9.061,5.784,3.291,3.291,0,0,1,5.784,9.061,3.25,3.25,0,0,1,2.506,5.784,3.211,3.211,0,0,1,5.784,2.506Z" fill="none" stroke="#400082" stroke-width="1" fill-rule="evenodd"/>
      <ellipse id="Ellipse_27" data-name="Ellipse 27" cx="3.408" cy="1.461" rx="3.408" ry="1.461" transform="translate(2.343 16.135)" fill="#400082"/>
    </g>
  </g>
</svg>
