<svg xmlns="http://www.w3.org/2000/svg" xmlns:xlink="http://www.w3.org/1999/xlink" width="278" height="237" viewBox="0 0 278 237">
  <defs>
    <linearGradient id="linear-gradient" x1="0.5" x2="0.603" y2="0.905" gradientUnits="objectBoundingBox">
      <stop offset="0" stop-color="#ff9963"/>
      <stop offset="1" stop-color="#ef3c81"/>
    </linearGradient>
  </defs>
  <g id="Group_1" data-name="Group 1" transform="translate(-68 -463)">
    <g id="Store_Not_found" data-name="Store Not found" transform="translate(72.317 462.03)">
      <path id="Path_1" data-name="Path 1" d="M156.563,264.1c-.029-.228-2.82-22.805-3.432-33.665-2.139-37.785-14.288-48.67-14.411-48.767l.724-.833c.514.438,12.623,11.2,14.791,49.553.612,10.816,3.4,33.35,3.424,33.578Z" transform="translate(-88.505 -114.752)" fill="#e3e8ff"/>
      <path id="Path_2" data-name="Path 2" d="M128.872,160.3c-9.3,2.805,8.619,18.487,8.619,18.487S141.151,156.6,128.872,160.3Z" transform="translate(-80.514 -101.386)" fill="#e3e8ff"/>
      <path id="Path_3" data-name="Path 3" d="M132.2,235.319c-2.3,6.357,13.886,2.871,13.886,2.871S135.238,226.935,132.2,235.319Z" transform="translate(-84.205 -147.536)" fill="#e3e8ff"/>
      <path id="Path_4" data-name="Path 4" d="M177.63,218.142c-4.221-5.278-9.69,10.353-9.69,10.353S183.2,225.1,177.63,218.142Z" transform="translate(-107.147 -137.863)" fill="#e3e8ff"/>
      <path id="Path_5" data-name="Path 5" d="M145.376,339.933c-2.3,6.353,13.886,2.867,13.886,2.867S148.409,331.557,145.376,339.933Z" transform="translate(-92.609 -214.283)" fill="#e3e8ff"/>
      <path id="Path_6" data-name="Path 6" d="M190.82,322.764c-4.224-5.274-9.69,10.353-9.69,10.353S196.384,329.725,190.82,322.764Z" transform="translate(-115.563 -204.614)" fill="#e3e8ff"/>
      <path id="Path_7" data-name="Path 7" d="M123.857,282.988c-4.047,9.137,20.192,5.658,20.192,5.658S129.193,270.927,123.857,282.988Z" transform="translate(-78.731 -177.247)" fill="#e3e8ff"/>
      <path id="Path_8" data-name="Path 8" d="M191.539,269.54C186.7,262.524,178.42,281.7,178.42,281.7S197.924,278.8,191.539,269.54Z" transform="translate(-113.834 -170.365)" fill="#e3e8ff"/>
      <path id="Path_9" data-name="Path 9" d="M104.95,324.148c25.133-10.538,43.189,55.975,41.09,59.823-3.214-5.488-7.938-13.542-14.863-25.314C119.553,338.9,110.387,328.948,104.95,324.148Z" transform="translate(-66.959 -205.469)" fill="#e3e8ff"/>
      <path id="Path_10" data-name="Path 10" d="M114.7,362.031c6.758,11.49,11.417,19.432,14.621,24.909-8.376-2.414-60.112-42.675-46.585-55.443A23.537,23.537,0,0,1,88.3,327.49C93.626,332.123,102.95,342.057,114.7,362.031Z" transform="translate(-51.356 -208.323)" fill="#c0c8f9"/>
      <path id="Path_11" data-name="Path 11" d="M143.087,386.078c-3.2-5.477-7.862-13.419-14.621-24.909-11.75-19.975-21.075-29.908-26.4-34.541.362-.174.7-.344,1.043-.489,5.43,4.793,14.6,14.751,26.226,34.516,6.925,11.772,11.649,19.826,14.863,25.314a.532.532,0,0,1-.09.13C143.941,386.238,143.587,386.22,143.087,386.078Z" transform="translate(-65.122 -207.461)" fill="#fff"/>
      <path id="Path_12" data-name="Path 12" d="M137.352,442.021C123.6,434.2,101.069,423.3,93.12,419.495,105.149,400.7,135.053,436.186,137.352,442.021Z" transform="translate(-59.411 -263.553)" fill="#e3e8ff"/>
      <path id="Path_13" data-name="Path 13" d="M88.321,432.224c.21-.434.434-.843.659-1.234,7.935,3.794,30.834,14.871,44.561,22.7C129.773,455.631,79.55,450.252,88.321,432.224Z" transform="translate(-55.695 -274.357)" fill="#c0c8f9"/>
      <path id="Path_14" data-name="Path 14" d="M136.725,452.309a.447.447,0,0,1-.214.174c-13.727-7.833-36.626-18.91-44.561-22.7.138-.243.279-.474.424-.7,7.964,3.8,30.476,14.7,44.232,22.527a1.087,1.087,0,0,1,.119.7Z" transform="translate(-58.665 -273.138)" fill="#fff"/>
      <path id="Path_15" data-name="Path 15" d="M452.75,369.171c18.219-11.377,40.684,38.1,39.537,41.354-3.193-3.862-7.888-9.531-14.766-17.814C465.977,378.8,457.586,372.212,452.75,369.171Z" transform="translate(-288.859 -233.834)" fill="#e3e8ff"/>
      <path id="Path_16" data-name="Path 16" d="M466.811,397.1c6.715,8.083,11.341,13.672,14.53,17.528-6.824-.818-52.17-25.593-43.258-37.238a18.5,18.5,0,0,1,3.823-3.823C446.63,376.5,455.144,383.051,466.811,397.1Z" transform="translate(-278.764 -237.722)" fill="#c0c8f9"/>
      <path id="Path_17" data-name="Path 17" d="M490.115,413.737c-3.189-3.855-7.815-9.444-14.53-17.528-11.667-14.052-20.181-20.6-24.9-23.529.25-.177.5-.362.749-.51,4.836,3.041,13.227,9.629,24.771,23.529,6.878,8.282,11.584,13.951,14.766,17.814a.37.37,0,0,1-.054.112C490.8,413.755,490.521,413.788,490.115,413.737Z" transform="translate(-287.538 -236.829)" fill="#fff"/>
      <path id="Path_18" data-name="Path 18" d="M493.83,455.9c-11.689-4.344-30.6-9.973-37.26-11.928C463.567,427.829,491.3,451.651,493.83,455.9Z" transform="translate(-291.296 -279.101)" fill="#e3e8ff"/>
      <path id="Path_19" data-name="Path 19" d="M454.263,456.433c.109-.362.232-.724.362-1.043,6.653,1.948,25.868,7.667,37.538,12.025C489.478,469.392,449.72,471.564,454.263,456.433Z" transform="translate(-289.594 -289.924)" fill="#c0c8f9"/>
      <path id="Path_20" data-name="Path 20" d="M493.593,466.2a.382.382,0,0,1-.145.159c-11.671-4.344-30.885-10.078-37.538-12.025.076-.206.156-.4.239-.6,6.664,1.955,25.571,7.584,37.26,11.928A.851.851,0,0,1,493.593,466.2Z" transform="translate(-290.875 -288.871)" fill="#fff"/>
      <path id="Path_21" data-name="Path 21" d="M627.768,330.8c-23.28-14.523-51.949,48.666-50.483,52.851,4.076-4.938,10.071-12.181,18.852-22.762C610.878,343.1,621.592,334.681,627.768,330.8Z" transform="translate(-368.279 -209.052)" fill="#e3e8ff"/>
      <path id="Path_22" data-name="Path 22" d="M598.938,366.478c-8.572,10.331-14.48,17.47-18.548,22.4,8.713-1.05,66.606-32.72,55.236-47.591a23.627,23.627,0,0,0-4.887-4.883C624.7,340.15,613.838,348.519,598.938,366.478Z" transform="translate(-370.294 -214.007)" fill="#c0c8f9"/>
      <path id="Path_23" data-name="Path 23" d="M578.47,387.772c4.065-4.927,9.976-12.065,18.548-22.4,14.9-17.958,25.767-26.328,31.8-30.071-.319-.232-.637-.456-.956-.655-6.176,3.884-16.891,12.308-31.631,30.074-8.782,10.581-14.776,17.824-18.852,22.762a.427.427,0,0,0,.069.141A1.418,1.418,0,0,0,578.47,387.772Z" transform="translate(-368.374 -212.891)" fill="#fff"/>
      <path id="Path_24" data-name="Path 24" d="M585.9,448.893c14.932-5.553,39.1-12.753,47.591-15.251C624.575,413.024,589.133,443.467,585.9,448.893Z" transform="translate(-373.81 -271.532)" fill="#e3e8ff"/>
      <path id="Path_25" data-name="Path 25" d="M634.185,449.546c-.141-.467-.293-.909-.456-1.336-8.5,2.494-33.042,9.81-47.949,15.385C589.219,466.118,640,468.869,634.185,449.546Z" transform="translate(-373.733 -285.343)" fill="#c0c8f9"/>
      <path id="Path_26" data-name="Path 26" d="M585.263,462.055a.5.5,0,0,0,.181.206c14.907-5.575,39.457-12.891,47.949-15.385-.1-.261-.2-.51-.308-.757-8.5,2.5-32.659,9.7-47.6,15.251A1.112,1.112,0,0,0,585.263,462.055Z" transform="translate(-373.397 -284.01)" fill="#fff"/>
      <path id="Path_27" data-name="Path 27" d="M262.5,395.068c-13.137-8.2-29.321,27.468-28.489,29.821,2.3-2.787,5.683-6.878,10.639-12.847C252.973,402.011,259.022,397.262,262.5,395.068Z" transform="translate(-149.284 -250.659)" fill="#e3e8ff"/>
      <path id="Path_28" data-name="Path 28" d="M246.239,415.22c-4.84,5.828-8.174,9.857-10.469,12.637,4.916-.59,37.6-18.462,31.175-26.856a13.372,13.372,0,0,0-2.758-2.751C260.794,400.36,254.641,405.084,246.239,415.22Z" transform="translate(-150.423 -253.468)" fill="#c0c8f9"/>
      <path id="Path_29" data-name="Path 29" d="M234.685,427.219c2.3-2.78,5.629-6.809,10.469-12.637,8.405-10.136,14.541-14.86,17.947-16.97-.181-.13-.362-.257-.543-.362-3.482,2.194-9.531,6.947-17.85,16.974-4.956,5.973-8.326,10.06-10.639,12.847a.243.243,0,0,0,.04.08C234.189,427.234,234.392,427.255,234.685,427.219Z" transform="translate(-149.339 -252.83)" fill="#fff"/>
      <path id="Path_30" data-name="Path 30" d="M238.9,461.725c8.427-3.135,22.052-7.2,26.86-8.608C260.717,441.479,240.71,458.659,238.9,461.725Z" transform="translate(-152.42 -285.924)" fill="#e3e8ff"/>
      <path id="Path_31" data-name="Path 31" d="M266.129,462.073c-.08-.264-.167-.514-.257-.753-4.8,1.408-18.65,5.535-27.062,8.688C240.75,471.43,269.413,472.987,266.129,462.073Z" transform="translate(-152.363 -293.708)" fill="#c0c8f9"/>
      <path id="Path_32" data-name="Path 32" d="M238.53,469.139a.285.285,0,0,0,.1.116c8.413-3.146,22.266-7.272,27.062-8.688-.058-.148-.116-.29-.174-.427-4.807,1.408-18.433,5.473-26.86,8.608A.6.6,0,0,0,238.53,469.139Z" transform="translate(-152.184 -292.955)" fill="#fff"/>
      <path id="Path_33" data-name="Path 33" d="M134.842,494.892c74.471,0,134.842-3.04,134.842-6.791s-60.371-6.791-134.842-6.791S0,484.35,0,488.1,60.371,494.892,134.842,494.892Z" transform="translate(0 -306.461)" fill="#e3e8ff"/>
      <path id="Path_34" data-name="Path 34" d="M600.6,292.665c.1-.21,9.846-21.278,13.824-31.634C628.3,224.954,643.5,218.167,643.637,218.1l-.434-1.032c-.637.268-15.757,6.954-29.821,43.558-3.964,10.324-13.694,31.356-13.792,31.569Z" transform="translate(-382.544 -137.874)" fill="#e3e8ff"/>
      <path id="Path_35" data-name="Path 35" d="M708.216,197.421c8.174,5.625-14.136,15.283-14.136,15.283S697.436,190,708.216,197.421Z" transform="translate(-442.829 -124.386)" fill="#e3e8ff"/>
      <path id="Path_36" data-name="Path 36" d="M683.883,269.979c.253,6.878-14.393-1.538-14.393-1.538S683.546,260.886,683.883,269.979Z" transform="translate(-427.141 -168.77)" fill="#e3e8ff"/>
      <path id="Path_37" data-name="Path 37" d="M651.314,237.413c5.748-3.812,6.194,13.082,6.194,13.082S643.73,242.434,651.314,237.413Z" transform="translate(-414.091 -150.495)" fill="#e3e8ff"/>
      <path id="Path_38" data-name="Path 38" d="M638.473,367.583c.253,6.878-14.393-1.538-14.393-1.538S638.133,358.508,638.473,367.583Z" transform="translate(-398.169 -231.048)" fill="#e3e8ff"/>
      <path id="Path_39" data-name="Path 39" d="M605.891,334.968c5.756-3.823,6.2,13.082,6.2,13.082S598.314,340,605.891,334.968Z" transform="translate(-385.113 -212.735)" fill="#e3e8ff"/>
      <path id="Path_40" data-name="Path 40" d="M663.81,317.7c1.086,10.136-21.39-.793-21.39-.793S662.38,304.319,663.81,317.7Z" transform="translate(-409.87 -198.147)" fill="#e3e8ff"/>
      <path id="Path_41" data-name="Path 41" d="M615.168,281.395c6.878-5.314,8.963,15.906,8.963,15.906S606.075,288.4,615.168,281.395Z" transform="translate(-390.85 -178.369)" fill="#e3e8ff"/>
      <path id="Path_42" data-name="Path 42" d="M291.476,11.806h-7.935a55.936,55.936,0,0,0-6.024,3.667q-3.211,2.44-7.511,6.06c-1.861,1.56-3.692,3.124-5.636,4.807-3.522,3.066-7.048,6.176-10.8,9.546l-1.086.988c-.93.836-1.5,1.347-2.063,1.864l-1.086.97c-.724.666-1.488,1.343-2.237,2.031q-.814.724-1.636,1.491-.619.561-1.245,1.137l-2.534,2.32-2.711,2.5-2.469,2.3q-.855.786-1.712,1.589l-.818.757-2.845,2.653c-1.1,1.028-2.215,2.071-3.33,3.117-.04-.047-.076-.094-.116-.138l-.087-.109-.036-.04-.257-.308-.322-.384-.025-.029-.029-.036c-.322-.362-.612-.724-.9-1.086l-.29-.362-.29-.344-.286-.362-.29-.34-.286-.344-.29-.34-.286-.34-.286-.34-.2-.228-.167-.2-.152-.177-.134-.159a1.8,1.8,0,0,0-.119-.141l-.109-.134-.1-.123-.1-.119c-.17-.2-.34-.4-.507-.6l-.123-.148-.123-.145-.123-.145-.123-.148-.127-.145-.123-.145-.119-.145-.123-.145-.2-.235-.177-.21c-.054-.065-.109-.127-.156-.188l-.145-.17c-.047-.051-.09-.1-.13-.152l-.123-.145-.119-.138c-.036-.047-.072-.09-.112-.134l-.409-.46-.271-.319-.268-.319-.271-.319-.268-.315-.271-.319-.268-.315-.268-.315-.268-.315-.362-.445-.3-.362-.3-.362-.3-.362-.3-.362-.293-.362-.3-.362L215,44.331l-.293-.344-.1-.119-.1-.112-.091-.109-.09-.1-.087-.1-.083-.1-.025-.029-.141-.167-.185-.217-.1-.112-.1-.112-.1-.116-.094-.112-.1-.112-.1-.112-.749-.872-.387-.452-.362-.427c-.119-.141-.232-.275-.362-.405l-.329-.387-.319-.362-.308-.362-.3-.362-.3-.362-.724-.854-.724-.847-.724-.84-.7-.807-.051-.054-.691-.8-.724-.818-.706-.814-.746-.7-.46-.514-.416-.474-.054-.062-.405-.46-.42-.481-.416-.481-.362-.416-.1-.116-.344-.391-.4-.452c-5.882-6.661-11.081-12.38-15.341-16.836l-.42-.431-.2-.21-.167-.174-.043-.047L184.291,10l-.177-.181-.025-.025-.177-.185-.185-.192-.655-.666-.633-.644-.619-.619-.608-.594c-.2-.2-.387-.384-.579-.568l-.561-.543c-.181-.177-.362-.362-.539-.518l-.521-.474-.072-.069-.072-.069-.072-.069-.072-.065-.069-.065-.072-.065-.069-.065-.069-.065-.206-.188-.2-.181-.2-.177-.192-.174-.192-.167-.188-.163-.181-.159L176.9,2.9l-.13-.109-.127-.1-.116-.1-.116-.09-.1-.087-.1-.083-.1-.08-.1-.08-.116-.087-.1-.083-.1-.076-.1-.072-.094-.069-.09-.065-.087-.062-.087-.062-.192-.123-.159-.1-.138-.083-.112-.069-.094-.054-.08-.047-.072-.036-.065-.033h-7.942c-7.377,2.1-24.977,20.543-25.061,26.635-.036,2.635,24.724,31.555,53.213,63.71-31.3,30.519-58.643,58.932-57.944,62.328,1.56,7.663,16.438,29.035,21.719,29.524h7.935c3.16-2.1,3.316-2.233,3.475-2.367l.257-.221.264-.224.271-.235.275-.239.286-.25.29-.257.3-.264.308-.271.264-.239.264-.239.264-.239.261-.239.261-.239.264-.239.264-.246.268-.246.069-.065.072-.065.072-.065.069-.065.072-.065.069-.065.072-.069.069-.065c5.636-5.252,13.292-12.8,22.19-21.774l3.938-3.953.094-.094.09-.094.094-.094.094-.094.09-.094.094-.094.094-.1.09-.094.282-.286.286-.29.282-.29.286-.29.286-.29.286-.29.286-.293.286-.293.315-.315.3-.311.3-.3.293-.3.29-.3.29-.293.572-.583,1.169-1.195,1.043-1.086.076-.08.282-.286.282-.29.282-.29.279-.29.637-.652.637-.652.641-.655.641-.659.644-.662.644-.662.648-.666.652-.67.311-.319.311-.322.315-.322.311-.322.315-.326.315-.322.311-.326.319-.322c.416-.434.836-.865,1.256-1.3l2.516-2.6.586-.6.586-.608.586-.608.572-.59,1.879-1.951c27.363,30.342,51.4,56.188,54.842,57.39h7.935c2.675-1.589,4.054-2.418,4.778-2.867a9.288,9.288,0,0,0,.8-.518l.065-.054.174-.156.141-.13.119-.109.094-.087.083-.076.065-.062.062-.058.054-.054.532-.514.083-.08.069-.069.058-.062c.022,0,.04-.04.058-.058l.174-.174.145-.148.119-.123.1-.1.087-.09.072-.072.062-.069.062-.065.163-.174.134-.145.116-.123.094-.1c.025-.029.054-.058.076-.087l.069-.072.062-.069a.466.466,0,0,1,.058-.062l.17-.192.141-.159.119-.134.1-.109.08-.09.069-.08.058-.069.058-.069.2-.235.094-.109c.051-.065.1-.123.148-.177l.083-.1.13-.156.221-.268c.036-.04.065-.08.1-.119l.094-.112.1-.123.1-.123.1-.119.094-.123.094-.119.094-.116.094-.119.091-.119c.051-.062.094-.123.138-.177l.116-.152.1-.138.087-.116.08-.109.072-.094.069-.09.065-.087.138-.188.116-.163.1-.138.087-.116.072-.1.065-.09.058-.083.054-.076.141-.2.116-.167.1-.141.083-.119.069-.1a.859.859,0,0,1,.058-.087l.051-.076.047-.072.138-.2.112-.174c.036-.051.069-.1.094-.141s.058-.083.08-.119.045-.067.065-.1c.062-.09.109-.163.152-.235l.127-.2.1-.163.083-.138.072-.116.062-.094.051-.083.083-.141c.362-.6.456-.771.55-.941.04-.072.076-.141.112-.2l.091-.167c.029-.051.054-.094.076-.138a1.209,1.209,0,0,0,.062-.112.843.843,0,0,0,.051-.094c.033-.054.058-.1.08-.145l.033-.065c1.839-5.307,1.846-5.509,1.839-5.7-.145-3.461-17.738-27.008-40.04-55.023-3.185-4-6.469-8.094-9.81-12.232,24.72-26.11,46.371-49.513,52.083-56.434a14.038,14.038,0,0,0,1.448-1.915C311.715,29.992,296.928,11.9,291.476,11.806Z" transform="translate(-87.129 -0.045)" fill="#c0c8f9"/>
      <path id="Path_43" data-name="Path 43" d="M305.551,11.761c5.452.09,20.239,18.186,17.814,23.464-1.021,2.2-25.274,28.525-53.509,58.349,26.744,33.111,49.69,63.309,49.857,67.262,0,.192,0,.395-1.839,5.7-.087.167-.178.337-.5.923-.094.17-.192.337-.55.941-.109.177-.217.362-.583.934-.119.192-.246.38-.641.974-.127.192-.253.362-.662.963-.145.206-.294.409-.692.956-.17.228-.362.456-.724.963-.246.315-.5.633-.76.963s-.492.6-1.086,1.274c-.148.174-.3.362-.793.9-.152.167-.3.333-.771.833-.159.17-.319.337-.818.843-.148.152-.3.3-.8.782-.145.141-.293.279-.793.724-.145.13-.29.257-5.651,3.443-3.62-1.253-29.763-29.5-58.693-61.625l-2.1,2.172c-.5.514-1,1.032-1.491,1.546q-2.374,2.461-4.706,4.883l-2.516,2.6-1.26,1.3-2.5,2.581q-2.606,2.682-5.144,5.278c-.749.775-1.5,1.538-2.244,2.3l-1.169,1.195-2.364,2.4c-.764.782-1.528,1.557-2.281,2.32-.246.253-.492.507-.724.757-10.567,10.715-19.652,19.718-26.1,25.723l-.565.525c-.724.666-1.394,1.281-2.11,1.926-.825.724-1.571,1.386-2.248,1.962-.159.134-.315.264-3.475,2.367-5.281-.489-20.159-21.861-21.719-29.524-.691-3.4,26.646-31.808,57.947-62.328-28.5-32.167-53.263-61.086-53.213-63.71.094-6.092,17.683-24.539,25.061-26.635a8.287,8.287,0,0,1,.912.55c.228.156.471.337.782.576s.536.431.9.724c.467.4.985.854,1.538,1.361.185.17.362.362.568.532,1.361,1.271,2.939,2.827,4.706,4.641l1.575,1.629c4.261,4.456,9.459,10.176,15.341,16.836,1.064,1.209,2.15,2.443,3.377,3.848q2.806,3.211,5.767,6.639l2.657,3.091.749.872.775.9.724.84q1.173,1.372,2.364,2.773l.362.445,2.172,2.534.42.5c.3.362.6.724,1.162,1.372l.985,1.166c.167.2.337.4.507.6.264.319.529.633,1.086,1.281l2.3,2.737,1.274,1.52,1.332,1.593c.883,1.053,1.767,2.118,2.653,3.178q3.928-3.7,7.776-7.294l2.845-2.653L256.86,53q.858-.8,1.712-1.589l2.476-2.291,2.711-2.5,2.534-2.32q.623-.576,1.245-1.137c.547-.5,1.086-1,1.633-1.491.753-.688,1.5-1.365,2.237-2.031.362-.326.724-.648,1.086-.97.568-.518,1.137-1.028,2.067-1.864l1.086-.988c3.754-3.37,7.273-6.48,10.8-9.546,1.944-1.683,3.775-3.258,5.636-4.807q4.3-3.62,7.508-6.06C300.147,14.961,300.722,14.519,305.551,11.761Z" transform="translate(-101.204 0)" fill="url(#linear-gradient)"/>
      <text id="No_Store_Found" data-name="No Store Found" transform="translate(134.683 227.97)" font-size="36" font-family="ComicSansMS-Bold, Comic Sans MS" font-weight="700"><tspan x="-138.595" y="0">No Store Found</tspan></text>
    </g>
  </g>
</svg>
