<svg  xmlns="http://www.w3.org/2000/svg"  width="18.29" height="17.215" viewBox="0 0 18.29 17.215"><g data-name="Group 2950" fill="lightgray"><path data-name="Path 49167" d="M17.889 3.543a1.853 1.853 0 00-1.444-.712H4.718l-.366-1.425A1.851 1.851 0 002.561 0H.6a.6.6 0 000 1.194h1.961a.636.636 0 01.616.481l2.349 9.359a1.851 1.851 0 001.792 1.406H15a1.835 1.835 0 001.791-1.406L18.236 5.1a1.765 1.765 0 00-.347-1.557zm-.828 1.29l-1.444 5.931a.636.636 0 01-.616.481H7.318a.636.636 0 01-.616-.481l-1.676-6.72h11.419a.639.639 0 01.5.25.6.6 0 01.116.539z"></path><path data-name="Path 49168" d="M7.719 13.21a2 2 0 102 2 2.014 2.014 0 00-2-2zm0 2.792a.79.79 0 11.79-.79.806.806 0 01-.79.79z"></path><path data-name="Path 49169" d="M14.344 13.21a2 2 0 102 2 2.014 2.014 0 00-2-2zm0 2.792a.79.79 0 11.79-.79.806.806 0 01-.79.79z"></path></g></svg>