<svg xmlns="http://www.w3.org/2000/svg" width="12" height="15" viewBox="0 0 15.299 18.252"><path data-name="Path 40684" d="M.038 12.16a5.089 5.089 0 01-.03-.908 6.571 6.571 0 01.309-1.467 8.431 8.431 0 01.578-1.537c.479-.925.89-1.884 1.358-2.815a.828.828 0 00-.016-.9 2.175 2.175 0 01.41-2.882 7.114 7.114 0 01.832-.624c.151-.1.336-.278.514-.162.2.13.082.334.026.508-.083.259-.182.517-.241.784a1.328 1.328 0 00.031.776.366.366 0 00.255.252c.149.023.3-.1.433-.155a6.051 6.051 0 01.567-.217q.147-.048.3-.089a1.061 1.061 0 00.259-.072c.076-.045.073-.143.1-.216a.349.349 0 01.189-.189.989.989 0 01.29-.065l.558-.067a4.345 4.345 0 00.564-.07 1.281 1.281 0 00-.164-.143c-.135-.089-.272-.176-.4-.27a.328.328 0 01-.089-.082.166.166 0 010-.158c.065-.147.332-.084.454-.073a5.966 5.966 0 01.993.211l.174.046a.672.672 0 01.162.038c-.135-.265-.272-.53-.405-.8l-.2-.41c-.054-.118-.1-.241.009-.346.136-.133.346 0 .484.064a2.77 2.77 0 011.184 1.1 5.646 5.646 0 01.582 1.409c.041.158.1.367.276.421a.475.475 0 00.28-.017 4.119 4.119 0 01.431-.125 3.217 3.217 0 01.924-.061 1.055 1.055 0 01.663.2.442.442 0 01.123.273c.017.168-.1.255-.246.3a1.2 1.2 0 00-.265.087.128.128 0 00-.048.041c-.042.068.086.14.128.175a3.416 3.416 0 01.394.393 1.074 1.074 0 01.194.279.312.312 0 01-.028.319.3.3 0 01-.234.057.452.452 0 00-.219.019c-.05.029-.01.053.022.084.081.08.163.159.241.242.174.185.329.447.564.563a.41.41 0 00.487-.084 1.124 1.124 0 00.23-.357c.14-.317.238-.654.394-.963.187-.37.437-.378.656-.027a1.3 1.3 0 01.2.53 2.7 2.7 0 01-.926 2.534 1.516 1.516 0 00-.617 1.4c0 .539-.025 1.08.009 1.616a7.769 7.769 0 01-.24 2.74 7.077 7.077 0 01-2.736 4.007 6.083 6.083 0 01-2.226.89 7.453 7.453 0 01-2.421-.029 7.184 7.184 0 01-4.306-2.245 7.083 7.083 0 01-1.139-1.664 6.481 6.481 0 01-.635-2.069z" fill="#D1D1D1"></path></svg>