<svg width="27" height="25" viewBox="0 0 27 25" fill="none" xmlns="http://www.w3.org/2000/svg">
<path d="M8.51997 15.914C8.63361 16.3662 8.81756 16.7978 9.06501 17.193C9.31123 17.5966 9.64647 17.9385 10.0451 18.1925C10.4438 18.4466 10.8952 18.6062 11.3649 18.659C11.6674 18.7015 11.9726 18.7235 12.278 18.725C15.4274 18.7297 18.5767 18.7297 21.726 18.725C21.8754 18.7194 22.0249 18.7214 22.174 18.731C22.3066 18.7733 22.4258 18.8493 22.52 18.9518C22.6141 19.0542 22.68 19.1794 22.711 19.315C22.7121 19.328 22.7121 19.341 22.711 19.354C22.6677 19.4924 22.5875 19.6163 22.4792 19.7127C22.3709 19.809 22.2385 19.8741 22.096 19.901C21.92 19.901 21.745 19.901 21.569 19.901C18.3544 19.901 15.14 19.901 11.926 19.901C10.9231 19.9148 9.94288 19.6033 9.13203 19.013C8.38591 18.4578 7.81634 17.6986 7.49201 16.827C6.41934 14.1083 5.34864 11.3887 4.27997 8.66801C4.04884 8.0146 3.64437 7.43631 3.10993 6.99501C2.627 6.62817 2.06862 6.37336 1.47504 6.24901C1.19982 6.17059 0.915149 6.12989 0.628974 6.12801C0.557994 6.13097 0.488607 6.10663 0.435004 6.06001C0.297146 5.92317 0.174754 5.7716 0.0700141 5.60802C0.0325307 5.55379 0.00848087 5.49144 -0.000176297 5.42609C-0.00883346 5.36075 -0.00186184 5.29427 0.0202094 5.23216C0.0422807 5.17005 0.0788266 5.11408 0.126777 5.06885C0.174727 5.02361 0.232673 4.99042 0.295966 4.97201C0.541781 4.88195 0.80686 4.85748 1.06501 4.90101C2.324 5.0377 3.49619 5.60793 4.38093 6.51401C4.66535 6.79206 4.90016 7.11675 5.07502 7.47401C5.10227 7.53311 5.13291 7.59054 5.16694 7.64601C5.20309 7.71187 5.25709 7.76623 5.3227 7.80284C5.38831 7.83945 5.46299 7.85683 5.53803 7.85301C5.62203 7.85301 5.70694 7.85301 5.79194 7.85301H13.686L14.055 9.05901H5.784C5.873 9.31601 5.94095 9.54501 6.03095 9.76601C6.63095 11.253 7.24094 12.737 7.84394 14.224C7.88061 14.3534 7.95974 14.4668 8.06855 14.5458C8.17736 14.6249 8.30963 14.6651 8.44404 14.66C8.50904 14.66 8.57398 14.666 8.63898 14.666H19.629C20.2913 14.688 20.9412 14.483 21.471 14.085C21.6477 13.9336 21.8147 13.7713 21.971 13.599C22.0252 13.5429 22.0749 13.4827 22.1199 13.419C22.1594 13.3638 22.2095 13.3171 22.2672 13.2814C22.3248 13.2457 22.389 13.2217 22.456 13.211C22.9197 13.1083 23.3688 12.9484 23.793 12.735C23.7907 12.7744 23.7849 12.8136 23.7759 12.852C23.5778 13.5364 23.2102 14.1596 22.7071 14.6641C22.204 15.1686 21.5818 15.538 20.898 15.738C20.6225 15.8134 20.34 15.8603 20.055 15.878C19.712 15.909 19.367 15.92 19.022 15.92C15.606 15.92 12.1897 15.92 8.77302 15.92L8.51997 15.914Z" fill="url(#paint0_linear_2_75)"/>
<path d="M20.603 6.22557e-07C21.4403 0.00418897 22.2687 0.17344 23.0406 0.498067C23.8125 0.822693 24.5127 1.29633 25.1014 1.89187C25.6901 2.48741 26.1556 3.19318 26.4713 3.96879C26.7869 4.7444 26.9465 5.57464 26.941 6.412C26.9165 8.08898 26.2313 9.68857 25.0342 10.8633C23.8372 12.038 22.2251 12.693 20.5479 12.686C19.7043 12.6776 18.8709 12.5017 18.0959 12.1683C17.3209 11.8349 16.62 11.3508 16.0338 10.7442C15.4475 10.1375 14.9878 9.42032 14.6812 8.63437C14.3746 7.84843 14.2274 7.00937 14.248 6.166C14.2972 4.51352 14.9882 2.94525 16.1747 1.79403C17.3613 0.642807 18.9498 -0.000730658 20.603 6.22557e-07ZM15.6299 6.419C15.641 7.07134 15.7823 7.7149 16.0455 8.31191C16.3086 8.90893 16.6883 9.44738 17.1623 9.89569C17.6363 10.344 18.1951 10.6931 18.8059 10.9226C19.4166 11.1521 20.067 11.2573 20.7189 11.232C22.015 11.184 23.2405 10.6297 24.1324 9.68812C25.0243 8.74653 25.5113 7.49273 25.489 6.196C25.4743 5.54546 25.3311 4.90426 25.0674 4.30938C24.8038 3.71449 24.4249 3.1777 23.9527 2.72998C23.4805 2.28225 22.9244 1.93245 22.3163 1.70075C21.7083 1.46905 21.0604 1.36004 20.41 1.38C19.1111 1.42338 17.8815 1.97622 16.987 2.91898C16.0925 3.86174 15.6051 5.11866 15.6299 6.418V6.419Z" fill="url(#paint1_linear_2_75)"/>
<path d="M11.5341 24.33C11.293 24.3309 11.0542 24.2839 10.8315 24.1915C10.6087 24.0992 10.4065 23.9634 10.2369 23.7921C10.0672 23.6209 9.93333 23.4175 9.84305 23.1939C9.75278 22.9704 9.70791 22.7311 9.7111 22.49C9.7128 22.2535 9.76109 22.0197 9.85319 21.8019C9.94528 21.5841 10.0794 21.3866 10.2478 21.2206C10.4163 21.0547 10.6158 20.9236 10.835 20.8347C11.0542 20.7459 11.2886 20.7012 11.5251 20.703C11.7636 20.6971 12.0009 20.7392 12.2228 20.8269C12.4447 20.9146 12.6467 21.0461 12.8167 21.2135C12.9867 21.3809 13.1212 21.5808 13.2123 21.8013C13.3035 22.0218 13.3493 22.2584 13.3471 22.497C13.3492 22.7366 13.3039 22.9743 13.2138 23.1963C13.1237 23.4184 12.9906 23.6204 12.8221 23.7907C12.6535 23.9611 12.453 24.0965 12.232 24.189C12.0109 24.2816 11.7737 24.3295 11.5341 24.33ZM11.5341 23.278C11.635 23.2807 11.7355 23.2629 11.8294 23.2256C11.9232 23.1883 12.0086 23.1324 12.0801 23.0611C12.1517 22.9898 12.2079 22.9047 12.2455 22.811C12.2832 22.7173 12.3015 22.617 12.2991 22.516C12.3 22.415 12.281 22.3149 12.2431 22.2212C12.2052 22.1276 12.1493 22.0424 12.0784 21.9705C12.0075 21.8986 11.923 21.8414 11.83 21.8022C11.7369 21.763 11.637 21.7425 11.536 21.742C11.4352 21.7401 11.335 21.7585 11.2414 21.7959C11.1477 21.8334 11.0624 21.8892 10.9906 21.9601C10.9189 22.0311 10.8621 22.1156 10.8235 22.2089C10.785 22.3021 10.7655 22.4021 10.7661 22.503C10.7605 22.6056 10.7763 22.7083 10.8127 22.8044C10.849 22.9006 10.905 22.9881 10.9771 23.0613C11.0492 23.1346 11.1358 23.1919 11.2314 23.2298C11.3269 23.2676 11.4294 23.2851 11.5321 23.281L11.5341 23.278Z" fill="url(#paint2_linear_2_75)"/>
<path d="M21.6381 22.487C21.6431 22.7269 21.6003 22.9654 21.5122 23.1886C21.4241 23.4118 21.2924 23.6152 21.1249 23.7869C20.9573 23.9586 20.7572 24.0953 20.5363 24.1889C20.3153 24.2825 20.078 24.3311 19.838 24.332C19.5981 24.3368 19.3597 24.2936 19.1367 24.2049C18.9138 24.1162 18.7108 23.9839 18.5397 23.8156C18.3687 23.6474 18.233 23.4466 18.1407 23.2251C18.0483 23.0036 18.0012 22.7659 18.002 22.526C17.9976 22.2875 18.041 22.0506 18.1297 21.8291C18.2184 21.6077 18.3505 21.4062 18.5183 21.2367C18.686 21.0672 18.886 20.9329 19.1065 20.842C19.327 20.751 19.5635 20.7051 19.8021 20.707C20.0408 20.6982 20.2788 20.7379 20.5018 20.8235C20.7249 20.9091 20.9283 21.039 21.0998 21.2053C21.2713 21.3716 21.4074 21.5709 21.4999 21.7911C21.5924 22.0114 21.6394 22.2481 21.6381 22.487ZM19.8311 23.281C20.0279 23.2851 20.2184 23.2113 20.3613 23.0758C20.5041 22.9402 20.5878 22.7538 20.5941 22.557C20.6005 22.4526 20.5854 22.348 20.5496 22.2497C20.5138 22.1514 20.4582 22.0615 20.3861 21.9857C20.314 21.9099 20.2271 21.8497 20.1307 21.809C20.0344 21.7683 19.9307 21.7478 19.8261 21.749C19.7251 21.7475 19.6249 21.7662 19.5312 21.8038C19.4375 21.8415 19.3523 21.8974 19.2805 21.9683C19.2086 22.0392 19.1516 22.1238 19.1127 22.2169C19.0739 22.3101 19.0539 22.4101 19.054 22.511C19.051 22.6134 19.0692 22.7153 19.1074 22.8104C19.1455 22.9054 19.2027 22.9916 19.2756 23.0636C19.3485 23.1355 19.4355 23.1917 19.531 23.2286C19.6266 23.2655 19.7287 23.2823 19.8311 23.278V23.281Z" fill="url(#paint3_linear_2_75)"/>
<path d="M23.2421 8.74001H17.9561C17.9355 8.53928 17.9483 8.33652 17.9941 8.14001C18.0691 7.66209 18.2712 7.21311 18.5791 6.84001C18.7192 6.6638 18.8984 6.52263 19.1025 6.42769C19.3067 6.33275 19.53 6.28664 19.7551 6.29301C20.2951 6.30001 20.8351 6.30601 21.3751 6.29301C21.6626 6.27885 21.9484 6.34531 22.2002 6.4849C22.452 6.62448 22.6598 6.83164 22.8001 7.08301C23.1033 7.58155 23.2566 8.15672 23.2421 8.74001Z" fill="url(#paint4_linear_2_75)"/>
<path d="M19.354 4.48101C19.3564 4.15239 19.4888 3.83808 19.7223 3.60683C19.9558 3.37558 20.2714 3.24621 20.6 3.24701C20.9294 3.24939 21.2445 3.38192 21.4766 3.61571C21.7087 3.8495 21.839 4.16557 21.839 4.49501C21.8399 4.65803 21.8086 4.81963 21.7467 4.97047C21.6849 5.12131 21.5938 5.25842 21.4787 5.37388C21.3636 5.48934 21.2268 5.58088 21.0762 5.6432C20.9255 5.70553 20.7641 5.73741 20.601 5.73701C20.4359 5.73919 20.272 5.70813 20.1192 5.64566C19.9663 5.5832 19.8275 5.49062 19.7112 5.37343C19.5948 5.25624 19.5033 5.11684 19.4419 4.96352C19.3805 4.81021 19.3506 4.64611 19.354 4.48101Z" fill="url(#paint5_linear_2_75)"/>
<defs>
<linearGradient id="paint0_linear_2_75" x1="25.1529" y1="19.9015" x2="-24.8023" y2="-35.1683" gradientUnits="userSpaceOnUse">
<stop stop-color="#48647D"/>
<stop offset="0.234375" stop-color="#6B8299"/>
<stop offset="0.442708" stop-color="#DAE2EB"/>
<stop offset="0.682292" stop-color="#8CA2B7"/>
<stop offset="1" stop-color="#EDF2F7"/>
</linearGradient>
<linearGradient id="paint1_linear_2_75" x1="27.6666" y1="12.6861" x2="-12.0907" y2="-14.9992" gradientUnits="userSpaceOnUse">
<stop stop-color="#48647D"/>
<stop offset="0.234375" stop-color="#6B8299"/>
<stop offset="0.442708" stop-color="#DAE2EB"/>
<stop offset="0.682292" stop-color="#8CA2B7"/>
<stop offset="1" stop-color="#EDF2F7"/>
</linearGradient>
<linearGradient id="paint2_linear_2_75" x1="13.5549" y1="24.33" x2="2.17983" y2="16.3955" gradientUnits="userSpaceOnUse">
<stop stop-color="#48647D"/>
<stop offset="0.234375" stop-color="#6B8299"/>
<stop offset="0.442708" stop-color="#DAE2EB"/>
<stop offset="0.682292" stop-color="#8CA2B7"/>
<stop offset="1" stop-color="#EDF2F7"/>
</linearGradient>
<linearGradient id="paint3_linear_2_75" x1="21.8463" y1="24.3324" x2="10.4726" y2="16.3956" gradientUnits="userSpaceOnUse">
<stop stop-color="#48647D"/>
<stop offset="0.234375" stop-color="#6B8299"/>
<stop offset="0.442708" stop-color="#DAE2EB"/>
<stop offset="0.682292" stop-color="#8CA2B7"/>
<stop offset="1" stop-color="#EDF2F7"/>
</linearGradient>
<linearGradient id="paint4_linear_2_75" x1="23.5457" y1="8.74001" x2="16.0022" y2="-2.61317" gradientUnits="userSpaceOnUse">
<stop stop-color="#48647D"/>
<stop offset="0.234375" stop-color="#6B8299"/>
<stop offset="0.442708" stop-color="#DAE2EB"/>
<stop offset="0.682292" stop-color="#8CA2B7"/>
<stop offset="1" stop-color="#EDF2F7"/>
</linearGradient>
<linearGradient id="paint5_linear_2_75" x1="21.981" y1="5.73712" x2="14.1844" y2="0.322281" gradientUnits="userSpaceOnUse">
<stop stop-color="#48647D"/>
<stop offset="0.234375" stop-color="#6B8299"/>
<stop offset="0.442708" stop-color="#DAE2EB"/>
<stop offset="0.682292" stop-color="#8CA2B7"/>
<stop offset="1" stop-color="#EDF2F7"/>
</linearGradient>
</defs>
</svg>
