<svg  xmlns="http://www.w3.org/2000/svg" width="50" height="50" viewBox="0 0 50 50"><g data-name="Group 3585"><g data-name="Group 3347"><circle data-name="Ellipse 103" cx="25" cy="25" r="25" fill="#a84ec3"></circle></g><g data-name="Group 3436" fill="#fff"><path id="path_1" d="M 20.204 28.824 C 20.318 29.276 20.502 29.708 20.749 30.103 C 20.995 30.507 21.33 30.848 21.729 31.103 C 22.128 31.357 22.579 31.516 23.049 31.569 C 23.352 31.611 23.657 31.634 23.962 31.635 Q 28.686 31.642 33.41 31.635 C 33.559 31.629 33.709 31.631 33.858 31.641 C 33.991 31.683 34.11 31.759 34.204 31.862 C 34.298 31.964 34.364 32.089 34.395 32.225 C 34.396 32.238 34.396 32.251 34.395 32.264 C 34.352 32.402 34.272 32.526 34.163 32.623 C 34.055 32.719 33.922 32.784 33.78 32.811 C 33.604 32.811 33.429 32.811 33.253 32.811 Q 28.431 32.811 23.61 32.811 C 22.607 32.825 21.627 32.513 20.816 31.923 C 20.07 31.368 19.5 30.609 19.176 29.737 Q 17.567 25.659 15.964 21.578 C 15.733 20.925 15.328 20.346 14.794 19.905 C 14.311 19.538 13.753 19.283 13.159 19.159 C 12.884 19.081 12.599 19.04 12.313 19.038 C 12.242 19.041 12.173 19.017 12.119 18.97 C 11.981 18.833 11.859 18.682 11.754 18.518 C 11.704 18.445 11.678 18.359 11.68 18.271 C 11.683 18.182 11.713 18.097 11.767 18.027 C 11.821 17.958 11.895 17.907 11.98 17.882 C 12.226 17.792 12.491 17.767 12.749 17.811 C 14.008 17.948 15.18 18.518 16.065 19.424 C 16.349 19.702 16.584 20.027 16.759 20.384 C 16.786 20.443 16.817 20.501 16.851 20.556 C 16.887 20.622 16.941 20.676 17.007 20.713 C 17.072 20.749 17.147 20.767 17.222 20.763 C 17.306 20.763 17.391 20.763 17.476 20.763 L 25.37 20.763 L 25.739 21.969 L 17.468 21.969 C 17.557 22.226 17.625 22.455 17.715 22.676 C 18.315 24.163 18.925 25.647 19.528 27.134 C 19.565 27.263 19.644 27.377 19.753 27.456 C 19.861 27.535 19.994 27.575 20.128 27.57 C 20.193 27.57 20.258 27.576 20.323 27.576 L 31.313 27.576 C 31.975 27.598 32.625 27.393 33.155 26.995 C 33.332 26.844 33.499 26.681 33.655 26.509 C 33.709 26.453 33.759 26.393 33.804 26.329 C 33.843 26.274 33.893 26.227 33.951 26.191 C 34.009 26.156 34.073 26.132 34.14 26.121 C 34.604 26.018 35.053 25.858 35.477 25.645 C 35.475 25.684 35.469 25.724 35.46 25.762 C 35.262 26.446 34.894 27.07 34.391 27.574 C 33.888 28.079 33.266 28.448 32.582 28.648 C 32.307 28.723 32.024 28.77 31.739 28.788 C 31.396 28.819 31.051 28.83 30.706 28.83 Q 25.582 28.83 20.457 28.83 Z" fill="#ffffff"></path><path id="path_2" d="M 32.287 12.91 C 33.406 12.916 34.504 13.216 35.471 13.781 C 36.437 14.346 37.237 15.156 37.791 16.128 C 38.345 17.101 38.632 18.203 38.625 19.322 C 38.601 20.998 37.915 22.599 36.718 23.773 C 35.522 24.948 33.909 25.603 32.232 25.596 C 31.104 25.585 30 25.274 29.032 24.696 C 28.064 24.118 27.266 23.293 26.722 22.305 C 26.177 21.318 25.904 20.203 25.932 19.076 C 25.981 17.424 26.673 15.855 27.859 14.704 C 29.045 13.553 30.634 12.909 32.287 12.91 Z M 27.314 19.329 C 27.329 20.201 27.576 21.053 28.03 21.798 C 28.485 22.542 29.129 23.152 29.898 23.564 C 30.667 23.976 31.532 24.176 32.403 24.142 C 33.699 24.094 34.925 23.539 35.816 22.598 C 36.708 21.657 37.195 20.402 37.173 19.106 C 37.153 18.236 36.904 17.387 36.45 16.645 C 35.997 15.903 35.355 15.295 34.59 14.881 C 33.824 14.467 32.963 14.263 32.094 14.29 C 30.796 14.333 29.565 14.887 28.671 15.829 C 27.777 16.771 27.289 18.029 27.314 19.328 Z" fill="#ffffff"></path><path id="path_3" d="M 23.218 37.24 C 22.896 37.241 22.579 37.157 22.3 36.995 C 22.021 36.833 21.79 36.6 21.631 36.32 C 21.472 36.04 21.391 35.722 21.395 35.4 C 21.397 35.084 21.483 34.774 21.643 34.501 C 21.803 34.229 22.032 34.003 22.307 33.847 C 22.582 33.691 22.893 33.611 23.209 33.613 C 23.528 33.605 23.843 33.683 24.121 33.839 C 24.4 33.995 24.631 34.222 24.791 34.498 C 24.951 34.774 25.034 35.088 25.031 35.407 C 25.034 35.727 24.952 36.043 24.794 36.321 C 24.635 36.6 24.406 36.831 24.129 36.993 C 23.853 37.154 23.538 37.239 23.218 37.24 Z M 23.218 36.188 C 23.353 36.192 23.486 36.159 23.604 36.092 C 23.722 36.026 23.819 35.929 23.886 35.812 C 23.953 35.694 23.986 35.561 23.983 35.426 C 23.984 35.291 23.95 35.158 23.883 35.041 C 23.817 34.923 23.72 34.825 23.604 34.757 C 23.487 34.689 23.355 34.653 23.22 34.652 C 23.085 34.649 22.952 34.683 22.835 34.749 C 22.717 34.816 22.62 34.912 22.552 35.029 C 22.484 35.145 22.449 35.278 22.45 35.413 C 22.442 35.55 22.473 35.687 22.539 35.807 C 22.605 35.928 22.703 36.028 22.823 36.096 C 22.943 36.163 23.079 36.196 23.216 36.191 Z" fill="#ffffff"></path><path id="path_4" d="M 33.322 35.397 C 33.329 35.718 33.25 36.034 33.094 36.315 C 32.938 36.595 32.71 36.828 32.434 36.991 C 32.157 37.154 31.843 37.241 31.522 37.242 C 31.201 37.248 30.885 37.169 30.605 37.012 C 30.325 36.855 30.093 36.626 29.931 36.349 C 29.769 36.072 29.685 35.757 29.686 35.436 C 29.68 35.117 29.76 34.803 29.916 34.525 C 30.073 34.247 30.301 34.017 30.577 33.857 C 30.853 33.697 31.167 33.614 31.486 33.617 C 31.805 33.605 32.122 33.68 32.402 33.833 C 32.682 33.987 32.915 34.213 33.077 34.488 C 33.239 34.764 33.324 35.078 33.322 35.397 Z M 31.515 36.191 C 31.712 36.195 31.902 36.121 32.045 35.986 C 32.188 35.85 32.272 35.664 32.278 35.467 C 32.287 35.327 32.257 35.188 32.191 35.064 C 32.126 34.941 32.028 34.838 31.908 34.766 C 31.787 34.694 31.65 34.657 31.51 34.659 C 31.375 34.657 31.242 34.691 31.125 34.757 C 31.007 34.824 30.909 34.92 30.841 35.037 C 30.774 35.153 30.738 35.286 30.738 35.421 C 30.734 35.558 30.768 35.693 30.836 35.812 C 30.903 35.931 31.003 36.029 31.123 36.095 C 31.242 36.162 31.378 36.194 31.515 36.188 Z" fill="#ffffff"></path><path id="path_5" d="M 34.926 21.65 L 29.64 21.65 C 29.619 21.449 29.632 21.247 29.678 21.05 C 29.753 20.572 29.955 20.123 30.263 19.75 C 30.403 19.574 30.582 19.433 30.786 19.338 C 30.991 19.243 31.214 19.197 31.439 19.203 C 31.979 19.21 32.519 19.216 33.059 19.203 C 33.347 19.189 33.632 19.255 33.884 19.395 C 34.136 19.534 34.344 19.742 34.484 19.993 C 34.787 20.491 34.941 21.067 34.926 21.65 Z" fill="#ffffff"></path><path id="path_6" d="M 31.038 17.391 C 31.04 17.063 31.173 16.748 31.406 16.517 C 31.64 16.286 31.955 16.156 32.284 16.157 C 32.613 16.159 32.929 16.292 33.161 16.526 C 33.393 16.759 33.523 17.076 33.523 17.405 C 33.524 17.623 33.468 17.837 33.359 18.026 C 33.251 18.215 33.094 18.372 32.906 18.481 C 32.717 18.59 32.503 18.648 32.285 18.647 C 32.064 18.65 31.847 18.593 31.655 18.483 C 31.464 18.373 31.306 18.214 31.197 18.022 C 31.088 17.83 31.033 17.612 31.038 17.391 Z" fill="#ffffff"></path></g></g></svg>