<svg xmlns="http://www.w3.org/2000/svg" width="9.809" height="16.698" viewBox="0 0 9.809 16.698">
  <g id="Group_5064" data-name="Group 5064" transform="translate(117.294 17) rotate(90)">
    <g id="Group_2404" data-name="Group 2404" transform="translate(-17 107.485)">
      <path id="Path_40799" data-name="Path 40799" d="M-.569,115.189l-7.437-7.437a.909.909,0,0,0-.651-.266.905.905,0,0,0-.646.266l-7.431,7.43a.907.907,0,0,0-.266.646.906.906,0,0,0,.266.646l.547.547a.907.907,0,0,0,.646.267.907.907,0,0,0,.646-.267l6.24-6.24,6.247,6.247a.907.907,0,0,0,.646.266.908.908,0,0,0,.646-.266l.547-.547A.915.915,0,0,0-.569,115.189Z" transform="translate(17 -107.485)" fill="#242126"/>
    </g>
  </g>
</svg>
