<svg width="208" height="198" viewBox="0 0 208 198" fill="none" xmlns="http://www.w3.org/2000/svg">
<g clip-path="url(#clip0_26716_1352)" filter="url(#filter0_dd_26716_1352)">
<path d="M61.1449 119.147L55.4352 120.28C53.115 120.74 50.769 120.76 49.5861 118.714C48.4032 116.669 49.5947 114.648 51.1538 112.871L55.8163 107.554L56.3961 106.894L61.1449 119.147Z" fill="white"/>
<path d="M64.1225 118.622L61.7567 123.182C59.7338 123.675 55.0738 120.364 54.0426 118.15C53.0114 115.935 54.05 113.747 55.4093 111.823L59.4797 106.067L59.9842 105.353L64.1225 118.622Z" fill="black"/>
<path d="M142.988 20.0025C135.316 20.085 127.795 22.1482 121.156 25.9917C105.848 34.8214 97.747 51.3287 98.9015 67.8347C97.7914 62.3656 96.6356 58.0992 97.6816 52.7348L89.0782 62.5652L79.0402 74.0075L77.0814 76.2454L75.119 78.4834L59.3071 96.5101C54.0217 102.535 49.9821 109.386 53.9921 116.324C58.0021 123.262 65.9568 123.194 73.8263 121.634L94.1909 117.594L64.9576 164.405L68.0413 166.331L98.0776 118.235V164.914H101.72V118.295L130.931 165.593L134.03 163.684L104.321 115.584L122.782 111.923L131.005 110.172C126.54 108.716 122.911 105.743 121.119 103.35C134.503 111.071 151.525 111.652 165.873 103.377C178.824 95.9063 186.606 82.942 188.001 69.1324C186.848 74.3564 184.617 79.2828 181.451 83.5972C178.285 87.9115 174.254 91.5191 169.614 94.1896C151.142 104.844 127.522 98.5213 116.857 80.0657C106.193 61.6101 112.522 38.0107 130.993 27.3559C135.626 24.6774 140.768 22.9932 146.089 22.4108C151.41 21.8283 156.795 22.3604 161.899 23.9731C156.413 21.5025 150.487 20.1565 144.472 20.0148C143.978 20.0009 143.483 19.9968 142.988 20.0025Z" fill="white"/>
<path d="M151.008 27.9288C156.659 28.0488 162.183 29.6229 167.046 32.499C171.91 35.3751 175.949 39.456 178.772 44.3473C187.85 60.0548 182.462 80.1407 166.74 89.2046C160.102 93.0465 152.324 94.4369 144.764 93.1333C145.554 92.776 146.335 92.3791 147.101 91.9367C159.786 84.6203 164.132 68.4138 156.808 55.7391C149.576 43.2234 133.669 38.8424 121.057 45.7805C123.87 40.2966 128.17 35.7139 133.467 32.5562C138.763 29.3985 144.842 27.7933 151.008 27.9239V27.9288Z" fill="white"/>
<path d="M151.008 27.9288C144.842 27.7977 138.763 29.4029 133.466 32.5609C128.17 35.7189 123.869 40.3021 121.057 45.7867C126.599 39.4685 133.869 36.2693 141.175 35.626C141.258 34.4264 141.804 33.3059 142.699 32.5008C143.593 31.6958 144.765 31.2691 145.968 31.3109C147.171 31.3526 148.31 31.8594 149.146 32.7244C149.983 33.5895 150.45 34.7451 150.449 35.9477C150.449 36.0216 150.442 36.0931 150.438 36.167C153.817 36.8545 157.055 38.1092 160.014 39.8776C160.344 39.4422 160.758 39.0781 161.233 38.8072C161.707 38.5363 162.232 38.3643 162.775 38.3015C163.318 38.2387 163.868 38.2864 164.391 38.4418C164.915 38.5973 165.402 38.8571 165.823 39.2057C166.244 39.5543 166.589 39.9844 166.839 40.4701C167.089 40.9558 167.237 41.487 167.276 42.0317C167.314 42.5763 167.242 43.1231 167.063 43.6391C166.884 44.155 166.603 44.6295 166.235 45.0337C167.653 46.6378 168.843 48.4292 169.772 50.3575C169.988 50.8085 170.196 51.2965 170.4 51.8005C171.032 51.5554 171.705 51.43 172.383 51.4308C173.823 51.4297 175.207 51.9915 176.237 52.9961C177.268 54.0008 177.865 55.3685 177.9 56.8069C177.934 58.2453 177.404 59.6401 176.423 60.6931C175.442 61.7462 174.087 62.3738 172.648 62.4418C172.907 68.1414 171.711 74.4621 167.772 79.9953C168.149 80.2589 168.465 80.5996 168.699 80.9949C168.933 81.3901 169.08 81.8306 169.13 82.2871C169.18 82.7437 169.132 83.2056 168.99 83.6422C168.847 84.0787 168.613 84.4798 168.302 84.8187C167.992 85.1576 167.613 85.4264 167.19 85.6073C166.768 85.7882 166.312 85.8769 165.852 85.8676C165.393 85.8582 164.94 85.7511 164.525 85.5532C164.111 85.3553 163.743 85.0713 163.447 84.7201C159.166 88.4172 153.134 91.4278 144.764 93.1444C152.324 94.448 160.101 93.058 166.739 89.217C182.462 80.1469 187.848 60.0609 178.771 44.3597C175.949 39.466 171.911 35.3826 167.048 32.5042C162.184 29.6258 156.66 28.0499 151.008 27.9288V27.9288Z" fill="#CCCCCC"/>
<path d="M145.804 32.5366C145.129 32.5369 144.468 32.7372 143.907 33.1124C143.345 33.4875 142.908 34.0206 142.649 34.6443C142.391 35.2679 142.324 35.954 142.456 36.6159C142.588 37.2778 142.913 37.8857 143.391 38.3627C143.869 38.8398 144.478 39.1646 145.14 39.296C145.803 39.4274 146.49 39.3596 147.114 39.1011C147.738 38.8426 148.271 38.405 148.646 37.8438C149.021 37.2825 149.221 36.6226 149.221 35.9477C149.222 35.4992 149.135 35.0549 148.963 34.6402C148.792 34.2256 148.54 33.849 148.223 33.5319C147.905 33.2149 147.528 32.9637 147.113 32.7929C146.698 32.6221 146.253 32.535 145.804 32.5366V32.5366Z" fill="#CCCCCC"/>
<path d="M163.227 39.4994C162.666 39.4994 162.117 39.6657 161.651 39.9771C161.184 40.2886 160.821 40.7312 160.606 41.2492C160.391 41.7671 160.335 42.337 160.445 42.8868C160.554 43.4366 160.824 43.9417 161.221 44.3381C161.618 44.7345 162.123 45.0044 162.674 45.1138C163.224 45.2231 163.794 45.167 164.313 44.9525C164.831 44.738 165.274 44.3747 165.586 43.9085C165.898 43.4424 166.064 42.8944 166.064 42.3338C166.066 41.9612 165.993 41.5919 165.851 41.2472C165.709 40.9026 165.5 40.5895 165.237 40.326C164.973 40.0625 164.66 39.8537 164.315 39.7119C163.97 39.57 163.6 39.4978 163.227 39.4994V39.4994Z" fill="#CCCCCC"/>
<path d="M152.961 41.6523C152.542 41.6521 152.133 41.7759 151.785 42.0081C151.436 42.2404 151.165 42.5705 151.004 42.9569C150.844 43.3433 150.802 43.7686 150.883 44.1789C150.965 44.5892 151.166 44.9661 151.462 45.2619C151.758 45.5578 152.136 45.7593 152.546 45.841C152.957 45.9227 153.382 45.8809 153.769 45.7209C154.156 45.5609 154.487 45.2898 154.719 44.942C154.952 44.5943 155.076 44.1854 155.076 43.7671C155.077 43.4893 155.023 43.2141 154.917 42.9573C154.811 42.7005 154.655 42.4672 154.458 42.2707C154.262 42.0742 154.028 41.9185 153.771 41.8124C153.514 41.7062 153.239 41.6519 152.961 41.6523V41.6523Z" fill="#CCCCCC"/>
<path d="M165.891 68.1156C165.432 68.1156 164.983 68.2516 164.602 68.5065C164.22 68.7613 163.922 69.1235 163.747 69.5473C163.571 69.9711 163.525 70.4375 163.614 70.8874C163.704 71.3373 163.925 71.7505 164.25 72.0749C164.574 72.3992 164.988 72.6201 165.438 72.7096C165.889 72.7991 166.355 72.7532 166.78 72.5776C167.204 72.4021 167.566 72.1048 167.821 71.7234C168.076 71.342 168.213 70.8936 168.213 70.4349C168.213 70.1301 168.154 69.8282 168.037 69.5466C167.921 69.2649 167.75 69.009 167.534 68.7935C167.318 68.578 167.062 68.4071 166.78 68.2908C166.498 68.1745 166.196 68.115 165.891 68.1156V68.1156Z" fill="#CCCCCC"/>
<path d="M162.193 53.7515C163.034 53.7515 163.715 53.0706 163.715 52.2308C163.715 51.3909 163.034 50.7101 162.193 50.7101C161.353 50.7101 160.671 51.3909 160.671 52.2308C160.671 53.0706 161.353 53.7515 162.193 53.7515Z" fill="#CCCCCC"/>
<path d="M165.891 80.6091C165.493 80.6093 165.104 80.7275 164.773 80.9486C164.442 81.1698 164.184 81.484 164.032 81.8515C163.88 82.219 163.84 82.6233 163.918 83.0134C163.996 83.4034 164.188 83.7617 164.469 84.0428C164.751 84.324 165.11 84.5154 165.5 84.5929C165.891 84.6704 166.295 84.6305 166.663 84.4782C167.031 84.326 167.345 84.0682 167.566 83.7375C167.787 83.4068 167.905 83.018 167.905 82.6203C167.907 82.3557 167.856 82.0935 167.755 81.8488C167.654 81.6041 167.506 81.3818 167.318 81.1948C167.131 81.0078 166.908 80.8597 166.663 80.7592C166.419 80.6586 166.156 80.6076 165.891 80.6091Z" fill="#CCCCCC"/>
<path d="M175.412 59.9659C177.086 58.2935 177.086 55.5821 175.412 53.9097C173.738 52.2373 171.024 52.2373 169.35 53.9097C167.676 55.5821 167.676 58.2935 169.35 59.9659C171.024 61.6383 173.738 61.6383 175.412 59.9659Z" fill="#CCCCCC"/>
<path d="M121.116 103.35C122.908 105.742 126.543 108.716 131.002 110.173L122.779 111.923L73.8175 121.635C65.9529 123.195 57.9945 123.263 53.9845 116.325C63.3527 123.283 110.445 108.085 121.116 103.35Z" fill="#CCCCCC"/>
<path d="M101.404 159.462C134.079 159.469 164.6 166.407 182.801 177.967C160.735 169.818 131.64 165.274 101.404 165.266C71.1533 165.287 42.0545 169.839 19.9951 178C38.1863 166.427 68.7123 159.475 101.404 159.462Z" fill="white"/>
<path d="M92.0126 114.144C92.8563 117.174 95.7463 119.396 99.2025 119.396C103.323 119.396 106.64 116.237 106.64 112.314L92.0126 114.144Z" fill="#CCCCCC"/>
<path d="M124.437 55.4423L126.55 55.2069L127.219 53.1908L128.095 55.1268L130.222 55.1391L128.65 56.5699L129.295 58.5934L127.448 57.5434L125.72 58.7807L126.149 56.7005L124.437 55.4423Z" fill="white"/>
<path d="M132.11 66.9696L135.264 66.6183L136.263 63.6089L137.572 66.4976L140.746 66.5173L138.401 68.6529L139.363 71.6746L136.605 70.1059L134.026 71.9544L134.667 68.8489L132.11 66.9696Z" fill="white"/>
<path d="M144.297 59.5311L146.554 59.2797L147.27 57.1256L148.206 59.1934L150.477 59.207L148.798 60.7363L149.487 62.8978L147.514 61.7752L145.667 63.0987L146.126 60.8756L144.297 59.5311Z" fill="white"/>
<path d="M123.381 77.9004L125.639 77.649L126.354 75.4948L127.291 77.5627L129.562 77.5763L127.883 79.1056L128.571 81.2684L126.598 80.1457L124.752 81.468L125.211 79.2449L123.381 77.9004Z" fill="white"/>
<path d="M144.513 79.2401L146.538 79.0158L147.179 77.0822L148.019 78.9381L150.057 78.9505L148.551 80.3221L149.169 82.2618L147.399 81.255L145.742 82.4417L146.154 80.4465L144.513 79.2401Z" fill="white"/>
</g>
<defs>
<filter id="filter0_dd_26716_1352" x="0" y="0" width="208" height="198" filterUnits="userSpaceOnUse" color-interpolation-filters="sRGB">
<feFlood flood-opacity="0" result="BackgroundImageFix"/>
<feColorMatrix in="SourceAlpha" type="matrix" values="0 0 0 0 0 0 0 0 0 0 0 0 0 0 0 0 0 0 127 0" result="hardAlpha"/>
<feOffset dx="5" dy="5"/>
<feGaussianBlur stdDeviation="7.5"/>
<feColorMatrix type="matrix" values="0 0 0 0 0 0 0 0 0 0 0 0 0 0 0 0 0 0 0.35 0"/>
<feBlend mode="normal" in2="BackgroundImageFix" result="effect1_dropShadow_26716_1352"/>
<feColorMatrix in="SourceAlpha" type="matrix" values="0 0 0 0 0 0 0 0 0 0 0 0 0 0 0 0 0 0 127 0" result="hardAlpha"/>
<feOffset dx="-5" dy="-5"/>
<feGaussianBlur stdDeviation="7.5"/>
<feColorMatrix type="matrix" values="0 0 0 0 0.231373 0 0 0 0 0.266667 0 0 0 0 0.317647 0 0 0 0.35 0"/>
<feBlend mode="normal" in2="effect1_dropShadow_26716_1352" result="effect2_dropShadow_26716_1352"/>
<feBlend mode="normal" in="SourceGraphic" in2="effect2_dropShadow_26716_1352" result="shape"/>
</filter>
<clipPath id="clip0_26716_1352">
<rect width="168" height="158" fill="white" transform="translate(20 20)"/>
</clipPath>
</defs>
</svg>
