<svg width="192" height="242" viewBox="0 0 192 242" fill="none" xmlns="http://www.w3.org/2000/svg">
<path d="M48.66 234.144C47.916 234.144 47.272 233.964 46.728 233.604C46.184 233.236 45.808 232.736 45.6 232.104L46.776 231.672C46.952 232.064 47.208 232.376 47.544 232.608C47.88 232.832 48.268 232.944 48.708 232.944C49.172 232.944 49.54 232.832 49.812 232.608C50.092 232.384 50.232 232.064 50.232 231.648C50.232 231.472 50.192 231.312 50.112 231.168C50.04 231.016 49.956 230.892 49.86 230.796C49.764 230.7 49.616 230.604 49.416 230.508C49.216 230.404 49.048 230.328 48.912 230.28C48.784 230.224 48.592 230.152 48.336 230.064C48.016 229.952 47.776 229.864 47.616 229.8C47.456 229.736 47.244 229.632 46.98 229.488C46.724 229.336 46.528 229.188 46.392 229.044C46.264 228.892 46.148 228.696 46.044 228.456C45.94 228.216 45.888 227.948 45.888 227.652C45.888 227.036 46.128 226.516 46.608 226.092C47.088 225.668 47.74 225.456 48.564 225.456C49.252 225.456 49.816 225.608 50.256 225.912C50.704 226.216 51.004 226.62 51.156 227.124L50.004 227.508C49.892 227.252 49.704 227.048 49.44 226.896C49.184 226.736 48.86 226.656 48.468 226.656C48.068 226.656 47.752 226.744 47.52 226.92C47.296 227.096 47.184 227.344 47.184 227.664C47.184 227.88 47.272 228.072 47.448 228.24C47.624 228.408 47.808 228.532 48 228.612C48.192 228.692 48.484 228.8 48.876 228.936C49.116 229.024 49.292 229.092 49.404 229.14C49.524 229.18 49.696 229.252 49.92 229.356C50.144 229.46 50.316 229.556 50.436 229.644C50.556 229.724 50.696 229.836 50.856 229.98C51.016 230.124 51.136 230.272 51.216 230.424C51.304 230.568 51.376 230.748 51.432 230.964C51.496 231.172 51.528 231.396 51.528 231.636C51.528 232.42 51.26 233.036 50.724 233.484C50.188 233.924 49.5 234.144 48.66 234.144ZM56.2262 234.144C55.3702 234.144 54.6902 233.86 54.1862 233.292C53.6902 232.716 53.4422 231.928 53.4422 230.928C53.4422 229.928 53.6942 229.144 54.1982 228.576C54.7022 228.008 55.3782 227.724 56.2262 227.724C56.9942 227.724 57.6262 227.968 58.1222 228.456C58.6182 228.944 58.8662 229.656 58.8662 230.592C58.8662 230.936 58.8502 231.204 58.8182 231.396H54.6902C54.6982 231.884 54.8542 232.28 55.1582 232.584C55.4702 232.888 55.8302 233.04 56.2382 233.04C56.7662 233.04 57.1902 232.832 57.5102 232.416L58.3262 233.256C57.8302 233.848 57.1302 234.144 56.2262 234.144ZM54.6902 230.388H57.6182C57.6102 229.86 57.4702 229.468 57.1982 229.212C56.9262 228.956 56.6022 228.828 56.2262 228.828C55.8022 228.828 55.4462 228.956 55.1582 229.212C54.8782 229.46 54.7222 229.852 54.6902 230.388ZM64.4087 234V233.472C63.9767 233.92 63.4167 234.144 62.7287 234.144C62.0807 234.144 61.5527 233.968 61.1447 233.616C60.7447 233.256 60.5447 232.748 60.5447 232.092C60.5447 231.428 60.7727 230.924 61.2287 230.58C61.6847 230.236 62.2407 230.064 62.8967 230.064C63.4967 230.064 64.0007 230.184 64.4087 230.424V230.088C64.4087 229.632 64.3047 229.308 64.0967 229.116C63.8887 228.924 63.5567 228.828 63.1007 228.828C62.4287 228.828 61.8447 229.012 61.3487 229.38L60.9767 228.36C61.5927 227.936 62.3567 227.724 63.2687 227.724C63.5727 227.724 63.8447 227.752 64.0847 227.808C64.3247 227.856 64.5687 227.956 64.8167 228.108C65.0647 228.252 65.2567 228.488 65.3927 228.816C65.5367 229.144 65.6087 229.548 65.6087 230.028V234H64.4087ZM62.9567 233.04C63.5327 233.04 64.0167 232.82 64.4087 232.38V231.444C64.0327 231.244 63.5967 231.144 63.1007 231.144C62.7007 231.144 62.3727 231.224 62.1167 231.384C61.8687 231.536 61.7447 231.772 61.7447 232.092C61.7447 232.388 61.8487 232.62 62.0567 232.788C62.2647 232.956 62.5647 233.04 62.9567 233.04ZM67.8914 234V227.868H69.1394V228.612C69.4114 228.02 69.8674 227.724 70.5074 227.724C70.9074 227.724 71.2514 227.848 71.5394 228.096L71.3594 229.248C71.0634 229.048 70.7394 228.948 70.3874 228.948C70.0514 228.948 69.7594 229.076 69.5114 229.332C69.2634 229.58 69.1394 229.988 69.1394 230.556V234H67.8914ZM75.6369 234.144C74.8129 234.144 74.1609 233.86 73.6809 233.292C73.2009 232.724 72.9609 231.94 72.9609 230.94C72.9609 229.94 73.2009 229.156 73.6809 228.588C74.1609 228.012 74.8129 227.724 75.6369 227.724C76.8289 227.724 77.6009 228.252 77.9529 229.308L76.7649 229.716C76.5649 229.188 76.2049 228.924 75.6849 228.924C75.2209 228.924 74.8609 229.104 74.6049 229.464C74.3569 229.816 74.2329 230.308 74.2329 230.94C74.2329 231.564 74.3569 232.056 74.6049 232.416C74.8529 232.768 75.1969 232.944 75.6369 232.944C76.2289 232.944 76.6129 232.644 76.7889 232.044L77.9769 232.416C77.6489 233.568 76.8689 234.144 75.6369 234.144ZM80.0719 234V225.912L81.3199 225.336V228.456C81.7039 227.968 82.2319 227.724 82.9039 227.724C84.3759 227.724 85.1119 228.596 85.1119 230.34V234H83.8639V230.34C83.8639 229.852 83.7519 229.492 83.5279 229.26C83.3039 229.02 83.0079 228.9 82.6399 228.9C81.7599 228.9 81.3199 229.372 81.3199 230.316V234H80.0719ZM91.1198 234V225.6H92.3678V232.8H96.4718V234H91.1198ZM102.814 233.292C102.31 233.86 101.626 234.144 100.762 234.144C99.8984 234.144 99.2144 233.86 98.7104 233.292C98.2144 232.724 97.9664 231.94 97.9664 230.94C97.9664 229.94 98.2144 229.156 98.7104 228.588C99.2144 228.012 99.8984 227.724 100.762 227.724C101.626 227.724 102.31 228.012 102.814 228.588C103.318 229.156 103.57 229.94 103.57 230.94C103.57 231.94 103.318 232.724 102.814 233.292ZM100.762 232.968C101.242 232.968 101.622 232.788 101.902 232.428C102.182 232.068 102.322 231.572 102.322 230.94C102.322 230.308 102.182 229.812 101.902 229.452C101.622 229.084 101.242 228.9 100.762 228.9C100.29 228.9 99.9144 229.084 99.6344 229.452C99.3544 229.812 99.2144 230.308 99.2144 230.94C99.2144 231.564 99.3544 232.06 99.6344 232.428C99.9144 232.788 100.29 232.968 100.762 232.968ZM108.051 234.144C107.227 234.144 106.575 233.86 106.095 233.292C105.615 232.724 105.375 231.94 105.375 230.94C105.375 229.94 105.615 229.156 106.095 228.588C106.575 228.012 107.227 227.724 108.051 227.724C109.243 227.724 110.015 228.252 110.367 229.308L109.179 229.716C108.979 229.188 108.619 228.924 108.099 228.924C107.635 228.924 107.275 229.104 107.019 229.464C106.771 229.816 106.647 230.308 106.647 230.94C106.647 231.564 106.771 232.056 107.019 232.416C107.267 232.768 107.611 232.944 108.051 232.944C108.643 232.944 109.027 232.644 109.203 232.044L110.391 232.416C110.063 233.568 109.283 234.144 108.051 234.144ZM115.873 234V233.472C115.441 233.92 114.881 234.144 114.193 234.144C113.545 234.144 113.017 233.968 112.609 233.616C112.209 233.256 112.009 232.748 112.009 232.092C112.009 231.428 112.237 230.924 112.693 230.58C113.149 230.236 113.705 230.064 114.361 230.064C114.961 230.064 115.465 230.184 115.873 230.424V230.088C115.873 229.632 115.769 229.308 115.561 229.116C115.353 228.924 115.021 228.828 114.565 228.828C113.893 228.828 113.309 229.012 112.813 229.38L112.441 228.36C113.057 227.936 113.821 227.724 114.733 227.724C115.037 227.724 115.309 227.752 115.549 227.808C115.789 227.856 116.033 227.956 116.281 228.108C116.529 228.252 116.721 228.488 116.857 228.816C117.001 229.144 117.073 229.548 117.073 230.028V234H115.873ZM114.421 233.04C114.997 233.04 115.481 232.82 115.873 232.38V231.444C115.497 231.244 115.061 231.144 114.565 231.144C114.165 231.144 113.837 231.224 113.581 231.384C113.333 231.536 113.209 231.772 113.209 232.092C113.209 232.388 113.313 232.62 113.521 232.788C113.729 232.956 114.029 233.04 114.421 233.04ZM121.131 234.144C120.219 234.144 119.763 233.636 119.763 232.62V228.948H118.815V227.868H119.763V225.936L121.011 225.336V227.868H122.463V228.948H121.011V232.296C121.011 232.76 121.211 232.992 121.611 232.992C121.907 232.992 122.211 232.896 122.523 232.704L122.367 233.868C121.999 234.052 121.587 234.144 121.131 234.144ZM125.666 226.692C125.522 226.836 125.346 226.908 125.138 226.908C124.93 226.908 124.75 226.836 124.598 226.692C124.454 226.54 124.382 226.36 124.382 226.152C124.382 225.944 124.454 225.768 124.598 225.624C124.75 225.472 124.93 225.396 125.138 225.396C125.346 225.396 125.522 225.472 125.666 225.624C125.818 225.768 125.894 225.944 125.894 226.152C125.894 226.36 125.818 226.54 125.666 226.692ZM124.514 234V227.868H125.762V234H124.514ZM132.721 233.292C132.217 233.86 131.533 234.144 130.669 234.144C129.805 234.144 129.121 233.86 128.617 233.292C128.121 232.724 127.873 231.94 127.873 230.94C127.873 229.94 128.121 229.156 128.617 228.588C129.121 228.012 129.805 227.724 130.669 227.724C131.533 227.724 132.217 228.012 132.721 228.588C133.225 229.156 133.477 229.94 133.477 230.94C133.477 231.94 133.225 232.724 132.721 233.292ZM130.669 232.968C131.149 232.968 131.529 232.788 131.809 232.428C132.089 232.068 132.229 231.572 132.229 230.94C132.229 230.308 132.089 229.812 131.809 229.452C131.529 229.084 131.149 228.9 130.669 228.9C130.197 228.9 129.821 229.084 129.541 229.452C129.261 229.812 129.121 230.308 129.121 230.94C129.121 231.564 129.261 232.06 129.541 232.428C129.821 232.788 130.197 232.968 130.669 232.968ZM139.373 234V230.34C139.373 229.852 139.261 229.492 139.037 229.26C138.813 229.02 138.517 228.9 138.149 228.9C137.269 228.9 136.829 229.372 136.829 230.316V234H135.581V227.868H136.829V228.456C137.213 227.968 137.741 227.724 138.413 227.724C139.885 227.724 140.621 228.596 140.621 230.34V234H139.373Z" fill="#404B69"/>
<path d="M182.488 122.329C182.486 122.333 182.486 122.337 182.484 122.341C181.959 124.011 181.401 125.681 180.78 127.349C176.547 138.87 170.244 149.964 161.941 159.515C147.435 176.223 126.658 188.236 99.7098 189.516C91.439 189.91 83.6596 189.548 76.3716 188.531C76.3695 188.531 76.3652 188.531 76.3631 188.529C65.3396 186.953 55.4627 183.9 46.8004 179.701C37.9701 175.468 30.4226 170.052 24.2833 163.849C24.279 163.844 24.2748 163.84 24.2705 163.836C19.9437 159.507 16.3379 154.818 13.4193 149.866C0.260039 127.583 -7.78104 101.986 11.4091 82.0637L11.4176 82.0551C11.4835 81.9573 11.5494 81.8913 11.6473 81.7935C19.8522 73.3908 29.076 69.9765 38.8232 68.2364C54.8734 65.3816 72.2383 67.0217 88.2226 58.2914C88.7799 57.9957 89.3054 57.7 89.8308 57.3724C97.2805 52.9413 104.503 47.5253 111.82 42.9304C111.823 42.9283 111.825 42.9283 111.827 42.9262C129.517 31.8665 147.929 25.5038 172.279 48.9038C188.034 64.0351 191.382 93.9359 182.488 122.329Z" fill="#E0E5EC"/>
<path d="M59.9429 94.3165C59.9429 94.3165 82.279 111.101 87.9569 126.918C93.6348 142.735 64.6797 162.488 77.2061 191.577" stroke="#98B5D0" stroke-width="8" stroke-linecap="round" stroke-linejoin="round"/>
<path d="M88.686 131.207C88.686 131.207 119.649 150.734 128.785 137.445C137.922 124.155 147.059 106.297 147.059 106.297" stroke="#98B5D0" stroke-width="8" stroke-linecap="round" stroke-linejoin="round"/>
<path d="M76.9443 110.042L57.6053 129.792L22.0522 166.101" stroke="#98B5D0" stroke-width="8" stroke-linecap="round" stroke-linejoin="round"/>
<path d="M7.93188 78.4711L57.6053 129.792" stroke="#98B5D0" stroke-width="8" stroke-linecap="round" stroke-linejoin="round"/>
<path d="M111.751 42.1444C111.751 42.1444 115.074 83.5879 143.314 103.459C171.555 123.33 187.337 122.914 187.337 122.914" stroke="#98B5D0" stroke-width="8" stroke-linecap="round" stroke-linejoin="round"/>
<g opacity="0.1">
<path d="M77.1347 95.4695C77.1347 97.1019 69.6077 98.4253 60.3231 98.4253C51.0384 98.4253 43.5115 97.1019 43.5115 95.4695C43.5115 93.837 51.0384 92.5134 60.3231 92.5134C69.6077 92.5134 77.1347 93.837 77.1347 95.4695Z" fill="#637789"/>
</g>
<path d="M60.0574 0C40.2993 0 24.281 16.0502 24.281 35.8083C24.281 46.2787 26.9401 51.3012 38.7549 68.2364C43.0563 74.4735 48.6021 82.3147 55.7561 92.6213C55.7582 92.6213 55.7582 92.6234 55.7582 92.6234C55.956 92.9191 56.1837 93.2467 56.3815 93.5424C57.4962 95.1506 59.4001 95.742 61.1402 95.3142C61.1444 95.3142 61.1487 95.3123 61.153 95.3123C62.1677 95.0804 63.0803 94.4911 63.7333 93.5424C63.929 93.2467 64.1611 92.9191 64.3587 92.6234C64.363 92.617 64.3694 92.6085 64.3739 92.6019C75.9502 75.8752 83.4276 65.6752 88.1546 58.2914C94.2915 48.7079 95.8659 43.8834 95.8659 35.8083C95.8659 16.0502 79.8497 0 60.0574 0ZM60.0574 20.9068C68.2963 20.9068 74.9908 27.5694 74.9908 35.8083C74.9908 44.0472 68.2963 50.7098 60.0574 50.7098C51.8185 50.7098 45.1559 44.0472 45.1559 35.8083C45.1559 27.5694 51.8185 20.9068 60.0574 20.9068Z" fill="#98B5D0"/>
</svg>
