<svg width="26" height="24" viewBox="0 0 26 24" fill="none" xmlns="http://www.w3.org/2000/svg">
<path d="M16.1989 13.3156C15.9211 13.719 15.9763 14.2642 16.3294 14.6037L23.8948 21.8771L22.8127 22.9174L15.2013 15.6008C14.8664 15.2788 14.3538 15.23 13.964 15.4829C12.2518 16.5939 10.1649 17.055 8.11177 16.77C6.05888 16.485 4.19849 15.4765 2.88887 13.952C1.58023 12.4287 0.913664 10.4987 1.00898 8.53855C1.10425 6.5791 1.95473 4.71616 3.40645 3.31492C4.86311 1.92728 6.81024 1.10207 8.87354 1.00885C10.9379 0.915576 12.9598 1.56229 14.5481 2.81551C16.1354 4.06793 17.1747 5.83446 17.4773 7.76837C17.7799 9.70171 17.327 11.6776 16.1989 13.3156ZM9.29041 16.4363H9.29154C11.3419 16.434 13.3151 15.6503 14.7765 14.2454C16.2391 12.8391 17.0696 10.924 17.072 8.91769V8.91648C17.072 7.42022 16.6103 5.961 15.7503 4.72353C14.8906 3.48658 13.6729 2.52827 12.2556 1.96387C10.8386 1.39957 9.28143 1.25248 7.77955 1.53969C6.27753 1.82693 4.89266 2.53682 3.80203 3.58536C2.71098 4.6343 1.96323 5.97559 1.65985 7.44191C1.3564 8.90854 1.51254 10.4283 2.10663 11.8072C2.70051 13.1856 3.70339 14.3574 4.98227 15.1789C6.26076 16.0002 7.75991 16.4363 9.29041 16.4363Z" stroke="url(#paint0_linear_94:7382)" stroke-opacity="0.7" stroke-width="2" stroke-linecap="round" stroke-linejoin="round"/>
<defs>
<linearGradient id="paint0_linear_94:7382" x1="26.4502" y1="24" x2="-49.7831" y2="-31.3035" gradientUnits="userSpaceOnUse">
<stop stop-color="#48647D"/>
<stop offset="0.234375" stop-color="#6B8299"/>
<stop offset="0.442708" stop-color="#DAE2EB"/>
<stop offset="0.682292" stop-color="#8CA2B7"/>
<stop offset="1" stop-color="#EDF2F7"/>
</linearGradient>
</defs>
</svg>
