<svg width="26" height="24" viewBox="0 0 26 24" fill="none" xmlns="http://www.w3.org/2000/svg">
<path d="M24.8579 21.4158L17.0225 13.8828C18.2939 12.0368 18.808 9.80309 18.4653 7.61375C18.1227 5.42441 16.9476 3.43503 15.1675 2.03046C13.3874 0.625889 11.1287 -0.0940656 8.82841 0.0098688C6.52808 0.113803 4.34958 1.03424 2.71434 2.59313C1.08214 4.16743 0.11812 6.26961 0.0101568 8.48998C-0.0978063 10.7104 0.658021 12.8898 2.13034 14.6037C3.60266 16.3175 5.68598 17.4429 7.97428 17.7605C10.2626 18.0781 12.5919 17.5652 14.5083 16.3217L22.3347 23.8449C22.4966 23.9641 22.7005 24.0178 22.9029 23.9948C23.1054 23.9717 23.2906 23.8737 23.4191 23.7215L24.7341 22.4573C24.8914 22.3332 24.9923 22.155 25.0154 21.9606C25.0385 21.7663 24.982 21.5709 24.8579 21.4158ZM9.29041 15.4363C7.94913 15.4363 6.63798 15.054 5.52275 14.3375C4.40752 13.6211 3.5383 12.6029 3.02502 11.4115C2.51174 10.2202 2.37744 8.90924 2.63911 7.64452C2.90078 6.37979 3.54666 5.21806 4.49509 4.30624C5.44351 3.39442 6.65188 2.77346 7.96738 2.52189C9.28289 2.27032 10.6464 2.39944 11.8856 2.89291C13.1248 3.38638 14.1839 4.22205 14.9291 5.29424C15.6743 6.36642 16.072 7.62697 16.072 8.91648C16.0699 10.645 15.3548 12.3022 14.0834 13.5245C12.8121 14.7468 11.0884 15.4343 9.29041 15.4363Z" fill="url(#paint0_linear_1:37)"/>
<defs>
<linearGradient id="paint0_linear_1:37" x1="12.5102" y1="0" x2="12.5102" y2="24" gradientUnits="userSpaceOnUse">
<stop stop-color="#F9F295"/>
<stop offset="0.375" stop-color="#E0AA3E"/>
<stop offset="0.692708" stop-color="#F7EF8A"/>
<stop offset="1" stop-color="#B88A44"/>
</linearGradient>
</defs>
</svg>
