<svg width="169" height="158" viewBox="0 0 169 158" fill="none" xmlns="http://www.w3.org/2000/svg">
<path d="M41.1497 99.147L35.44 100.28C33.1199 100.74 30.7738 100.76 29.5909 98.7144C28.408 96.6688 29.5995 94.6477 31.1586 92.8707L35.8211 87.5543L36.4009 86.8938L41.1497 99.147Z" fill="#8CA2B7"/>
<path d="M44.1273 98.622L41.7615 103.182C39.7386 103.675 35.0786 100.364 34.0474 98.15C33.0162 95.9354 34.0548 93.7468 35.4141 91.8231L39.4845 86.0668L39.989 85.3533L44.1273 98.622Z" fill="#E0E5EC"/>
<path d="M122.993 0.00251665C115.32 0.0849831 107.8 2.14815 101.161 5.9917C85.8533 14.8214 77.7518 31.3287 78.9064 47.8347C77.7962 42.3656 76.6405 38.0992 77.6865 32.7348L69.083 42.5652L59.045 54.0075L57.0863 56.2454L55.1238 58.4834L39.3119 76.5101C34.0265 82.535 29.9869 89.3856 33.9969 96.3237C38.0069 103.262 45.9616 103.194 53.8311 101.634L74.1957 97.5943L44.9625 144.405L48.0461 146.331L78.0824 98.2351V144.914H81.7248V98.2955L110.936 145.593L114.034 143.684L84.3262 95.5843L102.786 91.923L111.01 90.1719C106.545 88.7165 102.916 85.7428 101.124 83.3496C114.508 91.0715 131.53 91.6519 145.878 83.3767C158.829 75.9063 166.611 62.942 168.006 49.1324C166.853 54.3564 164.622 59.2828 161.456 63.5972C158.29 67.9115 154.258 71.5191 149.619 74.1896C131.146 84.8444 107.527 78.5213 96.862 60.0657C86.1974 41.6101 92.5263 18.0107 110.998 7.35591C115.631 4.6774 120.772 2.9932 126.094 2.41076C131.415 1.82832 136.799 2.36042 141.903 3.97312C136.418 1.50252 130.492 0.156532 124.477 0.0148371C123.983 0.00087052 123.488 -0.00323428 122.993 0.00251665Z" fill="#98B5D0"/>
<path d="M131.013 7.92881C136.664 8.04878 142.187 9.62289 147.051 12.499C151.915 15.3751 155.954 19.456 158.777 24.3473C167.854 40.0548 162.467 60.1407 146.745 69.2046C140.107 73.0465 132.329 74.4369 124.769 73.1333C125.559 72.776 126.339 72.3791 127.105 71.9367C139.79 64.6203 144.137 48.4138 136.813 35.7391C129.581 23.2234 113.674 18.8424 101.062 25.7805C103.875 20.2966 108.175 15.7139 113.472 12.5562C118.768 9.39854 124.847 7.79327 131.013 7.92388V7.92881Z" fill="#8CA2B7"/>
<path d="M131.013 7.92882C124.846 7.79774 118.767 9.40295 113.471 12.5609C108.174 15.7189 103.874 20.3021 101.062 25.7867C106.604 19.4685 113.874 16.2693 121.18 15.626C121.263 14.4264 121.809 13.3059 122.703 12.5008C123.598 11.6958 124.77 11.2691 125.973 11.3109C127.176 11.3526 128.315 11.8594 129.151 12.7244C129.987 13.5895 130.455 14.7451 130.454 15.9477C130.454 16.0216 130.447 16.0931 130.443 16.167C133.822 16.8545 137.06 18.1092 140.019 19.8776C140.348 19.4422 140.763 19.0781 141.238 18.8072C141.712 18.5363 142.237 18.3643 142.779 18.3015C143.322 18.2387 143.872 18.2864 144.396 18.4418C144.92 18.5973 145.407 18.8571 145.828 19.2057C146.248 19.5543 146.594 19.9844 146.844 20.4701C147.093 20.9558 147.242 21.487 147.28 22.0317C147.319 22.5763 147.247 23.1231 147.068 23.6391C146.889 24.155 146.608 24.6295 146.24 25.0337C147.658 26.6378 148.848 28.4292 149.777 30.3575C149.992 30.8085 150.201 31.2965 150.404 31.8005C151.037 31.5554 151.709 31.43 152.388 31.4308C153.828 31.4297 155.211 31.9915 156.242 32.9961C157.273 34.0008 157.87 35.3685 157.904 36.8069C157.939 38.2453 157.409 39.6401 156.428 40.6931C155.446 41.7462 154.092 42.3738 152.653 42.4418C152.912 48.1414 151.716 54.4621 147.777 59.9953C148.154 60.2589 148.469 60.5996 148.704 60.9949C148.938 61.3901 149.085 61.8306 149.135 62.2871C149.185 62.7437 149.137 63.2056 148.994 63.6422C148.852 64.0787 148.617 64.4798 148.307 64.8187C147.997 65.1576 147.618 65.4264 147.195 65.6073C146.773 65.7882 146.317 65.8769 145.857 65.8676C145.397 65.8582 144.945 65.7511 144.53 65.5532C144.115 65.3553 143.748 65.0713 143.451 64.7201C139.171 68.4172 133.138 71.4278 124.769 73.1444C132.328 74.448 140.106 73.058 146.743 69.217C162.467 60.1469 167.853 40.0609 158.776 24.3597C155.954 19.466 151.916 15.3826 147.053 12.5042C142.189 9.62582 136.665 8.0499 131.013 7.92882V7.92882Z" fill="#637789"/>
<path d="M125.809 12.5366C125.133 12.5369 124.473 12.7373 123.912 13.1124C123.35 13.4876 122.913 14.0207 122.654 14.6443C122.396 15.2679 122.329 15.954 122.461 16.6159C122.593 17.2778 122.918 17.8857 123.396 18.3628C123.874 18.8398 124.483 19.1646 125.145 19.296C125.808 19.4275 126.494 19.3596 127.118 19.1011C127.742 18.8426 128.276 18.4051 128.651 17.8438C129.026 17.2825 129.226 16.6227 129.226 15.9478C129.227 15.4992 129.139 15.0549 128.968 14.6403C128.797 14.2257 128.545 13.849 128.228 13.532C127.91 13.2149 127.533 12.9638 127.118 12.7929C126.703 12.6221 126.258 12.535 125.809 12.5366V12.5366Z" fill="#637789"/>
<path d="M143.232 19.4994C142.671 19.4994 142.122 19.6656 141.656 19.9771C141.189 20.2885 140.826 20.7312 140.611 21.2491C140.396 21.7671 140.34 22.337 140.449 22.8868C140.559 23.4366 140.829 23.9416 141.226 24.338C141.623 24.7344 142.128 25.0044 142.678 25.1137C143.229 25.2231 143.799 25.167 144.318 24.9525C144.836 24.7379 145.279 24.3746 145.591 23.9085C145.903 23.4424 146.069 22.8944 146.069 22.3338C146.071 21.9611 145.998 21.5918 145.856 21.2472C145.714 20.9026 145.505 20.5895 145.242 20.326C144.978 20.0624 144.664 19.8537 144.32 19.7119C143.975 19.57 143.605 19.4978 143.232 19.4994V19.4994Z" fill="#637789"/>
<path d="M132.966 21.6523C132.547 21.6521 132.138 21.7759 131.789 22.0081C131.441 22.2404 131.17 22.5705 131.009 22.9569C130.849 23.3433 130.807 23.7686 130.888 24.1789C130.97 24.5892 131.171 24.9661 131.467 25.2619C131.763 25.5578 132.14 25.7593 132.551 25.841C132.962 25.9227 133.387 25.8809 133.774 25.7209C134.161 25.5609 134.492 25.2898 134.724 24.942C134.957 24.5943 135.081 24.1854 135.081 23.7671C135.082 23.4893 135.028 23.2141 134.921 22.9573C134.815 22.7005 134.66 22.4672 134.463 22.2707C134.267 22.0742 134.033 21.9185 133.776 21.8124C133.519 21.7062 133.244 21.6519 132.966 21.6523V21.6523Z" fill="#637789"/>
<path d="M145.896 48.1156C145.437 48.1156 144.988 48.2516 144.606 48.5065C144.225 48.7613 143.927 49.1235 143.751 49.5473C143.576 49.9711 143.53 50.4375 143.619 50.8874C143.709 51.3373 143.93 51.7505 144.255 52.0749C144.579 52.3992 144.993 52.6201 145.443 52.7096C145.894 52.7991 146.36 52.7532 146.784 52.5776C147.209 52.4021 147.571 52.1048 147.826 51.7234C148.081 51.342 148.217 50.8936 148.217 50.4349C148.218 50.1301 148.159 49.8282 148.042 49.5466C147.926 49.2649 147.755 49.009 147.539 48.7935C147.323 48.578 147.067 48.4071 146.785 48.2908C146.503 48.1745 146.201 48.115 145.896 48.1156V48.1156Z" fill="#637789"/>
<path d="M142.198 33.7515C143.039 33.7515 143.72 33.0707 143.72 32.2308C143.72 31.3909 143.039 30.7101 142.198 30.7101C141.358 30.7101 140.676 31.3909 140.676 32.2308C140.676 33.0707 141.358 33.7515 142.198 33.7515Z" fill="#637789"/>
<path d="M145.896 60.609C145.498 60.6093 145.109 60.7274 144.778 60.9486C144.447 61.1697 144.189 61.4839 144.037 61.8514C143.885 62.2189 143.845 62.6233 143.923 63.0133C144.001 63.4034 144.193 63.7616 144.474 64.0428C144.756 64.3239 145.115 64.5153 145.505 64.5928C145.896 64.6703 146.3 64.6304 146.668 64.4782C147.036 64.3259 147.35 64.0682 147.571 63.7374C147.792 63.4067 147.91 63.0179 147.91 62.6202C147.912 62.3556 147.86 62.0934 147.76 61.8487C147.659 61.6041 147.511 61.3818 147.323 61.1947C147.136 61.0077 146.913 60.8596 146.668 60.7591C146.423 60.6586 146.161 60.6076 145.896 60.609Z" fill="#637789"/>
<path d="M155.417 39.9659C157.091 38.2935 157.091 35.582 155.417 33.9096C153.743 32.2372 151.029 32.2372 149.355 33.9096C147.681 35.582 147.681 38.2935 149.355 39.9659C151.029 41.6382 153.743 41.6382 155.417 39.9659Z" fill="#637789"/>
<path d="M101.121 83.3496C102.913 85.7416 106.548 88.7165 111.007 90.1731L102.784 91.923L53.8224 101.635C45.9578 103.195 37.9995 103.263 33.9894 96.325C43.3577 103.283 90.4504 88.0855 101.121 83.3496Z" fill="#637789"/>
<path d="M81.4091 139.462C114.084 139.469 144.605 146.407 162.806 157.967C140.74 149.819 111.645 145.274 81.4091 145.266C51.1582 145.287 22.0594 149.839 0 158C18.1912 146.427 48.7172 139.475 81.4091 139.462Z" fill="#8CA2B7"/>
<path d="M72.0174 94.1436C72.8611 97.174 75.7511 99.3959 79.2073 99.3959C83.3283 99.3959 86.6451 96.2374 86.6451 92.3136L72.0174 94.1436Z" fill="#637789"/>
<path d="M104.442 35.4423L106.555 35.2069L107.224 33.1908L108.1 35.1268L110.227 35.1391L108.655 36.5699L109.3 38.5934L107.453 37.5434L105.724 38.7807L106.154 36.7005L104.442 35.4423Z" fill="#8CA2B7"/>
<path d="M112.115 46.9696L115.269 46.6184L116.268 43.609L117.577 46.4976L120.751 46.5173L118.406 48.653L119.368 51.6747L116.61 50.1059L114.031 51.9544L114.672 48.8489L112.115 46.9696Z" fill="#8CA2B7"/>
<path d="M124.302 39.5311L126.559 39.2797L127.274 37.1256L128.211 39.1935L130.482 39.207L128.803 40.7364L129.492 42.8979L127.519 41.7752L125.672 43.0987L126.131 40.8756L124.302 39.5311Z" fill="#8CA2B7"/>
<path d="M103.386 57.9004L105.644 57.649L106.358 55.4949L107.296 57.5627L109.567 57.5763L107.888 59.1056L108.576 61.2684L106.603 60.1457L104.757 61.468L105.216 59.2449L103.386 57.9004Z" fill="#8CA2B7"/>
<path d="M124.518 59.2401L126.543 59.0158L127.184 57.0823L128.024 58.9382L130.062 58.9505L128.556 60.3221L129.174 62.2618L127.404 61.255L125.747 62.4418L126.159 60.4466L124.518 59.2401Z" fill="#8CA2B7"/>
</svg>
