<svg width="35" height="34" viewBox="0 0 35 34" fill="none" xmlns="http://www.w3.org/2000/svg">
<path d="M15.695 1.78274C16.4194 0.264492 18.5806 0.264489 19.305 1.78273L22.9368 9.39375C23.2284 10.0048 23.8093 10.4268 24.4805 10.5153L32.8413 11.6174C34.5091 11.8372 35.1769 13.8926 33.9569 15.0508L27.8406 20.8567C27.3496 21.3229 27.1277 22.0057 27.251 22.6714L28.7865 30.9636C29.0928 32.6177 27.3444 33.888 25.8659 33.0855L18.454 29.0628C17.859 28.7398 17.141 28.7398 16.546 29.0628L9.13414 33.0855C7.65563 33.888 5.90724 32.6177 6.21354 30.9636L7.749 22.6714C7.87226 22.0057 7.65039 21.3229 7.15938 20.8567L1.04315 15.0508C-0.176911 13.8926 0.49091 11.8372 2.15872 11.6174L10.5195 10.5153C11.1907 10.4268 11.7716 10.0048 12.0632 9.39375L15.695 1.78274Z" fill="url(#paint0_linear_450_6805)"/>
<defs>
<linearGradient id="paint0_linear_450_6805" x1="17.5" y1="-2" x2="17.5" y2="39" gradientUnits="userSpaceOnUse">
<stop stop-color="#F9F295"/>
<stop offset="0.375" stop-color="#E0AA3E"/>
<stop offset="0.692708" stop-color="#F7EF8A"/>
<stop offset="1" stop-color="#B88A44"/>
</linearGradient>
</defs>
</svg>
