<svg id="Layer_1" data-name="Layer 1" xmlns="http://www.w3.org/2000/svg" xmlns:xlink="http://www.w3.org/1999/xlink" viewBox="0 0 36.28 36.62"><defs><style>.cls-1{fill:#a23b58;}.cls-1,.cls-10,.cls-11,.cls-12,.cls-13,.cls-14,.cls-15,.cls-16,.cls-17,.cls-18,.cls-19,.cls-2,.cls-21,.cls-22,.cls-23,.cls-3,.cls-4,.cls-5,.cls-6,.cls-7,.cls-8,.cls-9{fill-rule:evenodd;}.cls-2{fill:url(#radial-gradient);}.cls-3{fill:url(#linear-gradient);}.cls-4{fill:url(#radial-gradient-2);}.cls-5{fill:url(#radial-gradient-3);}.cls-6{fill:url(#radial-gradient-4);}.cls-7{fill:url(#radial-gradient-5);}.cls-8{fill:url(#radial-gradient-6);}.cls-9{fill:url(#radial-gradient-7);}.cls-10{fill:url(#radial-gradient-8);}.cls-11{fill:url(#radial-gradient-9);}.cls-12{fill:#c34c58;}.cls-13{fill:#e2705b;}.cls-14,.cls-15,.cls-16,.cls-17{isolation:isolate;}.cls-14,.cls-15,.cls-16,.cls-20{opacity:0.5;}.cls-14{fill:url(#linear-gradient-2);}.cls-15{fill:url(#linear-gradient-3);}.cls-16{fill:url(#linear-gradient-4);}.cls-17{fill:#791b40;opacity:0.29;}.cls-18{fill:#df7668;}.cls-19{fill:#ffc88b;}.cls-21{fill:#e3d9d2;}.cls-22{fill:url(#linear-gradient-5);}.cls-23,.cls-27{fill:#c1748d;}.cls-24{opacity:0.3;}.cls-25{fill:url(#linear-gradient-6);}.cls-26{fill:#ff7968;}.cls-28{fill:#fff;}</style><radialGradient id="radial-gradient" cx="-258.89" cy="410.92" r="1" gradientTransform="matrix(13.88, 0, 0, -13.88, 3618.67, 5715.76)" gradientUnits="userSpaceOnUse"><stop offset="0.02" stop-color="#ffa874"/><stop offset="1" stop-color="#f49372"/></radialGradient><linearGradient id="linear-gradient" x1="8.56" y1="1.27" x2="8.56" y2="24.74" gradientTransform="matrix(1, 0, 0, -1, 0, 37.89)" gradientUnits="userSpaceOnUse"><stop offset="0.02" stop-color="#d4634d"/><stop offset="1" stop-color="#a94d61"/></linearGradient><radialGradient id="radial-gradient-2" cx="-250.61" cy="398.99" r="1" gradientTransform="matrix(9.83, 0, 0, -9.83, 2481.74, 3932.88)" gradientUnits="userSpaceOnUse"><stop offset="0" stop-color="#ffcf84"/><stop offset="0.98" stop-color="#ffb88b"/></radialGradient><radialGradient id="radial-gradient-3" cx="-248.82" cy="396.4" r="1" gradientTransform="matrix(9.24, 0, 0, -9.24, 2318.65, 3676.24)" gradientUnits="userSpaceOnUse"><stop offset="0.02" stop-color="#bd4d4d"/><stop offset="1" stop-color="#9f3e54"/></radialGradient><radialGradient id="radial-gradient-4" cx="-275.49" cy="433.95" r="1" gradientTransform="matrix(79.4, 0, 0, -67.63, 22169.79, 29538.76)" xlink:href="#linear-gradient"/><radialGradient id="radial-gradient-5" cx="-278.68" cy="438.75" r="1" gradientTransform="matrix(870.75, 0, 0, -351.58, 246688.79, 156747.99)" xlink:href="#radial-gradient-2"/><radialGradient id="radial-gradient-6" cx="-224.18" cy="375.44" r="1" gradientTransform="matrix(5.09, 0, 0, -6.24, 1216.98, 2378.29)" xlink:href="#linear-gradient"/><radialGradient id="radial-gradient-7" cx="-276.05" cy="437.56" r="1" gradientTransform="matrix(94.57, 0, 0, -172.69, 26154.19, 75703.03)" xlink:href="#linear-gradient"/><radialGradient id="radial-gradient-8" cx="-278.38" cy="434.95" r="1" gradientTransform="matrix(448.8, 0, 0, -81.37, 127557.42, 36212)" xlink:href="#radial-gradient-2"/><radialGradient id="radial-gradient-9" cx="-277.12" cy="418.86" r="1" gradientTransform="matrix(148.17, 0, 0, -19.12, 41650.64, 8025.19)" xlink:href="#radial-gradient-2"/><linearGradient id="linear-gradient-2" x1="17.1" y1="4.4" x2="34.06" y2="4.4" gradientTransform="matrix(1, 0, 0, -1, 0, 37.89)" gradientUnits="userSpaceOnUse"><stop offset="0" stop-color="#d3b8d6"/><stop offset="1" stop-color="#fff"/></linearGradient><linearGradient id="linear-gradient-3" x1="1123.56" y1="2.86" x2="1771.1" y2="2.86" xlink:href="#linear-gradient-2"/><linearGradient id="linear-gradient-4" x1="1056.66" y1="22.61" x2="1769.28" y2="22.61" xlink:href="#linear-gradient-2"/><linearGradient id="linear-gradient-5" x1="27.62" y1="5.37" x2="27.62" y2="10.7" gradientTransform="matrix(1, 0, 0, -1, 0, 37.89)" gradientUnits="userSpaceOnUse"><stop offset="0.03" stop-color="#f7e8e8"/><stop offset="1" stop-color="#fff2e3"/></linearGradient><linearGradient id="linear-gradient-6" x1="26.52" y1="-904.47" x2="26.52" y2="-532.46" xlink:href="#linear-gradient-5"/></defs><path class="cls-1" d="M4.77,3.58.94,13.24l19.32-1.65L26,1.53C15.41-2.29,4.77,3.58,4.77,3.58Zm5.13.11.27-.61,10.74-.81-.18.54Z" transform="translate(0 0)"/><path class="cls-2" d="M15.81,14.72l20.46-2.53a115.76,115.76,0,0,1-2.21,20.74l-17,3.69Z" transform="translate(0 0)"/><path class="cls-3" d="M15.81,14.72,0,13.15A103.13,103.13,0,0,0,3.36,33.57l13.75,3Z" transform="translate(0 0)"/><path class="cls-4" d="M.94,13.24l19.58-1.81,15.75.76L15.81,14.73Z" transform="translate(0 0)"/><path class="cls-5" d="M1.73,13.15l13.68,1.23,19.66-2.5-14.38-.26Z" transform="translate(0 0)"/><path class="cls-6" d="M15.81,14.73,9.14,9v.48l6.23,5.21Z" transform="translate(0 0)"/><path class="cls-7" d="M9.14,9l4.38-2.31L12.06,5.06A26.9,26.9,0,0,1,22.72,3.87l1.33,1.22,5.27.61,7,6.49L15.82,14.72Z" transform="translate(0 0)"/><path class="cls-8" d="M12.05,5.06V5.6l1.22,1.26.24-.13Z" transform="translate(0 0)"/><path class="cls-9" d="M0,13.15l.94.09L5.29,3.86l-.52-.27Z" transform="translate(0 0)"/><path class="cls-10" d="M5.29,3.86S15.88-2.16,26,1.52l-.44-.44S17-2.58,4.77,3.57Z" transform="translate(0 0)"/><path class="cls-11" d="M10,3.42l10.16-.76.15-.35.58,0-.18.54L9.9,3.69Z" transform="translate(0 0)"/><path class="cls-12" d="M20.18,2.66l.55.15.18-.54-.58,0Z" transform="translate(0 0)"/><path class="cls-13" d="M.94,13.24l9.23-2.86,5.2,4.35Z" transform="translate(0 0)"/><path class="cls-14" d="M34.06,32.93S28.94,30,25.35,30.41s-8.25,6.21-8.25,6.21Z" transform="translate(0 0)"/><path class="cls-15" d="M17.1,36.62s-7.4-3-9-3.13a46.23,46.23,0,0,0-4.79.08Z" transform="translate(0 0)"/><path class="cls-16" d="M.94,13.24s4.92,3.49,6.92,4,7.5-2.53,7.5-2.53Z" transform="translate(0 0)"/><path class="cls-17" d="M.94,13.24l10.48-1.81-1.25-1Z" transform="translate(0 0)"/><path class="cls-18" d="M15.81,14.72l1.29,21.9A139.63,139.63,0,0,1,15.81,14.72Z" transform="translate(0 0)"/><path class="cls-19" d="M17.41,14.53s13.06-.74,18.86-2.34Z" transform="translate(0 0)"/><g class="cls-20"><g class="cls-20"><path class="cls-21" d="M20.21,17.85c0,.18.12.27.33.23a.18.18,0,0,0,.09,0s.05,0,.07-.06a.32.32,0,0,0,0-.09.16.16,0,0,0,0-.1.27.27,0,0,0-.11-.18.34.34,0,0,0-.2-.06.36.36,0,0,0-.16.11A.33.33,0,0,0,20.21,17.85Z" transform="translate(0 0)"/></g><g class="cls-20"><path class="cls-21" d="M25.16,19.83a.43.43,0,0,1,.14-.23.46.46,0,0,1,.25-.1.67.67,0,0,1,.41.11.3.3,0,0,1,.15.36.62.62,0,0,1-.12.19c-.06.05-.19,0-.26,0a.46.46,0,0,1-.27-.15C25.37,19.94,25.15,20,25.16,19.83Z" transform="translate(0 0)"/></g><g class="cls-20"><path class="cls-21" d="M20.34,17.1c-.11,0-.28.22-.11.29a.67.67,0,0,0,.44-.07c.31-.23-.18-.44-.37-.19Z" transform="translate(0 0)"/></g><g class="cls-20"><path class="cls-21" d="M20.49,18.61c.11-.2.32,0,.18.14a.07.07,0,0,1-.06,0h-.07a.12.12,0,0,1-.05-.05.14.14,0,0,1,0-.07Z" transform="translate(0 0)"/></g><g class="cls-20"><path class="cls-21" d="M20.79,17.86c.08-.13.22,0,.13.09l-.05,0h0a.08.08,0,0,1,0,0s0,0,0,0Z" transform="translate(0 0)"/></g><g class="cls-20"><path class="cls-21" d="M20.5,28.81c-.26.34.22.75.4.33.1-.22-.09-.5-.31-.33Z" transform="translate(0 0)"/></g><g class="cls-20"><path class="cls-21" d="M18.35,17.42c0-.07-.07-.05-.1,0s0,.09,0,.14.18.12.31,0,.29-.25.09-.34a.43.43,0,0,0-.16,0,.26.26,0,0,0-.13.08Z" transform="translate(0 0)"/></g><g class="cls-20"><path class="cls-21" d="M17.93,17.56c0-.18.23,0,.12.14s-.15-.09-.12-.16Z" transform="translate(0 0)"/></g><g class="cls-20"><path class="cls-21" d="M18.44,17c.07.11.21,0,.16-.12s-.15,0-.17.09Z" transform="translate(0 0)"/></g><g class="cls-20"><path class="cls-21" d="M18.66,31.37c0-.14.21,0,.23.08a.28.28,0,0,1,0,.2.25.25,0,0,1-.17.11c-.21,0-.26-.29-.08-.37Z" transform="translate(0 0)"/></g><g class="cls-20"><path class="cls-21" d="M20.58,31.63c-.12.18.29.22.29,0s-.24-.16-.29,0Z" transform="translate(0 0)"/></g><g class="cls-20"><path class="cls-21" d="M18.86,28.14a.15.15,0,0,1,0-.18l.06-.06a.14.14,0,0,1,.09,0c.17,0,.18.25.12.37l0,.06a.18.18,0,0,1-.07.05H19l-.08,0-.06-.05a.15.15,0,0,1,0-.07.17.17,0,0,1,0-.07l0-.07Z" transform="translate(0 0)"/></g><g class="cls-20"><path class="cls-21" d="M18.4,15.21c-.15.35.42.23.45-.05S18.44,14.9,18.4,15.21Z" transform="translate(0 0)"/></g><g class="cls-20"><path class="cls-21" d="M26.08,19.36c-.16.22.26.33.29.05a.23.23,0,0,0-.07-.07l-.09,0a.18.18,0,0,0-.1,0l-.08.05Z" transform="translate(0 0)"/></g><g class="cls-20"><path class="cls-21" d="M23.86,22a1.16,1.16,0,0,1,.72-.44,1.13,1.13,0,0,1,.82.15c.13.08.31.24.16.39s-.77,0-.95,0a1.92,1.92,0,0,1-.75-.1Z" transform="translate(0 0)"/></g><g class="cls-20"><path class="cls-21" d="M22.62,21.81c0,.2.38.13.33,0s-.23-.14-.26,0Z" transform="translate(0 0)"/></g><g class="cls-20"><path class="cls-21" d="M15.2,11.77c-.07.32.33.25.33,0s-.29-.29-.33-.06Z" transform="translate(0 0)"/></g><g class="cls-20"><path class="cls-21" d="M18,20.54a.24.24,0,0,1,.13-.09c.21.27-.25.46-.13.13Z" transform="translate(0 0)"/></g><g class="cls-20"><path class="cls-21" d="M15.8,5.33c-.32.82,1,.25,1.23-.13s-.31-.46-.61-.41a.72.72,0,0,0-.62.54Z" transform="translate(0 0)"/></g><g class="cls-20"><path class="cls-21" d="M17.07,5.52c0-.18.37-.34.33-.06s-.24.26-.29.09Z" transform="translate(0 0)"/></g><g class="cls-20"><path class="cls-21" d="M28.18,12.38c-.34.47,1.08.48,1.14,0s-1-.32-1.17,0Z" transform="translate(0 0)"/></g><g class="cls-20"><path class="cls-21" d="M29.17,11.82c0-.29.44-.16.35,0s-.28,0-.35,0Z" transform="translate(0 0)"/></g><g class="cls-20"><path class="cls-21" d="M30.25,12.17a.85.85,0,0,0,.38-.09c0-.26-.36-.2-.44,0,0,0,0,0,.06.06Z" transform="translate(0 0)"/></g><g class="cls-20"><path class="cls-21" d="M23.58,7.82c0-.11,0-.17.14-.17s.1.33-.08.29Z" transform="translate(0 0)"/></g><g class="cls-20"><path class="cls-21" d="M23.25,19.46c-.51.42.58.29.09.06Z" transform="translate(0 0)"/></g><g class="cls-20"><path class="cls-21" d="M21.09,20.61c-.13.12-.08.39.15.29s.13-.37-.08-.27Z" transform="translate(0 0)"/></g><g class="cls-20"><path class="cls-21" d="M22.11,21.3c0-.14.21-.15.21,0s-.13.1-.17,0Z" transform="translate(0 0)"/></g><g class="cls-20"><path class="cls-21" d="M32.47,28.77c0,.17.12.27.32.23l.09,0,.07-.07a.29.29,0,0,0,0-.18.25.25,0,0,0-.11-.18.25.25,0,0,0-.2-.06.21.21,0,0,0-.16.11.25.25,0,0,0,0,.19Z" transform="translate(0 0)"/></g><g class="cls-20"><path class="cls-21" d="M24.45,7.85a.39.39,0,0,1,.15-.23.38.38,0,0,1,.25-.09.58.58,0,0,1,.4.1.28.28,0,0,1,.15.15.3.3,0,0,1,0,.21.62.62,0,0,1-.12.19.36.36,0,0,1-.27,0A.43.43,0,0,1,24.75,8C24.67,8,24.45,8,24.45,7.85Z" transform="translate(0 0)"/></g><g class="cls-20"><path class="cls-21" d="M32.6,28c-.12,0-.3.22-.12.29a.7.7,0,0,0,.45-.07c.31-.24-.18-.44-.38-.19Z" transform="translate(0 0)"/></g><g class="cls-20"><path class="cls-21" d="M32.74,29.53c.12-.2.32,0,.19.14l-.07,0H32.8l-.06,0a.19.19,0,0,1,0-.07Z" transform="translate(0 0)"/></g><g class="cls-20"><path class="cls-21" d="M33.05,28.78c.07-.14.21,0,.12.09s-.13,0-.14-.07Z" transform="translate(0 0)"/></g><g class="cls-20"><path class="cls-21" d="M29.24,29.34c-.25.35.22.75.4.33.1-.22-.09-.49-.31-.33Z" transform="translate(0 0)"/></g><g class="cls-20"><path class="cls-21" d="M30,30.34c0-.06-.07-.05-.1,0s0,.09,0,.15.18.11.31,0,.29-.26.09-.35a.38.38,0,0,0-.15,0,.39.39,0,0,0-.14.08Z" transform="translate(0 0)"/></g><g class="cls-20"><path class="cls-21" d="M29.6,30.47c0-.17.23.05.12.15s-.15-.09-.12-.15Z" transform="translate(0 0)"/></g><g class="cls-20"><path class="cls-21" d="M30.11,29.89c.07.11.21-.05.17-.12s-.16.05-.18.09Z" transform="translate(0 0)"/></g><g class="cls-20"><path class="cls-21" d="M16.17,8.56c-.12.18.3.22.3,0s-.25-.16-.3,0Z" transform="translate(0 0)"/></g><g class="cls-20"><path class="cls-21" d="M30.07,28.13c-.15.35.43.23.46-.06S30.11,27.82,30.07,28.13Z" transform="translate(0 0)"/></g><g class="cls-20"><path class="cls-21" d="M25.38,7.38c-.17.22.26.33.29,0l-.07-.07-.1,0-.09,0-.09.05Z" transform="translate(0 0)"/></g><g class="cls-20"><path class="cls-21" d="M23.16,10.06a1.17,1.17,0,0,1,1.54-.29c.13.08.31.24.15.39s-.77,0-1,0A1.87,1.87,0,0,1,23.16,10.06Z" transform="translate(0 0)"/></g><g class="cls-20"><path class="cls-21" d="M21.14,11.12c0,.21.39.14.34,0s-.23-.14-.27,0Z" transform="translate(0 0)"/></g><g class="cls-20"><path class="cls-21" d="M16.5,9.86a.22.22,0,0,1,.13-.1c.21.28-.25.46-.13.14Z" transform="translate(0 0)"/></g><g class="cls-20"><path class="cls-21" d="M33.9,26.52c-.51.43.58.29.09.06Z" transform="translate(0 0)"/></g><g class="cls-20"><path class="cls-21" d="M19.62,9.92c-.13.13-.08.4.14.29s.14-.37-.07-.27Z" transform="translate(0 0)"/></g><g class="cls-20"><path class="cls-21" d="M20.63,10.62c0-.14.22-.15.21,0s-.12.1-.16,0Z" transform="translate(0 0)"/></g><g class="cls-20"><path class="cls-21" d="M12.2,15.34a.42.42,0,0,0,.18-.17c-.12-.11-.12,0-.18.07Z" transform="translate(0 0)"/></g></g><path class="cls-22" d="M24.69,32.52l-.44-4.61L31,27.19l-.32,4.18Z" transform="translate(0 0)"/><g class="cls-20"><path class="cls-23" d="M25.23,28.62,30.3,28l-.06.73-4.91.68Z" transform="translate(0 0)"/></g><g class="cls-20"><path class="cls-23" d="M25.86,31l3.81-.44v.16l-3.77.52Z" transform="translate(0 0)"/></g><g class="cls-24"><path class="cls-23" d="M26.73,29.44l.12,1.15L29,30.36l.11-1.21Z" transform="translate(0 0)"/></g><path class="cls-25" d="M26.52,26c2.31,0,4.19-2.33,4.19-5.21s-1.88-5.21-4.19-5.21-4.18,2.34-4.18,5.21S24.21,26,26.52,26Z" transform="translate(0 0)"/><g class="cls-20"><path class="cls-26" d="M26.81,25.07c1.91,0,3.46-1.93,3.46-4.31s-1.55-4.3-3.46-4.3-3.46,1.93-3.46,4.3S24.9,25.07,26.81,25.07Z" transform="translate(0 0)"/></g><g class="cls-20"><g class="cls-20"><path class="cls-27" d="M26.81,16.6c1.82,0,3.31,1.87,3.31,4.16s-1.49,4.16-3.31,4.16-3.32-1.87-3.32-4.16S25,16.6,26.81,16.6Zm0-.14c-1.91,0-3.46,1.92-3.46,4.3s1.55,4.31,3.46,4.31,3.46-1.93,3.46-4.31S28.72,16.46,26.81,16.46Z" transform="translate(0 0)"/></g></g><path class="cls-28" d="M25.44,20.46h.1v.23h-.27a2.33,2.33,0,0,0-.36.08l0-.22h0V18.87h.21V20.5l.16,0h.17Z" transform="translate(0 0)"/><path class="cls-28" d="M26.09,18.91a1.36,1.36,0,0,1,.06.29,4.74,4.74,0,0,1,.05.65c0,.51-.1.78-.29.8s-.35-.29-.35-1,.14-.91.41-.95a.49.49,0,0,1,.17.06Zm-.2.1a1.09,1.09,0,0,0-.11.64,2.68,2.68,0,0,0,0,.4.77.77,0,0,0,.11.39,1.33,1.33,0,0,0,.07-.56,3.25,3.25,0,0,0,0-.42A1.63,1.63,0,0,0,25.89,19Z" transform="translate(0 0)"/><path class="cls-28" d="M26.7,19.88l.15.36a3.84,3.84,0,0,0,.18.35l-.17.15a4.53,4.53,0,0,1-.27-.54v.41l-.21,0v-.11s0-.16,0-.38v-.35a2,2,0,0,0,0-.35,3,3,0,0,1,0-.45v0l0-.09.05,0v-.05h.06a.49.49,0,0,1,.17-.06c.21,0,.31.14.31.48A1.53,1.53,0,0,1,26.7,19.88Zm-.12-.21a1.13,1.13,0,0,0,.12-.47c0-.19,0-.29-.1-.29h-.06a2,2,0,0,0,0,.37A2.58,2.58,0,0,1,26.58,19.67Z" transform="translate(0 0)"/><path class="cls-28" d="M27.24,20.52l0,.06-.08,0h0l-.08,0,0-.11v-.65l0-.09,0,0v0a3,3,0,0,0,0-.31v-.58h.1l.08,0,.08,0h.35v.23l-.25,0a.2.2,0,0,0-.11,0h0v.36c0,.09,0,.19,0,.29l.19,0,.15-.05.05.22-.22,0-.16,0v.54l.13,0a.35.35,0,0,1,.14,0h.11v.19h-.11l-.16,0-.17,0Z" transform="translate(0 0)"/><path class="cls-28" d="M28.65,18.49v.1a2.65,2.65,0,0,0,0,.45v1.35l-.21,0v-.88a2.89,2.89,0,0,0,0-.44V19l-.12.56a.65.65,0,0,1,0,.13l-.06,0v.06h-.2a.55.55,0,0,1,0-.16,1,1,0,0,0-.1-.3v.24a.81.81,0,0,0,0,.24,1.31,1.31,0,0,1,0,.28v.38l-.22,0v-.65a1.15,1.15,0,0,0,0-.24v-.4c0-.2,0-.3,0-.41v-.23l.21-.08v.09l.1.32a2.75,2.75,0,0,1,.09.29,2.75,2.75,0,0,1,.14-.49,1,1,0,0,0,.05-.23h.07l0-.1.2.07Z" transform="translate(0 0)"/><path class="cls-28" d="M25.4,21.62l0,.37a.91.91,0,0,0,0,.17c0,.07,0,.12,0,.16a1.46,1.46,0,0,1,0,.21v.88l-.21,0v-.11s0-.1,0-.25v-.71c0-.06,0-.18,0-.33s0-.27,0-.49l.21,0Z" transform="translate(0 0)"/><path class="cls-28" d="M25.63,21.54l.1-.12,0,0,.14,0a.2.2,0,0,1,.13,0,.17.17,0,0,1,.1.1.7.7,0,0,1,0,.29,3.55,3.55,0,0,1,0,.44,1.56,1.56,0,0,1-.08.42.52.52,0,0,1-.19.17,1.6,1.6,0,0,1,0,.31v.09l0,.1-.21.06a.43.43,0,0,1,0-.16v-.21c0-.24,0-.39,0-.46v-.8l-.1-.18Zm.24,1.08a.12.12,0,0,0,.05-.09.9.9,0,0,1,0-.23q0-.36,0-.45v-.12c0-.05,0-.08-.06-.07a.06.06,0,0,0-.06,0v0C25.85,21.91,25.85,22.2,25.87,22.62Z" transform="translate(0 0)"/><path class="cls-28" d="M26.68,21.54a.47.47,0,0,0-.13.15.45.45,0,0,0,0,.2,1.14,1.14,0,0,0,.11.4,1,1,0,0,1,.1.43.79.79,0,0,1-.09.38,1.81,1.81,0,0,1-.25.3l-.14-.16a1.3,1.3,0,0,0,.19-.22.52.52,0,0,0,.08-.3,1.2,1.2,0,0,0-.11-.4,1.23,1.23,0,0,1-.1-.43.64.64,0,0,1,.1-.35,1.22,1.22,0,0,1,.24-.27l.12.17Z" transform="translate(0 0)"/><path class="cls-28" d="M27.15,23a.63.63,0,0,0,.05-.3v-.25c0-.07,0-.17,0-.31s0-.24,0-.31v-.11a.38.38,0,0,0,0-.15v-.23l.21,0v.2a.48.48,0,0,1,0,.17v.18c0,.4,0,.66,0,.78,0,.3-.07.5-.2.58l-.07,0c-.09,0-.17-.06-.21-.22a2.87,2.87,0,0,1-.07-.5v-.37a4.46,4.46,0,0,0,0-.55v-.3l.21,0v1.12a1.58,1.58,0,0,0,.08.57Z" transform="translate(0 0)"/><path class="cls-28" d="M28.39,21.22v.11a4,4,0,0,0,0,.45c0,.12,0,.29,0,.45v.89l-.22,0v-.88c0-.17,0-.32,0-.44v-.08c0,.14-.07.32-.12.56a.93.93,0,0,1,0,.13l-.06,0v.05h-.13v0h-.08s0-.09,0-.16-.05-.19-.09-.29v.23c0,.05,0,.14,0,.25a2.43,2.43,0,0,1,0,.27v.38l-.21,0v-.65a1.15,1.15,0,0,0,0-.24,4,4,0,0,0,0-.41v-.63l.21-.09,0,.07v0a2.12,2.12,0,0,0,.09.31l.1.29a3,3,0,0,1,.14-.49.85.85,0,0,0,0-.23h.07l.05-.1.19.07Z" transform="translate(0 0)"/></svg>