<svg   xmlns="http://www.w3.org/2000/svg"  data-name="Group 3573" width="16.817" height="20.049" viewBox="0 0 16.817 20.049" fill="#fe346e"><path data-name="Path 50436" d="M16.25 9.182h-3.739a.567.567 0 00-.567.567v.035a5.811 5.811 0 01-2.565-1.307A4.21 4.21 0 018.26 5.344 1.643 1.643 0 006.802 3.95c-.488-.06-1.684.035-2.23 2.221a8.871 8.871 0 00-.094 2.783H2.232a2.041 2.041 0 00-1.709.884c-.49.694-.884 2.059.02 4.624l1.016 3.671a2.368 2.368 0 002.325 1.917h2.742a17.083 17.083 0 005.317-.834v.193a.567.567 0 00.567.567h3.739a.567.567 0 00.567-.567v-9.66a.567.567 0 00-.566-.567zm-9.624 9.732H3.884a1.234 1.234 0 01-1.214-1.013c0-.017-.007-.033-.011-.05L1.632 14.14c0-.013-.008-.025-.012-.038-.82-2.314-.392-3.295-.17-3.609a.91.91 0 01.782-.4h2.89a.567.567 0 00.56-.661 9.265 9.265 0 01-.009-2.982c.211-.845.554-1.358.916-1.373a.667.667 0 01.536.3 5.306 5.306 0 001.451 3.9 7.2 7.2 0 003.368 1.673v7c-.832.562-3.376.964-5.318.964zm9.056-.074zM5.973 2.171v-1.6a.567.567 0 111.135 0v1.6a.567.567 0 11-1.135 0zm3 1.952a.567.567 0 01.194-.779l1.375-.827a.567.567 0 11.585.972l-1.375.827a.567.567 0 01-.779-.194zM1.756 2.711a.568.568 0 01.779-.194l1.375.827a.567.567 0 11-.585.972L1.95 3.489a.567.567 0 01-.194-.778z" fill="#fe346e"></path></svg>