<svg xmlns="http://www.w3.org/2000/svg"  width="12" height="15" viewBox="0 0 15.503 19.775" fill="#fe346e"><path data-name="Path 49173" d="M0 15.676v1.89a2.212 2.212 0 002.21 2.21h11.083a2.212 2.212 0 002.209-2.21v-1.89z" fill="#fe346e"></path><g data-name="Path 49174" fill="none"><path d="M15.502 14.72V4.692a.478.478 0 00-.478-.478h-3.62v-.561a3.653 3.653 0 10-7.305 0v.561H.478A.478.478 0 000 4.692V14.72zM6.054 3.653c0-1.487.21-1.7 1.7-1.7s1.7.21 1.7 1.7v.561h-3.4z"></path><path d="M14.002 13.22V5.714H1.5v7.506h12.502m1.5 1.5H0V4.692c0-.264.214-.478.478-.478h3.62v-.561A3.657 3.657 0 017.752 0a3.657 3.657 0 013.653 3.653v.56h3.62c.264 0 .478.215.478.479V14.72zM7.751 1.956c-1.487 0-1.697.21-1.697 1.697v.561h3.394v-.561c0-1.487-.21-1.697-1.697-1.697z" fill="#fe346e"></path></g></svg>