<svg  width="50" height="50" viewBox="0 0 50 50" xmlns="http://www.w3.org/2000/svg"><g data-name="Group 3586"><g data-name="Group 3347"><circle data-name="Ellipse 103" cx="25" cy="25" r="25" fill="#a84ec3"></circle></g><path d="M11 21.918a64.3 64.3 0 001.232 10.437c1.494 7.535 2.984 7.568 3.553 7.568h.008c3.353 0 4.794-15.541 4.794-18.007a12.184 12.184 0 00-.111-1.705.612.612 0 00-.046-.394c-.008-.017-.024-.027-.033-.043a4.888 4.888 0 00-1.228-2.575l.705-3.466a.625.625 0 00-.456-.734 7.817 7.817 0 00-1.518-.226l.188-1.765a.624.624 0 00-.4-.65 5.143 5.143 0 00-3.8 0 .625.625 0 00-.395.65l.188 1.763a7.486 7.486 0 00-1.522.229.625.625 0 00-.457.73l.711 3.469c-.944.97-1.414 2.514-1.413 4.719zm4.793 16.755c-.632-.074-1.424-2.414-2.094-5.453h.948a.625.625 0 100-1.25h-1.21a70.178 70.178 0 01-.484-2.714 3.065 3.065 0 001.975-.307.625.625 0 10-.559-1.118 1.968 1.968 0 01-1.614.078 58.676 58.676 0 01-.4-3.634 1.939 1.939 0 011.484.124.625.625 0 10.56-1.117 3.163 3.163 0 00-2.125-.283c-.016-.38-.024-.742-.024-1.082 0-3.755 1.393-4.682 3.551-4.682 2.014 0 2.895.843 3.3 2.475a2.116 2.116 0 01-1.375-.183.625.625 0 00-.518 1.138 3.588 3.588 0 001.491.344 3.08 3.08 0 00.6-.063c.025.306.042.624.042.968 0 .776-.044 1.667-.122 2.621a3.3 3.3 0 00-2.538.161.625.625 0 10.518 1.138 2.02 2.02 0 011.865-.011c.01.005.021 0 .032.009-.606 5.645-2.196 12.709-3.303 12.841zm2.266-22.265a4.263 4.263 0 00-.608-.218l.043-.311.257-1.86a6.352 6.352 0 01.779.077zm-1.268-5.024l-.205 1.928-.37 2.678a6.133 6.133 0 00-.847 0l-.37-2.672-.205-1.936a3.748 3.748 0 011.997.002zm-2.956 2.635l.3 2.171c-.013 0-.024.01-.037.013a4.46 4.46 0 00-.546.2l-.026.009-.471-2.313a6.1 6.1 0 01.78-.08zM26.16 26.111a5.551 5.551 0 00-5.437 4.116c-.453 1.913-.2 5.461 6.647 7.748.014 0 1.432.422 1.655 1.526a.643.643 0 001.267-.079c.277-1.041 1.623-1.433 1.667-1.447 6.81-2.278 7.067-5.826 6.614-7.739a5.551 5.551 0 00-5.437-4.116h-2.9v-1.156a1.236 1.236 0 00.258-.18l2.543-1.4a.629.629 0 00.172-.139 1.219 1.219 0 00-.255-1.816l.256-.3a1.215 1.215 0 00-.92-2.01h-1.121c0-.137.011-.283.019-.431.072-1.407-.049-2.73-1.537-2.73s-1.614 1.378-1.544 2.741c.007.145.015.286.019.42h-1.118a1.2 1.2 0 00-1.1.709c-.419.916.438 1.535.541 1.712a1.366 1.366 0 00-.366.482 1.338 1.338 0 00.208 1.448.629.629 0 00.192.149l2.329 1.168a1.245 1.245 0 00.177.134v1.183zm6.977 1.261a4.372 4.372 0 013.932 2.385h-2.207a.625.625 0 000 1.25h2.579a3.564 3.564 0 010 .752h-.78a.625.625 0 100 1.25h.408c-.759 1.517-2.619 2.816-5.475 3.772a4.253 4.253 0 00-1.942 1.235 4.209 4.209 0 00-1.92-1.236c-2.871-.96-4.736-2.258-5.5-3.771h.4a.625.625 0 100-1.25h-.773a3.559 3.559 0 010-.752h3.01a.625.625 0 000-1.25h-2.652a4.372 4.372 0 013.943-2.4h3.409a.637.637 0 00.114.01h3.45zm-5.932-4.78a.115.115 0 01.011-.044.093.093 0 01.093-.06h.234a.625.625 0 00.473-1.033l-.931-1.078h1.643a.625.625 0 00.62-.544 6.844 6.844 0 00.005-1.191c-.03-.579-.121-1.427.3-1.427.3 0 .351.186.288 1.417a6.943 6.943 0 00.006 1.2.625.625 0 00.62.545h1.649l-.931 1.078a.625.625 0 00.473 1.033h.322l-1.846 1.011v-.968a.625.625 0 10-1.25 0v.952z" fill="#fff"></path></g></svg>