<svg xmlns="http://www.w3.org/2000/svg" width="16.001" height="14.222" viewBox="0 0 16.001 14.222">
  <g id="noun_Work_1872972" transform="translate(16.001 14.222) rotate(180)">
    <path id="Path_40799" data-name="Path 40799" d="M2.667,11.556H5.334v.889a1.778,1.778,0,0,0,1.778,1.778H8.889a1.778,1.778,0,0,0,1.778-1.778v-.889h2.667A2.667,2.667,0,0,0,16,8.889V2.667A2.667,2.667,0,0,0,13.334,0H2.667A2.667,2.667,0,0,0,0,2.667V8.889A2.667,2.667,0,0,0,2.667,11.556Zm7.111.889a.89.89,0,0,1-.889.889H7.111a.89.89,0,0,1-.889-.889v-.889H9.778ZM.889,2.667A1.78,1.78,0,0,1,2.667.889H13.334a1.78,1.78,0,0,1,1.778,1.778V6.222H9.778a.889.889,0,0,0-.889-.889H7.111a.889.889,0,0,0-.889.889H.889Zm0,4.444H6.223A.889.889,0,0,0,7.111,8H8.889a.889.889,0,0,0,.889-.889h5.334V8.889a1.78,1.78,0,0,1-1.778,1.778H2.667A1.78,1.78,0,0,1,.889,8.889Z" fill="#000"/>
  </g>
</svg>
