<svg width="23" height="21" viewBox="0 0 23 21" fill="none" xmlns="http://www.w3.org/2000/svg">
<path d="M21.8197 9.38306H1.18879C0.875665 9.38258 0.575533 9.25653 0.354292 9.03259C0.133052 8.80864 0.00878869 8.50511 0.00878906 8.18865V6.46502C0.0102295 6.14951 0.135127 5.84741 0.356212 5.62466C0.577297 5.40191 0.876607 5.27661 1.18879 5.27612H21.8197C22.1325 5.27661 22.4324 5.40241 22.6536 5.62596C22.8747 5.84951 22.9992 6.15256 22.9997 6.4687V8.19233C22.9987 8.50815 22.874 8.81074 22.6529 9.03389C22.4318 9.25704 22.1322 9.38258 21.8197 9.38306ZM1.18879 6.06995C1.08526 6.07043 0.986104 6.11221 0.912897 6.1862C0.839691 6.26019 0.798352 6.36039 0.797874 6.46502V8.18865C0.797874 8.29343 0.839066 8.39393 0.912376 8.46802C0.985685 8.54211 1.08511 8.58373 1.18879 8.58373H21.8197C21.8709 8.58373 21.9217 8.57349 21.969 8.55362C22.0163 8.53374 22.0593 8.50462 22.0955 8.46791C22.1316 8.4312 22.1602 8.38762 22.1797 8.3397C22.1991 8.29178 22.209 8.24044 22.2088 8.18865V6.46502C22.2088 6.36056 22.1679 6.26035 22.0949 6.18631C22.022 6.11227 21.9231 6.07044 21.8197 6.06995H1.18879Z" fill="#76787A"/>
<path d="M9.43445 15.5406C9.32947 15.5401 9.22894 15.4978 9.15471 15.4227C9.08048 15.3477 9.03856 15.2461 9.03809 15.14V11.0864C9.04489 10.985 9.08951 10.8901 9.16292 10.8208C9.23633 10.7515 9.33306 10.7129 9.43354 10.7129C9.53402 10.7129 9.63075 10.7515 9.70417 10.8208C9.77758 10.8901 9.8222 10.985 9.829 11.0864V15.14C9.829 15.2459 9.78748 15.3476 9.71354 15.4226C9.6396 15.4977 9.53925 15.5401 9.43445 15.5406Z" fill="#76787A"/>
<path d="M6.57956 15.5407C6.48574 15.5405 6.39503 15.5066 6.32372 15.445C6.25241 15.3833 6.20517 15.298 6.19047 15.2044L5.53956 11.1562C5.52825 11.054 5.55634 10.9512 5.61799 10.8693C5.67964 10.7873 5.77012 10.7326 5.87067 10.7162C5.97122 10.6999 6.07413 10.7234 6.15805 10.7817C6.24196 10.84 6.30045 10.9287 6.32138 11.0294L6.97047 15.0813C6.98726 15.186 6.96223 15.2933 6.90086 15.3794C6.8395 15.4655 6.74683 15.5235 6.6432 15.5407H6.57956Z" fill="#76787A"/>
<path d="M16.0596 20.9999C15.0507 20.9992 14.0647 20.6961 13.2262 20.1291C12.3877 19.5621 11.7343 18.7566 11.3487 17.8143C10.9631 16.8721 10.8626 15.8355 11.0599 14.8355C11.2572 13.8356 11.7434 12.9172 12.457 12.1964C13.1706 11.4757 14.0797 10.985 15.0693 10.7863C16.0588 10.5877 17.0844 10.69 18.0165 11.0803C18.9485 11.4707 19.7451 12.1316 20.3055 12.9794C20.8659 13.8273 21.1651 14.8241 21.1651 15.8437C21.1627 17.2111 20.6239 18.5217 19.6668 19.4883C18.7098 20.4548 17.4126 20.9984 16.0596 20.9999ZM16.0596 11.4868C15.2072 11.4879 14.3743 11.7444 13.6661 12.2238C12.9579 12.7032 12.4062 13.384 12.0807 14.1802C11.7553 14.9764 11.6707 15.8523 11.8377 16.697C12.0046 17.5418 12.4156 18.3176 13.0187 18.9264C13.6218 19.5352 14.39 19.9496 15.2261 20.1172C16.0621 20.2849 16.9286 20.1983 17.716 19.8684C18.5034 19.5384 19.1764 18.98 19.6498 18.2637C20.1233 17.5473 20.376 16.7052 20.376 15.8437C20.374 14.6878 19.9185 13.5799 19.1093 12.7631C18.3001 11.9463 17.2033 11.4873 16.0596 11.4868Z" fill="#76787A"/>
<path d="M12.0164 17.4534H4.7091C4.37406 17.4554 4.04849 17.3412 3.78674 17.1298C3.52499 16.9185 3.34291 16.6228 3.27092 16.2921L1.55273 8.5835H21.4491L20.1764 14.2505L19.6655 13.4622C19.1059 12.594 18.2586 11.9555 17.2756 11.6612C16.2925 11.3669 15.2379 11.4361 14.3007 11.8563C13.3635 12.2765 12.605 13.0202 12.1611 13.9543C11.7172 14.8883 11.6169 15.9516 11.8782 16.9536L12.0164 17.4534ZM2.54001 9.38283L4.04183 16.1175C4.07578 16.2706 4.16042 16.4074 4.28175 16.5053C4.40308 16.6032 4.55384 16.6563 4.7091 16.6559H11.0164C10.9743 16.3872 10.953 16.1157 10.9527 15.8437C10.9543 14.8073 11.2645 13.7954 11.8428 12.9396C12.4211 12.0838 13.2408 11.4237 14.1954 11.0451C15.1499 10.6665 16.1951 10.5869 17.195 10.8168C18.1949 11.0467 19.1032 11.5753 19.8018 12.3339L20.4618 9.38283H2.54001Z" fill="#76787A"/>
<path d="M15.7018 17.3135C15.6142 17.3714 15.5174 17.4074 15.4326 17.4139C15.3478 17.4203 15.2817 17.3966 15.2488 17.3479L14.1144 15.6389C14.089 15.5884 14.0971 15.5199 14.1371 15.4473C14.177 15.3747 14.2458 15.3034 14.3295 15.2478C14.4132 15.1923 14.5056 15.1566 14.588 15.148C14.6704 15.1394 14.7367 15.1585 14.7734 15.2015L15.9078 16.9105C15.9402 16.9593 15.9368 17.0292 15.8982 17.1047C15.8596 17.1803 15.789 17.2554 15.7018 17.3135Z" fill="#76787A"/>
<path d="M18.9118 15.567L15.8564 17.5952C15.7691 17.6449 15.6659 17.6593 15.5677 17.6354C15.4695 17.6115 15.3837 17.5512 15.3275 17.4666C15.2713 17.382 15.2491 17.2794 15.2652 17.1796C15.2813 17.0799 15.3346 16.9904 15.4143 16.9292L18.4697 14.901C18.5128 14.868 18.5623 14.8442 18.6151 14.8312C18.6679 14.8183 18.7229 14.8164 18.7767 14.8256C18.8305 14.8349 18.8819 14.8552 18.9278 14.8852C18.9737 14.9152 19.013 14.9542 19.0433 15C19.0737 15.0457 19.0944 15.0971 19.1043 15.151C19.1141 15.2049 19.1128 15.2602 19.1005 15.3133C19.0881 15.3665 19.065 15.4165 19.0326 15.4601C19.0001 15.5037 18.959 15.5401 18.9118 15.567Z" fill="#76787A"/>
<path d="M5.50155 7.72717C5.44776 7.72683 5.3946 7.71557 5.34519 7.69408C5.24917 7.65171 5.17365 7.57265 5.13515 7.47416C5.09665 7.37568 5.0983 7.2658 5.13973 7.16854L7.67065 1.23322C7.71556 1.14116 7.79371 1.07003 7.889 1.03451C7.98429 0.998994 8.08943 1.0018 8.18273 1.04235C8.27604 1.08289 8.35037 1.15809 8.39041 1.25242C8.43045 1.34675 8.43315 1.45301 8.39792 1.54928L5.86519 7.48093C5.83519 7.55352 5.78472 7.61559 5.72006 7.65938C5.65539 7.70317 5.57939 7.72674 5.50155 7.72717Z" fill="#76787A"/>
<path d="M17.4961 7.72739C17.4187 7.72704 17.3431 7.70391 17.2785 7.66083C17.2139 7.61776 17.1632 7.55659 17.1324 7.48483L14.6015 1.55686C14.581 1.50859 14.5701 1.45672 14.5694 1.40419C14.5687 1.35165 14.5782 1.2995 14.5975 1.2507C14.6167 1.2019 14.6453 1.15741 14.6815 1.11976C14.7178 1.08212 14.761 1.05207 14.8088 1.03131C14.8565 1.01056 14.9079 0.999519 14.9599 0.998815C15.0118 0.998111 15.0634 1.00776 15.1117 1.02721C15.16 1.04667 15.204 1.07554 15.2413 1.11218C15.2785 1.14883 15.3083 1.19253 15.3288 1.2408L17.8615 7.16876C17.8858 7.22929 17.8951 7.29492 17.8886 7.35992C17.8821 7.42491 17.8599 7.48731 17.8241 7.54167C17.7882 7.59602 17.7397 7.64069 17.6829 7.67178C17.626 7.70287 17.5625 7.71943 17.4979 7.72003L17.4961 7.72739Z" fill="#76787A"/>
</svg>
