<svg width="15" height="21" viewBox="0 0 15 21" fill="none" xmlns="http://www.w3.org/2000/svg">
<path d="M13.5932 21H1.40684C1.03386 20.9995 0.676298 20.8483 0.412562 20.5795C0.148827 20.3107 0.000457361 19.9462 0 19.5661V1.4357C0.000456156 1.05538 0.148765 0.690737 0.412451 0.421643C0.676138 0.152548 1.0337 0.000931883 1.40684 0H13.5932C13.9663 0.000931883 14.3239 0.152548 14.5875 0.421643C14.8512 0.690737 14.9995 1.05538 15 1.4357V19.5661C14.9995 19.9462 14.8512 20.3107 14.5874 20.5795C14.3237 20.8483 13.9661 20.9995 13.5932 21ZM1.40684 1.00411C1.29454 1.00411 1.18684 1.04958 1.10743 1.13052C1.02802 1.21146 0.983409 1.32124 0.983409 1.4357V19.5661C0.983866 19.6802 1.02868 19.7895 1.10804 19.8701C1.1874 19.9507 1.29484 19.9959 1.40684 19.9959H13.5932C13.705 19.9959 13.8123 19.9506 13.8913 19.87C13.9704 19.7894 14.0149 19.6801 14.0149 19.5661V1.4357C14.0149 1.32154 13.9705 1.21203 13.8915 1.13114C13.8124 1.05025 13.7052 1.00457 13.5932 1.00411H1.40684Z" fill="#3E0F82"/>
<path d="M4.24439 6.45093C3.89815 6.44988 3.55997 6.34433 3.27253 6.14757C2.98509 5.95081 2.76126 5.67168 2.62931 5.3454C2.49736 5.01912 2.4632 4.66031 2.53113 4.31425C2.59905 3.9682 2.76603 3.65041 3.01098 3.40098C3.25593 3.15156 3.56788 2.98168 3.90747 2.91279C4.24705 2.84389 4.59904 2.87907 4.91903 3.01388C5.23902 3.14869 5.51265 3.3771 5.70541 3.67026C5.89816 3.96343 6.0014 4.30823 6.00208 4.66115C6.00231 4.8964 5.95699 5.12938 5.86871 5.34674C5.78044 5.56411 5.65095 5.76159 5.48767 5.92785C5.32438 6.09412 5.13051 6.22591 4.91717 6.31567C4.70382 6.40542 4.47519 6.45139 4.24439 6.45093ZM4.24439 3.88428C4.09262 3.88428 3.94425 3.93016 3.81806 4.0161C3.69187 4.10204 3.59351 4.22419 3.53543 4.36711C3.47735 4.51003 3.46216 4.6673 3.49177 4.81902C3.52137 4.97075 3.59446 5.11011 3.70178 5.2195C3.80909 5.32888 3.94583 5.40338 4.09468 5.43356C4.24354 5.46373 4.39783 5.44824 4.53805 5.38904C4.67827 5.32984 4.79811 5.22959 4.88243 5.10097C4.96675 4.97235 5.01176 4.82113 5.01176 4.66643C5.01176 4.45899 4.93091 4.26005 4.787 4.11337C4.64309 3.96669 4.44791 3.88428 4.24439 3.88428Z" fill="#3E0F82"/>
<path d="M12.1468 5.16842H7.4994C7.36876 5.16842 7.24348 5.11552 7.15111 5.02137C7.05873 4.92722 7.00684 4.79952 7.00684 4.66636C7.00684 4.53321 7.05873 4.40551 7.15111 4.31136C7.24348 4.2172 7.36876 4.16431 7.4994 4.16431H12.1468C12.2775 4.16431 12.4028 4.2172 12.4951 4.31136C12.5875 4.40551 12.6394 4.53321 12.6394 4.66636C12.6394 4.79952 12.5875 4.92722 12.4951 5.02137C12.4028 5.11552 12.2775 5.16842 12.1468 5.16842Z" fill="#3E0F82"/>
<path d="M4.24469 11.3342C3.89808 11.3342 3.55925 11.2295 3.27105 11.0332C2.98286 10.8369 2.75823 10.5579 2.62559 10.2315C2.49295 9.90515 2.45824 9.54599 2.52586 9.19949C2.59348 8.85299 2.76039 8.53471 3.00548 8.2849C3.25058 8.03509 3.56284 7.86497 3.9028 7.79604C4.24275 7.72712 4.59512 7.76249 4.91535 7.89769C5.23558 8.03289 5.50928 8.26183 5.70185 8.55558C5.89441 8.84933 5.9972 9.19468 5.9972 9.54797C5.99629 10.0214 5.81135 10.4752 5.48289 10.81C5.15443 11.1448 4.70921 11.3333 4.24469 11.3342ZM4.24469 8.76582C4.09292 8.76582 3.94456 8.8117 3.81837 8.89764C3.69217 8.98359 3.59382 9.10574 3.53574 9.24866C3.47766 9.39158 3.46246 9.54884 3.49207 9.70056C3.52168 9.85229 3.59476 9.99166 3.70208 10.101C3.8094 10.2104 3.94613 10.2849 4.09499 10.3151C4.24384 10.3453 4.39814 10.3298 4.53836 10.2706C4.67857 10.2114 4.79842 10.1111 4.88274 9.98251C4.96706 9.85389 5.01206 9.70267 5.01206 9.54797C5.01206 9.34053 4.93122 9.1416 4.78731 8.99492C4.6434 8.84823 4.44821 8.76582 4.24469 8.76582Z" fill="#3E0F82"/>
<path d="M12.147 10.0499H7.49953C7.37417 10.0423 7.25637 9.98618 7.17024 9.89302C7.0841 9.79987 7.03613 9.67669 7.03613 9.54868C7.03613 9.42067 7.0841 9.29751 7.17024 9.20435C7.25637 9.11119 7.37417 9.05509 7.49953 9.04751H12.147C12.214 9.04346 12.2811 9.05341 12.3442 9.07677C12.4073 9.10012 12.4651 9.13638 12.514 9.18332C12.5628 9.23026 12.6018 9.28688 12.6284 9.34971C12.655 9.41254 12.6687 9.48025 12.6687 9.54868C12.6687 9.61712 12.655 9.68483 12.6284 9.74766C12.6018 9.81049 12.5628 9.86711 12.514 9.91404C12.4651 9.96098 12.4073 9.99724 12.3442 10.0206C12.2811 10.0439 12.214 10.0539 12.147 10.0499Z" fill="#3E0F82"/>
<path d="M4.24469 16.2173C3.89808 16.2173 3.55925 16.1125 3.27105 15.9163C2.98286 15.72 2.75823 15.441 2.62559 15.1146C2.49295 14.7882 2.45824 14.4291 2.52586 14.0826C2.59348 13.7361 2.76039 13.4178 3.00548 13.168C3.25058 12.9181 3.56284 12.748 3.9028 12.6791C4.24275 12.6102 4.59512 12.6455 4.91535 12.7807C5.23558 12.9159 5.50928 13.1449 5.70185 13.4386C5.89441 13.7324 5.9972 14.0778 5.9972 14.431C5.99629 14.9045 5.81135 15.3583 5.48289 15.6931C5.15443 16.0279 4.70921 16.2164 4.24469 16.2173ZM4.24469 13.6454C4.09292 13.6454 3.94456 13.6912 3.81837 13.7772C3.69217 13.8631 3.59382 13.9853 3.53574 14.1282C3.47766 14.2711 3.46246 14.4284 3.49207 14.5801C3.52168 14.7318 3.59476 14.8712 3.70208 14.9806C3.8094 15.09 3.94613 15.1645 4.09499 15.1946C4.24384 15.2248 4.39814 15.2093 4.53836 15.1501C4.67857 15.0909 4.79842 14.9907 4.88274 14.8621C4.96706 14.7334 5.01206 14.5822 5.01206 14.4275C5.01206 14.3248 4.99221 14.2231 4.95365 14.1282C4.91509 14.0333 4.85856 13.9471 4.78731 13.8745C4.71605 13.8018 4.63146 13.7442 4.53836 13.7049C4.44525 13.6656 4.34547 13.6454 4.24469 13.6454Z" fill="#3E0F82"/>
<path d="M12.1468 14.9331H7.4994C7.36876 14.9331 7.24348 14.8802 7.15111 14.786C7.05873 14.6919 7.00684 14.5642 7.00684 14.431C7.00684 14.2979 7.05873 14.1702 7.15111 14.076C7.24348 13.9819 7.36876 13.929 7.4994 13.929H12.1468C12.2775 13.929 12.4028 13.9819 12.4951 14.076C12.5875 14.1702 12.6394 14.2979 12.6394 14.431C12.6394 14.5642 12.5875 14.6919 12.4951 14.786C12.4028 14.8802 12.2775 14.9331 12.1468 14.9331Z" fill="#3E0F82"/>
</svg>
