<svg width="25" height="22" viewBox="0 0 25 22" fill="none" xmlns="http://www.w3.org/2000/svg">
<path d="M16.9462 5.23175H12.4548C12.3372 5.23176 12.2243 5.18515 12.1409 5.10213C12.0575 5.01911 12.0104 4.90643 12.0098 4.78875V1.49373C12.0057 1.43289 12.0141 1.37185 12.0345 1.3144C12.055 1.25694 12.087 1.2043 12.1287 1.15974C12.1703 1.11519 12.2207 1.07966 12.2766 1.05538C12.3326 1.03109 12.3929 1.01855 12.4539 1.01855C12.5148 1.01855 12.5752 1.03109 12.6311 1.05538C12.687 1.07966 12.7374 1.11519 12.779 1.15974C12.8207 1.2043 12.8527 1.25694 12.8731 1.3144C12.8936 1.37185 12.902 1.43289 12.8979 1.49373V4.35186H16.5012V1.49373C16.497 1.43289 16.5054 1.37185 16.5259 1.3144C16.5463 1.25694 16.5784 1.2043 16.62 1.15974C16.6617 1.11519 16.712 1.07966 16.768 1.05538C16.8239 1.03109 16.8842 1.01855 16.9452 1.01855C17.0062 1.01855 17.0665 1.03109 17.1224 1.05538C17.1784 1.07966 17.2287 1.11519 17.2704 1.15974C17.312 1.2043 17.344 1.25694 17.3645 1.3144C17.3849 1.37185 17.3934 1.43289 17.3892 1.49373V4.78875C17.3892 4.90624 17.3425 5.01892 17.2594 5.102C17.1764 5.18508 17.0637 5.23175 16.9462 5.23175Z" fill="#76787A"/>
<path d="M4.1071 14.3694C3.99008 14.3695 3.87778 14.3232 3.79474 14.2408L0.607956 11.058C0.524573 10.9749 0.477611 10.8621 0.47742 10.7444C0.477229 10.6267 0.523797 10.5137 0.606909 10.4303C0.690021 10.3469 0.802834 10.2999 0.920563 10.2998C1.03829 10.2996 1.15128 10.3462 1.23467 10.4293L4.1071 13.2996L8.63517 8.77768L0.605912 0.756548C0.564759 0.715395 0.532089 0.666542 0.509817 0.612773C0.487545 0.559005 0.476074 0.501379 0.476074 0.44318C0.476074 0.384982 0.487545 0.32735 0.509817 0.273581C0.532089 0.219813 0.564759 0.170959 0.605912 0.129807C0.647065 0.0886539 0.695887 0.0560083 0.749656 0.0337366C0.803424 0.0114649 0.861068 -4.50625e-09 0.919267 0C0.977466 4.50625e-09 1.03511 0.0114649 1.08888 0.0337366C1.14265 0.0560084 1.19147 0.0886539 1.23262 0.129807L9.57633 8.46329C9.61777 8.50449 9.65065 8.55347 9.67308 8.60743C9.6955 8.66139 9.707 8.71924 9.70697 8.77768C9.70695 8.8358 9.69541 8.89334 9.67298 8.94696C9.65055 9.00058 9.61771 9.04921 9.57633 9.09003L4.4215 14.2408C4.38013 14.2818 4.33106 14.3143 4.27711 14.3364C4.22316 14.3585 4.16539 14.3697 4.1071 14.3694Z" fill="#76787A"/>
<path d="M16.816 21.0373H11.0161C10.7087 21.0383 10.4042 20.9782 10.1203 20.8605C9.83641 20.7427 9.57877 20.5696 9.36241 20.3513L5.74076 16.7256C5.69932 16.6844 5.66644 16.6354 5.64401 16.5815C5.62159 16.5275 5.61009 16.4696 5.61012 16.4112V14.3697L4.64444 13.4041C4.56132 13.3209 4.51465 13.2082 4.51465 13.0907C4.51465 12.9731 4.56132 12.8604 4.64444 12.7773C4.72755 12.6942 4.8403 12.6475 4.95784 12.6475C5.07538 12.6475 5.18808 12.6942 5.2712 12.7773L6.36752 13.8716C6.45083 13.955 6.49777 14.068 6.49815 14.186V16.2275L9.98917 19.7266C10.1231 19.861 10.2821 19.9677 10.4573 20.0406C10.6324 20.1134 10.8202 20.1511 11.0099 20.1513H16.8099C17.0113 20.1519 17.2109 20.1126 17.397 20.0355C17.583 19.9584 17.752 19.8451 17.8939 19.7021C17.942 19.6551 17.9802 19.5989 18.0061 19.5368C18.0321 19.4747 18.0453 19.4081 18.045 19.3408C18.0451 19.2732 18.0318 19.2063 18.0059 19.144C17.9799 19.0816 17.9419 19.025 17.8939 18.9774L14.7929 15.8804L14.7643 15.8539L13.1433 14.2349C13.0815 14.1727 13.0393 14.0937 13.0219 14.0077C13.0045 13.9217 13.0126 13.8325 13.0453 13.7511C13.0732 13.6833 13.1174 13.6234 13.1741 13.5768C13.2307 13.5302 13.298 13.4983 13.3699 13.4839C13.4418 13.4696 13.5161 13.4732 13.5863 13.4946C13.6565 13.5159 13.7203 13.5542 13.7721 13.6062L15.2644 15.0965H16.373C16.4688 15.0963 16.5606 15.0581 16.6282 14.9903C16.695 14.923 16.7325 14.832 16.7325 14.7372C16.7325 14.6423 16.695 14.5513 16.6282 14.484L13.8681 11.7259C13.7372 11.5954 13.5818 11.4921 13.4108 11.4221C13.2398 11.352 13.0566 11.3165 12.8718 11.3176H9.74823C9.63126 11.3175 9.51909 11.2713 9.43593 11.189L8.13954 9.89672C8.05616 9.81361 8.0092 9.70078 8.00901 9.58305C8.00881 9.46533 8.05543 9.35235 8.13854 9.26896C8.22166 9.18558 8.33447 9.13862 8.4522 9.13843C8.56993 9.13824 8.68292 9.18483 8.7663 9.26794L9.932 10.4296H12.8861C13.1892 10.4277 13.4897 10.4861 13.7701 10.6014C14.0505 10.7167 14.3052 10.8866 14.5193 11.1012L17.2774 13.8614C17.394 13.9762 17.4864 14.1132 17.5492 14.2643C17.6119 14.4154 17.6438 14.5776 17.6428 14.7413C17.6431 14.905 17.611 15.0673 17.5484 15.2186C17.4858 15.37 17.3938 15.5074 17.2779 15.6232C17.162 15.7389 17.0244 15.8306 16.873 15.8929C16.7215 15.9553 16.5592 15.9871 16.3954 15.9866H16.1525L18.5207 18.3527C18.7834 18.6157 18.9309 18.9722 18.9309 19.3439C18.9309 19.7155 18.7834 20.072 18.5207 20.335C18.0681 20.7859 17.4549 21.0385 16.816 21.0373Z" fill="#76787A"/>
<path d="M16.4422 21.0129C16.3838 21.013 16.326 21.0014 16.272 20.979C16.218 20.9566 16.169 20.9237 16.1278 20.8823L15.1806 19.935C15.1394 19.8939 15.1068 19.845 15.0845 19.7912C15.0623 19.7375 15.0508 19.6798 15.0508 19.6216C15.0508 19.5634 15.0623 19.5058 15.0845 19.452C15.1068 19.3983 15.1394 19.3494 15.1806 19.3083C15.2217 19.2671 15.2706 19.2345 15.3244 19.2122C15.3781 19.1899 15.4357 19.1785 15.4939 19.1785C15.5521 19.1785 15.6098 19.1899 15.6635 19.2122C15.7173 19.2345 15.7662 19.2671 15.8073 19.3083L16.7566 20.2555C16.818 20.3179 16.8597 20.3969 16.8764 20.4829C16.8932 20.5688 16.8842 20.6577 16.8507 20.7385C16.8171 20.8193 16.7605 20.8885 16.6878 20.9373C16.6152 20.9861 16.5297 21.0124 16.4422 21.0129Z" fill="#76787A"/>
<path d="M13.537 21.0126C13.4786 21.0128 13.4207 21.0013 13.3667 20.9789C13.3127 20.9564 13.2638 20.9235 13.2226 20.882L12.2733 19.9306C12.2322 19.8895 12.1996 19.8406 12.1773 19.7868C12.155 19.7331 12.1436 19.6755 12.1436 19.6173C12.1436 19.5591 12.155 19.5014 12.1773 19.4477C12.1996 19.3939 12.2322 19.345 12.2733 19.3039C12.3145 19.2627 12.3634 19.2301 12.4171 19.2078C12.4709 19.1855 12.5285 19.1741 12.5867 19.1741C12.6449 19.1741 12.7025 19.1855 12.7563 19.2078C12.8101 19.2301 12.859 19.2627 12.9001 19.3039L13.8494 20.2511C13.9117 20.313 13.9542 20.3919 13.9716 20.478C13.9889 20.564 13.9803 20.6533 13.9468 20.7344C13.9134 20.8156 13.8566 20.885 13.7836 20.9338C13.7106 20.9826 13.6248 21.0086 13.537 21.0085V21.0126Z" fill="#76787A"/>
<path d="M24.5571 19.0239H17.9242C17.8116 19.0163 17.7062 18.9662 17.6292 18.8837C17.5522 18.8013 17.5093 18.6927 17.5093 18.5799C17.5093 18.4671 17.5522 18.3585 17.6292 18.276C17.7062 18.1936 17.8116 18.1435 17.9242 18.1359H24.1141V1.9364H4.84218C4.72962 1.92876 4.62414 1.87866 4.54712 1.79623C4.47009 1.7138 4.42725 1.60519 4.42725 1.49237C4.42725 1.37955 4.47009 1.27094 4.54712 1.18851C4.62414 1.10608 4.72962 1.05598 4.84218 1.04834H24.5571C24.6154 1.04834 24.6732 1.05987 24.7271 1.08226C24.781 1.10465 24.8299 1.13746 24.8711 1.17881C24.9123 1.22017 24.9448 1.26925 24.967 1.32323C24.9891 1.37721 25.0004 1.43504 25.0001 1.49339V18.5809C25.0001 18.6984 24.9534 18.8111 24.8703 18.8942C24.7873 18.9772 24.6746 19.0239 24.5571 19.0239Z" fill="#76787A"/>
<path d="M8.00833 19.0239H1.90007C1.78258 19.0239 1.6699 18.9773 1.58681 18.8942C1.50373 18.8111 1.45708 18.6984 1.45708 18.5809V14.5714C1.45295 14.5105 1.46135 14.4495 1.4818 14.392C1.50224 14.3346 1.53431 14.2819 1.57595 14.2374C1.61759 14.1928 1.66789 14.1573 1.72383 14.133C1.77977 14.1087 1.84013 14.0962 1.90112 14.0962C1.9621 14.0962 2.02242 14.1087 2.07835 14.133C2.13429 14.1573 2.18465 14.1928 2.22628 14.2374C2.26792 14.2819 2.29994 14.3346 2.32039 14.392C2.34083 14.4495 2.34929 14.5105 2.34516 14.5714V18.1359H8.00833C8.12089 18.1435 8.22631 18.1936 8.30334 18.276C8.38037 18.3585 8.42321 18.4671 8.42321 18.5799C8.42321 18.6927 8.38037 18.8013 8.30334 18.8838C8.22631 18.9662 8.12089 19.0163 8.00833 19.0239Z" fill="#76787A"/>
</svg>
