<svg width="28" height="21" viewBox="0 0 28 21" fill="none" xmlns="http://www.w3.org/2000/svg">
<path d="M25.2415 20.9999H9.14181C8.67491 20.9999 8.22712 20.8161 7.89697 20.4889C7.56682 20.1618 7.38135 19.718 7.38135 19.2554V8.86043C7.38195 8.39815 7.56769 7.955 7.89778 7.62832C8.22787 7.30165 8.6753 7.11816 9.14181 7.11816H25.2415C25.7076 7.11876 26.1544 7.30251 26.484 7.62912C26.8136 7.95573 26.9991 8.39854 26.9997 8.86043V19.2554C26.9997 19.7176 26.8145 20.161 26.4848 20.4881C26.1552 20.8152 25.708 20.9993 25.2415 20.9999ZM9.14181 8.09437C9.041 8.09407 8.94111 8.1135 8.84788 8.15153C8.75466 8.18955 8.66994 8.24543 8.59855 8.31596C8.52716 8.3865 8.47051 8.4703 8.43186 8.56257C8.39321 8.65484 8.37332 8.75376 8.37332 8.85366V19.2486C8.37332 19.4506 8.45429 19.6442 8.59841 19.7871C8.74253 19.9299 8.938 20.0101 9.14181 20.0101H25.2415C25.4449 20.0095 25.6398 19.929 25.7834 19.7863C25.927 19.6435 26.0077 19.4502 26.0077 19.2486V8.85366C26.0077 8.65229 25.927 8.45915 25.7833 8.31676C25.6396 8.17437 25.4447 8.09437 25.2415 8.09437H9.14181Z" fill="#76787A"/>
<path d="M5.3589 18.7105C4.99766 18.7109 4.64503 18.6012 4.34887 18.3963C4.0527 18.1913 3.82733 17.901 3.70333 17.5648L0.107122 7.78906C0.0276116 7.57411 -0.00825042 7.3457 0.00159235 7.11697C0.0114351 6.88823 0.0667782 6.66369 0.164467 6.45622C0.262155 6.24876 0.400263 6.06246 0.570831 5.90804C0.741398 5.75362 0.941071 5.63412 1.15839 5.55641L16.2843 0.103598C16.7228 -0.0537322 17.2064 -0.0324328 17.6291 0.162823C18.0519 0.358079 18.3792 0.71138 18.5396 1.14535L20.1359 5.45698C20.1626 5.51858 20.1764 5.58493 20.1764 5.65198C20.1763 5.71903 20.1625 5.78537 20.1357 5.84693C20.1088 5.90848 20.0696 5.96397 20.0204 6.00998C19.9712 6.05599 19.913 6.09156 19.8494 6.11451C19.7858 6.13747 19.7182 6.14731 19.6507 6.14345C19.5831 6.13959 19.517 6.12212 19.4566 6.09209C19.3961 6.06205 19.3424 6.02009 19.2988 5.96878C19.2553 5.91747 19.2227 5.85789 19.2032 5.79369L17.607 1.48206C17.5726 1.38825 17.5199 1.30211 17.4518 1.22856C17.3838 1.15502 17.3017 1.09554 17.2104 1.05354C17.119 1.01153 17.0202 0.987837 16.9196 0.983816C16.819 0.979795 16.7186 0.995526 16.6241 1.0301L1.50273 6.4897C1.40815 6.52349 1.32127 6.57549 1.24707 6.64273C1.17288 6.70996 1.11285 6.79109 1.07045 6.88142C1.02805 6.97175 1.00413 7.0695 1.00005 7.16905C0.995963 7.26859 1.01179 7.36795 1.04665 7.46139L4.64285 17.2371C4.7132 17.4264 4.85643 17.5802 5.04112 17.665C5.2258 17.7497 5.43684 17.7584 5.62797 17.6891C5.69013 17.6626 5.75709 17.649 5.82475 17.649C5.89242 17.649 5.95936 17.6628 6.02148 17.6894C6.0836 17.716 6.13959 17.7548 6.18602 17.8036C6.23245 17.8524 6.26836 17.91 6.29153 17.973C6.31469 18.036 6.32462 18.103 6.32073 18.17C6.31683 18.2369 6.2992 18.3024 6.26889 18.3623C6.23858 18.4223 6.19624 18.4754 6.14446 18.5186C6.09269 18.5618 6.03254 18.594 5.96775 18.6133C5.77229 18.6815 5.56609 18.7145 5.3589 18.7105Z" fill="#76787A"/>
<path d="M26.505 14.1732H7.88777C7.7561 14.1726 7.63001 14.1205 7.53691 14.0282C7.44381 13.936 7.39122 13.811 7.39062 13.6805V10.4174C7.39122 10.287 7.44381 10.162 7.53691 10.0698C7.63001 9.97749 7.7561 9.9254 7.88777 9.9248H26.5141C26.6456 9.9254 26.7714 9.97757 26.8642 10.0699C26.9569 10.1622 27.009 10.2872 27.009 10.4174V13.676C27.0096 13.7417 26.9969 13.8068 26.9718 13.8675C26.9467 13.9282 26.9095 13.9834 26.8626 14.0297C26.8156 14.076 26.7598 14.1126 26.6984 14.1372C26.637 14.1618 26.5712 14.1741 26.505 14.1732ZM8.37349 13.1902H26.0079V10.9078H8.37349V13.1902Z" fill="#76787A"/>
<path d="M13.6141 16.6409H10.3189C10.2509 16.6454 10.1827 16.6361 10.1185 16.6135C10.0544 16.5909 9.99558 16.5554 9.94581 16.5093C9.89604 16.4632 9.85636 16.4075 9.82923 16.3456C9.8021 16.2836 9.78809 16.2169 9.78809 16.1494C9.78809 16.0819 9.8021 16.0151 9.82923 15.9532C9.85636 15.8912 9.89604 15.8355 9.94581 15.7894C9.99558 15.7433 10.0544 15.7079 10.1185 15.6852C10.1827 15.6626 10.2509 15.6533 10.3189 15.6579H13.6141C13.7398 15.6663 13.8576 15.7218 13.9436 15.813C14.0297 15.9043 14.0775 16.0245 14.0775 16.1494C14.0775 16.2742 14.0297 16.3945 13.9436 16.4857C13.8576 16.577 13.7398 16.6324 13.6141 16.6409Z" fill="#76787A"/>
</svg>
