<svg width="25" height="21" viewBox="0 0 25 21" fill="none" xmlns="http://www.w3.org/2000/svg">
<path d="M5.99208 12.6435H1.38535C1.32001 12.6443 1.25555 12.6285 1.19799 12.5976C1.14043 12.5667 1.09168 12.5216 1.05634 12.4666C1.02099 12.4116 1.00021 12.3485 0.995939 12.2833C0.991673 12.2181 1.00406 12.1528 1.03194 12.0937L3.63658 6.63995C3.668 6.57314 3.71812 6.51688 3.78084 6.47797C3.84357 6.43906 3.9162 6.41918 3.98999 6.42074H8.59672C8.66145 6.4202 8.72526 6.43615 8.78214 6.46707C8.83901 6.498 8.88709 6.54289 8.92185 6.59752C8.95672 6.65213 8.97698 6.71479 8.98069 6.77948C8.98441 6.84418 8.97144 6.90874 8.94305 6.96699L6.33841 12.419C6.30791 12.4854 6.25916 12.5418 6.19784 12.5815C6.13651 12.6213 6.06515 12.6428 5.99208 12.6435ZM1.98969 11.8745H5.74469L7.98178 7.18974H4.22679L1.98969 11.8745Z" fill="#76787A"/>
<path d="M8.59515 21.0001H3.98844C3.88674 21.0001 3.78921 20.9597 3.7173 20.8877C3.64539 20.8158 3.60498 20.7182 3.60498 20.6165V12.2599C3.60498 12.158 3.64533 12.0603 3.71719 11.9881C3.78905 11.9158 3.88658 11.875 3.98844 11.8746H5.7555L8.25409 6.64003C8.29214 6.56185 8.3555 6.49884 8.43386 6.46124C8.51223 6.42364 8.60099 6.41365 8.68574 6.43291C8.77049 6.45216 8.84626 6.49951 8.90071 6.56728C8.95516 6.63506 8.98509 6.71926 8.98566 6.80621V20.6165C8.98543 20.6674 8.97512 20.7177 8.95533 20.7646C8.93554 20.8115 8.90665 20.854 8.87034 20.8897C8.83403 20.9254 8.79102 20.9535 8.74379 20.9724C8.69655 20.9914 8.64603 21.0008 8.59515 21.0001ZM4.37365 20.2311H8.21169V8.50331L6.33861 12.4191C6.30658 12.4853 6.2563 12.5409 6.19368 12.5794C6.13106 12.618 6.05871 12.6378 5.9852 12.6365H4.36657L4.37365 20.2311Z" fill="#76787A"/>
<path d="M23.6167 12.6435H11.2986C11.2255 12.6449 11.1535 12.6255 11.0909 12.5877C11.0284 12.5498 10.9778 12.495 10.9452 12.4296L8.24155 6.97585C8.21244 6.91651 8.19908 6.85068 8.20274 6.78469C8.2064 6.7187 8.22696 6.65476 8.26245 6.59902C8.29794 6.54327 8.34717 6.4976 8.4054 6.46638C8.46362 6.43516 8.52891 6.41944 8.59496 6.42075H20.9131C20.9862 6.41915 21.0583 6.43842 21.1209 6.4763C21.1835 6.51418 21.234 6.56911 21.2665 6.63466L23.9701 12.0884C23.9989 12.1471 24.0123 12.2121 24.009 12.2773C24.0057 12.3426 23.986 12.4059 23.9515 12.4614C23.917 12.5169 23.8691 12.5628 23.812 12.5946C23.755 12.6265 23.6908 12.6433 23.6255 12.6435H23.6167ZM11.5318 11.8745H22.9912L20.6692 7.18975H9.20989L11.5318 11.8745Z" fill="#76787A"/>
<path d="M20.9131 21H8.59498C8.49329 21 8.39575 20.9596 8.32384 20.8876C8.25193 20.8157 8.21152 20.7181 8.21152 20.6164V6.80611C8.20955 6.71864 8.23752 6.63312 8.2908 6.56374C8.34407 6.49435 8.41944 6.44528 8.50443 6.42464C8.58942 6.40401 8.67891 6.41305 8.75806 6.45028C8.8372 6.48751 8.90123 6.55068 8.93955 6.62933L11.5371 11.8692H20.9131C21.015 11.8696 21.1125 11.9104 21.1844 11.9827C21.2562 12.0549 21.2966 12.1526 21.2966 12.2546V20.6111C21.2973 20.6619 21.2879 20.7123 21.2689 20.7595C21.25 20.8066 21.2218 20.8496 21.1862 20.8858C21.1505 20.9219 21.108 20.9507 21.0611 20.9703C21.0142 20.9899 20.9639 21 20.9131 21ZM8.98021 20.231H20.5279V12.6435H11.2986C11.2255 12.6449 11.1535 12.6255 11.0909 12.5876C11.0284 12.5498 10.9779 12.495 10.9452 12.4296L8.97137 8.44666L8.98021 20.231Z" fill="#76787A"/>
<path d="M18.9055 4.94284C18.8038 4.94284 18.7062 4.90243 18.6343 4.83048C18.5624 4.75854 18.522 4.66097 18.522 4.55922V0.769005H6.68275V4.55922C6.67614 4.65669 6.63276 4.74802 6.56141 4.81472C6.49007 4.88142 6.39606 4.91852 6.29841 4.91852C6.20075 4.91852 6.10675 4.88142 6.0354 4.81472C5.96405 4.74802 5.92067 4.65669 5.91406 4.55922V0.385385C5.91406 0.283174 5.95466 0.185153 6.0269 0.112879C6.09914 0.0406052 6.19712 0 6.29929 0H18.9125C18.9631 0 19.0132 0.00997042 19.0599 0.0293379C19.1067 0.0487053 19.1492 0.0770927 19.1849 0.112879C19.2207 0.148665 19.2491 0.19115 19.2684 0.237908C19.2878 0.284665 19.2977 0.334775 19.2977 0.385385V4.55922C19.2978 4.61035 19.2876 4.66097 19.2677 4.7081C19.2479 4.75523 19.2189 4.79791 19.1823 4.83365C19.1458 4.8694 19.1025 4.89746 19.0549 4.91621C19.0074 4.93496 18.9566 4.94402 18.9055 4.94284Z" fill="#76787A"/>
</svg>
