<svg width="11" height="12" viewBox="0 0 11 12" fill="none" xmlns="http://www.w3.org/2000/svg">
<path d="M5.78921 0.899945C5.81809 0.80567 5.88005 0.725001 5.96369 0.672789C6.04733 0.620577 6.14702 0.600338 6.2444 0.615797C6.34178 0.631256 6.43029 0.681373 6.49365 0.756921C6.55701 0.832469 6.59095 0.928362 6.58921 1.02695C6.58433 1.117 6.60935 1.20615 6.66038 1.28051C6.71141 1.35488 6.78559 1.41029 6.87138 1.43812C6.95717 1.46596 7.04975 1.46466 7.13472 1.43442C7.21969 1.40419 7.29229 1.34671 7.34121 1.27095C7.39623 1.18618 7.48068 1.12478 7.57829 1.09859C7.67589 1.0724 7.77974 1.08327 7.8698 1.12911C7.95986 1.17495 8.02977 1.25251 8.06604 1.34684C8.1023 1.44116 8.10236 1.54558 8.06621 1.63995C8.03344 1.72415 8.02948 1.81684 8.05494 1.90353C8.0804 1.99023 8.13386 2.06605 8.20695 2.11916C8.28005 2.17227 8.36868 2.19968 8.459 2.19711C8.54932 2.19454 8.63625 2.16213 8.70621 2.10495C8.78479 2.04183 8.88391 2.00995 8.98455 2.01542C9.08519 2.0209 9.18027 2.06334 9.25154 2.13461C9.32281 2.20588 9.36526 2.30096 9.37073 2.4016C9.37621 2.50224 9.34433 2.60136 9.28121 2.67995C9.22402 2.7499 9.19162 2.83683 9.18904 2.92715C9.18647 3.01747 9.21388 3.1061 9.26699 3.1792C9.32011 3.2523 9.39593 3.30575 9.48262 3.33121C9.56932 3.35668 9.662 3.35271 9.74621 3.31995C9.84058 3.28379 9.94499 3.28385 10.0393 3.32012C10.1336 3.35639 10.2112 3.42629 10.257 3.51635C10.3029 3.60642 10.3138 3.71026 10.2876 3.80787C10.2614 3.90547 10.2 3.98993 10.1152 4.04495C10.0394 4.09387 9.98197 4.16646 9.95173 4.25143C9.9215 4.3364 9.9202 4.42899 9.94803 4.51477C9.97587 4.60056 10.0313 4.67474 10.1056 4.72577C10.18 4.77681 10.2691 4.80183 10.3592 4.79695C10.4578 4.79521 10.5537 4.82914 10.6292 4.8925C10.7048 4.95586 10.7549 5.04438 10.7704 5.14176C10.7858 5.23914 10.7656 5.33882 10.7134 5.42246C10.6612 5.5061 10.5805 5.56807 10.4862 5.59695C10.3989 5.61996 10.3216 5.67124 10.2665 5.74279C10.2113 5.81433 10.1814 5.90212 10.1814 5.99245C10.1814 6.08277 10.2113 6.17056 10.2665 6.2421C10.3216 6.31365 10.3989 6.36493 10.4862 6.38794C10.5805 6.41682 10.6612 6.47879 10.7134 6.56243C10.7656 6.64607 10.7858 6.74575 10.7704 6.84313C10.7549 6.94051 10.7048 7.02903 10.6292 7.09239C10.5537 7.15575 10.4578 7.18968 10.3592 7.18794C10.2691 7.18306 10.18 7.20808 10.1056 7.25912C10.0313 7.31015 9.97587 7.38433 9.94803 7.47012C9.9202 7.5559 9.9215 7.64849 9.95173 7.73346C9.98197 7.81843 10.0394 7.89102 10.1152 7.93994C10.2 7.99496 10.2614 8.07942 10.2876 8.17702C10.3138 8.27463 10.3029 8.37847 10.257 8.46854C10.2112 8.5586 10.1336 8.62851 10.0393 8.66477C9.94499 8.70104 9.84058 8.7011 9.74621 8.66495C9.662 8.63218 9.56932 8.62821 9.48262 8.65368C9.39593 8.67914 9.32011 8.73259 9.26699 8.80569C9.21388 8.87879 9.18647 8.96742 9.18904 9.05774C9.19162 9.14806 9.22402 9.23499 9.28121 9.30495C9.34433 9.38353 9.37621 9.48265 9.37073 9.58329C9.36526 9.68393 9.32281 9.77901 9.25154 9.85028C9.18027 9.92155 9.08519 9.96399 8.98455 9.96947C8.88391 9.97494 8.78479 9.94306 8.70621 9.87995C8.63625 9.82276 8.54932 9.79035 8.459 9.78778C8.36868 9.78521 8.28005 9.81262 8.20695 9.86573C8.13386 9.91884 8.0804 9.99467 8.05494 10.0814C8.02948 10.1681 8.03344 10.2607 8.06621 10.3449C8.10236 10.4393 8.1023 10.5437 8.06604 10.6381C8.02977 10.7324 7.95986 10.8099 7.8698 10.8558C7.77974 10.9016 7.67589 10.9125 7.57829 10.8863C7.48068 10.8601 7.39623 10.7987 7.34121 10.7139C7.29229 10.6382 7.21969 10.5807 7.13472 10.5505C7.04975 10.5202 6.95717 10.5189 6.87138 10.5468C6.78559 10.5746 6.71141 10.63 6.66038 10.7044C6.60935 10.7787 6.58433 10.8679 6.58921 10.9579C6.59095 11.0565 6.55701 11.1524 6.49365 11.228C6.43029 11.3035 6.34178 11.3536 6.2444 11.3691C6.14702 11.3846 6.04733 11.3643 5.96369 11.3121C5.88005 11.2599 5.81809 11.1792 5.78921 11.0849C5.76619 10.9976 5.71491 10.9203 5.64337 10.8652C5.57182 10.8101 5.48403 10.7802 5.39371 10.7802C5.30338 10.7802 5.2156 10.8101 5.14405 10.8652C5.0725 10.9203 5.02122 10.9976 4.99821 11.0849C4.96933 11.1792 4.90737 11.2599 4.82373 11.3121C4.74009 11.3643 4.6404 11.3846 4.54302 11.3691C4.44564 11.3536 4.35712 11.3035 4.29376 11.228C4.23041 11.1524 4.19647 11.0565 4.19821 10.9579C4.20309 10.8679 4.17807 10.7787 4.12704 10.7044C4.07601 10.63 4.00182 10.5746 3.91604 10.5468C3.83025 10.5189 3.73767 10.5202 3.6527 10.5505C3.56773 10.5807 3.49513 10.6382 3.44621 10.7139C3.39119 10.7987 3.30674 10.8601 3.20913 10.8863C3.11153 10.9125 3.00768 10.9016 2.91762 10.8558C2.82755 10.8099 2.75765 10.7324 2.72138 10.6381C2.68511 10.5437 2.68505 10.4393 2.72121 10.3449C2.75398 10.2607 2.75794 10.1681 2.73248 10.0814C2.70701 9.99467 2.65356 9.91884 2.58046 9.86573C2.50736 9.81262 2.41873 9.78521 2.32841 9.78778C2.23809 9.79035 2.15117 9.82276 2.08121 9.87995C2.00263 9.94306 1.90351 9.97494 1.80286 9.96947C1.70222 9.96399 1.60714 9.92155 1.53587 9.85028C1.4646 9.77901 1.42216 9.68393 1.41668 9.58329C1.41121 9.48265 1.44309 9.38353 1.50621 9.30495C1.56339 9.23499 1.5958 9.14806 1.59837 9.05774C1.60094 8.96742 1.57353 8.87879 1.52042 8.80569C1.46731 8.73259 1.39149 8.67914 1.30479 8.65368C1.2181 8.62821 1.12541 8.63218 1.04121 8.66495C0.946839 8.7011 0.842426 8.70104 0.7481 8.66477C0.653774 8.62851 0.576215 8.5586 0.530375 8.46854C0.484536 8.37847 0.473663 8.27463 0.499852 8.17702C0.526042 8.07942 0.58744 7.99496 0.672208 7.93994C0.747977 7.89102 0.80545 7.81843 0.835685 7.73346C0.86592 7.64849 0.867221 7.5559 0.839386 7.47012C0.811551 7.38433 0.75614 7.31015 0.681776 7.25912C0.607413 7.20808 0.518266 7.18306 0.428208 7.18794C0.334542 7.1847 0.244831 7.14939 0.174086 7.08792C0.103341 7.02644 0.0558555 6.94254 0.0395747 6.85024C0.0232938 6.75794 0.0392056 6.66285 0.0846475 6.58088C0.130089 6.49891 0.202304 6.43504 0.289208 6.39994C0.376553 6.37693 0.453821 6.32565 0.508957 6.2541C0.564092 6.18256 0.593993 6.09477 0.593993 6.00445C0.593993 5.91412 0.564092 5.82633 0.508957 5.75479C0.453821 5.68324 0.376553 5.63196 0.289208 5.60895C0.194933 5.58007 0.114264 5.5181 0.0620518 5.43446C0.00983991 5.35082 -0.0103997 5.25114 0.00505929 5.15376C0.0205183 5.05638 0.0706353 4.96786 0.146183 4.9045C0.221731 4.84114 0.317624 4.80721 0.416208 4.80895C0.506266 4.81383 0.595412 4.78881 0.669776 4.73777C0.74414 4.68674 0.79955 4.61256 0.827386 4.52677C0.855221 4.44099 0.85392 4.3484 0.823685 4.26343C0.79345 4.17846 0.735977 4.10587 0.660208 4.05695C0.57544 4.00193 0.514042 3.91747 0.487853 3.81987C0.461663 3.72226 0.472536 3.61842 0.518375 3.52835C0.564214 3.43829 0.641774 3.36839 0.7361 3.33212C0.830426 3.29585 0.934839 3.29579 1.02921 3.33195C1.11341 3.36471 1.2061 3.36868 1.29279 3.34321C1.37949 3.31775 1.45531 3.2643 1.50842 3.1912C1.56153 3.1181 1.58894 3.02947 1.58637 2.93915C1.5838 2.84883 1.55139 2.7619 1.49421 2.69195C1.43109 2.61336 1.39921 2.51424 1.40468 2.4136C1.41016 2.31296 1.4526 2.21788 1.52387 2.14661C1.59514 2.07534 1.69022 2.0329 1.79086 2.02742C1.89151 2.02195 1.99063 2.05383 2.06921 2.11695C2.13917 2.17413 2.22609 2.20654 2.31641 2.20911C2.40673 2.21168 2.49536 2.18427 2.56846 2.13116C2.64156 2.07805 2.69501 2.00223 2.72048 1.91553C2.74594 1.82884 2.74198 1.73615 2.70921 1.65195C2.67305 1.55758 2.67311 1.45316 2.70938 1.35884C2.74565 1.26451 2.81555 1.18695 2.90562 1.14111C2.99568 1.09527 3.09953 1.0844 3.19713 1.11059C3.29474 1.13678 3.37919 1.19818 3.43421 1.28295C3.48276 1.36145 3.55644 1.42123 3.64328 1.45255C3.73011 1.48387 3.82498 1.4849 3.91247 1.45547C3.99996 1.42603 4.07493 1.36787 4.12517 1.29043C4.17541 1.21299 4.19798 1.12084 4.18921 1.02895C4.18695 0.930175 4.22052 0.833925 4.28371 0.757983C4.34691 0.682041 4.43545 0.63154 4.53299 0.615813C4.63053 0.600085 4.73046 0.620194 4.81432 0.672423C4.89818 0.724652 4.96031 0.805471 4.98921 0.899945C5.01222 0.98729 5.06351 1.06456 5.13505 1.11969C5.2066 1.17483 5.29438 1.20473 5.38471 1.20473C5.47503 1.20473 5.56282 1.17483 5.63437 1.11969C5.70591 1.06456 5.75719 0.98729 5.78021 0.899945H5.78921Z" fill="#FF118E"/>
</svg>
