<svg xmlns="http://www.w3.org/2000/svg" xmlns:xlink="http://www.w3.org/1999/xlink" viewBox="0 0 234.02 234.02"><defs><style>.cls-1{fill:url(#linear-gradient);}.cls-2{fill:#fff;}</style><linearGradient id="linear-gradient" y1="117.01" x2="234.02" y2="117.01" gradientUnits="userSpaceOnUse"><stop offset="0" stop-color="#ec297b"/><stop offset="1" stop-color="#f0458c"/></linearGradient></defs><g id="Layer_2" data-name="Layer 2"><g id="Layer_1-2" data-name="Layer 1"><path class="cls-1" d="M234,117c0,6-8.86,11.24-9.77,17-.92,5.91,5.88,13.62,4.08,19.18s-11.9,7.9-14.57,13.12,1.39,14.74-2.08,19.5-13.73,3.8-17.9,8-3.2,14.42-8,17.9-14.22-.62-19.49,2.08-7.47,12.73-13.13,14.56-13.27-5-19.18-4.07c-5.75.9-11,9.77-17,9.77s-11.24-8.87-17-9.77-13.61,5.88-19.17,4.07S73,216.43,67.72,213.76,53,215.14,48.23,211.68s-3.81-13.73-8-17.9-14.43-3.2-17.91-8,.62-14.21-2.08-19.49S7.54,158.84,5.7,153.18s5-13.27,4.08-19.18C8.87,128.25,0,123,0,117s8.87-11.24,9.78-17S3.89,86.4,5.7,80.84,17.59,73,20.26,67.72,18.88,53,22.34,48.23s13.74-3.81,17.91-8,3.2-14.43,8-17.91,14.21.62,19.49-2.08S75.19,7.54,80.85,5.7s13.27,5,19.17,4.07S111,0,117,0s11.24,8.87,17,9.77c5.91.93,13.62-5.88,19.18-4.07s7.9,11.89,13.13,14.56S181,18.88,185.8,22.34s3.8,13.74,8,17.91,14.42,3.19,17.9,8-.61,14.21,2.08,19.49,12.73,7.46,14.57,13.12-5,13.28-4.08,19.18S234,111,234,117Z"/><polygon class="cls-2" points="117.01 197.03 118.94 202.17 124.43 202.42 120.14 205.85 121.59 211.14 117.01 208.12 112.43 211.14 113.89 205.85 109.59 202.42 115.08 202.17 117.01 197.03"/><polygon class="cls-2" points="96.92 195.67 98.26 199.23 102.06 199.4 99.09 201.77 100.1 205.44 96.92 203.34 93.75 205.44 94.76 201.77 91.79 199.4 95.58 199.23 96.92 195.67"/><polygon class="cls-2" points="80.79 191.1 81.69 193.5 84.26 193.62 82.25 195.22 82.93 197.69 80.79 196.28 78.64 197.69 79.33 195.22 77.32 193.62 79.88 193.5 80.79 191.1"/><polygon class="cls-2" points="153.24 191.1 154.14 193.5 156.71 193.62 154.7 195.22 155.38 197.69 153.24 196.28 151.09 197.69 151.77 195.22 149.77 193.62 152.33 193.5 153.24 191.1"/><polygon class="cls-2" points="137.1 195.67 138.44 199.23 142.23 199.4 139.26 201.77 140.27 205.44 137.1 203.34 133.93 205.44 134.94 201.77 131.96 199.4 135.76 199.23 137.1 195.67"/><polygon class="cls-2" points="117.01 23.17 118.94 28.31 124.43 28.56 120.14 31.98 121.59 37.27 117.01 34.25 112.43 37.27 113.89 31.98 109.59 28.56 115.08 28.31 117.01 23.17"/><polygon class="cls-2" points="96.92 29.15 98.26 32.71 102.06 32.88 99.09 35.25 100.1 38.92 96.92 36.82 93.75 38.92 94.76 35.25 91.79 32.88 95.58 32.71 96.92 29.15"/><polygon class="cls-2" points="80.79 37.08 81.69 39.49 84.26 39.6 82.25 41.21 82.93 43.68 80.79 42.27 78.64 43.68 79.33 41.21 77.32 39.6 79.88 39.49 80.79 37.08"/><polygon class="cls-2" points="153.24 37.08 154.14 39.49 156.71 39.6 154.7 41.21 155.38 43.68 153.24 42.27 151.09 43.68 151.77 41.21 149.77 39.6 152.33 39.49 153.24 37.08"/><polygon class="cls-2" points="137.1 29.15 138.44 32.71 142.23 32.88 139.26 35.25 140.27 38.92 137.1 36.82 133.93 38.92 134.94 35.25 131.96 32.88 135.76 32.71 137.1 29.15"/><path class="cls-2" d="M85.29,61.8,82.2,76.68h.41c5.35,0,9.61-5.87,9.59-10.89,0-3.82-2.51-7.22-8.87-7.19-7.83,0-16.72,5.29-16.67,16.34a9.35,9.35,0,0,0,1,4.55c-4.42,0-7.17-1.64-7.19-6.13,0-9.24,11.57-17.79,24.23-17.85,9.84,0,14.28,5.1,14.31,10.58a12.63,12.63,0,0,1-6.65,10.68c5.69,1.11,7.92,5.72,7.94,10.75,0,6.42-3.39,19.3-14.57,19.35-2.88,0-6.63-.85-6.65-4.93a10.63,10.63,0,0,1,.85-3.89c1.68,1.73,3,2.4,4.5,2.39,4.88,0,6.6-7,6.57-12.08,0-4.69-1.51-8.5-6.39-8.48-.54,0-1.88.08-3.08.22l-5.38,25.67-9.65,0,8.92-42.62Z"/><path class="cls-2" d="M116.41,100.37c5.29,0,8.49-3,11.82-6.81h2.28c-3.79,6.17-9.45,12.42-18.36,12.46-6.29,0-10.46-3-10.49-10.6s4.24-23.85,18-23.92c6,0,7.38,3.05,7.4,6.4,0,7.7-7.31,13.69-15.34,14.2-.07.93-.13,1.87-.12,2.68C111.58,99.32,113.2,100.38,116.41,100.37ZM120.18,75c-3.41,0-6.66,7.19-8,13.83,5.15-.36,9.68-5.53,9.66-11.09C121.86,76.11,121.46,75,120.18,75Z"/><path class="cls-2" d="M156.08,93.43a40.15,40.15,0,0,1-10.21,8.42c-2.8,3-7.08,4-10.5,4.06-6.82,0-9.79-4.44-9.81-8.53a6.87,6.87,0,0,1,3.52-6.24,101.64,101.64,0,0,0,8.15-19.86l9.91-1.38c.87,17.34,1.56,19.95,1.57,24.37a9.82,9.82,0,0,1-.25,2.54,38.79,38.79,0,0,0,4.81-3.36Zm-25.16,3.39a1.9,1.9,0,0,1-1.81-.86c0,3.15,1.15,4.68,4.1,4.67s5.82-1.57,5.8-6.25c0-3.49-.63-5.56-1.35-15.87a75.54,75.54,0,0,1-5.36,12.68,2.54,2.54,0,0,1,1.55,2.34A3.17,3.17,0,0,1,130.92,96.82Z"/><path class="cls-2" d="M164.86,94.67a9.33,9.33,0,0,0-.32,2.34c0,1.41.54,2.41,2.35,2.4a5.41,5.41,0,0,0,1.74-.21c-1.85,5.77-4.79,6.58-7.07,6.59-4.69,0-6.71-3.25-6.73-7.53a16.26,16.26,0,0,1,.38-3.55l4.2-20.11H157.2l.53-2.68h2.21l2-9.25,9.9-1.38s-1,4.55-2.23,10.59l4,0-.52,2.68-4,0Z"/><path class="cls-2" d="M71.84,132.71a3.84,3.84,0,0,1-3.09-1.4,7,7,0,0,0,3-5.77c0-2.34-1.29-4.48-5-4.46s-6.15,2.1-6.13,6.12c0,9.84,15.11,11.11,15.18,25.58,0,11.25-9,16.78-18.75,16.82-7.63,0-14.21-3.29-14.24-11.46,0-7.23,5.11-11,9.79-11,2.34,0,5.7.91,5.91,4.39-3.61,0-7.82,1.71-7.8,6.33a6.1,6.1,0,0,0,6.45,6.4c4.49,0,7.76-3.31,7.73-8.93-.05-11.46-13.79-15.48-13.84-25.32,0-7,6.78-12,15.42-12.06,3.14,0,10.78.63,10.82,8C77.31,129.81,75.18,132.69,71.84,132.71Z"/><path class="cls-2" d="M92.26,162.82c5.29,0,8.49-3,11.82-6.82h2.28c-3.79,6.18-9.45,12.43-18.36,12.47-6.29,0-10.46-3-10.49-10.6s4.24-23.86,18-23.92c6,0,7.38,3.05,7.4,6.4,0,7.7-7.31,13.69-15.34,14.19-.07.94-.13,1.88-.13,2.68C87.43,161.77,89,162.83,92.26,162.82ZM96,137.49c-3.42,0-6.66,7.19-8,13.83,5.15-.36,9.68-5.54,9.66-11.09C97.71,138.55,97.31,137.48,96,137.49Z"/><path class="cls-2" d="M121,121l-7.54,36.19a9.35,9.35,0,0,0-.26,2.15c0,1.87.88,2.47,2.76,2.46,2.61,0,5-2.56,6-5.92h2.81c-3.77,10.93-10.39,12.43-14,12.45-4,0-7.17-2.38-7.2-8A22.24,22.24,0,0,1,104,156l7-33.57Z"/><path class="cls-2" d="M138.65,121l-7.54,36.19a9.41,9.41,0,0,0-.26,2.15c0,1.87.88,2.47,2.76,2.47,2.61,0,5-2.57,6-5.92l2.81,0c-3.77,10.93-10.39,12.44-14,12.45-4,0-7.17-2.38-7.2-8a22.32,22.32,0,0,1,.52-4.36l7-33.58Z"/><path class="cls-2" d="M153.27,162.55c5.29,0,8.49-3,11.83-6.82h2.27c-3.79,6.18-9.45,12.43-18.36,12.47-6.29,0-10.46-3-10.49-10.6s4.25-23.86,18-23.91c6,0,7.39,3,7.4,6.39,0,7.7-7.31,13.69-15.34,14.2-.06.93-.12,1.87-.12,2.68C148.45,161.5,150.06,162.56,153.27,162.55Zm3.78-25.33c-3.42,0-6.67,7.2-8,13.83,5.16-.36,9.69-5.53,9.66-11.09C158.72,138.28,158.32,137.22,157.05,137.22Z"/><path class="cls-2" d="M179.33,134.18l-.85,4.15c2.34-2,4.87-4.17,8.08-4.19,3,0,4.63,2.46,4.65,5a4.69,4.69,0,0,1-4.8,4.91c-3.75,0-1.9-4.41-3.91-4.41s-3.21,1-4.87,2.57l-5.25,25.46-9.64,0,6.95-33.51Z"/></g></g></svg>