<svg width="148" height="173" viewBox="0 0 148 173" fill="none" xmlns="http://www.w3.org/2000/svg">
<path d="M74 156C114.869 156 148 122.869 148 82C148 41.1309 114.869 8 74 8C33.1309 8 0 41.1309 0 82C0 122.869 33.1309 156 74 156Z" fill="#CAF4FF"/>
<path d="M114.187 7H33.8127C30.6024 7 28 9.56722 28 12.7341V116.266C28 119.433 30.6024 122 33.8127 122H114.187C117.398 122 120 119.433 120 116.266V12.7341C120 9.56722 117.398 7 114.187 7Z" fill="#20578E"/>
<path d="M84 115H100L87.6481 103L84 115Z" fill="#79B6CC"/>
<path d="M112 14V102.648C112 105.924 110.71 109.066 108.414 111.382C106.119 113.698 103.005 115 99.7587 115C96.5121 115 93.3984 113.699 91.1028 111.382C88.8071 109.066 87.5174 105.924 87.5174 102.648V88.5403H36V14H112Z" fill="white"/>
<path d="M88 88H36V115H88V88Z" fill="white"/>
<path d="M74 13C77.866 13 81 10.0899 81 6.5C81 2.91015 77.866 0 74 0C70.134 0 67 2.91015 67 6.5C67 10.0899 70.134 13 74 13Z" fill="#20578E"/>
<path d="M89.4117 19H58.5883C56.841 19 55.1652 18.2625 53.9297 16.9497C52.6941 15.637 52 13.8565 52 12H96C96 13.8565 95.3059 15.637 94.0703 16.9497C92.8348 18.2625 91.159 19 89.4117 19Z" fill="#20578E"/>
<path d="M88 95V115H25.4022C22.1129 115 18.9584 113.691 16.6325 111.362C14.3067 109.032 13 105.873 13 102.578V95H88Z" fill="#79B6CC"/>
<path d="M73.9517 81.8978C87.1783 81.8978 97.9 71.1755 97.8992 57.9489C97.8984 44.7223 87.1755 34 73.9489 34C60.7223 34 50.0006 44.7223 50.0014 57.9489C50.0022 71.1755 60.7251 81.8978 73.9517 81.8978Z" fill="#ff118e"/>
<path d="M25.6114 31.3036L30 30L25.6168 28.6964C24.5965 28.3928 23.668 27.8395 22.9153 27.0866C22.1626 26.3337 21.6095 25.4049 21.306 24.3844L19.9973 20L18.694 24.3844C18.3907 25.405 17.8376 26.3339 17.0849 27.0868C16.3322 27.8397 15.4036 28.3929 14.3832 28.6964L10 30L14.3832 31.3036C15.4035 31.6072 16.332 32.1605 17.0847 32.9134C17.8374 33.6663 18.3905 34.5951 18.694 35.6156L19.9973 40L21.3006 35.6156C21.6043 34.5951 22.1575 33.6665 22.9101 32.9136C23.6628 32.1608 24.5912 31.6074 25.6114 31.3036Z" fill="#79B6CC"/>
<path d="M45.0259 45.0872L47 44.4994L45.0259 43.9128C44.5664 43.7762 44.1483 43.5272 43.8093 43.1884C43.4703 42.8495 43.2212 42.4315 43.0845 41.9722L42.5023 40L41.9155 41.9722C41.7789 42.4316 41.5299 42.8497 41.1909 43.1886C40.8519 43.5274 40.4337 43.7764 39.9741 43.9128L38 44.4994L39.9741 45.0872C40.4337 45.2236 40.8519 45.4726 41.1909 45.8114C41.5299 46.1503 41.7789 46.5684 41.9155 47.0278L42.5023 49L43.0891 47.0278C43.2253 46.569 43.4738 46.1513 43.8119 45.8125C44.15 45.4737 44.5672 45.2244 45.0259 45.0872Z" fill="#79B6CC"/>
<path d="M104.246 31.5203L106 30.999L104.246 30.4776C103.838 30.3559 103.467 30.1345 103.166 29.8334C102.865 29.5323 102.643 29.1609 102.521 28.7529L102 27L101.479 28.7539C101.357 29.1621 101.136 29.5336 100.835 29.8347C100.534 30.1359 100.162 30.3572 99.7539 30.4787L98 31L99.7539 31.5213C100.162 31.6426 100.534 31.8639 100.835 32.1651C101.136 32.4662 101.357 32.8378 101.479 33.2461L102 35L102.521 33.2461C102.643 32.8378 102.864 32.4662 103.165 32.1649C103.466 31.8636 103.838 31.642 104.246 31.5203Z" fill="#79B6CC"/>
<path d="M21.4932 55.478L25 54.5L21.4932 53.522C20.6768 53.2947 19.9338 52.8799 19.3316 52.3152C18.7294 51.7506 18.287 51.0539 18.0446 50.2883L17.0016 47L15.9554 50.2883C15.7128 51.0538 15.2704 51.7504 14.6682 52.315C14.066 52.8797 13.3232 53.2945 12.5068 53.522L9 54.5L12.5068 55.478C13.3231 55.7056 14.0659 56.1205 14.668 56.6852C15.2701 57.2498 15.7126 57.9463 15.9554 58.7117L16.9984 62L18.0414 58.7117C18.2843 57.9459 18.7272 57.249 19.3299 56.6844C19.9327 56.1197 20.6762 55.705 21.4932 55.478Z" fill="#79B6CC"/>
<path opacity="0.15" d="M74 173C103.271 173 127 170.538 127 167.5C127 164.462 103.271 162 74 162C44.7289 162 21 164.462 21 167.5C21 170.538 44.7289 173 74 173Z" fill="black"/>
</svg>
