<svg width="11" height="15" viewBox="0 0 11 15" fill="none" xmlns="http://www.w3.org/2000/svg">
<path d="M1.08951 4.07745C0.886964 2.74338 1.82759 1.54506 3.26452 1.10603C3.51951 1.02807 3.79464 1.05026 4.03384 1.16809C4.27304 1.28592 4.45832 1.49051 4.55192 1.74019L5.01322 2.97032C5.08748 3.16822 5.10091 3.38379 5.05178 3.58937C5.00265 3.79496 4.89321 3.98117 4.7375 4.12411L3.36526 5.38075C3.29762 5.44282 3.24722 5.52136 3.21897 5.60872C3.19072 5.69607 3.18559 5.78925 3.20407 5.87917L3.2168 5.93431L3.24967 6.07217C3.42033 6.74201 3.68035 7.38583 4.02275 7.98631C4.39572 8.62438 4.85859 9.20546 5.39711 9.71168L5.43953 9.74986C5.50803 9.81066 5.59112 9.85268 5.6807 9.87183C5.77028 9.89097 5.86329 9.88658 5.95067 9.85908L7.72482 9.30022C7.92645 9.23691 8.14239 9.2353 8.34494 9.29557C8.5475 9.35584 8.72742 9.47526 8.86164 9.63851L9.70152 10.6576C10.0515 11.0818 10.0091 11.7053 9.60714 12.0797C8.50744 13.1052 6.99522 13.3151 5.94325 12.4699C4.65375 11.4298 3.5667 10.1612 2.73641 8.72757C1.89938 7.29503 1.34027 5.71737 1.08845 4.07745H1.08951ZM4.3165 5.94916L5.45331 4.90567C5.76491 4.61991 5.984 4.24755 6.08245 3.83638C6.18089 3.42521 6.15421 2.99399 6.00581 2.5981L5.54557 1.36797C5.35717 0.86557 4.9843 0.453912 4.50294 0.216876C4.02158 -0.0201597 3.46795 -0.064736 2.95486 0.0922308C1.17011 0.638369 -0.262577 2.23861 0.0407154 4.23758C0.252808 5.63314 0.741681 7.40836 1.82017 9.26204C2.71595 10.8079 3.88856 12.1757 5.2794 13.2971C6.85736 14.5644 8.96344 14.1317 10.3314 12.857C11.1437 12.0998 11.2265 10.8421 10.5213 9.98528L9.68137 8.96511C9.41269 8.639 9.05273 8.40057 8.64763 8.28041C8.24254 8.16024 7.81079 8.16381 7.40774 8.29066L5.93476 8.75408C5.55445 8.36196 5.22132 7.92668 4.94217 7.45714C4.67252 6.98243 4.46238 6.47632 4.3165 5.95022V5.94916Z" fill="#6F7A97"/>
</svg>
