<svg width="23" height="22" viewBox="0 0 23 22" fill="none" xmlns="http://www.w3.org/2000/svg">
<path d="M21.7202 20.2356L12.2985 20.2148L12.1079 19.8058L12.2674 19.6288C12.7193 19.1878 13.0926 18.6728 13.3708 18.106C13.9521 16.8949 13.8381 15.8735 13.728 14.8825C13.614 13.8547 13.496 12.7919 14.2622 11.714C14.8243 10.9222 15.923 10.0205 17.2122 10.0508C18.6163 10.0938 19.5858 11.2715 19.9374 11.7754C20.6821 12.843 20.6423 13.8212 20.5992 14.8561C20.5601 15.8073 20.5195 16.7912 21.0417 18.0501C21.2879 18.6336 21.6099 19.182 21.9993 19.6814L22.1205 19.8409L21.9482 20.2212L21.7202 20.2356ZM13.1659 19.5818L21.1565 19.5993C20.8813 19.1859 20.6466 18.747 20.4557 18.2885C19.8808 16.9012 19.9263 15.7986 19.9661 14.8266C20.0076 13.8212 20.0403 13.0271 19.4176 12.1349C19.121 11.7084 18.3101 10.7157 17.1931 10.6815C16.2284 10.64 15.2884 11.3616 14.7797 12.0775C14.1538 12.9586 14.2487 13.8157 14.3587 14.8083C14.4735 15.836 14.6035 17.0017 13.9433 18.3762C13.7337 18.8079 13.4727 19.2127 13.1659 19.5818Z" fill="url(#paint0_linear_482_6869)"/>
<path d="M17.0407 10.6352C16.9562 10.6352 16.875 10.6016 16.8152 10.5418C16.7554 10.4819 16.7218 10.4008 16.7218 10.3162L16.717 9.3531C16.717 9.26852 16.7506 9.1874 16.8105 9.12759C16.8703 9.06778 16.9514 9.03418 17.036 9.03418C17.1205 9.03418 17.2017 9.06778 17.2615 9.12759C17.3213 9.1874 17.3549 9.26852 17.3549 9.3531L17.3597 10.3162C17.3597 10.4008 17.3261 10.4819 17.2663 10.5418C17.2064 10.6016 17.1253 10.6352 17.0407 10.6352Z" fill="url(#paint1_linear_482_6869)"/>
<path d="M16.9954 22C16.9555 22 16.9156 22 16.8766 21.9952C15.9756 21.9251 15.5419 21.107 15.4956 21.0145C15.4675 20.9406 15.4678 20.8589 15.4965 20.7852C15.5252 20.7115 15.5803 20.6511 15.651 20.6157C15.7218 20.5803 15.8031 20.5725 15.8793 20.5938C15.9555 20.615 16.0211 20.6638 16.0633 20.7307C16.0753 20.7546 16.3631 21.3183 16.926 21.363C17.3302 21.3964 17.7233 21.1461 17.9386 20.7291C17.9544 20.6871 17.9788 20.649 18.0104 20.6171C18.0419 20.5852 18.0798 20.5603 18.1216 20.5441C18.1634 20.5279 18.2081 20.5206 18.2529 20.5229C18.2977 20.5251 18.3415 20.5367 18.3815 20.557C18.4214 20.5773 18.4567 20.6058 18.4849 20.6407C18.5131 20.6755 18.5337 20.7159 18.5452 20.7592C18.5568 20.8026 18.5591 20.8478 18.5519 20.8921C18.5448 20.9364 18.5284 20.9786 18.5039 21.0161C18.1961 21.6237 17.6141 22 16.9954 22Z" fill="url(#paint2_linear_482_6869)"/>
<path d="M10.3259 20.3608H0V1.11623C0 0.820184 0.117602 0.536269 0.326935 0.326936C0.536268 0.117604 0.820184 0 1.11623 0H12.1389L14.7063 2.57609V9.15624C14.7063 9.24082 14.6727 9.32194 14.6129 9.38175C14.553 9.44156 14.4719 9.47516 14.3873 9.47516C14.3028 9.47516 14.2216 9.44156 14.1618 9.38175C14.102 9.32194 14.0684 9.24082 14.0684 9.15624V2.8384L11.8734 0.634656H1.11623C0.98935 0.634656 0.867672 0.685058 0.777958 0.774773C0.688244 0.864487 0.637843 0.986163 0.637843 1.11304V19.7229H10.3259C10.4105 19.7229 10.4916 19.7565 10.5514 19.8163C10.6112 19.8761 10.6448 19.9572 10.6448 20.0418C10.6448 20.1264 10.6112 20.2075 10.5514 20.2673C10.4916 20.3271 10.4105 20.3608 10.3259 20.3608Z" fill="url(#paint3_linear_482_6869)"/>
<path d="M11.0091 4.16432C10.9245 4.16432 10.8434 4.13072 10.7836 4.07091C10.7238 4.0111 10.6902 3.92999 10.6902 3.8454V2.00044C10.6902 1.91586 10.7238 1.83474 10.7836 1.77493C10.8434 1.71512 10.9245 1.68152 11.0091 1.68152C11.0937 1.68152 11.1748 1.71512 11.2346 1.77493C11.2944 1.83474 11.328 1.91586 11.328 2.00044V3.8446C11.3281 3.88655 11.32 3.92811 11.304 3.9669C11.288 4.00568 11.2645 4.04093 11.2349 4.07063C11.2053 4.10033 11.1701 4.12389 11.1313 4.13997C11.0926 4.15605 11.0511 4.16432 11.0091 4.16432Z" fill="url(#paint4_linear_482_6869)"/>
<path d="M12.7297 4.16433H11.0091C10.9245 4.16433 10.8434 4.13073 10.7836 4.07092C10.7238 4.01111 10.6902 3.92999 10.6902 3.84541C10.6902 3.76083 10.7238 3.67971 10.7836 3.6199C10.8434 3.56009 10.9245 3.52649 11.0091 3.52649H12.7297C12.8143 3.52649 12.8954 3.56009 12.9552 3.6199C13.015 3.67971 13.0486 3.76083 13.0486 3.84541C13.0486 3.92999 13.015 4.01111 12.9552 4.07092C12.8954 4.13073 12.8143 4.16433 12.7297 4.16433Z" fill="url(#paint5_linear_482_6869)"/>
<path d="M7.81438 6.10415H2.03792C1.95333 6.10415 1.87221 6.07055 1.8124 6.01074C1.75259 5.95093 1.71899 5.86981 1.71899 5.78523C1.71899 5.70065 1.75259 5.61953 1.8124 5.55972C1.87221 5.49991 1.95333 5.46631 2.03792 5.46631H7.81438C7.89896 5.46631 7.98008 5.49991 8.03989 5.55972C8.0997 5.61953 8.1333 5.70065 8.1333 5.78523C8.1333 5.86981 8.0997 5.95093 8.03989 6.01074C7.98008 6.07055 7.89896 6.10415 7.81438 6.10415Z" fill="url(#paint6_linear_482_6869)"/>
<path d="M9.53489 8.39566H2.04023C1.95565 8.39566 1.87453 8.36205 1.81472 8.30225C1.75491 8.24244 1.72131 8.16132 1.72131 8.07673C1.72131 7.99215 1.75491 7.91103 1.81472 7.85122C1.87453 7.79141 1.95565 7.75781 2.04023 7.75781H9.53489C9.61947 7.75781 9.70059 7.79141 9.7604 7.85122C9.82021 7.91103 9.85381 7.99215 9.85381 8.07673C9.85381 8.16132 9.82021 8.24244 9.7604 8.30225C9.70059 8.36205 9.61947 8.39566 9.53489 8.39566Z" fill="url(#paint7_linear_482_6869)"/>
<path d="M9.28939 10.6911H2.03792C1.95333 10.6911 1.87221 10.6575 1.8124 10.5977C1.75259 10.5378 1.71899 10.4567 1.71899 10.3721C1.71899 10.2876 1.75259 10.2064 1.8124 10.1466C1.87221 10.0868 1.95333 10.0532 2.03792 10.0532H9.28939C9.37398 10.0532 9.45509 10.0868 9.5149 10.1466C9.57471 10.2064 9.60831 10.2876 9.60831 10.3721C9.60831 10.4567 9.57471 10.5378 9.5149 10.5977C9.45509 10.6575 9.37398 10.6911 9.28939 10.6911Z" fill="url(#paint8_linear_482_6869)"/>
<path d="M7.81438 12.9785H2.03792C1.95333 12.9785 1.87221 12.9449 1.8124 12.8851C1.75259 12.8253 1.71899 12.7442 1.71899 12.6596C1.71899 12.575 1.75259 12.4939 1.8124 12.4341C1.87221 12.3743 1.95333 12.3407 2.03792 12.3407H7.81438C7.89896 12.3407 7.98008 12.3743 8.03989 12.4341C8.0997 12.4939 8.1333 12.575 8.1333 12.6596C8.1333 12.7442 8.0997 12.8253 8.03989 12.8851C7.98008 12.9449 7.89896 12.9785 7.81438 12.9785Z" fill="url(#paint9_linear_482_6869)"/>
<defs>
<linearGradient id="paint0_linear_482_6869" x1="17.1142" y1="10.05" x2="17.1142" y2="20.2356" gradientUnits="userSpaceOnUse">
<stop stop-color="#F9F295"/>
<stop offset="0.375" stop-color="#E0AA3E"/>
<stop offset="0.692708" stop-color="#F7EF8A"/>
<stop offset="1" stop-color="#B88A44"/>
</linearGradient>
<linearGradient id="paint1_linear_482_6869" x1="17.0384" y1="9.03418" x2="17.0384" y2="10.6352" gradientUnits="userSpaceOnUse">
<stop stop-color="#F9F295"/>
<stop offset="0.375" stop-color="#E0AA3E"/>
<stop offset="0.692708" stop-color="#F7EF8A"/>
<stop offset="1" stop-color="#B88A44"/>
</linearGradient>
<linearGradient id="paint2_linear_482_6869" x1="17.0154" y1="20.5225" x2="17.0154" y2="22" gradientUnits="userSpaceOnUse">
<stop stop-color="#F9F295"/>
<stop offset="0.375" stop-color="#E0AA3E"/>
<stop offset="0.692708" stop-color="#F7EF8A"/>
<stop offset="1" stop-color="#B88A44"/>
</linearGradient>
<linearGradient id="paint3_linear_482_6869" x1="7.35313" y1="0" x2="7.35313" y2="20.3608" gradientUnits="userSpaceOnUse">
<stop stop-color="#F9F295"/>
<stop offset="0.375" stop-color="#E0AA3E"/>
<stop offset="0.692708" stop-color="#F7EF8A"/>
<stop offset="1" stop-color="#B88A44"/>
</linearGradient>
<linearGradient id="paint4_linear_482_6869" x1="11.0091" y1="1.68152" x2="11.0091" y2="4.16432" gradientUnits="userSpaceOnUse">
<stop stop-color="#F9F295"/>
<stop offset="0.375" stop-color="#E0AA3E"/>
<stop offset="0.692708" stop-color="#F7EF8A"/>
<stop offset="1" stop-color="#B88A44"/>
</linearGradient>
<linearGradient id="paint5_linear_482_6869" x1="11.8694" y1="3.52649" x2="11.8694" y2="4.16433" gradientUnits="userSpaceOnUse">
<stop stop-color="#F9F295"/>
<stop offset="0.375" stop-color="#E0AA3E"/>
<stop offset="0.692708" stop-color="#F7EF8A"/>
<stop offset="1" stop-color="#B88A44"/>
</linearGradient>
<linearGradient id="paint6_linear_482_6869" x1="4.92615" y1="5.46631" x2="4.92615" y2="6.10415" gradientUnits="userSpaceOnUse">
<stop stop-color="#F9F295"/>
<stop offset="0.375" stop-color="#E0AA3E"/>
<stop offset="0.692708" stop-color="#F7EF8A"/>
<stop offset="1" stop-color="#B88A44"/>
</linearGradient>
<linearGradient id="paint7_linear_482_6869" x1="5.78756" y1="7.75781" x2="5.78756" y2="8.39566" gradientUnits="userSpaceOnUse">
<stop stop-color="#F9F295"/>
<stop offset="0.375" stop-color="#E0AA3E"/>
<stop offset="0.692708" stop-color="#F7EF8A"/>
<stop offset="1" stop-color="#B88A44"/>
</linearGradient>
<linearGradient id="paint8_linear_482_6869" x1="5.66365" y1="10.0532" x2="5.66365" y2="10.6911" gradientUnits="userSpaceOnUse">
<stop stop-color="#F9F295"/>
<stop offset="0.375" stop-color="#E0AA3E"/>
<stop offset="0.692708" stop-color="#F7EF8A"/>
<stop offset="1" stop-color="#B88A44"/>
</linearGradient>
<linearGradient id="paint9_linear_482_6869" x1="4.92615" y1="12.3407" x2="4.92615" y2="12.9785" gradientUnits="userSpaceOnUse">
<stop stop-color="#F9F295"/>
<stop offset="0.375" stop-color="#E0AA3E"/>
<stop offset="0.692708" stop-color="#F7EF8A"/>
<stop offset="1" stop-color="#B88A44"/>
</linearGradient>
</defs>
</svg>
