<svg width="28" height="25" viewBox="0 0 28 25" fill="none" xmlns="http://www.w3.org/2000/svg">
<path d="M27.9037 6.10367C27.9032 7.19053 27.6137 8.25739 27.0653 9.19324C26.5169 10.1291 25.7297 10.8997 24.7855 11.425C24.6525 11.4991 24.5158 11.5675 24.3772 11.6321C24.3415 11.6478 24.303 11.6559 24.264 11.6559C24.2117 11.6562 24.1605 11.6411 24.1165 11.6126C24.0724 11.5841 24.0376 11.5434 24.0161 11.4953C23.9863 11.429 23.9838 11.3535 24.009 11.2853C24.0343 11.2171 24.0853 11.1618 24.1509 11.1314C24.2773 11.0734 24.4017 11.0107 24.5224 10.9413C25.336 10.4896 26.0222 9.83692 26.5167 9.04451C27.0112 8.25211 27.2977 7.34603 27.3492 6.4114C27.4008 5.47677 27.2157 4.54427 26.8114 3.70151C26.4071 2.85876 25.7969 2.13342 25.038 1.59364C24.2791 1.05385 23.3966 0.717351 22.4732 0.615736C21.5498 0.51412 20.616 0.650725 19.7594 1.01273C18.9028 1.37474 18.1516 1.95026 17.5763 2.68522C17.0011 3.42017 16.6207 4.29044 16.4708 5.21425C16.4664 5.25097 16.4546 5.28638 16.4362 5.3184C16.4179 5.35042 16.3933 5.37838 16.3639 5.40057C16.3345 5.42277 16.301 5.43876 16.2654 5.44759C16.2298 5.45641 16.1927 5.45789 16.1565 5.45194C16.1203 5.44598 16.0856 5.43271 16.0546 5.41293C16.0236 5.39314 15.9969 5.36725 15.976 5.3368C15.9552 5.30635 15.9407 5.27197 15.9333 5.23572C15.926 5.19948 15.926 5.16211 15.9334 5.12587C16.1699 3.61364 16.9646 2.24728 18.1583 1.30045C19.352 0.353611 20.8566 -0.103792 22.3707 0.0198419C23.8849 0.143476 25.2968 0.839015 26.3237 1.96717C27.3505 3.09532 27.9166 4.57279 27.9084 6.10367" fill="url(#paint0_linear_482_6842)"/>
<path d="M21.8794 6.37829C21.8072 6.37829 21.7378 6.34935 21.6867 6.29785C21.6356 6.24634 21.6069 6.1765 21.6069 6.10367V2.23714C21.6069 2.16431 21.6356 2.09447 21.6867 2.04297C21.7378 1.99147 21.8072 1.96252 21.8794 1.96252C21.9517 1.96252 22.021 1.99147 22.0721 2.04297C22.1232 2.09447 22.1519 2.16431 22.1519 2.23714V6.10367C22.1519 6.1765 22.1232 6.24634 22.0721 6.29785C22.021 6.34935 21.9517 6.37829 21.8794 6.37829Z" fill="url(#paint1_linear_482_6842)"/>
<path d="M23.9 6.37822H21.8841C21.8483 6.37822 21.8129 6.37111 21.7798 6.35731C21.7467 6.34351 21.7167 6.32328 21.6914 6.29778C21.6661 6.27228 21.646 6.24201 21.6323 6.20869C21.6186 6.17537 21.6116 6.13966 21.6116 6.1036C21.6116 6.06754 21.6186 6.03183 21.6323 5.99851C21.646 5.96519 21.6661 5.93491 21.6914 5.90941C21.7167 5.88391 21.7467 5.86368 21.7798 5.84988C21.8129 5.83608 21.8483 5.82898 21.8841 5.82898H23.9C23.9358 5.82898 23.9713 5.83608 24.0043 5.84988C24.0374 5.86368 24.0674 5.88391 24.0927 5.90941C24.118 5.93491 24.1381 5.96519 24.1518 5.99851C24.1655 6.03183 24.1725 6.06754 24.1725 6.1036C24.1725 6.13966 24.1655 6.17537 24.1518 6.20869C24.1381 6.24201 24.118 6.27228 24.0927 6.29778C24.0674 6.32328 24.0374 6.34351 24.0043 6.35731C23.9713 6.37111 23.9358 6.37822 23.9 6.37822Z" fill="url(#paint2_linear_482_6842)"/>
<path d="M21.2798 20.2584H6.6307C5.98009 20.208 5.5058 20.0047 5.20124 19.6531C4.09048 18.3693 5.16447 15.2269 6.52132 11.2483C6.93998 10.0253 7.36995 8.76052 7.76031 7.4853C7.83481 7.24014 7.99039 6.72512 7.78483 6.25665C7.45293 5.49171 6.32897 5.17718 5.44452 5.0489C5.25594 5.02134 5.06735 4.99948 4.87877 4.98428C4.84311 4.98116 4.8084 4.97099 4.77664 4.95435C4.74488 4.93772 4.71668 4.91495 4.69365 4.88733C4.67062 4.85971 4.65322 4.82779 4.64243 4.7934C4.63164 4.759 4.62769 4.72279 4.63078 4.68686C4.63388 4.65092 4.64397 4.61594 4.66048 4.58393C4.67699 4.55192 4.69958 4.52351 4.72698 4.5003C4.75439 4.47709 4.78606 4.45955 4.82019 4.44868C4.85433 4.43781 4.89025 4.43382 4.92592 4.43694C5.12298 4.45405 5.32382 4.4759 5.52372 4.50441C7.00881 4.72106 7.93759 5.23609 8.28458 6.03619C8.56746 6.70135 8.3685 7.36653 8.28458 7.6459C7.89421 8.93062 7.45952 10.2001 7.03993 11.4269C5.84148 14.9352 4.70999 18.2477 5.6133 19.292C5.82075 19.5315 6.17057 19.6721 6.65051 19.7101H21.2789C21.3512 19.7101 21.4205 19.739 21.4716 19.7905C21.5227 19.842 21.5514 19.9119 21.5514 19.9847C21.5514 20.0576 21.5227 20.1274 21.4716 20.1789C21.4205 20.2304 21.3512 20.2594 21.2789 20.2594L21.2798 20.2584Z" fill="url(#paint3_linear_482_6842)"/>
<path d="M8.53058 24.18C8.21104 24.1801 7.89863 24.0848 7.63287 23.906C7.3671 23.7272 7.15993 23.473 7.03756 23.1756C6.91519 22.8781 6.88313 22.5507 6.94542 22.2349C7.00771 21.919 7.16157 21.6289 7.38752 21.4012C7.61346 21.1735 7.90135 21.0184 8.21475 20.9557C8.52816 20.8929 8.85302 20.9252 9.1482 21.0485C9.44338 21.1719 9.69562 21.3806 9.87303 21.6485C10.0504 21.9163 10.145 22.2311 10.1449 22.5532C10.1441 22.9844 9.97379 23.3977 9.67122 23.7026C9.36865 24.0076 8.95848 24.1792 8.53058 24.18ZM8.53058 21.4746C8.31887 21.4744 8.11187 21.5375 7.93575 21.6559C7.75963 21.7743 7.62231 21.9427 7.54117 22.1398C7.46002 22.3368 7.43869 22.5537 7.47987 22.763C7.52106 22.9723 7.62292 23.1645 7.77255 23.3154C7.92219 23.4664 8.11288 23.5692 8.32051 23.6109C8.52814 23.6526 8.74337 23.6313 8.93898 23.5497C9.13459 23.4681 9.30179 23.3298 9.41942 23.1524C9.53706 22.9751 9.59985 22.7665 9.59985 22.5532C9.60022 22.4113 9.57286 22.2708 9.51931 22.1396C9.46576 22.0084 9.38708 21.8892 9.28778 21.7887C9.18848 21.6882 9.07049 21.6084 8.94056 21.5538C8.81064 21.4993 8.67133 21.4711 8.53058 21.4708V21.4746Z" fill="url(#paint4_linear_482_6842)"/>
<path d="M19.2619 24.18C18.9424 24.18 18.6301 24.0845 18.3645 23.9056C18.0988 23.7267 17.8918 23.4724 17.7696 23.1749C17.6474 22.8774 17.6154 22.5501 17.6778 22.2343C17.7402 21.9185 17.8942 21.6285 18.1201 21.4009C18.3461 21.1733 18.634 21.0183 18.9474 20.9556C19.2608 20.8929 19.5856 20.9253 19.8807 21.0486C20.1758 21.172 20.428 21.3808 20.6054 21.6486C20.7828 21.9164 20.8773 22.2312 20.8772 22.5532C20.8767 22.9846 20.7063 23.3983 20.4035 23.7033C20.1006 24.0083 19.6901 24.1797 19.2619 24.18ZM19.2619 21.4746C19.0502 21.4744 18.8432 21.5375 18.6671 21.6559C18.491 21.7743 18.3537 21.9427 18.2725 22.1398C18.1914 22.3368 18.1701 22.5537 18.2112 22.763C18.2524 22.9723 18.3543 23.1645 18.5039 23.3154C18.6535 23.4664 18.8442 23.5692 19.0519 23.6109C19.2595 23.6526 19.4747 23.6313 19.6703 23.5497C19.8659 23.4681 20.0331 23.3298 20.1508 23.1524C20.2684 22.9751 20.3312 22.7665 20.3312 22.5532C20.3316 22.4113 20.3042 22.2708 20.2507 22.1396C20.1971 22.0084 20.1185 21.8892 20.0191 21.7887C19.9198 21.6882 19.8019 21.6084 19.6719 21.5538C19.542 21.4993 19.4027 21.4711 19.2619 21.4708V21.4746Z" fill="url(#paint5_linear_482_6842)"/>
<path d="M20.8827 10.8281C20.8504 10.8283 20.8184 10.8222 20.7884 10.81C20.7549 10.7977 20.724 10.7789 20.6977 10.7545C20.6713 10.7302 20.65 10.7008 20.6349 10.6682C20.6198 10.6355 20.6113 10.6002 20.6098 10.5642C20.6084 10.5282 20.6139 10.4923 20.6263 10.4584L21.0977 9.07205C21.325 8.45059 20.9091 7.72176 20.1671 7.44524L20.0624 7.40723C19.3213 7.12881 18.5339 7.40722 18.3048 8.03248L17.4562 10.5326C17.4312 10.601 17.3802 10.6566 17.3145 10.6871C17.2488 10.7177 17.1738 10.7207 17.1059 10.6955C17.038 10.6703 16.9828 10.619 16.9525 10.5528C16.9222 10.4866 16.9192 10.4109 16.9442 10.3425L17.7928 7.84148C18.1257 6.9359 19.227 6.51115 20.25 6.89124L20.3547 6.92926C21.3778 7.30935 21.9397 8.35462 21.6078 9.26209L21.1364 10.6475C21.1175 10.7002 21.0831 10.7457 21.0377 10.778C20.9923 10.8102 20.9383 10.8277 20.8827 10.8281Z" fill="url(#paint6_linear_482_6842)"/>
<path d="M19.4976 10.0736C19.4434 10.0738 19.3904 10.0573 19.3458 10.0261L17.7061 8.91149C17.6486 8.86979 17.6095 8.80718 17.597 8.73692C17.5846 8.66665 17.5997 8.59426 17.6393 8.53508C17.6789 8.47591 17.7398 8.43459 17.8092 8.41989C17.8785 8.40519 17.9507 8.41826 18.0106 8.45634L19.6504 9.57096C19.699 9.60381 19.7358 9.65153 19.7553 9.70708C19.7749 9.76264 19.7763 9.82306 19.7591 9.87943C19.742 9.9358 19.7073 9.98513 19.6602 10.0201C19.6131 10.0551 19.5561 10.0738 19.4976 10.0736Z" fill="url(#paint7_linear_482_6842)"/>
<path d="M17.987 10.7609C17.9329 10.761 17.8801 10.7448 17.8352 10.7143L17.2327 10.4235C17.1752 10.3818 17.1361 10.3192 17.1236 10.2489C17.1112 10.1787 17.1263 10.1063 17.1659 10.0471C17.2055 9.98793 17.2664 9.94662 17.3358 9.93192C17.4051 9.91721 17.4773 9.93028 17.5372 9.96835L18.1398 10.2591C18.1879 10.2921 18.2243 10.3398 18.2436 10.3952C18.263 10.4505 18.2642 10.5107 18.2471 10.5668C18.23 10.6229 18.1955 10.672 18.1487 10.7069C18.1019 10.7419 18.0453 10.7608 17.987 10.7609Z" fill="url(#paint8_linear_482_6842)"/>
<path d="M11.5758 6.00868L11.5728 7.61078L12.1178 7.61183L12.1208 6.00974L11.5758 6.00868Z" fill="url(#paint9_linear_482_6842)"/>
<path d="M12.8144 6.0142L12.7864 7.617L13.3313 7.62669L13.3593 6.02388L12.8144 6.0142Z" fill="url(#paint10_linear_482_6842)"/>
<path d="M14.2739 10.3532C14.2016 10.3532 14.1323 10.3243 14.0812 10.2728C14.0301 10.2213 14.0014 10.1514 14.0014 10.0786V8.66083C14.0014 8.08403 13.577 7.61556 13.0584 7.61556H12.0344C11.5139 7.61556 11.0915 8.08403 11.0915 8.66083V10.0681C11.0915 10.141 11.0628 10.2108 11.0117 10.2623C10.9606 10.3138 10.8913 10.3428 10.819 10.3428C10.7467 10.3428 10.6774 10.3138 10.6263 10.2623C10.5752 10.2108 10.5465 10.141 10.5465 10.0681V8.66463C10.5465 7.78566 11.215 7.07013 12.0363 7.07013H13.0566C13.8778 7.07013 14.5464 7.78566 14.5464 8.66463V10.0824C14.5454 10.1546 14.5162 10.2234 14.4652 10.2741C14.4142 10.3248 14.3455 10.3532 14.2739 10.3532Z" fill="url(#paint11_linear_482_6842)"/>
<path d="M6.41002 18.3959C6.33775 18.3985 6.26744 18.372 6.21457 18.3222C6.1617 18.2725 6.13059 18.2037 6.12809 18.1308C6.12559 18.058 6.1519 17.9872 6.20124 17.9339C6.25058 17.8806 6.3189 17.8492 6.39117 17.8467L19.9107 16.9041C20.0908 16.8932 20.263 16.8261 20.4035 16.712C20.5439 16.5979 20.6456 16.4425 20.6943 16.2674L21.92 12.1025C21.9586 11.9698 21.9679 11.8302 21.9474 11.6935C21.9269 11.5568 21.877 11.4262 21.8012 11.311C21.7343 11.2075 21.6453 11.1205 21.5407 11.056C21.4362 10.9916 21.3187 10.9514 21.1968 10.9385L21.1271 10.9318C20.648 10.8853 20.1665 10.8675 19.6853 10.8786L8.63813 10.5612C8.56825 10.5556 8.50318 10.5231 8.45639 10.4704C8.4096 10.4178 8.38466 10.3491 8.38672 10.2785C8.38878 10.2078 8.41768 10.1407 8.46745 10.0909C8.51722 10.0412 8.58407 10.0126 8.65417 10.011L19.6863 10.3294C20.182 10.3186 20.6778 10.337 21.1714 10.3845L21.2459 10.3921C21.4482 10.4131 21.6434 10.479 21.8175 10.5849C21.9916 10.6909 22.1403 10.8343 22.2529 11.005C22.374 11.1869 22.4536 11.3934 22.4862 11.6099C22.5188 11.8264 22.5036 12.0475 22.4415 12.2574L21.2213 16.4223C21.1403 16.7068 20.9734 16.9589 20.7438 17.1435C20.5142 17.3281 20.2332 17.436 19.9399 17.4524L19.5863 17.4695L6.43265 18.395L6.41002 18.3959Z" fill="url(#paint12_linear_482_6842)"/>
<path d="M13.1385 6.56257H11.7892C11.6449 6.56257 11.5065 6.50481 11.4045 6.40198C11.3024 6.29916 11.2451 6.15969 11.2451 6.01428V5.17903C11.2451 5.03361 11.3024 4.89415 11.4045 4.79132C11.5065 4.6885 11.6449 4.63074 11.7892 4.63074H13.1385C13.2827 4.63099 13.421 4.68883 13.5229 4.7916C13.6249 4.89437 13.6823 5.03369 13.6826 5.17903V6.01428C13.6823 6.15962 13.6249 6.29893 13.5229 6.4017C13.421 6.50447 13.2827 6.56232 13.1385 6.56257ZM13.1385 5.17903H11.7911V6.01333H13.1375L13.1385 5.17903Z" fill="url(#paint13_linear_482_6842)"/>
<path d="M5.60936 10.6563H0.306396V11.2055H5.60936V10.6563Z" fill="url(#paint14_linear_482_6842)"/>
<path d="M4.32421 15.0434H0V15.5926H4.32421V15.0434Z" fill="url(#paint15_linear_482_6842)"/>
<path d="M5.17579 12.9026H1.62854V13.4519H5.17579V12.9026Z" fill="url(#paint16_linear_482_6842)"/>
<defs>
<linearGradient id="paint0_linear_482_6842" x1="21.9182" y1="0" x2="21.9182" y2="11.6559" gradientUnits="userSpaceOnUse">
<stop stop-color="#F9F295"/>
<stop offset="0.375" stop-color="#E0AA3E"/>
<stop offset="0.692708" stop-color="#F7EF8A"/>
<stop offset="1" stop-color="#B88A44"/>
</linearGradient>
<linearGradient id="paint1_linear_482_6842" x1="21.8794" y1="1.96252" x2="21.8794" y2="6.37829" gradientUnits="userSpaceOnUse">
<stop stop-color="#F9F295"/>
<stop offset="0.375" stop-color="#E0AA3E"/>
<stop offset="0.692708" stop-color="#F7EF8A"/>
<stop offset="1" stop-color="#B88A44"/>
</linearGradient>
<linearGradient id="paint2_linear_482_6842" x1="22.8921" y1="5.82898" x2="22.8921" y2="6.37822" gradientUnits="userSpaceOnUse">
<stop stop-color="#F9F295"/>
<stop offset="0.375" stop-color="#E0AA3E"/>
<stop offset="0.692708" stop-color="#F7EF8A"/>
<stop offset="1" stop-color="#B88A44"/>
</linearGradient>
<linearGradient id="paint3_linear_482_6842" x1="13.0906" y1="4.43591" x2="13.0906" y2="20.2594" gradientUnits="userSpaceOnUse">
<stop stop-color="#F9F295"/>
<stop offset="0.375" stop-color="#E0AA3E"/>
<stop offset="0.692708" stop-color="#F7EF8A"/>
<stop offset="1" stop-color="#B88A44"/>
</linearGradient>
<linearGradient id="paint4_linear_482_6842" x1="8.52964" y1="20.9244" x2="8.52964" y2="24.18" gradientUnits="userSpaceOnUse">
<stop stop-color="#F9F295"/>
<stop offset="0.375" stop-color="#E0AA3E"/>
<stop offset="0.692708" stop-color="#F7EF8A"/>
<stop offset="1" stop-color="#B88A44"/>
</linearGradient>
<linearGradient id="paint5_linear_482_6842" x1="19.2619" y1="20.9244" x2="19.2619" y2="24.18" gradientUnits="userSpaceOnUse">
<stop stop-color="#F9F295"/>
<stop offset="0.375" stop-color="#E0AA3E"/>
<stop offset="0.692708" stop-color="#F7EF8A"/>
<stop offset="1" stop-color="#B88A44"/>
</linearGradient>
<linearGradient id="paint6_linear_482_6842" x1="19.3153" y1="6.75201" x2="19.3153" y2="10.8281" gradientUnits="userSpaceOnUse">
<stop stop-color="#F9F295"/>
<stop offset="0.375" stop-color="#E0AA3E"/>
<stop offset="0.692708" stop-color="#F7EF8A"/>
<stop offset="1" stop-color="#B88A44"/>
</linearGradient>
<linearGradient id="paint7_linear_482_6842" x1="18.6819" y1="8.414" x2="18.6819" y2="10.0736" gradientUnits="userSpaceOnUse">
<stop stop-color="#F9F295"/>
<stop offset="0.375" stop-color="#E0AA3E"/>
<stop offset="0.692708" stop-color="#F7EF8A"/>
<stop offset="1" stop-color="#B88A44"/>
</linearGradient>
<linearGradient id="paint8_linear_482_6842" x1="17.6892" y1="9.92603" x2="17.6892" y2="10.7609" gradientUnits="userSpaceOnUse">
<stop stop-color="#F9F295"/>
<stop offset="0.375" stop-color="#E0AA3E"/>
<stop offset="0.692708" stop-color="#F7EF8A"/>
<stop offset="1" stop-color="#B88A44"/>
</linearGradient>
<linearGradient id="paint9_linear_482_6842" x1="11.5743" y1="6.80973" x2="12.1193" y2="6.81077" gradientUnits="userSpaceOnUse">
<stop stop-color="#F9F295"/>
<stop offset="0.375" stop-color="#E0AA3E"/>
<stop offset="0.692708" stop-color="#F7EF8A"/>
<stop offset="1" stop-color="#B88A44"/>
</linearGradient>
<linearGradient id="paint10_linear_482_6842" x1="12.8004" y1="6.8156" x2="13.3453" y2="6.82514" gradientUnits="userSpaceOnUse">
<stop stop-color="#F9F295"/>
<stop offset="0.375" stop-color="#E0AA3E"/>
<stop offset="0.692708" stop-color="#F7EF8A"/>
<stop offset="1" stop-color="#B88A44"/>
</linearGradient>
<linearGradient id="paint11_linear_482_6842" x1="12.5464" y1="7.07013" x2="12.5464" y2="10.3532" gradientUnits="userSpaceOnUse">
<stop stop-color="#F9F295"/>
<stop offset="0.375" stop-color="#E0AA3E"/>
<stop offset="0.692708" stop-color="#F7EF8A"/>
<stop offset="1" stop-color="#B88A44"/>
</linearGradient>
<linearGradient id="paint12_linear_482_6842" x1="14.3154" y1="10.011" x2="14.3154" y2="18.3961" gradientUnits="userSpaceOnUse">
<stop stop-color="#F9F295"/>
<stop offset="0.375" stop-color="#E0AA3E"/>
<stop offset="0.692708" stop-color="#F7EF8A"/>
<stop offset="1" stop-color="#B88A44"/>
</linearGradient>
<linearGradient id="paint13_linear_482_6842" x1="12.4638" y1="4.63074" x2="12.4638" y2="6.56257" gradientUnits="userSpaceOnUse">
<stop stop-color="#F9F295"/>
<stop offset="0.375" stop-color="#E0AA3E"/>
<stop offset="0.692708" stop-color="#F7EF8A"/>
<stop offset="1" stop-color="#B88A44"/>
</linearGradient>
<linearGradient id="paint14_linear_482_6842" x1="2.95788" y1="10.6563" x2="2.95788" y2="11.2055" gradientUnits="userSpaceOnUse">
<stop stop-color="#F9F295"/>
<stop offset="0.375" stop-color="#E0AA3E"/>
<stop offset="0.692708" stop-color="#F7EF8A"/>
<stop offset="1" stop-color="#B88A44"/>
</linearGradient>
<linearGradient id="paint15_linear_482_6842" x1="2.16211" y1="15.0434" x2="2.16211" y2="15.5926" gradientUnits="userSpaceOnUse">
<stop stop-color="#F9F295"/>
<stop offset="0.375" stop-color="#E0AA3E"/>
<stop offset="0.692708" stop-color="#F7EF8A"/>
<stop offset="1" stop-color="#B88A44"/>
</linearGradient>
<linearGradient id="paint16_linear_482_6842" x1="3.40216" y1="12.9026" x2="3.40216" y2="13.4519" gradientUnits="userSpaceOnUse">
<stop stop-color="#F9F295"/>
<stop offset="0.375" stop-color="#E0AA3E"/>
<stop offset="0.692708" stop-color="#F7EF8A"/>
<stop offset="1" stop-color="#B88A44"/>
</linearGradient>
</defs>
</svg>
