<svg width="24" height="24" viewBox="0 0 24 24" fill="none" xmlns="http://www.w3.org/2000/svg">
<path d="M16.5996 20.9458L13.5038 18.0548L14.9248 16.4658L17.0066 18.4103L16.5101 18.9424L14.9714 17.5067L14.5226 18.0082L17.0961 20.4125L16.5996 20.9458Z" fill="url(#paint0_linear_482_6861)"/>
<path d="M16.6045 20.9507L15.0413 19.4966L15.5366 18.9633L16.5567 19.9111L20.648 15.3293L20.1564 14.872L16.5199 18.9461L15.9755 18.4606L20.1085 13.8311L21.6669 15.2827L16.6045 20.9507Z" fill="url(#paint1_linear_482_6861)"/>
<path d="M17.3769 24C16.1291 24 14.9093 23.6299 13.8718 22.9366C12.8344 22.2432 12.0258 21.2577 11.5486 20.1048C11.0713 18.9519 10.9466 17.6833 11.1904 16.4595C11.4342 15.2357 12.0355 14.1118 12.9182 13.2298C13.8009 12.3478 14.9253 11.7474 16.1493 11.5045C17.3732 11.2617 18.6417 11.3873 19.7943 11.8655C20.9468 12.3437 21.9317 13.153 22.6242 14.191C23.3168 15.229 23.6859 16.449 23.6849 17.6969C23.6817 19.3684 23.0159 20.9705 21.8335 22.152C20.6511 23.3335 19.0484 23.9981 17.3769 24ZM17.3769 12.1073C16.2736 12.1075 15.1952 12.4349 14.278 13.048C13.3607 13.6612 12.6459 14.5325 12.2239 15.5519C11.8018 16.5712 11.6915 17.6928 11.9069 18.7749C12.1223 19.8569 12.6537 20.8508 13.4339 21.6309C14.2141 22.4109 15.2082 22.9421 16.2903 23.1573C17.3724 23.3724 18.4939 23.2619 19.5132 22.8396C20.5325 22.4173 21.4037 21.7023 22.0166 20.785C22.6295 19.8676 22.9567 18.7891 22.9567 17.6858C22.9534 16.2077 22.3643 14.7911 21.3184 13.7465C20.2724 12.702 18.8551 12.1147 17.3769 12.1134V12.1073Z" fill="url(#paint2_linear_482_6861)"/>
<path fill-rule="evenodd" clip-rule="evenodd" d="M6.07732 10.6197C6.70073 11.0017 7.42237 11.2091 8.16551 11.21C9.22636 11.2091 10.2435 10.7873 10.9937 10.0373C11.0199 10.0112 11.0456 9.98262 11.0709 9.95184C11.3224 10.0272 11.5677 10.1243 11.8039 10.2425C12.445 10.5633 13.0017 11.0303 13.429 11.6058C13.4542 11.6522 13.4891 11.6927 13.5313 11.7244C13.5735 11.7562 13.6221 11.7785 13.6737 11.7898C13.7253 11.801 13.7788 11.8011 13.8304 11.7899C13.882 11.7786 13.9306 11.7564 13.9729 11.7248C14.0152 11.6931 14.0501 11.6527 14.0754 11.6063C14.1006 11.5599 14.1156 11.5085 14.1192 11.4558C14.1229 11.4031 14.1151 11.3503 14.0965 11.3008C14.0779 11.2514 14.0489 11.2065 14.0114 11.1693C13.5167 10.5029 12.8722 9.96207 12.13 9.59063C11.9052 9.47814 11.6733 9.38214 11.4363 9.30305C11.9079 8.17682 12.1663 6.32494 12.1674 5.49514V4.00182C12.1767 3.47047 12.08 2.9426 11.8831 2.449C11.6862 1.9554 11.393 1.50595 11.0205 1.12691C10.648 0.747858 10.2038 0.446793 9.71373 0.241279C9.22365 0.0357657 8.69755 -0.0700684 8.16613 -0.0700684C7.63471 -0.0700684 7.1086 0.0357657 6.61853 0.241279C6.12845 0.446793 5.68421 0.747858 5.31174 1.12691C4.93927 1.50595 4.64603 1.9554 4.44913 2.449C4.25222 2.9426 4.1556 3.47047 4.1649 4.00182V5.49514C4.16585 6.26717 4.38965 7.9243 4.80062 9.05818C3.58149 9.18147 2.43557 9.72127 1.56138 10.5953C0.560813 11.5956 -0.00203905 12.952 -0.00366211 14.3669V21.3272C-0.00366211 21.4247 0.0350914 21.5183 0.10407 21.5873C0.173049 21.6562 0.266603 21.695 0.364154 21.695C0.461279 21.6943 0.554207 21.6553 0.622657 21.5864C0.691106 21.5175 0.729521 21.4243 0.729519 21.3272V14.3669C0.730817 13.1453 1.21667 11.9741 2.08046 11.1103C2.89489 10.2959 3.98257 9.81743 5.12812 9.76431C5.19493 9.87175 5.26495 9.96373 5.33809 10.0369C5.56258 10.2614 5.81099 10.4565 6.07732 10.6197ZM5.85227 1.68821C6.46577 1.07447 7.29772 0.729217 8.16551 0.728243C9.03331 0.729217 9.86526 1.07447 10.4788 1.68821C11.0923 2.30194 11.4372 3.13402 11.4379 4.00182V5.49514C11.4379 6.36302 11.0931 8.90964 10.4794 9.52332C9.86573 10.137 9.03339 10.4818 8.16551 10.4818C7.29764 10.4818 6.46531 10.137 5.85162 9.52332C5.23794 8.90964 4.89318 6.36302 4.89318 5.49514V4.00182C4.89383 3.13402 5.23876 2.30194 5.85227 1.68821Z" fill="url(#paint3_linear_482_6861)"/>
<defs>
<linearGradient id="paint0_linear_482_6861" x1="15.3" y1="16.4658" x2="15.3" y2="20.9458" gradientUnits="userSpaceOnUse">
<stop stop-color="#F9F295"/>
<stop offset="0.375" stop-color="#E0AA3E"/>
<stop offset="0.692708" stop-color="#F7EF8A"/>
<stop offset="1" stop-color="#B88A44"/>
</linearGradient>
<linearGradient id="paint1_linear_482_6861" x1="18.3541" y1="13.8311" x2="18.3541" y2="20.9507" gradientUnits="userSpaceOnUse">
<stop stop-color="#F9F295"/>
<stop offset="0.375" stop-color="#E0AA3E"/>
<stop offset="0.692708" stop-color="#F7EF8A"/>
<stop offset="1" stop-color="#B88A44"/>
</linearGradient>
<linearGradient id="paint2_linear_482_6861" x1="17.3769" y1="11.3839" x2="17.3769" y2="24" gradientUnits="userSpaceOnUse">
<stop stop-color="#F9F295"/>
<stop offset="0.375" stop-color="#E0AA3E"/>
<stop offset="0.692708" stop-color="#F7EF8A"/>
<stop offset="1" stop-color="#B88A44"/>
</linearGradient>
<linearGradient id="paint3_linear_482_6861" x1="7.05823" y1="-0.0700684" x2="7.05823" y2="21.695" gradientUnits="userSpaceOnUse">
<stop stop-color="#F9F295"/>
<stop offset="0.375" stop-color="#E0AA3E"/>
<stop offset="0.692708" stop-color="#F7EF8A"/>
<stop offset="1" stop-color="#B88A44"/>
</linearGradient>
</defs>
</svg>
