<svg width="25" height="25" viewBox="0 0 25 25" fill="none" xmlns="http://www.w3.org/2000/svg">
<path d="M17.5996 21.9458L14.5038 19.0548L15.9248 17.4658L18.0066 19.4103L17.5101 19.9424L15.9714 18.5067L15.5226 19.0082L18.0961 21.4125L17.5996 21.9458Z" fill="url(#paint0_linear_482_6914)" fill-opacity="0.7"/>
<path d="M17.6045 21.9507L16.0413 20.4966L16.5366 19.9633L17.5567 20.9111L21.648 16.3293L21.1564 15.872L17.5199 19.9461L16.9755 19.4606L21.1085 14.8311L22.6669 16.2827L17.6045 21.9507Z" fill="url(#paint1_linear_482_6914)" fill-opacity="0.7"/>
<path d="M18.3769 25C17.1291 25 15.9093 24.6299 14.8718 23.9366C13.8344 23.2432 13.0258 22.2577 12.5486 21.1048C12.0713 19.9519 11.9466 18.6833 12.1904 17.4595C12.4342 16.2357 13.0355 15.1118 13.9182 14.2298C14.8009 13.3478 15.9253 12.7474 17.1493 12.5045C18.3732 12.2617 19.6417 12.3873 20.7943 12.8655C21.9468 13.3437 22.9317 14.153 23.6242 15.191C24.3168 16.229 24.6859 17.449 24.6849 18.6969C24.6817 20.3684 24.0159 21.9705 22.8335 23.152C21.6511 24.3335 20.0484 24.9981 18.3769 25ZM18.3769 13.1073C17.2736 13.1075 16.1952 13.4349 15.278 14.048C14.3607 14.6612 13.6459 15.5325 13.2239 16.5519C12.8018 17.5712 12.6915 18.6928 12.9069 19.7749C13.1223 20.8569 13.6537 21.8508 14.4339 22.6309C15.2141 23.4109 16.2082 23.9421 17.2903 24.1573C18.3724 24.3724 19.4939 24.2619 20.5132 23.8396C21.5325 23.4173 22.4037 22.7023 23.0166 21.785C23.6295 20.8676 23.9567 19.7891 23.9567 18.6858C23.9534 17.2077 23.3643 15.7911 22.3184 14.7465C21.2724 13.702 19.8551 13.1147 18.3769 13.1134V13.1073Z" fill="url(#paint2_linear_482_6914)" fill-opacity="0.7"/>
<path fill-rule="evenodd" clip-rule="evenodd" d="M7.07732 11.6197C7.70073 12.0017 8.42237 12.2091 9.16551 12.21C10.2264 12.2091 11.2435 11.7873 11.9937 11.0373C12.0199 11.0112 12.0456 10.9826 12.0709 10.9518C12.3224 11.0272 12.5677 11.1243 12.8039 11.2425C13.445 11.5633 14.0017 12.0303 14.429 12.6058C14.4542 12.6522 14.4891 12.6927 14.5313 12.7244C14.5735 12.7562 14.6221 12.7785 14.6737 12.7898C14.7253 12.801 14.7788 12.8011 14.8304 12.7899C14.882 12.7786 14.9306 12.7564 14.9729 12.7248C15.0152 12.6931 15.0501 12.6527 15.0754 12.6063C15.1006 12.5599 15.1156 12.5085 15.1192 12.4558C15.1229 12.4031 15.1151 12.3503 15.0965 12.3008C15.0779 12.2514 15.0489 12.2065 15.0114 12.1693C14.5167 11.5029 13.8722 10.9621 13.13 10.5906C12.9052 10.4781 12.6733 10.3821 12.4363 10.3031C12.9079 9.17682 13.1663 7.32494 13.1674 6.49514V5.00182C13.1767 4.47047 13.08 3.9426 12.8831 3.449C12.6862 2.9554 12.393 2.50595 12.0205 2.12691C11.648 1.74786 11.2038 1.44679 10.7137 1.24128C10.2237 1.03577 9.69755 0.929932 9.16613 0.929932C8.63471 0.929932 8.1086 1.03577 7.61853 1.24128C7.12845 1.44679 6.68421 1.74786 6.31174 2.12691C5.93927 2.50595 5.64603 2.9554 5.44913 3.449C5.25222 3.9426 5.1556 4.47047 5.1649 5.00182V6.49514C5.16585 7.26717 5.38965 8.9243 5.80062 10.0582C4.58149 10.1815 3.43557 10.7213 2.56138 11.5953C1.56081 12.5956 0.997961 13.952 0.996338 15.3669V22.3272C0.996338 22.4247 1.03509 22.5183 1.10407 22.5873C1.17305 22.6562 1.2666 22.695 1.36415 22.695C1.46128 22.6943 1.55421 22.6553 1.62266 22.5864C1.69111 22.5175 1.72952 22.4243 1.72952 22.3272V15.3669C1.73082 14.1453 2.21667 12.9741 3.08046 12.1103C3.89489 11.2959 4.98257 10.8174 6.12812 10.7643C6.19493 10.8717 6.26495 10.9637 6.33809 11.0369C6.56258 11.2614 6.81099 11.4565 7.07732 11.6197ZM6.85227 2.68821C7.46577 2.07447 8.29772 1.72922 9.16551 1.72824C10.0333 1.72922 10.8653 2.07447 11.4788 2.68821C12.0923 3.30194 12.4372 4.13402 12.4379 5.00182V6.49514C12.4379 7.36302 12.0931 9.90964 11.4794 10.5233C10.8657 11.137 10.0334 11.4818 9.16551 11.4818C8.29764 11.4818 7.46531 11.137 6.85162 10.5233C6.23794 9.90964 5.89318 7.36302 5.89318 6.49514V5.00182C5.89383 4.13402 6.23876 3.30194 6.85227 2.68821Z" fill="url(#paint3_linear_482_6914)" fill-opacity="0.7"/>
<defs>
<linearGradient id="paint0_linear_482_6914" x1="18.3014" y1="21.9458" x2="5.56219" y2="14.8375" gradientUnits="userSpaceOnUse">
<stop stop-color="#48647D"/>
<stop offset="0.234375" stop-color="#6B8299"/>
<stop offset="0.442708" stop-color="#DAE2EB"/>
<stop offset="0.682292" stop-color="#8CA2B7"/>
<stop offset="1" stop-color="#EDF2F7"/>
</linearGradient>
<linearGradient id="paint1_linear_482_6914" x1="23.0455" y1="21.9507" x2="1.33748" y2="7.89327" gradientUnits="userSpaceOnUse">
<stop stop-color="#48647D"/>
<stop offset="0.234375" stop-color="#6B8299"/>
<stop offset="0.442708" stop-color="#DAE2EB"/>
<stop offset="0.682292" stop-color="#8CA2B7"/>
<stop offset="1" stop-color="#EDF2F7"/>
</linearGradient>
<linearGradient id="paint2_linear_482_6914" x1="25.4059" y1="25" x2="-14.1225" y2="-2.50636" gradientUnits="userSpaceOnUse">
<stop stop-color="#48647D"/>
<stop offset="0.234375" stop-color="#6B8299"/>
<stop offset="0.442708" stop-color="#DAE2EB"/>
<stop offset="0.682292" stop-color="#8CA2B7"/>
<stop offset="1" stop-color="#EDF2F7"/>
</linearGradient>
<linearGradient id="paint3_linear_482_6914" x1="15.9272" y1="22.695" x2="-38.6287" y2="-1.94031" gradientUnits="userSpaceOnUse">
<stop stop-color="#48647D"/>
<stop offset="0.234375" stop-color="#6B8299"/>
<stop offset="0.442708" stop-color="#DAE2EB"/>
<stop offset="0.682292" stop-color="#8CA2B7"/>
<stop offset="1" stop-color="#EDF2F7"/>
</linearGradient>
</defs>
</svg>
