<svg width="24" height="23" viewBox="0 0 24 23" fill="none" xmlns="http://www.w3.org/2000/svg">
<path d="M20.8967 7.82983H19.6845L14.8423 0.966626C14.6044 0.630435 14.1394 0.54966 13.8039 0.787617C13.4677 1.02484 13.387 1.48947 13.6242 1.82603L17.86 7.82983H6.13996L10.3758 1.82603C10.613 1.48947 10.5322 1.02484 10.1961 0.78761C9.85986 0.549653 9.39486 0.630427 9.15765 0.966618L4.31551 7.82982H3.10327C1.84583 7.82982 0.822693 8.85295 0.822693 10.1104C0.822693 11.0955 1.45423 11.9286 2.33078 12.2467L3.14693 19.9109C3.27428 21.1018 4.27339 22.0001 5.47117 22.0001H18.5288C19.7266 22.0001 20.7257 21.1018 20.8531 19.9105L21.6692 12.2467C22.5458 11.9286 23.1773 11.0955 23.1773 10.1104C23.1773 8.85295 22.1542 7.82983 20.8967 7.82983ZM3.10327 9.32013H20.8967C21.3326 9.32013 21.687 9.67452 21.687 10.1104C21.687 10.5459 21.3326 10.9003 20.8967 10.9003H3.10327C2.66739 10.9003 2.313 10.5459 2.313 10.1104C2.313 9.67451 2.66739 9.32013 3.10327 9.32013ZM19.3715 19.7523C19.3249 20.1842 18.9633 20.5098 18.5288 20.5098H5.47117C5.03674 20.5098 4.67508 20.1842 4.6285 19.7526L3.84478 12.3906H20.1552L19.3715 19.7523Z" fill="#FF118E" stroke="#FF118E" stroke-width="0.5"/>
<path d="M7.7081 19.1853C7.73939 19.1853 7.77141 19.1835 7.80343 19.1791C8.21166 19.1271 8.50055 18.7538 8.44816 18.3456L7.93805 14.3655C7.88492 13.9576 7.51526 13.6669 7.10411 13.7211C6.69588 13.7731 6.40699 14.1464 6.45939 14.5547L6.96949 18.5348C7.01825 18.911 7.33843 19.1853 7.7081 19.1853Z" fill="#FF118E" stroke="#FF118E" stroke-width="0.5"/>
<path d="M12 19.1855C12.4118 19.1855 12.7451 18.8518 12.7451 18.4403V14.4602C12.7451 14.0487 12.4118 13.7151 12 13.7151C11.5881 13.7151 11.2548 14.0487 11.2548 14.4602V18.4403C11.2548 18.8518 11.5881 19.1855 12 19.1855Z" fill="#FF118E" stroke="#FF118E" stroke-width="0.5"/>
<path d="M16.1966 19.1792C16.2286 19.1835 16.2606 19.1853 16.2919 19.1853C16.6616 19.1853 16.9818 18.911 17.0305 18.5348L17.5406 14.5547C17.593 14.1465 17.3041 13.7732 16.8959 13.7211C16.4869 13.668 16.1151 13.9576 16.062 14.3655L15.5519 18.3456C15.4995 18.7538 15.7883 19.1271 16.1966 19.1792Z" fill="#FF118E" stroke="#FF118E" stroke-width="0.5"/>
</svg>
