<svg width="15" height="15" viewBox="0 0 15 15" fill="none" xmlns="http://www.w3.org/2000/svg">
<path d="M7.5 0C5.63503 3.69843e-05 3.83697 0.694909 2.45666 1.94904C1.07634 3.20316 0.212791 4.92657 0.0345 6.783L0 6.75V7.5V15H7.5C9.48912 15 11.3968 14.2098 12.8033 12.8033C14.2098 11.3968 15 9.48912 15 7.5C15 5.51088 14.2098 3.60322 12.8033 2.1967C11.3968 0.790176 9.48912 0 7.5 0V0ZM7.5 14.1H0.9V7.1865L0.93 6.867C1.05261 5.59454 1.54211 4.38507 2.33904 3.38553C3.13597 2.38598 4.20603 1.63939 5.41922 1.23644C6.63241 0.833501 7.93651 0.791552 9.17308 1.11569C10.4097 1.43984 11.5255 2.11612 12.385 3.06238C13.2445 4.00864 13.8108 5.18415 14.0149 6.4461C14.219 7.70805 14.0523 9.00212 13.5349 10.1711C13.0175 11.3401 12.1718 12.3337 11.1005 13.0311C10.0292 13.7286 8.77835 14.0999 7.5 14.1Z" fill="url(#paint0_linear)"/>
<path d="M7.49999 6.63745C7.32934 6.63716 7.16243 6.68749 7.0204 6.78208C6.87836 6.87667 6.76758 7.01127 6.70207 7.16885C6.63656 7.32642 6.61927 7.49989 6.65238 7.6673C6.68549 7.8347 6.76751 7.98853 6.88808 8.1093C7.00864 8.23007 7.16232 8.31237 7.32967 8.34577C7.49702 8.37917 7.67051 8.36218 7.8282 8.29694C7.98589 8.2317 8.12069 8.12116 8.21552 7.97929C8.31036 7.83742 8.36099 7.6706 8.36099 7.49995C8.35903 7.27207 8.26774 7.05404 8.10674 6.89276C7.94573 6.73147 7.72787 6.6398 7.49999 6.63745Z" fill="url(#paint1_linear)"/>
<path d="M4.4655 6.63753C4.29487 6.63517 4.12738 6.68348 3.98421 6.77634C3.84105 6.8692 3.72865 7.00244 3.66123 7.1592C3.59381 7.31596 3.57441 7.4892 3.60548 7.65699C3.63655 7.82478 3.7167 7.97959 3.83578 8.10182C3.95485 8.22405 4.10751 8.30821 4.27444 8.34365C4.44136 8.37909 4.61504 8.36421 4.77351 8.30091C4.93198 8.23761 5.06811 8.12873 5.16468 7.98803C5.26124 7.84734 5.31391 7.68116 5.316 7.51053C5.31779 7.39729 5.29717 7.2848 5.25534 7.17955C5.21351 7.07429 5.15128 6.97834 5.07225 6.89721C4.99321 6.81609 4.89892 6.75138 4.79479 6.70682C4.69066 6.66225 4.57876 6.63871 4.4655 6.63753Z" fill="url(#paint2_linear)"/>
<path d="M10.5495 6.63753C10.3785 6.63515 10.2106 6.68371 10.0671 6.77702C9.92374 6.87034 9.81132 7.00419 9.7442 7.16157C9.67707 7.31895 9.65827 7.49273 9.69018 7.66082C9.7221 7.82892 9.80328 7.98372 9.92341 8.10554C10.0435 8.22737 10.1972 8.31071 10.3648 8.34498C10.5324 8.37924 10.7065 8.36288 10.8648 8.29796C11.0231 8.23305 11.1585 8.12252 11.2538 7.98044C11.3491 7.83835 11.4 7.67113 11.4 7.50003C11.4009 7.27311 11.3119 7.05508 11.1526 6.8935C10.9932 6.73192 10.7765 6.63991 10.5495 6.63753Z" fill="url(#paint3_linear)"/>
<defs>
<linearGradient id="paint0_linear" x1="7.5" y1="0" x2="7.5" y2="15" gradientUnits="userSpaceOnUse">
<stop stop-color="#F9F295"/>
<stop offset="0.375" stop-color="#E0AA3E"/>
<stop offset="0.692708" stop-color="#F7EF8A"/>
<stop offset="1" stop-color="#B88A44"/>
</linearGradient>
<linearGradient id="paint1_linear" x1="7.49849" y1="6.63745" x2="7.49849" y2="8.36245" gradientUnits="userSpaceOnUse">
<stop stop-color="#F9F295"/>
<stop offset="0.375" stop-color="#E0AA3E"/>
<stop offset="0.692708" stop-color="#F7EF8A"/>
<stop offset="1" stop-color="#B88A44"/>
</linearGradient>
<linearGradient id="paint2_linear" x1="4.45359" y1="6.63745" x2="4.45359" y2="8.36245" gradientUnits="userSpaceOnUse">
<stop stop-color="#F9F295"/>
<stop offset="0.375" stop-color="#E0AA3E"/>
<stop offset="0.692708" stop-color="#F7EF8A"/>
<stop offset="1" stop-color="#B88A44"/>
</linearGradient>
<linearGradient id="paint3_linear" x1="10.5376" y1="6.63745" x2="10.5376" y2="8.36245" gradientUnits="userSpaceOnUse">
<stop stop-color="#F9F295"/>
<stop offset="0.375" stop-color="#E0AA3E"/>
<stop offset="0.692708" stop-color="#F7EF8A"/>
<stop offset="1" stop-color="#B88A44"/>
</linearGradient>
</defs>
</svg>
