<svg width="15" height="15" viewBox="0 0 15 15" fill="none" xmlns="http://www.w3.org/2000/svg">
<g filter="url(#filter0_ii)">
<mask id="path-1-inside-1" fill="white">
<path d="M7.5 0C5.63503 3.69843e-05 3.83697 0.694909 2.45666 1.94904C1.07634 3.20316 0.212791 4.92657 0.0345 6.783L0 6.75V7.5V15H7.5C9.48912 15 11.3968 14.2098 12.8033 12.8033C14.2098 11.3968 15 9.48912 15 7.5C15 5.51088 14.2098 3.60322 12.8033 2.1967C11.3968 0.790176 9.48912 0 7.5 0V0ZM7.5 14.1H0.9V7.1865L0.93 6.867C1.05261 5.59454 1.54211 4.38507 2.33904 3.38553C3.13597 2.38598 4.20603 1.63939 5.41922 1.23644C6.63241 0.833501 7.93651 0.791552 9.17308 1.11569C10.4097 1.43984 11.5255 2.11612 12.385 3.06238C13.2445 4.00864 13.8108 5.18415 14.0149 6.4461C14.219 7.70805 14.0523 9.00212 13.5349 10.1711C13.0175 11.3401 12.1718 12.3337 11.1005 13.0311C10.0292 13.7286 8.77835 14.0999 7.5 14.1Z"/>
</mask>
<path d="M7.5 0C5.63503 3.69843e-05 3.83697 0.694909 2.45666 1.94904C1.07634 3.20316 0.212791 4.92657 0.0345 6.783L0 6.75V7.5V15H7.5C9.48912 15 11.3968 14.2098 12.8033 12.8033C14.2098 11.3968 15 9.48912 15 7.5C15 5.51088 14.2098 3.60322 12.8033 2.1967C11.3968 0.790176 9.48912 0 7.5 0V0ZM7.5 14.1H0.9V7.1865L0.93 6.867C1.05261 5.59454 1.54211 4.38507 2.33904 3.38553C3.13597 2.38598 4.20603 1.63939 5.41922 1.23644C6.63241 0.833501 7.93651 0.791552 9.17308 1.11569C10.4097 1.43984 11.5255 2.11612 12.385 3.06238C13.2445 4.00864 13.8108 5.18415 14.0149 6.4461C14.219 7.70805 14.0523 9.00212 13.5349 10.1711C13.0175 11.3401 12.1718 12.3337 11.1005 13.0311C10.0292 13.7286 8.77835 14.0999 7.5 14.1Z" fill="#C4C4C4"/>
<path d="M7.5 0L7.50004 2C8.60459 1.99998 9.5 1.10455 9.5 0H7.5ZM0.0345 6.783L-1.34795 8.22828C-0.794282 8.75788 0.0132807 8.92463 0.731432 8.65764C1.44958 8.39066 1.95209 7.73687 2.02534 6.9742L0.0345 6.783ZM0 6.75L1.38245 5.30472C0.803727 4.75116 -0.0494098 4.59619 -0.785844 4.91086C-1.52228 5.22553 -2 5.94916 -2 6.75H0ZM0 15H-2C-2 16.1046 -1.10457 17 0 17L0 15ZM7.5 0V-2C6.96957 -2 6.46086 -1.78929 6.08579 -1.41421C5.71071 -1.03914 5.5 -0.530433 5.5 0H7.5ZM0.9 14.1H-1.1C-1.1 15.2046 -0.204569 16.1 0.9 16.1V14.1ZM0.9 7.1865L-1.09124 6.99953C-1.09708 7.06168 -1.1 7.12407 -1.1 7.1865H0.9ZM0.93 6.867L-1.06079 6.67518L-1.06124 6.68003L0.93 6.867ZM7.49996 -2C5.13767 -1.99995 2.86013 -1.11978 1.11173 0.46878L3.80159 3.42929C4.81382 2.5096 6.1324 2.00003 7.50004 2L7.49996 -2ZM1.11173 0.46878C-0.636675 2.05734 -1.7305 4.24033 -1.95634 6.5918L2.02534 6.9742C2.15609 5.61282 2.78936 4.34899 3.80159 3.42929L1.11173 0.46878ZM1.41695 5.33772L1.38245 5.30472L-1.38245 8.19528L-1.34795 8.22828L1.41695 5.33772ZM-2 6.75V7.5H2V6.75H-2ZM-2 7.5V15H2V7.5H-2ZM0 17H7.5V13H0V17ZM7.5 17C10.0196 17 12.4359 15.9991 14.2175 14.2175L11.3891 11.3891C10.3576 12.4205 8.95869 13 7.5 13V17ZM14.2175 14.2175C15.9991 12.4359 17 10.0196 17 7.5H13C13 8.95869 12.4205 10.3576 11.3891 11.3891L14.2175 14.2175ZM17 7.5C17 4.98044 15.9991 2.56408 14.2175 0.782486L11.3891 3.61091C12.4205 4.64236 13 6.04131 13 7.5H17ZM14.2175 0.782486C12.4359 -0.99911 10.0196 -2 7.5 -2V2C8.95869 2 10.3576 2.57946 11.3891 3.61091L14.2175 0.782486ZM5.5 0V0H9.5V0H5.5ZM7.5 12.1H0.9V16.1H7.5V12.1ZM2.9 14.1V7.1865H-1.1V14.1H2.9ZM2.89124 7.37347L2.92124 7.05397L-1.06124 6.68003L-1.09124 6.99953L2.89124 7.37347ZM2.92078 7.05882C3.00623 6.17195 3.3474 5.32899 3.90284 4.63234L0.775244 2.13872C-0.263183 3.44115 -0.901021 5.01713 -1.06078 6.67518L2.92078 7.05882ZM3.90284 4.63234C4.45828 3.93568 5.20408 3.41533 6.04963 3.13449L4.78881 -0.661603C3.20799 -0.136555 1.81367 0.83628 0.775244 2.13872L3.90284 4.63234ZM6.04963 3.13449C6.89519 2.85365 7.8041 2.82441 8.66596 3.05033L9.68021 -0.818945C8.06891 -1.24131 6.36963 -1.18665 4.78881 -0.661603L6.04963 3.13449ZM8.66596 3.05033C9.52782 3.27625 10.3055 3.7476 10.9046 4.40711L13.8654 1.71764C12.7455 0.484637 11.2915 -0.396578 9.68021 -0.818945L8.66596 3.05033ZM10.9046 4.40711C11.5036 5.06663 11.8983 5.88592 12.0406 6.76546L15.9892 6.12673C15.7232 4.48238 14.9854 2.95065 13.8654 1.71764L10.9046 4.40711ZM12.0406 6.76546C12.1828 7.645 12.0666 8.54694 11.706 9.36168L15.3638 10.9805C16.0379 9.45731 16.2552 7.77109 15.9892 6.12673L12.0406 6.76546ZM11.706 9.36168C11.3454 10.1764 10.756 10.8689 10.0093 11.355L12.1917 14.7072C13.5877 13.7984 14.6896 12.5038 15.3638 10.9805L11.706 9.36168ZM10.0093 11.355C9.26263 11.8411 8.39084 12.0999 7.49987 12.1L7.50013 16.1C9.16586 16.0999 10.7957 15.616 12.1917 14.7072L10.0093 11.355Z" fill="url(#paint0_linear)" fill-opacity="0.7" mask="url(#path-1-inside-1)"/>
<mask id="path-3-inside-2" fill="white">
<path d="M7.49999 6.63745C7.32934 6.63716 7.16243 6.68749 7.0204 6.78208C6.87836 6.87667 6.76758 7.01127 6.70207 7.16885C6.63656 7.32642 6.61927 7.49989 6.65238 7.6673C6.68549 7.8347 6.76751 7.98853 6.88808 8.1093C7.00864 8.23007 7.16232 8.31237 7.32967 8.34577C7.49702 8.37917 7.67051 8.36218 7.8282 8.29694C7.98589 8.2317 8.12069 8.12116 8.21552 7.97929C8.31036 7.83742 8.36099 7.6706 8.36099 7.49995C8.35903 7.27207 8.26774 7.05404 8.10674 6.89276C7.94573 6.73147 7.72787 6.6398 7.49999 6.63745Z"/>
</mask>
<path d="M7.49999 6.63745C7.32934 6.63716 7.16243 6.68749 7.0204 6.78208C6.87836 6.87667 6.76758 7.01127 6.70207 7.16885C6.63656 7.32642 6.61927 7.49989 6.65238 7.6673C6.68549 7.8347 6.76751 7.98853 6.88808 8.1093C7.00864 8.23007 7.16232 8.31237 7.32967 8.34577C7.49702 8.37917 7.67051 8.36218 7.8282 8.29694C7.98589 8.2317 8.12069 8.12116 8.21552 7.97929C8.31036 7.83742 8.36099 7.6706 8.36099 7.49995C8.35903 7.27207 8.26774 7.05404 8.10674 6.89276C7.94573 6.73147 7.72787 6.6398 7.49999 6.63745Z" fill="#C4C4C4"/>
<path d="M8.36099 7.49995L10.361 7.49996C10.361 7.49424 10.361 7.48853 10.3609 7.48282L8.36099 7.49995ZM7.50346 4.63746C6.93711 4.63647 6.38318 4.80351 5.91179 5.11745L8.12901 8.44671C7.94168 8.57146 7.72157 8.63784 7.49651 8.63745L7.50346 4.63746ZM5.91179 5.11745C5.4404 5.43139 5.07273 5.87811 4.85531 6.40107L8.54883 7.93662C8.46243 8.14444 8.31633 8.32195 8.12901 8.44671L5.91179 5.11745ZM4.85531 6.40107C4.63789 6.92404 4.5805 7.49975 4.69038 8.05534L8.61437 7.27925C8.65804 7.50003 8.63523 7.72881 8.54883 7.93662L4.85531 6.40107ZM4.69038 8.05534C4.80027 8.61094 5.0725 9.12145 5.47263 9.52228L8.30352 6.69632C8.46253 6.8556 8.5707 7.05847 8.61437 7.27925L4.69038 8.05534ZM5.47263 9.52228C5.87276 9.92311 6.38281 10.1962 6.93821 10.3071L7.72113 6.38445C7.94183 6.4285 8.14451 6.53703 8.30352 6.69632L5.47263 9.52228ZM6.93821 10.3071C7.49361 10.4179 8.06942 10.3615 8.59276 10.145L7.06364 6.44885C7.27161 6.36281 7.50043 6.3404 7.72113 6.38445L6.93821 10.3071ZM8.59276 10.145C9.11611 9.92852 9.56347 9.56163 9.87822 9.09079L6.55283 6.86778C6.6779 6.68068 6.85567 6.53489 7.06364 6.44885L8.59276 10.145ZM9.87822 9.09079C10.193 8.61995 10.361 8.06632 10.361 7.49996L6.36099 7.49995C6.36099 7.27489 6.42775 7.05489 6.55283 6.86778L9.87822 9.09079ZM10.3609 7.48282C10.3545 6.73105 10.0533 6.01183 9.52218 5.47978L6.69129 8.30574C6.48217 8.09626 6.3636 7.81308 6.36106 7.51709L10.3609 7.48282ZM9.52218 5.47978C8.99105 4.94772 8.27235 4.64531 7.5206 4.63756L7.47937 8.63735C7.18339 8.63429 6.90041 8.51523 6.69129 8.30574L9.52218 5.47978Z" fill="url(#paint1_linear)" fill-opacity="0.7" mask="url(#path-3-inside-2)"/>
<mask id="path-5-inside-3" fill="white">
<path d="M4.4655 6.63753C4.29487 6.63517 4.12738 6.68348 3.98421 6.77634C3.84105 6.8692 3.72865 7.00244 3.66123 7.1592C3.59381 7.31596 3.57441 7.4892 3.60548 7.65699C3.63655 7.82478 3.7167 7.97959 3.83578 8.10182C3.95485 8.22405 4.10751 8.30821 4.27444 8.34365C4.44136 8.37909 4.61504 8.36421 4.77351 8.30091C4.93198 8.23761 5.06811 8.12873 5.16468 7.98803C5.26124 7.84734 5.31391 7.68116 5.316 7.51053C5.31779 7.39729 5.29717 7.2848 5.25534 7.17955C5.21351 7.07429 5.15128 6.97834 5.07225 6.89721C4.99321 6.81609 4.89892 6.75138 4.79479 6.70682C4.69066 6.66225 4.57876 6.63871 4.4655 6.63753Z"/>
</mask>
<path d="M4.4655 6.63753C4.29487 6.63517 4.12738 6.68348 3.98421 6.77634C3.84105 6.8692 3.72865 7.00244 3.66123 7.1592C3.59381 7.31596 3.57441 7.4892 3.60548 7.65699C3.63655 7.82478 3.7167 7.97959 3.83578 8.10182C3.95485 8.22405 4.10751 8.30821 4.27444 8.34365C4.44136 8.37909 4.61504 8.36421 4.77351 8.30091C4.93198 8.23761 5.06811 8.12873 5.16468 7.98803C5.26124 7.84734 5.31391 7.68116 5.316 7.51053C5.31779 7.39729 5.29717 7.2848 5.25534 7.17955C5.21351 7.07429 5.15128 6.97834 5.07225 6.89721C4.99321 6.81609 4.89892 6.75138 4.79479 6.70682C4.69066 6.66225 4.57876 6.63871 4.4655 6.63753Z" fill="#C4C4C4"/>
<path d="M5.316 7.51053L3.31624 7.47901L3.31615 7.48599L5.316 7.51053ZM4.49318 4.63773C3.92689 4.62989 3.371 4.79021 2.89586 5.0984L5.07256 8.45428C4.88375 8.57675 4.66286 8.64046 4.43782 8.63734L4.49318 4.63773ZM2.89586 5.0984C2.42072 5.40658 2.04767 5.84879 1.82393 6.36906L5.49853 7.94934C5.40962 8.15609 5.26138 8.33181 5.07256 8.45428L2.89586 5.0984ZM1.82393 6.36906C1.60018 6.88933 1.5358 7.46428 1.63891 8.02115L5.57205 7.29284C5.61303 7.51413 5.58744 7.7426 5.49853 7.94934L1.82393 6.36906ZM1.63891 8.02115C1.74203 8.57802 2.00802 9.09179 2.40322 9.49745L5.26833 6.70619C5.42538 6.86739 5.53107 7.07155 5.57205 7.29284L1.63891 8.02115ZM2.40322 9.49745C2.79842 9.90311 3.30508 10.1824 3.85907 10.3L4.68981 6.38725C4.90995 6.43399 5.11128 6.54499 5.26833 6.70619L2.40322 9.49745ZM3.85907 10.3C4.41306 10.4177 4.98949 10.3683 5.51542 10.1582L4.0316 6.44361C4.2406 6.36013 4.46966 6.34051 4.68981 6.38725L3.85907 10.3ZM5.51542 10.1582C6.04136 9.94813 6.49315 9.58675 6.81364 9.11982L3.51572 6.85625C3.64308 6.6707 3.82261 6.52709 4.0316 6.44361L5.51542 10.1582ZM6.81364 9.11982C7.13413 8.65288 7.3089 8.10137 7.31585 7.53507L3.31615 7.48599C3.31891 7.26096 3.38836 7.0418 3.51572 6.85625L6.81364 9.11982ZM7.31575 7.54205C7.32169 7.16529 7.2531 6.79106 7.11393 6.44088L3.39674 7.91821C3.34124 7.77854 3.31388 7.62928 3.31625 7.47901L7.31575 7.54205ZM7.11393 6.44088C6.97476 6.09071 6.76775 5.77149 6.5048 5.50158L3.63969 8.29285C3.53481 8.18519 3.45225 8.05787 3.39674 7.91821L7.11393 6.44088ZM6.5048 5.50158C6.24185 5.23167 5.92814 5.0164 5.58173 4.86814L4.00786 8.54549C3.86969 8.48636 3.74457 8.4005 3.63969 8.29285L6.5048 5.50158ZM5.58173 4.86814C5.23531 4.71987 4.86299 4.64154 4.48619 4.63764L4.44481 8.63743C4.29452 8.63587 4.14602 8.60463 4.00786 8.54549L5.58173 4.86814Z" fill="url(#paint2_linear)" fill-opacity="0.7" mask="url(#path-5-inside-3)"/>
<mask id="path-7-inside-4" fill="white">
<path d="M10.5495 6.63753C10.3785 6.63515 10.2106 6.68371 10.0671 6.77702C9.92374 6.87034 9.81132 7.00419 9.7442 7.16157C9.67707 7.31895 9.65827 7.49273 9.69018 7.66082C9.7221 7.82892 9.80328 7.98372 9.92341 8.10554C10.0435 8.22737 10.1972 8.31071 10.3648 8.34498C10.5324 8.37924 10.7065 8.36288 10.8648 8.29796C11.0231 8.23305 11.1585 8.12252 11.2538 7.98044C11.3491 7.83835 11.4 7.67113 11.4 7.50003C11.4009 7.27311 11.3119 7.05508 11.1526 6.8935C10.9932 6.73192 10.7765 6.63991 10.5495 6.63753Z"/>
</mask>
<path d="M10.5495 6.63753C10.3785 6.63515 10.2106 6.68371 10.0671 6.77702C9.92374 6.87034 9.81132 7.00419 9.7442 7.16157C9.67707 7.31895 9.65827 7.49273 9.69018 7.66082C9.7221 7.82892 9.80328 7.98372 9.92341 8.10554C10.0435 8.22737 10.1972 8.31071 10.3648 8.34498C10.5324 8.37924 10.7065 8.36288 10.8648 8.29796C11.0231 8.23305 11.1585 8.12252 11.2538 7.98044C11.3491 7.83835 11.4 7.67113 11.4 7.50003C11.4009 7.27311 11.3119 7.05508 11.1526 6.8935C10.9932 6.73192 10.7765 6.63991 10.5495 6.63753Z" fill="#C4C4C4"/>
<path d="M11.4 7.50003L9.40005 7.49294L9.40005 7.49984L11.4 7.50003ZM10.5774 4.63773C10.0096 4.62983 9.4523 4.79097 8.97635 5.10067L11.1579 8.45338C10.9688 8.57645 10.7473 8.64048 10.5217 8.63734L10.5774 4.63773ZM8.97635 5.10067C8.5004 5.41036 8.12732 5.85461 7.90455 6.37692L11.5839 7.94622C11.4953 8.15377 11.3471 8.33031 11.1579 8.45338L8.97635 5.10067ZM7.90455 6.37692C7.68177 6.89923 7.61937 7.47599 7.72528 8.03386L11.6551 7.28779C11.6972 7.50947 11.6724 7.73866 11.5839 7.94622L7.90455 6.37692ZM7.72528 8.03386C7.83119 8.59173 8.10063 9.10549 8.49933 9.50982L11.3475 6.70127C11.5059 6.86194 11.613 7.0661 11.6551 7.28779L7.72528 8.03386ZM8.49933 9.50982C8.89802 9.91413 9.40796 10.1907 9.96429 10.3045L10.7653 6.3855C10.9864 6.43068 11.1891 6.5406 11.3475 6.70127L8.49933 9.50982ZM9.96429 10.3045C10.5206 10.4182 11.0982 10.3639 11.6236 10.1484L10.106 6.4475C10.3148 6.36189 10.5443 6.34031 10.7653 6.3855L9.96429 10.3045ZM11.6236 10.1484C12.149 9.93299 12.5984 9.56617 12.9147 9.09461L9.59291 6.86627C9.71861 6.67888 9.89721 6.53311 10.106 6.4475L11.6236 10.1484ZM12.9147 9.09461C13.2311 8.62305 13.4 8.06806 13.4 7.50023L9.40005 7.49984C9.40007 7.2742 9.4672 7.05365 9.59291 6.86627L12.9147 9.09461ZM13.4 7.50713C13.4027 6.75217 13.1067 6.02679 12.5766 5.48923L9.72847 8.29777C9.51705 8.08337 9.39899 7.79405 9.40006 7.49294L13.4 7.50713ZM12.5766 5.48923C12.0466 4.95167 11.3254 4.64554 10.5705 4.63764L10.5286 8.63743C10.2275 8.63427 9.93989 8.51218 9.72847 8.29777L12.5766 5.48923Z" fill="url(#paint3_linear)" fill-opacity="0.7" mask="url(#path-7-inside-4)"/>
</g>
<defs>
<filter id="filter0_ii" x="-0.5" y="-0.5" width="16" height="16" filterUnits="userSpaceOnUse" color-interpolation-filters="sRGB">
<feFlood flood-opacity="0" result="BackgroundImageFix"/>
<feBlend mode="normal" in="SourceGraphic" in2="BackgroundImageFix" result="shape"/>
<feColorMatrix in="SourceAlpha" type="matrix" values="0 0 0 0 0 0 0 0 0 0 0 0 0 0 0 0 0 0 127 0" result="hardAlpha"/>
<feOffset dx="-0.5" dy="-0.5"/>
<feGaussianBlur stdDeviation="0.25"/>
<feComposite in2="hardAlpha" operator="arithmetic" k2="-1" k3="1"/>
<feColorMatrix type="matrix" values="0 0 0 0 1 0 0 0 0 1 0 0 0 0 1 0 0 0 0.4 0"/>
<feBlend mode="normal" in2="shape" result="effect1_innerShadow"/>
<feColorMatrix in="SourceAlpha" type="matrix" values="0 0 0 0 0 0 0 0 0 0 0 0 0 0 0 0 0 0 127 0" result="hardAlpha"/>
<feOffset dx="0.5" dy="0.5"/>
<feGaussianBlur stdDeviation="0.25"/>
<feComposite in2="hardAlpha" operator="arithmetic" k2="-1" k3="1"/>
<feColorMatrix type="matrix" values="0 0 0 0 0.127604 0 0 0 0 0.267969 0 0 0 0 0.408333 0 0 0 0.4 0"/>
<feBlend mode="normal" in2="effect1_innerShadow" result="effect2_innerShadow"/>
</filter>
<linearGradient id="paint0_linear" x1="15.8571" y1="15" x2="-31.1404" y2="-17.7039" gradientUnits="userSpaceOnUse">
<stop stop-color="#48647D"/>
<stop offset="0.234375" stop-color="#6B8299"/>
<stop offset="0.442708" stop-color="#DAE2EB"/>
<stop offset="0.682292" stop-color="#8CA2B7"/>
<stop offset="1" stop-color="#EDF2F7"/>
</linearGradient>
<linearGradient id="paint1_linear" x1="8.45956" y1="8.36245" x2="3.05484" y2="4.6015" gradientUnits="userSpaceOnUse">
<stop stop-color="#48647D"/>
<stop offset="0.234375" stop-color="#6B8299"/>
<stop offset="0.442708" stop-color="#DAE2EB"/>
<stop offset="0.682292" stop-color="#8CA2B7"/>
<stop offset="1" stop-color="#EDF2F7"/>
</linearGradient>
<linearGradient id="paint2_linear" x1="5.41468" y1="8.36245" x2="0.00992105" y2="4.60138" gradientUnits="userSpaceOnUse">
<stop stop-color="#48647D"/>
<stop offset="0.234375" stop-color="#6B8299"/>
<stop offset="0.442708" stop-color="#DAE2EB"/>
<stop offset="0.682292" stop-color="#8CA2B7"/>
<stop offset="1" stop-color="#EDF2F7"/>
</linearGradient>
<linearGradient id="paint3_linear" x1="11.4986" y1="8.36245" x2="6.09391" y2="4.60149" gradientUnits="userSpaceOnUse">
<stop stop-color="#48647D"/>
<stop offset="0.234375" stop-color="#6B8299"/>
<stop offset="0.442708" stop-color="#DAE2EB"/>
<stop offset="0.682292" stop-color="#8CA2B7"/>
<stop offset="1" stop-color="#EDF2F7"/>
</linearGradient>
</defs>
</svg>
