<svg width="17" height="14" viewBox="0 0 17 14" fill="none" xmlns="http://www.w3.org/2000/svg">
<path d="M12.1255 4.07094C11.7361 3.68244 10.1725 4.21371 9.37242 5.01349C8.84586 5.53949 8.73553 6.00288 8.86492 6.39963C8.91605 6.55655 8.91858 6.72523 8.87219 6.88361C8.8258 7.04199 8.73264 7.1827 8.6049 7.28733L4.35109 10.7795C4.22815 10.8796 4.14005 11.016 4.09937 11.1692C4.0587 11.3223 4.06753 11.4844 4.1246 11.6323C4.18167 11.7801 4.28407 11.9061 4.41716 11.9924C4.55024 12.0786 4.7072 12.1205 4.86561 12.1123C4.97061 12.1066 5.07328 12.0791 5.16712 12.0317C5.26095 11.9843 5.3439 11.9179 5.41072 11.8368L8.90579 7.5879C9.01089 7.46077 9.15179 7.3681 9.31022 7.32187C9.46866 7.27565 9.63734 7.27802 9.79441 7.32866C10.1918 7.45866 10.655 7.3487 11.1823 6.82194C11.9821 6.02216 12.5348 4.48097 12.1248 4.07094H12.1255Z" fill="#030303"/>
<path fill-rule="evenodd" clip-rule="evenodd" d="M4.65056 2.38371C6.32701 2.47313 7.55915 5.05958 7.55915 5.05958C7.55915 5.05958 8.05587 3.81169 8.7627 3.03972C10.2526 1.41035 11.8202 1.98771 12.5963 2.9022C13.8751 4.41309 12.749 7.46092 10.5748 8.53121C10.6302 8.53121 13.8971 8.15975 14.4187 4.67985C14.53 3.93493 14.8249 0.86381 11.3847 0.101854C9.28249 -0.364287 8.07492 0.882095 7.50223 1.5659C6.90898 0.728551 5.87367 0.140176 4.72879 0.0432412C3.84819 -0.0341567 2.96584 0.173991 2.16071 0.634872C0.0444579 1.84544 -1.48606 6.02617 2.37534 9.40463C4.79975 11.5249 7.90492 11.2474 8.56863 14.0002C9.12026 9.66388 4.19246 10.0391 2.55086 6.99102C1.58651 5.19909 1.94081 2.23819 4.65056 2.38371Z" fill="#FF118E"/>
<path d="M0.457031 3.54644C0.457031 3.54644 0.996123 1.01284 3.69409 0.312256C3.69409 0.312256 1.66184 1.30064 0.457031 3.54644Z" fill="white"/>
<path d="M9.39844 2.09132C9.39844 2.09132 10.8026 1.13951 12.0962 2.09132C12.0962 2.09132 10.8555 0.509806 9.39844 2.09132Z" fill="white"/>
<path d="M9.55859 8.61675C9.55859 8.61675 11.7689 9.33137 13.6494 7.2301C13.6494 7.2301 14.2477 6.35067 14.8184 6.81506C15.0801 7.02872 15.0069 7.572 14.5589 7.99055C13.6547 8.83492 11.6886 9.71485 9.55859 8.61675Z" fill="#FF118E"/>
<path d="M16.0011 5.98456C16.0011 6.10431 15.9655 6.22136 15.8988 6.32089C15.8322 6.42043 15.7375 6.49798 15.6267 6.54375C15.516 6.58952 15.3941 6.60145 15.2765 6.57802C15.159 6.55459 15.051 6.49686 14.9663 6.41213C14.8816 6.3274 14.8239 6.21949 14.8006 6.10202C14.7773 5.98456 14.7894 5.86283 14.8354 5.75223C14.8813 5.64163 14.9591 5.54713 15.0588 5.48067C15.1585 5.41422 15.2757 5.37881 15.3956 5.37891C15.4752 5.37887 15.554 5.39452 15.6275 5.42496C15.7011 5.45539 15.7679 5.50001 15.8241 5.55627C15.8804 5.61253 15.925 5.67931 15.9553 5.75281C15.9857 5.8263 16.0013 5.90505 16.0011 5.98456Z" fill="#FF118E"/>
<path d="M14.7891 4.58791C14.789 4.66258 14.8111 4.73558 14.8526 4.79769C14.8941 4.85979 14.9531 4.90821 15.0222 4.93682C15.0912 4.96543 15.1672 4.97294 15.2405 4.95841C15.3138 4.94387 15.3812 4.90794 15.434 4.85516C15.4869 4.80238 15.5229 4.73512 15.5375 4.66189C15.5521 4.58866 15.5447 4.51276 15.5161 4.44377C15.4875 4.37478 15.439 4.31581 15.3769 4.27433C15.3147 4.23284 15.2417 4.21069 15.1669 4.21069C15.0668 4.21089 14.9709 4.25069 14.9 4.32138C14.8292 4.39207 14.7893 4.4879 14.7891 4.58791Z" fill="#FF118E"/>
<path d="M10.9846 10.7795L8.32096 8.59277L7.80469 9.26105L9.9242 11.8382C9.99139 11.9176 10.0743 11.9822 10.1678 12.0279C10.2612 12.0736 10.3631 12.0994 10.4671 12.1037C10.5711 12.1081 10.6748 12.0908 10.7717 12.0531C10.8687 12.0153 10.9567 11.9579 11.0303 11.8844C11.1039 11.8109 11.1614 11.723 11.1993 11.6262C11.2371 11.5294 11.2544 11.4258 11.2501 11.3219C11.2458 11.2181 11.22 11.1162 11.1743 11.0229C11.1286 10.9295 11.064 10.8466 10.9846 10.7795Z" fill="#030303"/>
<path d="M7.51648 7.9281L6.73467 7.28638C6.6075 7.1815 6.51486 7.04082 6.4688 6.88264C6.42274 6.72446 6.42539 6.55609 6.47641 6.39943C6.60654 6.00267 6.49597 5.54029 5.96916 5.01328L4.24256 3.28999C4.20974 3.25779 4.16558 3.23975 4.11958 3.23975C4.07357 3.23975 4.02941 3.25779 3.99659 3.28999C3.96214 3.3245 3.94279 3.37125 3.94279 3.41999C3.94279 3.46873 3.96214 3.51548 3.99659 3.54999L5.59581 5.14729C5.6129 5.16438 5.62645 5.18466 5.6357 5.20698C5.64494 5.2293 5.64969 5.25322 5.64968 5.27738C5.64967 5.30153 5.64489 5.32545 5.63563 5.34776C5.62636 5.37007 5.61279 5.39034 5.59568 5.40741C5.57858 5.42448 5.55827 5.43802 5.53593 5.44725C5.51359 5.45649 5.48964 5.46123 5.46546 5.46122C5.44128 5.46121 5.41734 5.45644 5.39501 5.44719C5.37267 5.43793 5.35238 5.42437 5.33529 5.40729L3.73582 3.81023C3.7014 3.77586 3.65473 3.75656 3.60606 3.75656C3.55739 3.75656 3.51072 3.77586 3.4763 3.81023L3.47455 3.81224C3.45742 3.82921 3.44383 3.8494 3.43455 3.87165C3.42528 3.8939 3.4205 3.91776 3.4205 3.94186C3.4205 3.96596 3.42528 3.98982 3.43455 4.01207C3.44383 4.03432 3.45742 4.05451 3.47455 4.07148L5.07327 5.66879C5.10668 5.7036 5.12513 5.75009 5.12467 5.79831C5.12421 5.84654 5.10488 5.89267 5.0708 5.92683C5.03673 5.961 4.99063 5.98049 4.94235 5.98114C4.89408 5.98178 4.84747 5.96353 4.8125 5.93029L3.21428 4.33173C3.19726 4.31458 3.17701 4.30096 3.15469 4.29167C3.13238 4.28238 3.10844 4.27759 3.08427 4.27759C3.06009 4.27759 3.03616 4.28238 3.01384 4.29167C2.99153 4.30096 2.97128 4.31458 2.95426 4.33173V4.33323C2.93719 4.35024 2.92365 4.37045 2.91442 4.39269C2.90518 4.41493 2.90042 4.43878 2.90042 4.46286C2.90042 4.48694 2.90518 4.51078 2.91442 4.53302C2.92365 4.55527 2.93719 4.57547 2.95426 4.59248L4.55323 6.18978C4.58729 6.22435 4.6063 6.27097 4.6061 6.31948C4.60591 6.36798 4.58654 6.41445 4.5522 6.44875C4.51787 6.48305 4.47135 6.5024 4.42279 6.5026C4.37424 6.50279 4.32757 6.4838 4.29296 6.44978L2.69349 4.85323C2.67644 4.83613 2.65618 4.82257 2.63387 4.81332C2.61156 4.80406 2.58764 4.7993 2.56348 4.7993C2.53932 4.7993 2.5154 4.80406 2.49309 4.81332C2.47078 4.82257 2.45052 4.83613 2.43347 4.85323C2.40103 4.8858 2.38281 4.92988 2.38281 4.97584C2.38281 5.02179 2.40103 5.06587 2.43347 5.09845L4.15857 6.82174C4.68512 7.34774 5.14899 7.45846 5.54641 7.32846C5.70339 7.27761 5.87206 7.27515 6.03046 7.32138C6.18886 7.36762 6.32966 7.46042 6.43454 7.5877L7.0476 8.33263L7.51648 7.9281Z" fill="#030303"/>
</svg>
