<svg width="18" height="18" viewBox="0 0 18 18" fill="none" xmlns="http://www.w3.org/2000/svg">
<path d="M2.6001 4.19998H15.4001L14.1361 15.576C14.0928 15.9675 13.9066 16.3292 13.6131 16.592C13.3196 16.8547 12.9396 17 12.5457 17H5.4545C5.06061 17 4.68055 16.8547 4.3871 16.592C4.09364 16.3292 3.90743 15.9675 3.8641 15.576L2.6001 4.19998Z" stroke="#FF118E" stroke-width="1.5" stroke-linecap="round" stroke-linejoin="round"/>
<path d="M5.27571 1.9176C5.40511 1.64317 5.60987 1.4112 5.86611 1.24873C6.12235 1.08626 6.4195 0.999996 6.72291 1H11.2765C11.58 0.999845 11.8774 1.08604 12.1338 1.24851C12.3902 1.41099 12.595 1.64305 12.7245 1.9176L13.7997 4.2H4.19971L5.27571 1.9176Z" stroke="#FF118E" stroke-width="1.5" stroke-linecap="round" stroke-linejoin="round"/>
<path d="M1 4.19998H17" stroke="#FF118E" stroke-width="1.5" stroke-linecap="round" stroke-linejoin="round"/>
<path d="M7.3999 8.19998V12.2" stroke="#FF118E" stroke-width="1.5" stroke-linecap="round" stroke-linejoin="round"/>
<path d="M10.6001 8.19998V12.2" stroke="#FF118E" stroke-width="1.5" stroke-linecap="round" stroke-linejoin="round"/>
</svg>
