<svg width="24" height="24" viewBox="0 0 24 24" fill="none" xmlns="http://www.w3.org/2000/svg">
<path fill-rule="evenodd" clip-rule="evenodd" d="M5 3.5V18.5C5 18.8978 5.15804 19.2794 5.43934 19.5607C5.72064 19.842 6.10218 20 6.5 20H13V18.2325C12.6187 18.0124 12.3207 17.6726 12.1522 17.2658C11.9838 16.8591 11.9542 16.4081 12.0681 15.9828C12.1821 15.5575 12.4332 15.1818 12.7825 14.9137C13.1318 14.6457 13.5597 14.5004 14 14.5004C14.4403 14.5004 14.8682 14.6457 15.2175 14.9137C15.5668 15.1818 15.8179 15.5575 15.9319 15.9828C16.0458 16.4081 16.0162 16.8591 15.8478 17.2658C15.6793 17.6726 15.3813 18.0124 15 18.2325V20H17.5C17.8978 20 18.2794 19.842 18.5607 19.5607C18.842 19.2794 19 18.8978 19 18.5V3.5C19 3.10218 18.842 2.72064 18.5607 2.43934C18.2794 2.15804 17.8978 2 17.5 2H6.5C6.10218 2 5.72064 2.15804 5.43934 2.43934C5.15804 2.72064 5 3.10218 5 3.5V3.5ZM14 17.5C14.2652 17.5 14.5196 17.3946 14.7071 17.2071C14.8946 17.0196 15 16.7652 15 16.5C15 16.2348 14.8946 15.9804 14.7071 15.7929C14.5196 15.6054 14.2652 15.5 14 15.5C13.7348 15.5 13.4804 15.6054 13.2929 15.7929C13.1054 15.9804 13 16.2348 13 16.5C13 16.7652 13.1054 17.0196 13.2929 17.2071C13.4804 17.3946 13.7348 17.5 14 17.5V17.5ZM9 5.5C9 5.36739 9.05268 5.24021 9.14645 5.14645C9.24021 5.05268 9.36739 5 9.5 5H14.5C14.6326 5 14.7598 5.05268 14.8536 5.14645C14.9473 5.24021 15 5.36739 15 5.5C15 5.63261 14.9473 5.75979 14.8536 5.85355C14.7598 5.94732 14.6326 6 14.5 6H9.5C9.36739 6 9.24021 5.94732 9.14645 5.85355C9.05268 5.75979 9 5.63261 9 5.5ZM7.5 8C7.36739 8 7.24021 8.05268 7.14645 8.14645C7.05268 8.24021 7 8.36739 7 8.5C7 8.63261 7.05268 8.75979 7.14645 8.85355C7.24021 8.94732 7.36739 9 7.5 9H16.5C16.6326 9 16.7598 8.94732 16.8536 8.85355C16.9473 8.75979 17 8.63261 17 8.5C17 8.36739 16.9473 8.24021 16.8536 8.14645C16.7598 8.05268 16.6326 8 16.5 8H7.5ZM7 10.5C7 10.3674 7.05268 10.2402 7.14645 10.1464C7.24021 10.0527 7.36739 10 7.5 10H16.5C16.6326 10 16.7598 10.0527 16.8536 10.1464C16.9473 10.2402 17 10.3674 17 10.5C17 10.6326 16.9473 10.7598 16.8536 10.8536C16.7598 10.9473 16.6326 11 16.5 11H7.5C7.36739 11 7.24021 10.9473 7.14645 10.8536C7.05268 10.7598 7 10.6326 7 10.5ZM7.5 12C7.36739 12 7.24021 12.0527 7.14645 12.1464C7.05268 12.2402 7 12.3674 7 12.5C7 12.6326 7.05268 12.7598 7.14645 12.8536C7.24021 12.9473 7.36739 13 7.5 13H16.5C16.6326 13 16.7598 12.9473 16.8536 12.8536C16.9473 12.7598 17 12.6326 17 12.5C17 12.3674 16.9473 12.2402 16.8536 12.1464C16.7598 12.0527 16.6326 12 16.5 12H7.5Z" fill="#404B69"/>
<path d="M13 22V20H15V22L14 21.25L13 22Z" fill="#404B69"/>
</svg>
