<svg xmlns="http://www.w3.org/2000/svg" width="34.972" height="34.972" viewBox="0 0 34.972 34.972"><defs><style>.a{fill:#6c757d;}</style></defs><g transform="translate(18.652 8.74)"><path class="a" d="M262.124,123l-.374-1.232a2.675,2.675,0,0,0-5.066,0L256.309,123a6.918,6.918,0,0,0-.193,3.206,3.015,3.015,0,0,0,1.553,2.1l-.419,9.368a1.846,1.846,0,0,0,.466,1.435,2.036,2.036,0,0,0,2.876.129q.067-.062.129-.129a1.821,1.821,0,0,0,.466-1.4l-.421-9.409a3.015,3.015,0,0,0,1.55-2.1A6.918,6.918,0,0,0,262.124,123Zm-.955,3a1.848,1.848,0,0,1-1.209,1.392.583.583,0,0,0-.377.572l.443,9.839a.674.674,0,0,1-.175.528.9.9,0,0,1-1.267,0,.7.7,0,0,1-.171-.567l.439-9.8a.583.583,0,0,0-.377-.572A1.848,1.848,0,0,1,257.265,126a5.748,5.748,0,0,1,.16-2.661l.374-1.232a1.511,1.511,0,0,1,2.835,0l.374,1.232A5.755,5.755,0,0,1,261.169,126Z" transform="translate(-256.012 -119.955)"/></g><g transform="translate(9.909 8.743)"><path class="a" d="M141.829,120a.583.583,0,0,0-.583.583v5l-1.578,1.578a.583.583,0,0,0-.171.441l.51,10.2a.794.794,0,0,1-.22.594.821.821,0,0,1-1.161.005l-.005-.005a.794.794,0,0,1-.22-.594l.514-10.2a.583.583,0,0,0-.17-.441l-1.578-1.578v-5a.583.583,0,0,0-1.166,0v5.246a.583.583,0,0,0,.171.412l1.566,1.566-.5,9.943a1.969,1.969,0,1,0,3.933.192q0-.1,0-.192l-.5-9.943,1.566-1.566a.583.583,0,0,0,.171-.412v-5.246A.583.583,0,0,0,141.829,120Z" transform="translate(-136 -120)"/></g><g transform="translate(11.657 8.743)"><path class="a" d="M160.583,120a.583.583,0,0,0-.583.583v4.663a.583.583,0,0,0,1.166,0v-4.663A.583.583,0,0,0,160.583,120Z" transform="translate(-160 -120)"/></g><g transform="translate(13.406 8.743)"><path class="a" d="M184.583,120a.583.583,0,0,0-.583.583v4.663a.583.583,0,0,0,1.166,0v-4.663A.583.583,0,0,0,184.583,120Z" transform="translate(-184 -120)"/></g><path class="a" d="M17.486,0A17.486,17.486,0,1,0,34.972,17.486,17.486,17.486,0,0,0,17.486,0Zm0,33.806a16.32,16.32,0,1,1,16.32-16.32A16.32,16.32,0,0,1,17.486,33.806Z"/><g transform="translate(15.6 27.901)"><path class="a" d="M217.891,383.475a.583.583,0,0,0-.637-.523l-.023,0h0a10.7,10.7,0,0,1-2.47,0,.583.583,0,0,0-.136,1.158,11.807,11.807,0,0,0,2.739,0A.583.583,0,0,0,217.891,383.475Z" transform="translate(-214.113 -382.949)"/></g><g transform="translate(24.72 9.767)"><path class="a" d="M340.978,134.261a.583.583,0,0,0-.821-.072l0,0a.583.583,0,0,0-.07.821,10.491,10.491,0,0,1-.618,14.191.583.583,0,0,0,.823.826A11.657,11.657,0,0,0,340.978,134.261Z" transform="translate(-339.295 -134.053)"/></g><g transform="translate(12.996 5.831)"><path class="a" d="M186.355,105.743h0Z" transform="translate(-185.771 -103.869)"/><path class="a" d="M185.621,80.351a11.76,11.76,0,0,0-6.861.421.582.582,0,1,0,.409,1.091,10.589,10.589,0,0,1,6.178-.379.583.583,0,0,0,.274-1.133Z" transform="translate(-178.382 -80.027)"/></g><g transform="translate(5.828 10.381)"><path class="a" d="M84.215,157a10.49,10.49,0,0,1-1.054-13.574.583.583,0,0,0-.932-.7l-.01.014a11.657,11.657,0,0,0,1.17,15.086.584.584,0,1,0,.826-.825Z" transform="translate(-79.989 -142.488)"/></g></svg>