<svg xmlns="http://www.w3.org/2000/svg" width="24" height="24" viewBox="0 0 24 24"><defs><style>.a,.d{fill:none;}.a{stroke:#151515;stroke-width:1.5px;}.b{fill:#151515;}.c{stroke:none;}</style></defs><g transform="translate(-0.296 0.182)"><g class="a" transform="translate(0.296 -0.182)"><circle class="c" cx="12" cy="12" r="12"/><circle class="d" cx="12" cy="12" r="11.25"/></g><g transform="translate(5.728 5.259)"><g transform="translate(0 0)"><g transform="translate(0)"><path class="b" d="M21.6,3.2a2.166,2.166,0,0,0-.3-.325A1.992,1.992,0,0,0,19.8,2.25a2.124,2.124,0,0,0-1.526.629A2.093,2.093,0,0,0,17.647,4.4a1.952,1.952,0,0,0,.064.5l-3.476,2.31a2,2,0,0,0-1.187-.36,2.152,2.152,0,0,0-1.526.622A2.105,2.105,0,0,0,10.9,9a2.057,2.057,0,0,0,.622,1.5,2.1,2.1,0,0,0,1.526.65,1.962,1.962,0,0,0,1.18-.367l3.483,2.324a1.924,1.924,0,0,0-.064.495,2.015,2.015,0,0,0,.629,1.5,2.089,2.089,0,0,0,1.526.65,1.961,1.961,0,0,0,1.491-.65,2.671,2.671,0,0,0,.3-.311A2.05,2.05,0,0,0,21.95,13.6a2.1,2.1,0,0,0-.353-1.194,2.413,2.413,0,0,0-1.794-.954,2.128,2.128,0,0,0-1.265.4L15.125,9.583A2.324,2.324,0,0,0,15.2,9a2.569,2.569,0,0,0-.064-.579L18.558,6.15a2.055,2.055,0,0,0,1.243.4A1.952,1.952,0,0,0,21.293,5.9a2.311,2.311,0,0,0,.3-.3A2.071,2.071,0,0,0,21.95,4.4,2.116,2.116,0,0,0,21.6,3.2Z" transform="translate(-10.9 -2.25)"/></g></g></g></g></svg>