<svg xmlns="http://www.w3.org/2000/svg" width="39" height="35" viewBox="0 0 39 35"><defs><style>.a{fill:#fff;}.b,.e{fill:none;}.b{stroke:#8a8a8a;stroke-width:1.5px;}.c{fill:#8a8a8a;}.d{stroke:none;}</style></defs><g transform="translate(-316 -51)"><rect class="a" width="39" height="35" rx="10" transform="translate(316 51)"/><g transform="translate(325.907 58.605)"><g class="b" transform="translate(-0.407 -0.104)"><circle class="d" cx="10" cy="10" r="10"/><circle class="e" cx="10" cy="10" r="9.25"/></g><g transform="translate(4.839 4.331)"><g transform="translate(0)"><g transform="translate(0 0)"><path class="c" d="M19.561,3.022a1.754,1.754,0,0,0-.246-.263,1.613,1.613,0,0,0-1.207-.509,1.72,1.72,0,0,0-1.236.509,1.7,1.7,0,0,0-.509,1.236,1.581,1.581,0,0,0,.051.406L13.6,6.272a1.62,1.62,0,0,0-.961-.292,1.743,1.743,0,0,0-1.236.5,1.7,1.7,0,0,0-.5,1.236,1.665,1.665,0,0,0,.5,1.213,1.7,1.7,0,0,0,1.236.526,1.589,1.589,0,0,0,.955-.3l2.82,1.882a1.558,1.558,0,0,0-.051.4,1.632,1.632,0,0,0,.509,1.213,1.692,1.692,0,0,0,1.236.526,1.588,1.588,0,0,0,1.207-.526,2.163,2.163,0,0,0,.246-.252,1.66,1.66,0,0,0,.286-.961,1.7,1.7,0,0,0-.286-.967A1.954,1.954,0,0,0,18.108,9.7a1.723,1.723,0,0,0-1.024.326L14.321,8.188a1.882,1.882,0,0,0,.057-.469,2.081,2.081,0,0,0-.051-.469L17.1,5.408a1.664,1.664,0,0,0,1.007.326A1.58,1.58,0,0,0,19.315,5.2a1.872,1.872,0,0,0,.246-.246,1.677,1.677,0,0,0,.286-.961A1.713,1.713,0,0,0,19.561,3.022Z" transform="translate(-10.9 -2.25)"/></g></g></g></g></g></svg>