<svg xmlns="http://www.w3.org/2000/svg" width="10.567" height="17.05" viewBox="0 0 10.567 17.05"><defs><style>.a{fill:#ff118e;}</style></defs><g transform="translate(-14.65 -11.5)"><path class="a" d="M47.45,44.05h0A2.561,2.561,0,0,0,50,41.5V35.55a2.55,2.55,0,1,0-5.1,0V41.5A2.561,2.561,0,0,0,47.45,44.05Z" transform="translate(-27.45 -21.5)"/><path class="a" d="M49.15,42.8a.79.79,0,0,0-.8.8v4.3A2.347,2.347,0,0,1,46,50.25H43.25A2.347,2.347,0,0,1,40.9,47.9V43.6a.8.8,0,0,0-1.6,0v4.3a3.958,3.958,0,0,0,3.95,3.95h.45v.75a.526.526,0,0,1-.4.5l-2.45.65a.594.594,0,0,0-.4.5v.3a.43.43,0,0,0,.4.4H48.3a.43.43,0,0,0,.4-.4v-.3a.526.526,0,0,0-.4-.5l-2.45-.65a.594.594,0,0,1-.4-.5v-.75h.45a3.958,3.958,0,0,0,3.95-3.95V43.6A.663.663,0,0,0,49.15,42.8Z" transform="translate(-24.65 -26.4)"/></g></svg>