<svg xmlns="http://www.w3.org/2000/svg" xmlns:xlink="http://www.w3.org/1999/xlink" width="43.662" height="43.662" viewBox="0 0 43.662 43.662"><defs><style>.a{fill:#1e1e1e;}.b{fill:url(#a);}.c{fill:#94009e;}.d{fill:#4c00f0;}.e{fill:#ff1482;}.f{fill:#ffb419;}.g{mix-blend-mode:multiply;isolation:isolate;}.h{fill:url(#b);}</style><linearGradient id="a" y1="0.5" x2="1" y2="0.5" gradientUnits="objectBoundingBox"><stop offset="0" stop-color="#4c00f0"/><stop offset="1" stop-color="#d40055"/></linearGradient><linearGradient id="b" y1="0.5" x2="1" y2="0.5" gradientUnits="objectBoundingBox"><stop offset="0.101" stop-color="#ffeb00"/><stop offset="0.487" stop-color="#fa0"/><stop offset="1" stop-color="#ff5000"/></linearGradient></defs><g transform="translate(63.543 -1436.457)"><path class="a" d="M316.463,1836.792c-.01-.045-.022-.091-.035-.136-.026-.089-.055-.177-.087-.275-.046-.134-.1-.268-.149-.4a7.746,7.746,0,0,0-7.138-4.753,7.464,7.464,0,0,0-.852.049,7.826,7.826,0,0,0-2.333.643l-.117.054a1.977,1.977,0,0,0-3.444.908l-.777,4.009h-.049a2.147,2.147,0,0,0-.47.052,8.993,8.993,0,0,0,.5,17.643,2.025,2.025,0,0,0,.057.238c.064.21.139.421.222.626a7.744,7.744,0,0,0,7.135,4.753,7.471,7.471,0,0,0,.854-.049,7.83,7.83,0,0,0,2.334-.643l.116-.054a1.977,1.977,0,0,0,3.444-.908l.766-3.953q.068,0,.136,0a2.147,2.147,0,0,0,.377-.033,8.993,8.993,0,0,0-.494-17.777Z" transform="translate(-350.892 -387.429)"/><path class="b" d="M90.1,1980.5a.465.465,0,0,1-.465.466.462.462,0,0,1,0-.925A.466.466,0,0,1,90.1,1980.5Zm2.917,2.168a.457.457,0,1,0-.454-.461A.457.457,0,0,0,93.016,1982.669Zm-.859,2.539a.457.457,0,1,0-.456-.46A.454.454,0,0,0,92.156,1985.208Zm-3.386-.012a.459.459,0,1,0-.455-.463A.46.46,0,0,0,88.77,1985.2Zm-.847-.849a.456.456,0,0,0,.009-.913.456.456,0,0,0-.009.913Zm5.079.01a.454.454,0,1,0-.449-.452A.453.453,0,0,0,93,1984.358Zm-1.7,1.69a.452.452,0,1,0-.434-.467A.448.448,0,0,0,91.3,1986.049Zm-1.676-.013a.451.451,0,1,0,0-.9.451.451,0,0,0,0,.9Zm.858-6.813a.45.45,0,0,0-.006.9.45.45,0,1,0,.006-.9Zm2.542.851a.446.446,0,1,0,.442.448A.445.445,0,0,0,93.022,1980.074Zm-5.082-.011a.442.442,0,1,0,.446.441A.439.439,0,0,0,87.941,1980.063Zm5.909,3.442a.445.445,0,1,0-.443-.447A.445.445,0,0,0,93.85,1983.5Zm-6.76-.018a.442.442,0,0,0-.013-.884.442.442,0,1,0,.013.884Zm5.084-4.255a.443.443,0,1,0,.006.886.443.443,0,0,0-.006-.886Zm-3.383-.013a.441.441,0,1,0,.439.438A.443.443,0,0,0,88.791,1979.218Zm-1.7,1.694a.439.439,0,1,0,.441.436A.444.444,0,0,0,87.094,1980.913Zm6.772.892a.438.438,0,1,0-.006-.875.438.438,0,0,0,.006.875Zm-3.393,5.077a.437.437,0,0,0-.009-.874.437.437,0,1,0,.009.874Zm-2.551-.861a.437.437,0,1,0-.432-.433A.437.437,0,0,0,87.923,1986.021Zm5.083-.856a.434.434,0,1,0,.435.425A.434.434,0,0,0,93.005,1985.164Zm-5.921.008a.435.435,0,1,0-.435-.437A.437.437,0,0,0,87.084,1985.172Zm6.764-.853a.432.432,0,1,0,.437.434A.429.429,0,0,0,93.849,1984.32Zm-4.219-5.073a.433.433,0,1,0-.428-.435A.437.437,0,0,0,89.629,1979.247Zm1.7-.85a.43.43,0,1,0,0,.861.43.43,0,0,0,0-.861Zm-2.562,8.466a.431.431,0,1,0,.009-.862.431.431,0,0,0-.009.862Zm3.393-.848a.43.43,0,0,0-.006.859.43.43,0,1,0,.006-.859Zm2.545-3.375a.428.428,0,0,0,.009-.855.428.428,0,1,0-.009.855Zm0,.839a.426.426,0,1,0,.42.43A.427.427,0,0,0,94.7,1983.479Zm-8.452-.854a.425.425,0,1,0-.009-.851.425.425,0,1,0,.009.851Zm-.015,1.689a.422.422,0,1,0-.427-.427A.422.422,0,0,0,86.238,1984.313Zm7.626-4.217a.422.422,0,1,0,0-.845.422.422,0,0,0,0,.845Zm-6.763-.018a.42.42,0,1,0-.425-.417A.419.419,0,0,0,87.1,1980.079Zm4.211,6.792a.421.421,0,1,0,.419.425A.418.418,0,0,0,91.312,1986.871Zm-1.688-.013a.419.419,0,1,0-.008.837.419.419,0,0,0,.008-.837Zm3.4-7.61a.42.42,0,1,0-.007-.839.42.42,0,0,0,.007.839Zm-5.092-.017a.418.418,0,1,0,.009-.836.418.418,0,0,0-.009.836Zm-1.693,1.691a.417.417,0,1,0,.015-.834.417.417,0,0,0-.015.834Zm8.466.015a.416.416,0,1,0,.01-.832.416.416,0,0,0-.01.832Zm-4.228-2.539a.416.416,0,1,0,0-.833.416.416,0,0,0,0,.833Zm-3.4,7.619a.413.413,0,1,0,.412.418A.413.413,0,0,0,87.08,1986.017Zm1.71-7.638a.412.412,0,1,0-.414-.417A.412.412,0,0,0,88.791,1978.379Zm5.067,7.656a.41.41,0,1,0,.406.41A.408.408,0,0,0,93.857,1986.034Zm-1.682-7.644a.41.41,0,1,0-.413-.413A.407.407,0,0,0,92.175,1978.39Zm3.383,4.26a.409.409,0,1,0,.4.419A.406.406,0,0,0,95.558,1982.65Zm-10.152-.016a.411.411,0,1,0,.4.412A.409.409,0,0,0,85.406,1982.634Zm.831,2.539a.411.411,0,0,0,0,.823.411.411,0,0,0,0-.823Zm8.466.016a.408.408,0,1,0,.406.422A.405.405,0,0,0,94.7,1985.189Zm-1.7,1.694a.407.407,0,1,0,.414.4A.409.409,0,0,0,93,1986.883Zm-5.07-.014a.408.408,0,0,0-.007.817.408.408,0,1,0,.007-.817Zm7.627-5.91a.406.406,0,1,0,.005.813.406.406,0,0,0-.005-.812Zm-10.161.8a.406.406,0,1,0-.4-.4A.411.411,0,0,0,85.4,1981.76Zm5.066,5.961a.4.4,0,1,0,.007.806.4.4,0,1,0-.007-.806Zm5.084-3.373a.4.4,0,1,0,.4.4A.409.409,0,0,0,95.547,1984.347Zm-10.154-.01a.4.4,0,1,0,.4.405A.4.4,0,0,0,85.394,1984.337Zm6.762,3.4a.4.4,0,1,0,.4.4A.4.4,0,0,0,92.156,1987.737Zm-.829-10.2a.4.4,0,0,0,0-.8.4.4,0,0,0,0,.8Zm-2.547,10.191a.4.4,0,1,0-.013.794.4.4,0,1,0,.013-.794Zm.859-10.209a.4.4,0,1,0-.4-.4A.392.392,0,0,0,89.639,1977.517Zm5.07,1.708a.4.4,0,1,0,0-.792.4.4,0,0,0,0,.792Zm-8.466-.017a.4.4,0,1,0,.008-.791.4.4,0,0,0-.008.791Zm.837-.847a.395.395,0,1,0,.033-.789.395.395,0,0,0-.033.789Zm6.788.015a.394.394,0,1,0,0-.787.394.394,0,0,0,0,.787Zm-8.454,1.677a.393.393,0,1,0-.4-.385A.392.392,0,0,0,85.413,1980.052Zm-.854,1.753a.393.393,0,1,0,.391.4A.4.4,0,0,0,84.559,1981.8Zm11.856.018a.39.39,0,1,0-.014.781.39.39,0,1,0,.014-.781Zm-.857-1.759a.39.39,0,1,0,0-.781.39.39,0,0,0,0,.781Zm-11.01,3.436a.391.391,0,1,0,.384.391A.394.394,0,0,0,84.547,1983.5Zm11.841.017a.388.388,0,1,0,.393.391A.388.388,0,0,0,96.388,1983.517Zm-3.369-6a.386.386,0,1,0,0-.772.386.386,0,1,0,0,.772Zm-5.074-.011a.389.389,0,1,0-.392-.385A.392.392,0,0,0,87.945,1977.509Zm6.751,9.4a.385.385,0,0,0,.006.77.385.385,0,1,0-.006-.77Zm-8.457-.015a.387.387,0,0,0-.007.775.387.387,0,0,0,.007-.775Zm9.3-.83a.384.384,0,0,0,0,.768.384.384,0,1,0,0-.768Zm-10.156-.014a.385.385,0,1,0,.011.771.385.385,0,0,0-.011-.771Zm11.021-5.143a.384.384,0,0,0,0-.768.384.384,0,1,0,0,.768Zm-6.782,7.683a.38.38,0,0,0-.386.383.384.384,0,0,0,.384.386.384.384,0,0,0,0-.769Zm1.684.013a.384.384,0,0,0,0,.768.384.384,0,1,0,0-.768Zm2.54-.845a.383.383,0,0,0,.007.766.383.383,0,1,0-.007-.766Zm-9.293-6.864a.383.383,0,1,0-.385-.389A.387.387,0,0,0,84.556,1980.889Zm2.522,6.853a.382.382,0,0,0,.007.764.382.382,0,1,0-.007-.764Zm3.4-11.073a.382.382,0,0,0,.005-.764.382.382,0,1,0-.005.764Zm5.915,8.549a.38.38,0,1,0,.374.376A.382.382,0,0,0,96.4,1985.218Zm-11.849-.01a.376.376,0,1,0,.373.372A.374.374,0,0,0,84.546,1985.208Zm7.624-8.542a.377.377,0,0,0,.006-.754.377.377,0,0,0-.006.754Zm-3.387-.017a.374.374,0,1,0-.369-.373A.37.37,0,0,0,88.784,1976.648Zm-.839,11.948a.373.373,0,1,0-.031.746.373.373,0,0,0,.031-.746Zm-4.235-5.925a.373.373,0,0,0,0,.746.373.373,0,1,0,0-.746Zm9.3,5.938a.375.375,0,1,0,.367.377A.371.371,0,0,0,93.01,1988.609Zm4.228-5.924a.374.374,0,1,0,0,.749.374.374,0,0,0,0-.749Zm-13.522-.963a.371.371,0,0,0-.006-.742.371.371,0,1,0,.006.742ZM97.251,1981a.369.369,0,1,0,.009.738.369.369,0,1,0-.009-.738ZM85.4,1978.336a.37.37,0,1,0-.364-.369A.369.369,0,0,0,85.4,1978.336Zm10.162.012a.368.368,0,1,0,0-.736.368.368,0,1,0,0,.736Zm-9.311-.86a.369.369,0,1,0-.367-.366A.371.371,0,0,0,86.249,1977.489Zm8.458.011a.366.366,0,1,0-.362-.369A.366.366,0,0,0,94.707,1977.5Zm2.537,6.886a.366.366,0,1,0,.36.369A.365.365,0,0,0,97.244,1984.386Zm-6.765,5.062a.368.368,0,1,0,.354.378A.369.369,0,0,0,90.479,1989.448Zm5.923-10.256a.365.365,0,1,0-.363-.365A.361.361,0,0,0,96.4,1979.191Zm-12.7,5.178a.368.368,0,1,0,.36.371A.369.369,0,0,0,83.7,1984.37Zm.838-5.189a.367.367,0,1,0-.349-.383A.367.367,0,0,0,84.539,1979.18Zm4.237,10.275a.362.362,0,0,0,0,.723.362.362,0,1,0,0-.723Zm-1.68-12.818a.362.362,0,1,0-.364-.366A.366.366,0,0,0,87.1,1976.637Zm6.77.012a.361.361,0,0,0,0-.723.361.361,0,1,0,0,.723Zm-1.706,12.819a.361.361,0,0,0,0,.723.361.361,0,1,0,0-.723ZM89.64,1975.8a.361.361,0,0,0-.007-.721.361.361,0,1,0,.007.721Zm1.691,0a.361.361,0,0,0,0-.721.36.36,0,1,0,0,.721Zm4.217,11.976a.359.359,0,0,0-.005.719.359.359,0,1,0,.005-.719Zm1.705-7.745a.36.36,0,0,0,0-.719.36.36,0,1,0,0,.719Zm-.865,6.9a.359.359,0,1,0,.363.355A.364.364,0,0,0,96.387,1986.931Zm-11,.835a.357.357,0,1,0,0,.714.357.357,0,1,0,0-.714Zm-1.682-7.75a.356.356,0,1,0,.006-.713.356.356,0,1,0-.006.713Zm.832,6.906a.355.355,0,1,0,.361.354A.352.352,0,0,0,84.539,1986.922Zm10.161,1.7a.357.357,0,1,0,.354.362A.359.359,0,0,0,94.7,1988.626Zm-8.466-.01a.353.353,0,1,0,.356.358A.353.353,0,0,0,86.234,1988.616Zm11.857-6.758a.355.355,0,1,0,.345.357A.357.357,0,0,0,98.091,1981.858Zm-15.231-.012a.352.352,0,1,0,.358.357A.353.353,0,0,0,82.86,1981.846Zm-.011,1.694a.351.351,0,1,0,0,.7.351.351,0,0,0,0-.7Zm.843,2.539a.351.351,0,1,0,.006.7.351.351,0,0,0-.006-.7Zm14.392-2.526a.353.353,0,1,0,.35.35A.35.35,0,0,0,98.084,1983.553Zm-10.14-7.776a.35.35,0,1,0,0-.7.35.35,0,0,0,0,.7Zm5.074.018a.352.352,0,1,0,0-.7.352.352,0,0,0,0,.7Zm4.218,10.3a.352.352,0,1,0,.351.351A.349.349,0,0,0,97.236,1986.093Zm-10.155,3.374a.349.349,0,0,0-.007.7.349.349,0,1,0,.007-.7Zm6.773.017a.347.347,0,1,0,0,.694.347.347,0,0,0,0-.694Zm-10.995-8.63a.348.348,0,1,0-.341-.346A.346.346,0,0,0,82.859,1980.853Zm15.244-.678a.345.345,0,1,0-.01.69.345.345,0,1,0,.01-.69Zm-8.472,10.14a.347.347,0,1,0-.015.694.347.347,0,0,0,.015-.694Zm1.693.018a.343.343,0,1,0,.334.35A.344.344,0,0,0,91.323,1990.333Zm-8.472-5.09a.342.342,0,0,0,0,.684.342.342,0,0,0,0-.684Zm15.232.015a.34.34,0,1,0,.343.342A.341.341,0,0,0,98.083,1985.257Zm-13.529-7.795a.341.341,0,0,0,0-.683.341.341,0,0,0,0,.683Zm11.861.011a.34.34,0,0,0-.009-.679.34.34,0,1,0,.009.679Zm-5.942-2.539a.34.34,0,0,0,.015-.68.34.34,0,1,0-.015.68Zm5.085,1.692a.339.339,0,0,0,.008-.677.339.339,0,1,0-.008.677Zm1.7,1.692a.338.338,0,0,0,0-.676.338.338,0,1,0,0,.676Zm-11.846-1.7a.338.338,0,0,0,.332-.342.334.334,0,0,0-.337-.335.34.34,0,0,0-.34.335A.344.344,0,0,0,85.407,1976.614Zm7.6,13.724a.337.337,0,0,0,0,.675.337.337,0,1,0,0-.675Zm-.831-15.406a.337.337,0,0,0,0-.675.337.337,0,1,0,0,.675Zm-8.46,3.372a.337.337,0,1,0-.344-.332A.341.341,0,0,0,83.714,1978.3Zm4.211,12.023a.335.335,0,0,0,.006.671.335.335,0,1,0-.006-.671Zm.86-15.41a.335.335,0,1,0,0-.67.335.335,0,1,0,0,.67Zm5.928.86a.335.335,0,1,0-.335-.34A.335.335,0,0,0,94.713,1975.777Zm4.221,6.948a.335.335,0,1,0,.329.333A.336.336,0,0,0,98.934,1982.724Zm-16.919-.011a.331.331,0,1,0,.335.335A.33.33,0,0,0,82.015,1982.713Zm4.237-6.955a.331.331,0,1,0-.336-.334A.329.329,0,0,0,86.252,1975.759Zm-4.232,5.922a.329.329,0,1,0-.331-.327A.324.324,0,0,0,82.019,1981.681Zm.841-2.539a.329.329,0,1,0-.325-.332A.325.325,0,0,0,82.86,1979.142Zm16.082,1.894a.332.332,0,0,0,.005.663.332.332,0,0,0-.005-.663Zm-.859-1.876a.332.332,0,0,0,.03-.662.332.332,0,0,0-.03.662Zm-1.693,9.494a.331.331,0,0,0,0,.662.331.331,0,0,0,0-.662Zm-11.843-.012a.328.328,0,1,0-.011.656.328.328,0,0,0,.011-.656Zm12.682-.831a.328.328,0,0,0,.01.656.328.328,0,1,0-.01-.656Zm-13.54-.015a.328.328,0,0,0,.007.655.328.328,0,1,0-.007-.655Zm15.235-3.369a.327.327,0,0,0,.007.654.327.327,0,1,0-.007-.654Zm-13.537,5.063a.327.327,0,1,0,0,.653.327.327,0,0,0,0-.653ZM82,1984.41a.327.327,0,0,0,0,.654.327.327,0,1,0,0-.654Zm13.547,5.095a.326.326,0,1,0,0,.651.326.326,0,0,0,0-.651Zm-5.087,1.677a.326.326,0,1,0,.008.652.326.326,0,0,0-.008-.652Zm-3.356-16.277a.325.325,0,0,0-.015-.649.325.325,0,1,0,.015.649Zm6.763.012a.322.322,0,1,0,0-.644.322.322,0,1,0,0,.644Zm-11.017,12.036a.323.323,0,1,0,.319.325A.326.326,0,0,0,82.851,1986.953Zm15.24.017a.321.321,0,1,0,.315.328A.321.321,0,0,0,98.091,1986.97Zm-9.315,4.216a.322.322,0,1,0,.319.316A.323.323,0,0,0,88.776,1991.186Zm3.385.018a.318.318,0,1,0,.319.312A.319.319,0,0,0,92.161,1991.2Zm-10.15-11.224a.321.321,0,1,0-.314-.321A.324.324,0,0,0,82.011,1979.98Zm4.23,10.362a.32.32,0,0,0-.01.641.32.32,0,0,0,.01-.641Zm12.7-10.351a.318.318,0,0,0,.008-.636.318.318,0,1,0-.008.636ZM94.7,1990.358a.318.318,0,0,0,0,.636.318.318,0,1,0,0-.636Zm-5.069-16.292a.317.317,0,0,0,0-.635.317.317,0,1,0,0,.635Zm1.686,0a.317.317,0,0,0,.018-.634.317.317,0,1,0-.018.634Zm7.614,12.064a.314.314,0,1,0,.314.317A.319.319,0,0,0,98.931,1986.13ZM82,1986.12a.311.311,0,1,0,0,.621.311.311,0,1,0,0-.621Zm17.782-4.219a.312.312,0,1,0,.3.315A.314.314,0,0,0,99.784,1981.9Zm-6.766-7.84a.312.312,0,1,0-.308-.31A.313.313,0,0,0,93.018,1974.061Zm-11.849,7.83a.308.308,0,1,0,.311.315A.307.307,0,0,0,81.17,1981.89Zm18.605,1.7a.311.311,0,1,0,.309.307A.313.313,0,0,0,99.775,1983.595Zm-2.516-7a.311.311,0,1,0-.315-.312A.313.313,0,0,0,97.259,1976.6Zm-13.557-.018a.307.307,0,1,0-.3-.312A.306.306,0,0,0,83.7,1976.581Zm4.237-2.539a.307.307,0,1,0-.306-.307A.306.306,0,0,0,87.939,1974.042Zm5.915,17.171a.31.31,0,0,0-.006.619.31.31,0,0,0,.006-.619Zm2.557-15.462a.31.31,0,0,0-.011-.619.31.31,0,0,0,.011.619Zm-15.249,7.832a.307.307,0,1,0-.013.614.307.307,0,0,0,.013-.614Zm3.4-7.85a.307.307,0,1,0-.311-.3A.3.3,0,0,0,84.56,1975.734Zm2.521,15.467a.307.307,0,1,0,0,.614.307.307,0,1,0,0-.614Zm11.01-13.759a.307.307,0,1,0,.008-.614.307.307,0,0,0-.008.614Zm-15.227-.017a.305.305,0,1,0-.007-.611.305.305,0,0,0,.007.611Zm-1.693,3.384a.3.3,0,1,0,0-.608.3.3,0,0,0,0,.608Zm4.222-5.925a.3.3,0,1,0,.013-.607.3.3,0,0,0-.013.607Zm14.387,5.334a.3.3,0,0,0,.015.6.3.3,0,1,0-.015-.6Zm-4.221-5.321a.3.3,0,1,0-.006-.6.3.3,0,0,0,.006.6Zm-5.938,17.156a.3.3,0,0,0,0,.6.3.3,0,0,0,0-.6Zm-7.6-13.785a.3.3,0,1,0-.3-.3A.3.3,0,0,0,82.02,1978.268Zm9.288,13.8a.3.3,0,1,0,.01.6.3.3,0,1,0-.01-.6Zm7.635-13.792a.3.3,0,1,0-.3-.291A.3.3,0,0,0,98.943,1978.279Zm.839,7.022a.3.3,0,1,0,.294.294A.3.3,0,0,0,99.782,1985.3Zm-18.628-.016a.3.3,0,1,0,.3.3A.3.3,0,0,0,81.154,1985.285Zm16.088,4.25a.3.3,0,1,0,.293.294A.3.3,0,0,0,97.242,1989.534Zm-13.549-.016a.3.3,0,0,0,.008.6.3.3,0,0,0-.008-.6Zm6.787-16.321a.295.295,0,1,0,0-.59.295.295,0,0,0,0,.59Zm7.614,15.491a.295.295,0,1,0-.011.59.295.295,0,0,0,.011-.59Zm-15.239-.015a.3.3,0,1,0,0,.594.3.3,0,0,0,0-.594Zm13.536,1.709a.294.294,0,0,0,0,.587.294.294,0,1,0,0-.587Zm-1.69-16.341a.293.293,0,0,0,.024-.586.293.293,0,1,0-.024.586Zm-10.16,16.328a.29.29,0,0,0-.29.3.292.292,0,0,0,.295.292.3.3,0,0,0,.292-.3A.3.3,0,0,0,84.54,1990.369Zm7.632-17.175a.292.292,0,1,0,0-.585.292.292,0,0,0,0,.585Zm.838,18.881a.292.292,0,1,0,0,.585.292.292,0,0,0,0-.585Zm-6.77-18.05a.291.291,0,1,0,.01-.582.291.291,0,0,0-.01.582Zm1.688,18.038a.291.291,0,1,0,0,.582.291.291,0,0,0,0-.582Zm.859-18.886a.289.289,0,1,0-.007-.579.289.289,0,1,0,.007.579Zm10.138,14.667a.291.291,0,0,0,.009.582.291.291,0,1,0-.009-.582ZM82,1987.835a.288.288,0,1,0,0,.576.288.288,0,1,0,0-.576Zm17.792-8.719a.29.29,0,1,0-.293-.293A.29.29,0,0,0,99.8,1979.116Zm-18.631-.018a.286.286,0,1,0-.282-.289A.285.285,0,0,0,81.165,1979.1Zm14.384,12.135a.288.288,0,1,0,.282.293A.29.29,0,0,0,95.549,1991.234Zm5.075-8.462a.287.287,0,1,0,.283.289A.286.286,0,0,0,100.624,1982.772Zm-15.24,8.451a.285.285,0,1,0,.291.281A.285.285,0,0,0,85.383,1991.223Zm-5.057-8.463a.284.284,0,1,0,.285.286A.285.285,0,0,0,80.326,1982.76Zm20.316-1.678a.285.285,0,1,0,0,.57.285.285,0,0,0,0-.57Zm-20.327.553a.283.283,0,1,0,.013-.566.283.283,0,0,0-.013.566Zm0,2.822a.281.281,0,1,0,0,.562.281.281,0,0,0,0-.562Zm.853,2.539a.281.281,0,1,0-.011.562.281.281,0,0,0,.011-.562Zm5.933-13.827a.28.28,0,1,0,0-.56.28.28,0,0,0,0,.56Zm13.527,11.3a.28.28,0,1,0,0,.56.28.28,0,0,0,0-.56Zm-.852,2.54a.278.278,0,1,0,.007.557.278.278,0,1,0-.007-.557Zm-5.9-13.833a.277.277,0,1,0,0-.554.277.277,0,1,0,0,.554Zm-3.4,19.742a.279.279,0,0,0,0,.558.279.279,0,1,0,0-.558Zm-4.229-.845a.277.277,0,1,0,.273.274A.278.278,0,0,0,86.237,1992.077Zm8.467.017a.274.274,0,1,0,.27.274A.271.271,0,0,0,94.7,1992.095Zm3.4-16.38a.273.273,0,1,0-.009-.547.273.273,0,1,0,.009.547Zm-15.241-.012a.275.275,0,0,0,.009-.55.275.275,0,1,0-.009.55Zm14.388-.835a.273.273,0,0,0,.009-.545.273.273,0,1,0-.009.545Zm-8.472,18.06a.274.274,0,0,0-.01.548.274.274,0,1,0,.01-.548Zm-5.068-18.072a.274.274,0,1,0-.273-.272A.278.278,0,0,0,83.708,1974.856Zm8.448,18.087a.272.272,0,0,0,.007.544.272.272,0,1,0-.007-.544Zm-11.835-13.009a.274.274,0,0,0,0-.547.274.274,0,0,0,0,.547Zm20.313.011a.272.272,0,0,0,0-.544.272.272,0,1,0,0,.544Zm-1.691-3.386a.271.271,0,0,0,0-.542.271.271,0,1,0,0,.542Zm-16.924-.012a.271.271,0,0,0,.267-.275.268.268,0,0,0-.273-.269.273.273,0,0,0-.27.274A.277.277,0,0,0,82.019,1976.547Zm9.3-4.221a.27.27,0,1,0,.005-.54.27.27,0,0,0-.005.54Zm-1.685,0a.27.27,0,1,0-.01-.54.27.27,0,0,0,.01.54Zm6.765,1.691a.269.269,0,0,0,.007-.537.269.269,0,0,0-.007.537Zm4.214,12.159a.268.268,0,1,0,.275.269A.272.272,0,0,0,100.615,1986.176ZM84.556,1974a.266.266,0,0,0,.006-.531.266.266,0,1,0-.006.531Zm15.238,3.4a.266.266,0,1,0-.267-.263A.268.268,0,0,0,99.794,1977.4Zm-19.488,8.766a.263.263,0,1,0,.269.259A.262.262,0,0,0,80.306,1986.167Zm.867-8.784a.263.263,0,1,0-.267-.26A.261.261,0,0,0,81.173,1977.383Zm6.77-5.081a.26.26,0,1,0,0-.521.26.26,0,0,0,0,.521Zm5.077.017a.267.267,0,0,0,.262-.257.264.264,0,0,0-.262-.266.262.262,0,0,0,0,.523Zm5.063,18.1a.264.264,0,0,0-.263.266.267.267,0,0,0,.261.257.262.262,0,0,0,0-.523Zm-11,2.525a.26.26,0,1,0,0,.52.26.26,0,0,0,0-.52ZM82.85,1990.4a.26.26,0,1,0,0,.52.26.26,0,0,0,0-.52Zm-3.375-8.463a.26.26,0,0,0,0,.519.26.26,0,1,0,0-.519Zm21.99.015a.262.262,0,0,0-.258.26.266.266,0,0,0,.259.261.259.259,0,0,0,.261-.267A.256.256,0,0,0,101.465,1981.953Zm-7.612,11a.262.262,0,0,0-.263.255.265.265,0,0,0,.265.266.259.259,0,0,0,.255-.262A.256.256,0,0,0,93.853,1992.956Zm-11.841-3.4a.259.259,0,1,0-.013.518.259.259,0,0,0,.013-.518Zm3.387-16.41a.259.259,0,1,0,.008-.517.259.259,0,0,0-.008.517Zm-5.932,10.486a.258.258,0,1,0-.006.517.258.258,0,0,0,.006-.517Zm19.466,5.94a.258.258,0,1,0,0,.516.256.256,0,0,0,.255-.258A.254.254,0,0,0,98.933,1989.573Zm2.537-5.924a.26.26,0,0,0-.262.253.262.262,0,0,0,.264.263.256.256,0,0,0,.253-.26A.253.253,0,0,0,101.47,1983.648Zm-5.911-10.488a.257.257,0,1,0,0-.514.257.257,0,0,0,0,.514Zm1.677,18.106a.256.256,0,1,0,0,.513.256.256,0,1,0,0-.513Zm-13.543-.016a.258.258,0,0,0,0,.515.258.258,0,1,0,0-.515Zm16.094-2.52a.252.252,0,1,0,.244.257A.252.252,0,0,0,99.787,1988.731Zm-18.635-.017a.255.255,0,1,0,.258.256A.257.257,0,0,0,81.152,1988.714Zm19.49-10.482a.252.252,0,1,0-.259-.252A.25.25,0,0,0,100.642,1978.232Zm-21.159,2.527a.254.254,0,0,0-.005-.507.254.254,0,1,0,.005.507Zm.843-2.539a.254.254,0,0,0,0-.507.254.254,0,1,0,0,.507Zm21.161,2.049a.251.251,0,0,0-.014.5.251.251,0,1,0,.014-.5Zm-16.944,11.836a.247.247,0,0,0-.248.25.249.249,0,0,0,.248.251.256.256,0,0,0,.251-.251A.253.253,0,0,0,84.543,1992.105Zm11.848.014a.249.249,0,0,0,0,.5.249.249,0,1,0,0-.5Zm-6.762,1.68a.244.244,0,0,0-.255.243.248.248,0,0,0,.245.255.255.255,0,0,0,.252-.25A.252.252,0,0,0,89.629,1993.8Zm11.846-8.45a.248.248,0,0,0-.01.5.248.248,0,1,0,.01-.5Zm-10.161,8.464a.248.248,0,0,0,0,.5.248.248,0,1,0,0-.5Zm-11.851-8.475a.242.242,0,0,0-.244.242.245.245,0,0,0,.248.251.247.247,0,1,0,0-.493Zm21.157,2.554a.244.244,0,1,0,.246.241A.246.246,0,0,0,100.619,1987.893Zm-10.133-16.438a.244.244,0,1,0-.248-.239A.246.246,0,0,0,90.486,1971.454Zm4.225.846a.245.245,0,0,0,0-.489.245.245,0,0,0,0,.489Zm-14.4,15.581a.241.241,0,1,0,.246.238A.24.24,0,0,0,80.307,1987.882Zm5.948-15.6a.241.241,0,1,0-.248-.235A.239.239,0,0,0,86.254,1972.283Zm1.67,21.525a.239.239,0,1,0,0,.478.239.239,0,0,0,0-.478Zm5.085.012a.242.242,0,1,0,.234.241A.24.24,0,0,0,93.01,1993.82Zm-7.617-.857a.237.237,0,1,0,0,.475.237.237,0,0,0,0-.475Zm3.394-21.531a.237.237,0,1,0,0-.475.237.237,0,0,0,0,.475Zm3.383.016a.243.243,0,0,0,.243-.244.241.241,0,0,0-.241-.233.234.234,0,0,0-.234.237A.237.237,0,0,0,92.17,1971.449Zm3.372,21.529a.241.241,0,0,0-.237.237.243.243,0,0,0,.246.24.238.238,0,0,0,.229-.244A.234.234,0,0,0,95.542,1992.978ZM79.48,1979.05a.237.237,0,1,0-.009-.474.237.237,0,0,0,.009.474Zm22,.016a.242.242,0,0,0,.245-.239.239.239,0,0,0-.237-.235.232.232,0,0,0-.237.232A.236.236,0,0,0,101.477,1979.065Zm-2.527-4.236a.234.234,0,1,0,0-.467.234.234,0,1,0,0,.467ZM82,1974.815a.235.235,0,1,0-.218-.251A.235.235,0,0,0,82,1974.815Zm.86-.846a.234.234,0,1,0-.233-.24A.234.234,0,0,0,82.864,1973.969Zm15.236.011a.231.231,0,1,0,0-.463.231.231,0,1,0,0,.463Zm-16.925,1.679a.232.232,0,1,0-.235-.236A.233.233,0,0,0,81.175,1975.66Zm-2.543,7.153a.232.232,0,1,0,.23.23A.235.235,0,0,0,78.632,1982.813Zm21.159-7.142a.229.229,0,1,0-.231-.226A.228.228,0,0,0,99.791,1975.671Zm2.525,7.159a.229.229,0,1,0,.231.226A.226.226,0,0,0,102.315,1982.83Zm-22.849,4.218a.229.229,0,0,0,0,.458.229.229,0,0,0,0-.458Zm-.842-5.466a.229.229,0,0,0,.013-.458.229.229,0,0,0-.013.458Zm23.72-.443a.227.227,0,1,0-.032.453.227.227,0,0,0,.032-.453Zm-.878,5.924a.227.227,0,0,0,.006.455.227.227,0,1,0-.006-.455Zm-4.223-13.934a.227.227,0,1,0,.008-.453.227.227,0,0,0-.008.453Zm-13.539-.011a.228.228,0,1,0,0-.456.23.23,0,0,0-.227.232A.233.233,0,0,0,83.7,1973.117Zm18.615,11.408a.226.226,0,0,0-.007.451.226.226,0,1,0,.007-.451Zm-8.459-13.091a.225.225,0,0,0,.011-.45.225.225,0,1,0-.011.45Zm6.777,5.077a.224.224,0,0,0,0-.449.224.224,0,1,0,0,.449ZM94.7,1993.838a.223.223,0,0,0-.01.447.223.223,0,1,0,.01-.447ZM80.325,1976.5a.222.222,0,0,0,0-.443.222.222,0,1,0,0,.443Zm-1.71,8.02a.222.222,0,0,0,0,.444.222.222,0,1,0,0-.444Zm8.476-13.1a.222.222,0,0,0,.013-.444.222.222,0,1,0-.013.444Zm-.859,22.409a.221.221,0,1,0,.007.441.221.221,0,1,0-.007-.441Zm4.237.85a.217.217,0,1,0-.006.434.217.217,0,1,0,.006-.434Zm-8.462-3.385a.217.217,0,1,0-.01.433.217.217,0,0,0,.01-.433Zm16.927.012a.219.219,0,0,0-.01.438.219.219,0,0,0,.01-.438ZM96.4,1972.275a.218.218,0,0,0,.011-.437.218.218,0,1,0-.011.437Zm3.382,18.186a.218.218,0,0,0-.226.215.222.222,0,0,0,.213.218.215.215,0,0,0,.218-.21A.212.212,0,0,0,99.785,1990.461Zm-1.7,1.693a.218.218,0,0,0-.218.213.221.221,0,0,0,.215.218.214.214,0,0,0,.215-.214A.211.211,0,0,0,98.085,1992.154Zm4.244-12.264a.221.221,0,0,0,.218-.214.218.218,0,0,0-.215-.217.211.211,0,0,0-.215.213A.214.214,0,0,0,102.328,1979.89Zm-23.7-.016a.215.215,0,1,0,0-.43.215.215,0,0,0,0,.43Zm4.221,12.266a.214.214,0,1,0-.008.429.214.214,0,0,0,.008-.429Zm-1.695-1.694a.215.215,0,1,0,0,.43.215.215,0,0,0,0-.43Zm7.629,4.233a.215.215,0,1,0-.028.428.215.215,0,0,0,.028-.428Zm-4.224-22.422a.215.215,0,0,0-.007-.43.215.215,0,1,0,.007.43Zm7.594,22.438a.216.216,0,0,0-.214.215.219.219,0,0,0,.217.213.213.213,0,0,0,.211-.216A.21.21,0,0,0,92.157,1994.695Zm-12.678-17.362a.217.217,0,0,0,.212-.216.219.219,0,0,0-.209-.209.213.213,0,1,0,0,.426Zm22,.012a.21.21,0,1,0,.009-.42.21.21,0,1,0-.009.42ZM80.314,1989.6a.211.211,0,1,0,0,.422.211.211,0,0,0,0-.422Zm20.313.018a.208.208,0,1,0,0,.416.208.208,0,0,0,0-.416Zm1.695-3.385a.208.208,0,1,0-.006.416.208.208,0,0,0,.006-.416ZM89.64,1970.572a.208.208,0,1,0-.215-.2A.208.208,0,0,0,89.64,1970.572Zm1.687,0a.208.208,0,1,0-.209-.205A.208.208,0,0,0,91.327,1970.572Zm-12.7,15.65a.209.209,0,0,0-.009.418.209.209,0,0,0,.009-.418Zm18.618,6.788a.206.206,0,1,0-.005.411.206.206,0,1,0,.005-.411Zm-13.54-.016a.209.209,0,0,0-.009.417.209.209,0,0,0,.009-.417Zm11.852-21.582a.2.2,0,0,0,.016-.4.2.2,0,1,0-.016.4ZM85.4,1971.4a.2.2,0,0,0,.009-.4.2.2,0,1,0-.009.4Zm7.621-.833a.2.2,0,0,0,0-.4.2.2,0,0,0,0,.4Zm-13.546,18.209a.2.2,0,1,0-.016.394.2.2,0,0,0,.016-.394Zm8.464-18.226a.2.2,0,1,0,0-.395.2.2,0,1,0,0,.395Zm13.53,18.236a.2.2,0,1,0,.2.2A.205.205,0,0,0,101.468,1988.782Zm-14.39,5.914a.2.2,0,0,0,0,.395.2.2,0,1,0,0-.395Zm6.78.011a.2.2,0,0,0-.011.4.2.2,0,0,0,.011-.4Zm9.307-12.692a.2.2,0,0,0-.006.4.2.2,0,0,0,.006-.4Zm0,1.693a.2.2,0,0,0,0,.395.2.2,0,0,0,0-.395ZM77.783,1982a.195.195,0,1,0,.2.2A.2.2,0,0,0,77.783,1982Zm18.606,11.865a.2.2,0,0,0-.193.195.2.2,0,0,0,.2.193.194.194,0,0,0,0-.388Zm5.943-15.693a.2.2,0,0,0,.192-.2.2.2,0,0,0-.2-.192.191.191,0,0,0-.19.2A.193.193,0,0,0,102.332,1978.176Zm-23.7-.017a.193.193,0,1,0-.009-.385.193.193,0,0,0,.009.385Zm-.866,5.539a.193.193,0,1,0,0,.385.193.193,0,0,0,0-.385Zm6.774,10.156a.193.193,0,1,0-.009.385.193.193,0,0,0,.009-.385Zm-6.768-13.16a.189.189,0,1,0-.179-.2A.191.191,0,0,0,77.778,1980.694Zm25.4-.362a.187.187,0,1,0-.01.375.187.187,0,1,0,.01-.375Zm-22.011-6.41a.187.187,0,1,0-.185-.188A.189.189,0,0,0,81.17,1973.922Zm18.619.012a.185.185,0,1,0-.185-.187A.184.184,0,0,0,99.789,1973.934Zm-.843-.849a.183.183,0,1,0-.011-.366.183.183,0,0,0,.011.366Zm4.214,12.33a.183.183,0,0,0,0,.365.183.183,0,1,0,0-.365Zm-.845,2.539a.183.183,0,0,0,0,.365.183.183,0,1,0,0-.365Zm-20.3-14.88a.186.186,0,1,0,0-.371.186.186,0,0,0,0,.371Zm18.619,1.7a.182.182,0,0,0,0-.364.182.182,0,1,0,0,.364Zm-22.012,13.166a.177.177,0,0,0-.185.173.18.18,0,0,0,.18.19.186.186,0,0,0,.182-.179A.183.183,0,0,0,78.623,1987.943Zm1.7-13.179a.18.18,0,0,0,.184-.174.177.177,0,0,0-.169-.188.184.184,0,0,0-.193.178A.187.187,0,0,0,80.319,1974.763Zm-2.544,10.64a.177.177,0,0,0-.183.175.18.18,0,0,0,.182.188.187.187,0,0,0,.18-.182A.184.184,0,0,0,77.775,1985.4Zm11.846,10.156a.177.177,0,0,0-.179.189.179.179,0,0,0,.185.173.186.186,0,0,0,.177-.185A.184.184,0,0,0,89.621,1995.56Zm5.1-25.016a.181.181,0,0,0,0-.361.181.181,0,1,0,0,.361Zm-3.4,25.029a.181.181,0,1,0,0,.362.181.181,0,0,0,0-.362Zm6.781-23.338a.177.177,0,0,0,.178-.177.179.179,0,0,0-.175-.181.179.179,0,1,0,0,.358Zm-11.848-1.708a.176.176,0,1,0,0-.353.176.176,0,1,0,0,.353Zm-3.388,1.692a.176.176,0,0,0,.011-.351.176.176,0,1,0-.011.351Zm12.688,22.514a.176.176,0,1,0,.17.186A.179.179,0,0,0,95.549,1994.732Zm5.932-19.115a.176.176,0,1,0-.171-.175A.177.177,0,0,0,101.481,1975.617Zm-11-5.925a.174.174,0,1,0,0-.349.175.175,0,0,0,0,.349Zm-11,5.908a.172.172,0,1,0-.171-.172A.171.171,0,0,0,79.475,1975.6Zm5.915,19.121a.173.173,0,1,0,.173.17A.172.172,0,0,0,85.39,1994.721Zm2.538.849a.171.171,0,1,0,0,.341.171.171,0,0,0,0-.341Zm-10.143-16.587a.17.17,0,1,0,0-.339.169.169,0,0,0,0,.339Zm15.222,16.6a.175.175,0,0,0-.174.169.177.177,0,0,0,.169.175.171.171,0,0,0,.172-.169A.168.168,0,0,0,93.007,1995.583ZM103.174,1979a.175.175,0,0,0,.174-.17.172.172,0,0,0-.174-.169.165.165,0,0,0-.165.164A.169.169,0,0,0,103.174,1979ZM88.78,1969.67a.171.171,0,0,0,.178-.164.174.174,0,0,0-.16-.171.168.168,0,0,0-.017.336Zm3.388.014a.167.167,0,1,0,.012-.334.167.167,0,0,0-.012.334Zm-11.014,22.5a.166.166,0,0,0,0,.332.166.166,0,0,0,0-.332Zm2.556-20.827a.166.166,0,0,0,0-.332.166.166,0,0,0,0,.332Zm16.07,20.844a.163.163,0,1,0-.007.326.163.163,0,1,0,.007-.326Zm-2.531-20.833a.163.163,0,1,0,.006-.325.163.163,0,1,0-.006.325Zm3.372,19.989a.161.161,0,1,0,.165.162A.161.161,0,0,0,100.621,1991.361Zm-20.316-.015a.162.162,0,0,0,.012.324.162.162,0,0,0-.012-.324Zm1.688,1.695a.159.159,0,0,0-.148.166.162.162,0,0,0,.159.156.165.165,0,0,0,.161-.167A.163.163,0,0,0,81.993,1993.041Zm16.933.014a.16.16,0,0,0,0,.32.16.16,0,1,0,0-.32Zm4.229-5.924a.159.159,0,0,0,.014.318.159.159,0,1,0-.014-.318Zm-.832-10.685a.159.159,0,0,0,.017-.317.159.159,0,1,0-.017.317ZM104,1982.9a.158.158,0,0,0,.01.315.158.158,0,1,0-.01-.315Zm-2.542,7.618a.157.157,0,0,0-.147.167.155.155,0,0,0,.156.146.159.159,0,0,0,.155-.16A.161.161,0,0,0,101.463,1990.519Zm-24.519-7.63a.156.156,0,1,0-.011.312.156.156,0,0,0,.011-.312Zm1.687-6.457a.156.156,0,0,0,.156-.157.153.153,0,0,0-.156-.156.16.16,0,0,0-.159.156A.162.162,0,0,0,78.631,1976.432Zm-.86,10.689a.153.153,0,0,0-.155.157.156.156,0,0,0,.157.157.162.162,0,0,0,.158-.158A.16.16,0,0,0,77.771,1987.121Zm26.249-5.909a.155.155,0,0,0,0,.309.155.155,0,0,0,0-.309Zm-27.072.292a.151.151,0,1,0-.019-.3.151.151,0,1,0,.019.3Zm2.514,9.007a.152.152,0,1,0,0,.3.152.152,0,1,0,0-.3Zm7.628-20.859a.149.149,0,1,0,.011-.3.149.149,0,1,0-.011.3ZM82.85,1993.9a.15.15,0,0,0-.151.148.149.149,0,0,0,.149.149.149.149,0,1,0,0-.3Zm3.383,1.693a.15.15,0,0,0-.148.15.149.149,0,0,0,.151.146.148.148,0,0,0,0-.3Zm11.846-1.681a.151.151,0,0,0,.009.3.151.151,0,0,0-.009-.3Zm-4.209-24.241a.155.155,0,0,0,.147-.155.154.154,0,0,0-.153-.148.151.151,0,0,0,.006.3Zm10.138,14.933a.153.153,0,0,0-.15.15.154.154,0,0,0,.149.151.151.151,0,0,0,0-.3Zm-9.309,11a.153.153,0,0,0-.151.149.154.154,0,0,0,.148.152.151.151,0,0,0,0-.3ZM84.552,1970.5a.15.15,0,0,0,.153-.147.152.152,0,0,0-.143-.146.145.145,0,0,0-.15.147A.143.143,0,0,0,84.552,1970.5Zm11.858.015a.151.151,0,0,0,.143-.145.147.147,0,0,0-.151-.146.141.141,0,0,0-.141.143A.145.145,0,0,0,96.41,1970.51Zm-19.486,14.08a.151.151,0,0,0-.147.142.15.15,0,0,0,.148.151.146.146,0,0,0,0-.293Zm1.69,5.082a.143.143,0,0,0,0,.286.143.143,0,1,0,0-.286Zm23.7.017a.14.14,0,1,0,0,.281.14.14,0,1,0,0-.281ZM76.945,1979.8a.138.138,0,0,0,.129-.143.136.136,0,0,0-.137-.134.141.141,0,0,0-.137.136A.144.144,0,0,0,76.945,1979.8Zm.846-2.539a.138.138,0,0,0,.13-.142.135.135,0,0,0-.136-.135.141.141,0,0,0-.138.135A.144.144,0,0,0,77.791,1977.26Zm12.677,19.188a.139.139,0,1,0,0,.278.139.139,0,0,0,0-.278Zm12.7-19.177a.133.133,0,0,0,.14-.129.135.135,0,0,0-.126-.144.136.136,0,1,0-.014.272Zm.856,2.54a.137.137,0,0,0,0-.273.137.137,0,1,0,0,.273Zm-6.793,14.963a.135.135,0,0,0,0,.269.138.138,0,0,0,.137-.135A.14.14,0,0,0,97.234,1994.773Zm-13.548-.011a.129.129,0,0,0-.122.135.131.131,0,0,0,.138.131.133.133,0,1,0-.016-.265Zm5.093,1.693a.132.132,0,1,0-.008.263.137.137,0,0,0,.139-.134A.134.134,0,0,0,88.779,1996.455Zm3.378.014a.131.131,0,1,0,.132.137A.133.133,0,0,0,92.157,1996.469Zm11.854-10.149a.127.127,0,0,0-.129.127.132.132,0,0,0,.122.124.125.125,0,0,0,.127-.128A.121.121,0,0,0,104.011,1986.32Zm-27.087-.015a.125.125,0,1,0,.01.249.125.125,0,0,0-.01-.249Zm14.4-17.512a.122.122,0,1,0,.006-.244.118.118,0,0,0-.122.119A.12.12,0,0,0,91.322,1968.793Zm-1.693,0a.122.122,0,1,0,.006-.244.118.118,0,0,0-.122.119A.12.12,0,0,0,89.629,1968.793Zm-11.86,20.055a.121.121,0,0,0,0,.242.121.121,0,1,0,0-.242Zm2.555-15.838a.126.126,0,0,0,.122-.121.128.128,0,0,0-.121-.123.122.122,0,0,0,0,.243Zm22.839,15.855a.119.119,0,1,0,0,.237.119.119,0,0,0,0-.237Zm-2.54-15.844a.121.121,0,0,0,.135-.106.12.12,0,0,0-.1-.129.119.119,0,1,0-.035.235Zm-5.061-3.387a.116.116,0,1,0-.121-.119A.115.115,0,0,0,95.562,1969.634Zm-10.155-.013a.117.117,0,0,0,0-.233.117.117,0,1,0,0,.233Zm-5.937,4.231a.116.116,0,0,0,.021-.232.118.118,0,0,0-.129.11A.12.12,0,0,0,79.47,1973.852Zm1.7-1.692a.117.117,0,0,0,0-.233.117.117,0,1,0,0,.233Zm20.311,1.7a.11.11,0,0,0,.112-.113.112.112,0,0,0-.11-.116.117.117,0,0,0-.12.119A.115.115,0,0,0,101.484,1973.863ZM99.8,1972.17a.115.115,0,0,0-.009-.229.115.115,0,1,0,.009.229Zm-5.949,24.318a.112.112,0,0,0-.1.122.11.11,0,0,0,.114.1.116.116,0,0,0,.107-.11A.117.117,0,0,0,93.848,1996.489Zm2.549-.845a.111.111,0,0,0-.114.111.109.109,0,0,0,.1.11.114.114,0,0,0,.116-.11A.116.116,0,0,0,96.4,1995.644Zm-3.375-26.863a.111.111,0,0,0-.006-.221.111.111,0,1,0,.006.221Zm5.929,2.539a.109.109,0,0,0,.1-.112.111.111,0,0,0-.105-.109.116.116,0,0,0-.114.113A.114.114,0,0,0,98.951,1971.32Zm-11.859,25.159a.109.109,0,1,0-.02.217.112.112,0,0,0,.122-.1A.11.11,0,0,0,87.092,1996.479Zm-2.551-.846a.105.105,0,0,0-.107.107.107.107,0,0,0,.105.109.11.11,0,0,0,.114-.1A.109.109,0,0,0,84.541,1995.633Zm19.48-17.545a.106.106,0,1,0,0-.212.106.106,0,0,0,0,.212Zm-22.01-6.788a.1.1,0,0,0,.112-.1.1.1,0,0,0-.1-.108.1.1,0,0,0-.008.208Zm5.93-2.539a.1.1,0,1,0,0-.207.1.1,0,0,0,0,.207Zm14.389,5.941a.11.11,0,0,0,.1-.109.108.108,0,0,0-.11-.1.1.1,0,0,0-.1.113A.105.105,0,0,0,102.33,1974.7Zm-25.4,3.369a.1.1,0,0,0,.11-.1.1.1,0,0,0-.106-.106.1.1,0,0,0-.1.107A.1.1,0,0,0,76.935,1978.07Zm1.7-3.387a.1.1,0,0,0,.1-.105.1.1,0,0,0-.1-.1.1.1,0,0,0-.1.112A.1.1,0,0,0,78.639,1974.683Zm-2.561,9.108a.107.107,0,0,0-.1.1.1.1,0,0,0,.1.1.1.1,0,0,0,0-.2Zm.014-1.693a.1.1,0,0,0,0,.2.105.105,0,0,0,.1-.1A.106.106,0,0,0,76.092,1982.1Zm28.765,1.71a.1.1,0,0,0-.1.094.1.1,0,0,0,.1.1.1.1,0,0,0,.1-.1A.1.1,0,0,0,104.857,1983.808Zm0-1.693a.1.1,0,0,0-.1.095.1.1,0,0,0,.1.1.1.1,0,0,0,.1-.1A.1.1,0,0,0,104.856,1982.115Zm-6.764-11.66a.089.089,0,0,0,.1-.088.09.09,0,0,0-.088-.1.094.094,0,0,0-.1.088A.092.092,0,0,0,98.093,1970.455Zm-15.231-.012a.1.1,0,0,0,.092-.093.093.093,0,0,0-.091-.094.1.1,0,0,0-.094.093A.1.1,0,0,0,82.862,1970.443Zm22.006,9.988a.094.094,0,0,0-.089.085.092.092,0,0,0,.093.092.089.089,0,0,0,0-.177Zm-.862,7.617a.089.089,0,0,0-.084.1.088.088,0,0,0,.094.077.093.093,0,0,0,.08-.093A.094.094,0,0,0,104.006,1988.049Zm-2.532,4.232a.088.088,0,0,0-.015.176.091.091,0,0,0,.1-.085A.094.094,0,0,0,101.474,1992.281Zm-.851.846a.088.088,0,0,0-.006.177.092.092,0,0,0,.094-.091A.094.094,0,0,0,100.624,1993.127Zm-23.7-5.089a.086.086,0,1,0,.01.171.086.086,0,1,0-.01-.171Zm2.546,4.232a.083.083,0,0,0-.09.078.084.084,0,0,0,.087.093.091.091,0,0,0,.087-.084A.089.089,0,0,0,79.468,1992.27Zm.843.846a.083.083,0,0,0-.088.082.085.085,0,0,0,.08.09.092.092,0,0,0,.1-.088A.089.089,0,0,0,80.312,1993.116Zm-4.217-12.524a.086.086,0,0,0,0-.172.089.089,0,0,0-.091.091A.09.09,0,0,0,76.095,1980.592Zm28.755,4.926a.083.083,0,0,0-.077.082.084.084,0,0,0,.09.08.082.082,0,0,0,.07-.088A.08.08,0,0,0,104.85,1985.518Zm-5.076,8.463a.081.081,0,1,0,.008.162.081.081,0,0,0-.008-.162Zm3.4-18.457a.086.086,0,0,0,.081-.09.085.085,0,0,0-.086-.072.079.079,0,0,0-.074.083A.082.082,0,0,0,103.177,1975.524Zm-8.459-6.771a.081.081,0,0,0,0-.162.081.081,0,1,0,0,.162Zm-3.4,28.614a.081.081,0,1,0,0,.162.081.081,0,0,0,0-.162ZM76.08,1985.5a.084.084,0,0,0-.083.074.082.082,0,0,0,.084.085.08.08,0,0,0,0-.159Zm1.712-10a.082.082,0,0,0,.075-.083.084.084,0,0,0-.082-.077.078.078,0,0,0-.078.089A.075.075,0,0,0,77.792,1975.507Zm8.459-6.771a.08.08,0,1,0-.009-.159.077.077,0,0,0-.072.084A.076.076,0,0,0,86.251,1968.736Zm-5.095,25.231a.08.08,0,1,0,0,.159.08.08,0,0,0,0-.159Zm8.47,3.386a.08.08,0,1,0-.01.159.076.076,0,0,0,.081-.075A.077.077,0,0,0,89.627,1997.353Zm-13.536-18.478a.063.063,0,1,0-.063-.063A.063.063,0,0,0,76.091,1978.876Zm.849-2.559a.063.063,0,1,0-.063-.063A.063.063,0,0,0,76.94,1976.317Zm-.849.835a.031.031,0,1,0-.031-.031A.031.031,0,0,0,76.091,1977.152Zm-.838.845a.031.031,0,1,0-.031-.031A.031.031,0,0,0,75.253,1978Zm-.023,1.694a.031.031,0,1,0-.031-.031A.031.031,0,0,0,75.23,1979.69Zm.029,1.622a.041.041,0,1,0,.041.041A.041.041,0,0,0,75.259,1981.313ZM75.253,1983a.041.041,0,1,0,.041.041A.041.041,0,0,0,75.253,1983Zm0,1.7a.031.031,0,1,0,.031.031A.031.031,0,0,0,75.248,1984.706Zm-.012,1.692a.031.031,0,1,0,.031.031A.031.031,0,0,0,75.237,1986.4Zm.84.816a.063.063,0,1,0,.063.063A.063.063,0,0,0,76.077,1987.215Zm0,1.729a.031.031,0,1,0,.031.031A.031.031,0,0,0,76.072,1988.944Zm.854.839a.041.041,0,1,0,.041.041A.041.041,0,0,0,76.926,1989.783Zm.844.823a.056.056,0,1,0,.056.056A.056.056,0,0,0,77.77,1990.606Zm.017,1.717a.031.031,0,1,0,.031.031A.031.031,0,0,0,77.788,1992.323Zm.83-.87a.072.072,0,1,0,.072.073A.072.072,0,0,0,78.617,1991.453Zm-1.679-16.844a.031.031,0,1,0-.031-.031A.031.031,0,0,0,76.938,1974.608Zm.849-.85a.031.031,0,1,0-.031-.031A.031.031,0,0,0,77.787,1973.759Zm.842-.838a.031.031,0,1,0-.031-.031A.031.031,0,0,0,78.629,1972.921Zm.858-.855a.031.031,0,1,0-.031-.031A.031.031,0,0,0,79.487,1972.066Zm.842-.842a.031.031,0,1,0-.031-.031A.031.031,0,0,0,80.33,1971.224Zm.848-.844a.031.031,0,1,0-.031-.031A.031.031,0,0,0,81.178,1970.38Zm.84-.839a.031.031,0,1,0-.031-.031A.031.031,0,0,0,82.018,1969.541Zm.853-.852a.031.031,0,1,0-.031-.031A.031.031,0,0,0,82.871,1968.688Zm2.538-.85a.031.031,0,1,0-.031-.031A.031.031,0,0,0,85.41,1967.839Zm-1.7,1.727a.063.063,0,1,0-.063-.063A.063.063,0,0,0,83.708,1969.566Zm.858-.868a.041.041,0,1,0-.041-.041A.041.041,0,0,0,84.566,1968.7Zm2.528-.828a.041.041,0,1,0-.041-.041A.041.041,0,0,0,87.094,1967.87Zm1.7-.008a.052.052,0,1,0-.052-.052A.052.052,0,0,0,88.79,1967.862Zm.846-.866a.031.031,0,1,0-.031-.031A.031.031,0,0,0,89.636,1967Zm.846.891a.064.064,0,1,0-.064-.065A.064.064,0,0,0,90.482,1967.887Zm1.693-.025a.052.052,0,1,0-.052-.052A.052.052,0,0,0,92.175,1967.862Zm-.847-.866a.031.031,0,1,0-.031-.031A.031.031,0,0,0,91.328,1967Zm2.544.87a.039.039,0,1,0-.039-.039A.039.039,0,0,0,93.872,1967.865Zm1.7-.012a.029.029,0,1,0-.029-.029A.029.029,0,0,0,95.57,1967.853Zm2.529.837a.029.029,0,1,0-.029-.029A.029.029,0,0,0,98.1,1968.69Zm.846.866a.029.029,0,1,0-.029-.029A.029.029,0,0,0,98.946,1969.556ZM96.4,1968.7a.041.041,0,1,0-.041-.041A.041.041,0,0,0,96.4,1968.7Zm.863.879a.065.065,0,1,0-.065-.065A.065.065,0,0,0,97.266,1969.58Zm2.53.807a.029.029,0,0,0,.029-.029.029.029,0,0,0-.058,0A.029.029,0,0,0,99.8,1970.388Zm.853.852a.029.029,0,1,0-.029-.029A.029.029,0,0,0,100.649,1971.24Zm.846.845a.029.029,0,1,0-.029-.029A.029.029,0,0,0,101.495,1972.085Zm.84.846a.029.029,0,1,0-.029-.029A.029.029,0,0,0,102.335,1972.931Zm.853.846a.029.029,0,1,0-.029-.029A.029.029,0,0,0,103.188,1973.777Zm.836.837a.029.029,0,1,0-.029-.029A.029.029,0,0,0,104.024,1974.615Zm0,1.737a.062.062,0,1,0-.062-.062A.062.062,0,0,0,104.024,1976.352Zm.846.8a.029.029,0,1,0-.029-.029A.029.029,0,0,0,104.869,1977.15Zm.857.861a.029.029,0,1,0-.029-.029A.029.029,0,0,0,105.727,1978.011Zm-.85.876a.062.062,0,1,0-.062-.062A.062.062,0,0,0,104.876,1978.887Zm.839.8a.029.029,0,1,0-.029-.029A.029.029,0,0,0,105.716,1979.689Zm.006,1.641a.036.036,0,1,0,.036.036A.036.036,0,0,0,105.722,1981.33Zm-.019,1.684a.037.037,0,1,0,.037.037A.037.037,0,0,0,105.7,1983.014Zm0,1.717a.029.029,0,1,0,.029.029A.029.029,0,0,0,105.7,1984.731Zm0,1.693a.029.029,0,1,0,.029.029A.029.029,0,0,0,105.7,1986.423Zm-.85,2.531a.029.029,0,1,0,.029.029A.029.029,0,0,0,104.853,1988.954Zm0-1.722a.058.058,0,1,0,.058.058A.058.058,0,0,0,104.853,1987.232Zm-.835,2.557a.041.041,0,1,0,.041.041A.041.041,0,0,0,104.018,1989.789Zm-.84.824a.063.063,0,1,0,.063.063A.062.062,0,0,0,103.178,1990.613Zm-.863.838a.072.072,0,1,0,.072.072A.072.072,0,0,0,102.315,1991.451Zm.835.89a.029.029,0,1,0,.029.029A.029.029,0,0,0,103.15,1992.341Zm-.836.854a.029.029,0,1,0,.029.029A.029.029,0,0,0,102.314,1993.194Zm-1.693,1.684a.029.029,0,1,0,.029.029A.029.029,0,0,0,100.621,1994.878Zm.846-.836a.029.029,0,1,0,.029.029A.029.029,0,0,0,101.468,1994.042Zm-1.681,1.684a.029.029,0,1,0,.029.029A.029.029,0,0,0,99.786,1995.726Zm-2.547.837a.029.029,0,1,0,.029.029A.029.029,0,0,0,97.239,1996.563Zm.843-.86a.052.052,0,1,0,.052.052A.052.052,0,0,0,98.082,1995.7Zm.866-.867a.071.071,0,1,0,.071.071A.071.071,0,0,0,98.948,1994.836Zm-2.562,2.585a.029.029,0,1,0,.029.029A.029.029,0,0,0,96.386,1997.421Zm-1.685-.011a.045.045,0,1,0,.045.045A.045.045,0,0,0,94.7,1997.41Zm.842-.88a.071.071,0,1,0,.071.071A.071.071,0,0,0,95.542,1996.53Zm-2.521.846a.071.071,0,1,0,.071.071A.071.071,0,0,0,93.021,1997.376Zm.832.88a.029.029,0,1,0,.029.029A.029.029,0,0,0,93.854,1998.256Zm-1.706.009a.029.029,0,1,0,.029.029A.029.029,0,0,0,92.147,1998.265Zm-1.675-.014a.029.029,0,1,0,.029.029A.029.029,0,0,0,90.473,1998.25Zm-1.7,0a.029.029,0,1,0,.029.029A.029.029,0,0,0,88.776,1998.25Zm-1.693,0a.029.029,0,1,0,.029.029A.029.029,0,0,0,87.083,1998.25Zm-.845-.86a.044.044,0,1,0,.044.044A.044.044,0,0,0,86.237,1997.391Zm1.688-.018a.062.062,0,1,0,.062.062A.062.062,0,0,0,87.926,1997.372Zm-2.539-.847a.062.062,0,1,0,.062.062A.062.062,0,0,0,85.386,1996.525Zm-.846.887a.029.029,0,1,0,.029.029A.029.029,0,0,0,84.54,1997.412Zm-.84-.854a.029.029,0,1,0,.029.029A.029.029,0,0,0,83.7,1996.558Zm-.852-.869a.051.051,0,1,0,.051.051A.051.051,0,0,0,82.848,1995.689Zm-1.693.021a.029.029,0,1,0,.029.029A.029.029,0,0,0,81.155,1995.71Zm-.84-.846a.029.029,0,1,0,.029.029A.029.029,0,0,0,80.315,1994.864Zm1.688-.042a.072.072,0,1,0,.072.072A.072.072,0,0,0,82,1994.823Zm-2.528-.814a.029.029,0,1,0,.029.029A.029.029,0,0,0,79.474,1994.009Zm-.857-.857a.029.029,0,1,0,.029.029A.029.029,0,0,0,78.617,1993.152Zm10.169-12.259a.462.462,0,0,0,0,.925.462.462,0,1,0,0-.925Zm-.849.849a.462.462,0,0,0,0,.925.462.462,0,1,0,0-.925Zm2.547,3.459a.457.457,0,1,0-.454-.461A.457.457,0,0,0,90.484,1985.2Zm-.855-.855a.457.457,0,1,0-.454-.461A.457.457,0,0,0,89.629,1984.345Zm-.842-.842a.457.457,0,1,0-.454-.461A.457.457,0,0,0,88.787,1983.5Zm2.554-3.439a.443.443,0,1,0,.006.886.443.443,0,0,0-.006-.886Zm-.848.848a.443.443,0,0,0,.006.886.443.443,0,0,0-.006-.886Zm-.85.85a.443.443,0,1,0,.006.886.443.443,0,0,0-.006-.886Zm2.526.06a.457.457,0,1,0-.454-.461A.457.457,0,0,0,92.168,1981.822Zm-.021,1.682a.453.453,0,1,0-.449-.452A.453.453,0,0,0,92.148,1983.5Zm-.827-1.742a.453.453,0,1,0,.451.452A.45.45,0,0,0,91.321,1981.762Zm-.837.837a.453.453,0,1,0,.451.452A.45.45,0,0,0,90.484,1982.6Zm.828,1.741a.454.454,0,1,0-.449-.452A.453.453,0,0,0,91.311,1984.341Z" transform="translate(-136.161 -520.609)"/><g transform="translate(-41.935 1436.457)"><path class="a" d="M1098.223,1438.762a.223.223,0,0,1-.223-.223v-1.859a.223.223,0,0,1,.446,0v1.859A.223.223,0,0,1,1098.223,1438.762Z" transform="translate(-1098 -1436.457)"/></g><g transform="translate(-41.935 1477.814)"><path class="a" d="M1098.223,3661.908a.223.223,0,0,1-.223-.223v-1.859a.223.223,0,1,1,.446,0v1.859A.223.223,0,0,1,1098.223,3661.908Z" transform="translate(-1098 -3659.602)"/></g><g transform="translate(-63.543 1458.065)"><path class="a" d="M-61.461,2598.447H-63.32a.223.223,0,0,1-.223-.223.223.223,0,0,1,.223-.223h1.859a.223.223,0,0,1,.223.223A.223.223,0,0,1-61.461,2598.447Z" transform="translate(63.543 -2598)"/></g><g transform="translate(-22.186 1458.065)"><path class="a" d="M2161.684,2598.447h-1.859a.223.223,0,0,1,0-.447h1.859a.223.223,0,1,1,0,.447Z" transform="translate(-2159.602 -2598)"/></g><g transform="translate(-59.373 1440.627)"><path class="a" d="M163.351,1663.575a.223.223,0,0,1-.158-.065l-2.5-2.5a.223.223,0,1,1,.316-.316l2.5,2.5a.223.223,0,0,1-.158.381Z" transform="translate(-160.633 -1660.633)"/></g><g transform="translate(-26.993 1473.008)"><path class="a" d="M1903.953,3404.176a.224.224,0,0,1-.158-.065l-2.5-2.5a.223.223,0,0,1,.316-.316l2.5,2.5a.223.223,0,0,1-.158.381Z" transform="translate(-1901.234 -3401.234)"/></g><g transform="translate(-59.373 1473.008)"><path class="a" d="M160.856,3404.176a.223.223,0,0,1-.158-.381l2.5-2.5a.223.223,0,0,1,.316.316l-2.5,2.5A.223.223,0,0,1,160.856,3404.176Z" transform="translate(-160.633 -3401.234)"/></g><g transform="translate(-26.993 1440.627)"><path class="a" d="M1901.457,1663.575a.223.223,0,0,1-.158-.381l2.5-2.5a.223.223,0,0,1,.316.316l-2.5,2.5A.222.222,0,0,1,1901.457,1663.575Z" transform="translate(-1901.234 -1660.633)"/></g><g transform="translate(-35.393 1441.73)"><path class="c" d="M1450.532,1721.623a.86.86,0,1,1,.861-.86A.861.861,0,0,1,1450.532,1721.623Zm0-1.274a.414.414,0,1,0,.414.414A.415.415,0,0,0,1450.532,1720.349Z" transform="translate(-1449.672 -1719.902)"/></g><g transform="translate(-23.594 1465.883)"><path class="d" d="M2084.349,3018.924a.223.223,0,0,1-.158-.066l-.211-.211a.223.223,0,0,1,.315-.316l.211.211a.224.224,0,0,1-.158.381Z" transform="translate(-2083.914 -3018.266)"/></g><g transform="translate(-24.734 1464.743)"><path class="d" d="M2023.052,2957.627a.222.222,0,0,1-.158-.066l-.211-.211a.223.223,0,1,1,.316-.316l.212.211a.223.223,0,0,1-.158.381Z" transform="translate(-2022.617 -2956.969)"/></g><g transform="translate(-24.734 1465.883)"><path class="d" d="M2022.84,3018.924a.224.224,0,0,1-.158-.381l.211-.211a.223.223,0,0,1,.316.316l-.212.211A.222.222,0,0,1,2022.84,3018.924Z" transform="translate(-2022.617 -3018.266)"/></g><g transform="translate(-23.594 1464.743)"><path class="d" d="M2084.137,2957.627a.223.223,0,0,1-.157-.381l.211-.211a.223.223,0,0,1,.316.316l-.211.211A.222.222,0,0,1,2084.137,2957.627Z" transform="translate(-2083.914 -2956.969)"/></g><g transform="translate(-35.814 1475.01)"><path class="e" d="M1428.751,3511.284a.568.568,0,0,1-.243-.056l-1.152-.55a.562.562,0,0,1-.076-.971l1.052-.723a.562.562,0,0,1,.879.419l.1,1.272a.565.565,0,0,1-.56.607Zm-.1-1.952a.111.111,0,0,0-.064.021h0l-1.052.723a.113.113,0,0,0-.05.1.114.114,0,0,0,.065.1l1.152.549a.116.116,0,0,0,.165-.114l-.1-1.273a.115.115,0,0,0-.066-.1A.124.124,0,0,0,1428.649,3509.332Zm-.191-.163h0Z" transform="translate(-1427.036 -3508.885)"/></g><g transform="translate(-51.214 1476.515)"><path class="f" d="M600.427,3592.2a1.212,1.212,0,1,1,1.212-1.212A1.214,1.214,0,0,1,600.427,3592.2Zm0-1.978a.766.766,0,1,0,.766.766A.767.767,0,0,0,600.427,3590.221Z" transform="translate(-599.215 -3589.774)"/></g><g transform="translate(-60.454 1450.551)"><path class="e" d="M103.007,2194.763a.222.222,0,0,1-.158-.065l-.261-.262a.223.223,0,0,1,.316-.315l.261.261a.223.223,0,0,1-.158.381Z" transform="translate(-102.522 -2194.055)"/></g><g transform="translate(-61.864 1449.14)"><path class="e" d="M27.176,2118.934a.222.222,0,0,1-.158-.066l-.261-.261a.223.223,0,0,1,.316-.315l.261.261a.224.224,0,0,1-.158.381Z" transform="translate(-26.691 -2118.226)"/></g><g transform="translate(-61.864 1450.551)"><path class="e" d="M26.914,2194.763a.223.223,0,0,1-.158-.381l.261-.261a.223.223,0,0,1,.316.315l-.261.262A.222.222,0,0,1,26.914,2194.763Z" transform="translate(-26.691 -2194.055)"/></g><g transform="translate(-60.454 1449.14)"><path class="e" d="M102.746,2118.934a.224.224,0,0,1-.158-.381l.261-.261a.223.223,0,0,1,.316.315l-.261.261A.222.222,0,0,1,102.746,2118.934Z" transform="translate(-102.523 -2118.226)"/></g><g transform="translate(-50.559 1438.988)"><path class="f" d="M636.475,1575.146a.627.627,0,0,1-.14-.016l-1.453-.331a.619.619,0,0,1-.317-1.024l1.013-1.093h0a.619.619,0,0,1,1.045.238l.44,1.424a.62.62,0,0,1-.588.8Zm-.569-2.16-1.013,1.093a.173.173,0,0,0,.088.286l1.453.331a.171.171,0,0,0,.165-.051.169.169,0,0,0,.038-.168l-.44-1.424a.172.172,0,0,0-.291-.066Z" transform="translate(-634.399 -1572.483)"/></g><g transform="translate(-27.139 1449.62)"><path class="f" d="M1894.7,2146.743a.569.569,0,0,1-.4-.167l-.779-.779a.571.571,0,0,1,0-.807l.779-.779a.584.584,0,0,1,.807,0l.779.779a.571.571,0,0,1,0,.807l-.779.779A.57.57,0,0,1,1894.7,2146.743Zm0-2.253a.123.123,0,0,0-.088.036l-.779.779a.124.124,0,0,0,0,.176l.779.779a.124.124,0,0,0,.175,0l.779-.779a.124.124,0,0,0,0-.176l-.779-.779A.124.124,0,0,0,1894.7,2144.49Zm1.025,1.149h0Z" transform="translate(-1893.355 -2144.049)"/></g><g transform="translate(-63.131 1466.5)"><path class="c" d="M-40.277,3053.609a.491.491,0,0,1-.348-.144l-.605-.6a.49.49,0,0,1-.144-.349.49.49,0,0,1,.144-.349l.6-.6a.505.505,0,0,1,.7,0l.6.6a.49.49,0,0,1,.144.349.49.49,0,0,1-.144.349h0l-.605.6A.491.491,0,0,1-40.277,3053.609Zm0-1.749a.044.044,0,0,0-.033.014l-.605.6a.046.046,0,0,0-.014.033.045.045,0,0,0,.014.033l.6.6a.047.047,0,0,0,.066,0l.6-.6a.045.045,0,0,0,.014-.033.046.046,0,0,0-.014-.033l-.605-.6A.044.044,0,0,0-40.277,3051.86Zm.8.842h0Z" transform="translate(41.375 -3051.418)"/></g><g transform="translate(-59.909 1472.685)"><path class="a" d="M133.518,3384.3l-1.315,1.314a.223.223,0,0,1-.316-.315l1.315-1.314a.223.223,0,0,1,.316.315Z" transform="translate(-131.823 -3383.917)"/></g><g transform="translate(-59.087 1443.004)"><path class="a" d="M177.381,1790.1l-1.315-1.315a.223.223,0,0,1,.316-.316l1.315,1.315a.223.223,0,0,1-.316.316Z" transform="translate(-176.001 -1788.406)"/></g><g transform="translate(-28.02 1440.769)"><path class="a" d="M1847.7,1668.649l-1.314,1.314a.223.223,0,0,1-.316-.316l1.314-1.315a.223.223,0,0,1,.316.316Z" transform="translate(-1846.004 -1668.268)"/></g><g transform="translate(-25.427 1472.558)"><path class="a" d="M1986.783,3378.765l-1.315-1.315a.223.223,0,0,1,.316-.315l1.314,1.314a.223.223,0,0,1-.316.316Z" transform="translate(-1985.403 -3377.069)"/></g><g class="g" transform="translate(-55.255 1445.438)"><path d="M796.213,2980.691l-5.317.106a.489.489,0,0,0-.364.8l.8.951a2.619,2.619,0,0,1-3.591-.812.489.489,0,0,0-.825.526,3.6,3.6,0,0,0,5.344.817.489.489,0,0,0,.161-.755l-.483-.573,3.688-.074-.7,3.621-.319-.38a.609.609,0,0,0-.466-.3.723.723,0,0,0-.527.26c-.1.077-.21.151-.318.22a5.57,5.57,0,0,1-.721.393,5.375,5.375,0,0,1-1.6.44,5.274,5.274,0,0,1-5.421-3.182c-.055-.136-.105-.276-.148-.417a.489.489,0,0,0-.936.285c.051.168.111.336.177.5a6.275,6.275,0,0,0,5.756,3.825,5.956,5.956,0,0,0,.684-.04,6.323,6.323,0,0,0,1.891-.52,6.621,6.621,0,0,0,.847-.46c.074-.048.148-.1.22-.148l.792.94a.489.489,0,0,0,.854-.221l1.012-5.221a.489.489,0,0,0-.106-.408A.475.475,0,0,0,796.213,2980.691Z" transform="translate(-776.962 -2960.945)"/><path d="M401.88,2214.654a7.5,7.5,0,0,0-6.188,3.266,7.559,7.559,0,0,0-1.843-1.88.652.652,0,0,0-.756,1.063,6.242,6.242,0,0,1,1.876,2.133,7.469,7.469,0,0,0,0,5.837,6.2,6.2,0,0,1-11.668-2.915,6.239,6.239,0,0,1,4.833-6.048.652.652,0,1,0-.286-1.272,7.5,7.5,0,0,0,1.653,14.824,7.445,7.445,0,0,0,6.193-3.263,7.493,7.493,0,0,0,1.758,1.82.652.652,0,1,0,.77-1.052,6.2,6.2,0,1,1,4.754,1.095.652.652,0,0,0,.114,1.294.621.621,0,0,0,.115-.01,7.5,7.5,0,0,0-1.328-14.889Z" transform="translate(-382 -2209.158)"/><path d="M772.776,1925.486h.01l5.317-.107a.489.489,0,0,0,.364-.8l-.8-.952a2.618,2.618,0,0,1,3.649.908.489.489,0,1,0,.846-.49,3.6,3.6,0,0,0-5.424-.949.489.489,0,0,0-.161.755l.483.573-3.688.074.7-3.621.319.38a.61.61,0,0,0,.466.3.724.724,0,0,0,.527-.26q.155-.116.318-.22a5.63,5.63,0,0,1,.721-.392,5.358,5.358,0,0,1,1.6-.44,5.275,5.275,0,0,1,5.421,3.182c.036.089.069.178.1.267q.031.09.058.181a.489.489,0,0,0,.938-.278c-.021-.072-.045-.144-.069-.218-.036-.107-.076-.213-.119-.319a6.272,6.272,0,0,0-6.44-3.786,6.345,6.345,0,0,0-1.891.52,6.607,6.607,0,0,0-.846.461q-.112.072-.221.148l-.792-.941a.489.489,0,0,0-.854.222L772.3,1924.9a.489.489,0,0,0,.48.582Z" transform="translate(-765.027 -1919.234)"/><path d="M548.216,2385.345a.927.927,0,0,0-.513,1.581l1.392,1.357-.329,1.916a.925.925,0,0,0,1.345.977l1.72-.9,1.721.9a.927.927,0,0,0,1.345-.977l-.329-1.916,1.392-1.357a.927.927,0,0,0-.514-1.581l-1.924-.279-.86-1.743a.927.927,0,0,0-1.662,0l-.86,1.743Z" transform="translate(-544.344 -2374.182)"/></g><path class="h" d="M393.635,1931.154a.49.49,0,0,1,.106.408l-1.012,5.221a.489.489,0,0,1-.854.221l-.792-.941q-.109.076-.22.148a6.6,6.6,0,0,1-.847.461,6.344,6.344,0,0,1-1.891.52,5.984,5.984,0,0,1-.684.039,6.275,6.275,0,0,1-5.756-3.825c-.066-.164-.126-.332-.177-.5a.489.489,0,0,1,.936-.285c.043.14.092.281.148.417a5.274,5.274,0,0,0,5.421,3.182,5.365,5.365,0,0,0,1.6-.44,5.61,5.61,0,0,0,.721-.392q.162-.1.318-.221a.723.723,0,0,1,.527-.26.61.61,0,0,1,.466.3l.319.38.7-3.621-3.688.074.483.573a.489.489,0,0,1-.161.755,3.6,3.6,0,0,1-5.344-.817.489.489,0,0,1,.824-.526,2.619,2.619,0,0,0,3.591.812l-.8-.952a.489.489,0,0,1,.364-.8l5.317-.107A.475.475,0,0,1,393.635,1931.154Zm.245-14.425a7.5,7.5,0,0,0-6.188,3.266,7.552,7.552,0,0,0-1.843-1.88.652.652,0,0,0-.756,1.063,6.239,6.239,0,0,1,1.876,2.133,7.469,7.469,0,0,0,0,5.837,6.2,6.2,0,0,1-11.668-2.915,6.24,6.24,0,0,1,4.833-6.048.652.652,0,0,0-.286-1.272,7.5,7.5,0,0,0,1.653,14.824,7.445,7.445,0,0,0,6.193-3.263,7.491,7.491,0,0,0,1.758,1.82.652.652,0,1,0,.77-1.052,6.2,6.2,0,1,1,4.754,1.1.652.652,0,1,0,.229,1.284,7.5,7.5,0,0,0-1.328-14.89Zm-12.131.756h.01l5.317-.106a.489.489,0,0,0,.364-.8l-.8-.952a2.618,2.618,0,0,1,3.649.908.489.489,0,0,0,.846-.49,3.6,3.6,0,0,0-5.424-.949.489.489,0,0,0-.161.755l.483.573-3.688.074.7-3.621.319.38a.61.61,0,0,0,.466.3.724.724,0,0,0,.527-.26q.155-.116.318-.22a5.607,5.607,0,0,1,.721-.392,5.355,5.355,0,0,1,1.6-.44,5.275,5.275,0,0,1,5.421,3.182c.036.089.069.178.1.266q.031.09.058.181a.489.489,0,1,0,.938-.278c-.021-.073-.045-.144-.069-.218q-.055-.16-.119-.319a6.272,6.272,0,0,0-6.439-3.786,6.341,6.341,0,0,0-1.891.52,6.6,6.6,0,0,0-.847.461q-.112.072-.221.148l-.792-.941a.489.489,0,0,0-.854.222l-1.012,5.221a.489.489,0,0,0,.48.582Zm-3.878,4.911a.927.927,0,0,0-.514,1.581l1.392,1.357-.329,1.916a.926.926,0,0,0,1.345.977l1.72-.9,1.721.9a.927.927,0,0,0,1.345-.977l-.329-1.916,1.392-1.357a.927.927,0,0,0-.514-1.581l-1.924-.28-.86-1.743a.927.927,0,0,0-1.662,0l-.86,1.743Z" transform="translate(-429.403 -465.944)"/><g transform="translate(-38.442 1454.528)"><path class="h" d="M1290.491,2409.563a.164.164,0,0,0-.122-.048h-.908a1.835,1.835,0,0,0-.34-.765h1.237a.164.164,0,0,0,.17-.17v-.542a.164.164,0,0,0-.17-.169h-4.419a.164.164,0,0,0-.17.169v.707a.173.173,0,0,0,.17.17h.77q1.12,0,1.423.6h-2.193a.164.164,0,0,0-.17.17v.542a.165.165,0,0,0,.17.17h2.268a1.038,1.038,0,0,1-.545.664,2.4,2.4,0,0,1-1.129.228h-.595a.173.173,0,0,0-.17.17v.674a.159.159,0,0,0,.048.117q1.02,1.083,2.645,3.033a.156.156,0,0,0,.133.063h1.036a.154.154,0,0,0,.154-.1.146.146,0,0,0-.021-.181q-1.551-1.9-2.438-2.847a2.7,2.7,0,0,0,1.466-.584,1.987,1.987,0,0,0,.685-1.243h.892a.164.164,0,0,0,.17-.17v-.542A.165.165,0,0,0,1290.491,2409.563Z" transform="translate(-1285.769 -2407.869)"/></g><g transform="translate(-38.254 1454.606)"><path d="M1300.619,2413.75a.164.164,0,0,0-.122-.048h-.908a1.836,1.836,0,0,0-.34-.765h1.238a.163.163,0,0,0,.17-.17v-.542a.163.163,0,0,0-.17-.17h-4.419a.163.163,0,0,0-.17.17v.707a.172.172,0,0,0,.17.17h.77q1.121,0,1.423.6h-2.193a.163.163,0,0,0-.17.17v.542a.163.163,0,0,0,.17.17h2.268a1.039,1.039,0,0,1-.544.664,2.4,2.4,0,0,1-1.129.229h-.595a.172.172,0,0,0-.17.17v.675a.159.159,0,0,0,.048.117q1.02,1.083,2.645,3.033a.156.156,0,0,0,.133.064h1.036a.154.154,0,0,0,.154-.1.145.145,0,0,0-.021-.181q-1.551-1.9-2.438-2.847a2.694,2.694,0,0,0,1.466-.584,1.985,1.985,0,0,0,.685-1.243h.892a.164.164,0,0,0,.17-.17v-.542A.165.165,0,0,0,1300.619,2413.75Z" transform="translate(-1295.897 -2412.055)"/></g><g transform="translate(-38.442 1454.528)"><path class="h" d="M1290.491,2409.563a.164.164,0,0,0-.122-.048h-.908a1.835,1.835,0,0,0-.34-.765h1.237a.164.164,0,0,0,.17-.17v-.542a.164.164,0,0,0-.17-.169h-4.419a.164.164,0,0,0-.17.169v.707a.173.173,0,0,0,.17.17h.77q1.12,0,1.423.6h-2.193a.164.164,0,0,0-.17.17v.542a.165.165,0,0,0,.17.17h2.268a1.038,1.038,0,0,1-.545.664,2.4,2.4,0,0,1-1.129.228h-.595a.173.173,0,0,0-.17.17v.674a.159.159,0,0,0,.048.117q1.02,1.083,2.645,3.033a.156.156,0,0,0,.133.063h1.036a.154.154,0,0,0,.154-.1.146.146,0,0,0-.021-.181q-1.551-1.9-2.438-2.847a2.7,2.7,0,0,0,1.466-.584,1.987,1.987,0,0,0,.685-1.243h.892a.164.164,0,0,0,.17-.17v-.542A.165.165,0,0,0,1290.491,2409.563Z" transform="translate(-1285.769 -2407.869)"/></g></g></svg>