<svg width="10" height="14" viewBox="0 0 10 14" fill="none" xmlns="http://www.w3.org/2000/svg">
<path fill-rule="evenodd" clip-rule="evenodd" d="M4.938 1.46404e-05C6.25157 -0.0031753 7.51271 0.515033 8.44454 1.44086C9.37637 2.36669 9.90271 3.62446 9.908 4.93801C9.908 7.63801 7.392 11.738 5.435 13.79C5.37351 13.8563 5.29901 13.9091 5.21616 13.9452C5.13331 13.9814 5.04389 14 4.9535 14C4.86312 14 4.7737 13.9814 4.69085 13.9452C4.608 13.9091 4.5335 13.8563 4.472 13.79C2.51601 11.74 4.97609e-06 7.64102 4.97609e-06 4.93801C-0.000916605 4.28929 0.12618 3.64676 0.374011 3.04723C0.621842 2.44771 0.985537 1.90299 1.44426 1.44427C1.90298 0.985547 2.4477 0.621852 3.04722 0.37402C3.64675 0.126189 4.28928 -0.000906941 4.938 1.46404e-05ZM4.938 2.11201C5.49693 2.11201 6.04331 2.27776 6.50805 2.58828C6.97278 2.89881 7.33499 3.34017 7.54889 3.85655C7.76278 4.37294 7.81875 4.94115 7.7097 5.48934C7.60066 6.03753 7.33151 6.54108 6.93629 6.9363C6.54107 7.33152 6.03752 7.60067 5.48933 7.70971C4.94114 7.81876 4.37293 7.76279 3.85654 7.5489C3.34016 7.335 2.8988 6.97279 2.58827 6.50806C2.27775 6.04332 2.112 5.49694 2.112 4.93801C2.11082 4.56657 2.1831 4.19855 2.3247 3.85515C2.4663 3.51174 2.67442 3.19974 2.93707 2.93708C3.19973 2.67443 3.51173 2.46631 3.85514 2.32471C4.19854 2.18311 4.56656 2.11083 4.938 2.11201Z" fill="#FE346E"/>
</svg>
