<svg width="19" height="19" viewBox="0 0 19 19" fill="none" xmlns="http://www.w3.org/2000/svg"> <path d="M0 2C0 0.895431 0.895431 0 2 0H17C17.5304 0 18.0391 0.210714 18.4142 0.585786C18.7893 0.960859 19 1.46957 19 2V17C19 17.5304 18.7893 18.0391 18.4142 18.4142C18.0391 18.7893 17.5304 19 17 19H2C0.89543 19 0 18.1046 0 17V2Z" fill="#FF0000"/> <path d="M16 2H3C2.44772 2 2 2.44772 2 3V16C2 16.5523 2.44772 17 3 17H16C16.5523 17 17 16.5523 17 16V3C17 2.44772 16.5523 2 16 2Z" fill="white"/> <path d="M14 9.5C14 7.01472 11.9853 5 9.5 5C7.01472 5 5 7.01472 5 9.5C5 11.9853 7.01472 14 9.5 14C11.9853 14 14 11.9853 14 9.5Z" fill="#FF0000"/> </svg>