<svg width="31" height="22" viewBox="0 0 31 22" fill="none" xmlns="http://www.w3.org/2000/svg">
<path d="M19.1245 17.3306H12.0011C11.9314 17.3354 11.8614 17.3256 11.7956 17.3019C11.7298 17.2781 11.6694 17.2408 11.6184 17.1924C11.5673 17.144 11.5266 17.0854 11.4988 17.0204C11.471 16.9553 11.4566 16.8852 11.4566 16.8142C11.4566 16.7433 11.471 16.6732 11.4988 16.6081C11.5266 16.5431 11.5673 16.4845 11.6184 16.4361C11.6694 16.3877 11.7298 16.3504 11.7956 16.3266C11.8614 16.3028 11.9314 16.2931 12.0011 16.2979H18.6168V1.03397H8.43124C8.36152 1.03877 8.29158 1.02898 8.22574 1.0052C8.15991 0.981426 8.09958 0.944167 8.04852 0.895745C7.99746 0.847324 7.95676 0.788768 7.92893 0.723714C7.90109 0.658661 7.88672 0.588499 7.88672 0.517578C7.88672 0.446657 7.90109 0.376496 7.92893 0.311442C7.95676 0.246389 7.99746 0.187833 8.04852 0.139411C8.09958 0.0909892 8.15991 0.0537301 8.22574 0.0299523C8.29158 0.00617456 8.36152 -0.00361313 8.43124 0.0011875H19.1245C19.2597 0.0011875 19.3894 0.0557138 19.4851 0.152779C19.5807 0.249844 19.6344 0.381495 19.6344 0.518766V16.8131C19.6344 16.9503 19.5807 17.082 19.4851 17.179C19.3894 17.2761 19.2597 17.3306 19.1245 17.3306Z" fill="#76787A"/>
<path d="M28.8468 17.3306H27.2326C27.1036 17.3217 26.9828 17.2635 26.8946 17.1676C26.8063 17.0717 26.7572 16.9454 26.7572 16.8142C26.7572 16.683 26.8063 16.5567 26.8946 16.4609C26.9828 16.365 27.1036 16.3067 27.2326 16.2978H28.8468C28.8824 16.2978 28.9165 16.2837 28.9419 16.2584C28.9673 16.233 28.9818 16.1986 28.9824 16.1625V10.1605C28.9818 10.1244 28.9673 10.09 28.9419 10.0646C28.9165 10.0393 28.8824 10.0251 28.8468 10.0252H27.4946C27.396 10.0261 27.2992 9.99789 27.2161 9.94391C27.133 9.88994 27.0672 9.81256 27.0268 9.72124L24.8793 4.88971C24.7994 4.71208 24.671 4.56148 24.5092 4.45583C24.3475 4.35018 24.1592 4.29392 23.9669 4.29377H19.1244C18.9954 4.28489 18.8745 4.22663 18.7863 4.13076C18.698 4.0349 18.6489 3.90859 18.6489 3.77738C18.6489 3.64618 18.698 3.51987 18.7863 3.424C18.8745 3.32814 18.9954 3.26987 19.1244 3.26099H23.9739C24.3619 3.26135 24.7416 3.37504 25.0676 3.58849C25.3937 3.80194 25.6523 4.10612 25.8127 4.46471L27.8268 8.99236H28.8491C29.1546 8.99235 29.4476 9.11535 29.6638 9.33435C29.88 9.55334 30.0018 9.85046 30.0024 10.1605V16.1649C30.0012 16.4749 29.8788 16.7718 29.6622 16.9903C29.4455 17.2089 29.1523 17.3313 28.8468 17.3306Z" fill="#76787A"/>
<path d="M24.6942 10.0252H22.5887C22.4598 10.0163 22.3389 9.95807 22.2506 9.8622C22.1624 9.76634 22.1133 9.64003 22.1133 9.50882C22.1133 9.37762 22.1624 9.25129 22.2506 9.15543C22.3389 9.05956 22.4598 9.0013 22.5887 8.99242H23.9081L22.8671 6.66806C22.8119 6.54212 22.8083 6.39908 22.857 6.27041C22.9057 6.14173 23.0027 6.03794 23.1268 5.9819C23.2509 5.92586 23.3918 5.92215 23.5186 5.97157C23.6454 6.02099 23.7476 6.1195 23.8029 6.24544L25.162 9.30108C25.1969 9.38007 25.2116 9.46666 25.2049 9.55293C25.1982 9.6392 25.1703 9.7224 25.1238 9.7949C25.0772 9.86741 25.0136 9.92692 24.9385 9.96799C24.8634 10.009 24.7794 10.0303 24.6942 10.03V10.0252Z" fill="#76787A"/>
<path d="M17.0191 1.034H8.42664C8.29766 1.02512 8.1768 0.966857 8.08853 0.870991C8.00026 0.775126 7.95117 0.648817 7.95117 0.517611C7.95117 0.386405 8.00026 0.260097 8.08853 0.164231C8.1768 0.0683658 8.29766 0.010102 8.42664 0.0012207H17.0191C17.1481 0.010102 17.269 0.0683658 17.3572 0.164231C17.4455 0.260097 17.4946 0.386405 17.4946 0.517611C17.4946 0.648817 17.4455 0.775126 17.3572 0.870991C17.269 0.966857 17.1481 1.02512 17.0191 1.034Z" fill="#76787A"/>
<path d="M14.0243 4.85648H5.43417C5.36445 4.86128 5.29451 4.85149 5.22867 4.82771C5.16284 4.80394 5.10251 4.76667 5.05145 4.71825C5.00039 4.66983 4.95969 4.61128 4.93186 4.54622C4.90402 4.48117 4.88965 4.41101 4.88965 4.34009C4.88965 4.26917 4.90402 4.19901 4.93186 4.13395C4.95969 4.0689 5.00039 4.01034 5.05145 3.96191C5.10251 3.91349 5.16284 3.87624 5.22867 3.85246C5.29451 3.82868 5.36445 3.8189 5.43417 3.8237H14.0243C14.094 3.8189 14.164 3.82868 14.2298 3.85246C14.2956 3.87624 14.356 3.91349 14.407 3.96191C14.4581 4.01034 14.4988 4.0689 14.5266 4.13395C14.5545 4.19901 14.5688 4.26917 14.5688 4.34009C14.5688 4.41101 14.5545 4.48117 14.5266 4.54622C14.4988 4.61128 14.4581 4.66983 14.407 4.71825C14.356 4.76667 14.2956 4.80394 14.2298 4.82771C14.164 4.85149 14.094 4.86128 14.0243 4.85648Z" fill="#76787A"/>
<path d="M11.0323 8.67659H2.43982C2.31084 8.66771 2.19004 8.60945 2.10177 8.51358C2.0135 8.41772 1.96436 8.29139 1.96436 8.16019C1.96436 8.02898 2.0135 7.90267 2.10177 7.80681C2.19004 7.71094 2.31084 7.65268 2.43982 7.6438H11.0323C11.1613 7.65268 11.2821 7.71094 11.3704 7.80681C11.4587 7.90267 11.5078 8.02898 11.5078 8.16019C11.5078 8.29139 11.4587 8.41772 11.3704 8.51358C11.2821 8.60945 11.1613 8.66771 11.0323 8.67659Z" fill="#76787A"/>
<path d="M6.73758 21.0013C6.04356 21.0013 5.36514 20.7925 4.78808 20.4011C4.21102 20.0098 3.76125 19.4536 3.49566 18.8029C3.23007 18.1521 3.16053 17.4361 3.29593 16.7452C3.43133 16.0544 3.76554 15.4198 4.25629 14.9218C4.74704 14.4237 5.37228 14.0845 6.05297 13.9471C6.73365 13.8097 7.43924 13.8802 8.08043 14.1498C8.72163 14.4193 9.26964 14.8758 9.65522 15.4614C10.0408 16.0471 10.2466 16.7356 10.2466 17.44C10.2466 18.3845 9.87689 19.2904 9.21882 19.9583C8.56074 20.6261 7.66824 21.0013 6.73758 21.0013ZM6.73758 14.9328C6.24678 14.9333 5.76713 15.0814 5.35927 15.3585C4.9514 15.6356 4.63364 16.0292 4.44614 16.4895C4.25864 16.9499 4.20978 17.4563 4.30581 17.9448C4.40185 18.4333 4.63841 18.8819 4.98563 19.2339C5.33285 19.586 5.77511 19.8257 6.25652 19.9227C6.73793 20.0197 7.23689 19.9697 7.69029 19.7789C8.14369 19.5882 8.5312 19.2653 8.80383 18.8511C9.07646 18.4369 9.22196 17.95 9.22196 17.4519C9.22072 16.7838 8.95851 16.1434 8.49279 15.6712C8.02708 15.199 7.39589 14.9335 6.73758 14.9328Z" fill="#76787A"/>
<path d="M24.3059 21.0013C23.6119 21.0013 22.9335 20.7925 22.3564 20.4011C21.7793 20.0098 21.3296 19.4536 21.064 18.8029C20.7984 18.1521 20.7289 17.4361 20.8643 16.7452C20.9997 16.0544 21.3339 15.4198 21.8247 14.9218C22.3154 14.4237 22.9407 14.0845 23.6213 13.9471C24.302 13.8097 25.0076 13.8802 25.6488 14.1498C26.2899 14.4193 26.838 14.8758 27.2236 15.4614C27.6092 16.0471 27.8149 16.7356 27.8149 17.44C27.8149 18.3845 27.4453 19.2904 26.7872 19.9583C26.1291 20.6261 25.2366 21.0013 24.3059 21.0013ZM24.3059 14.9328C23.8151 14.9333 23.3355 15.0814 22.9276 15.3585C22.5197 15.6356 22.202 16.0292 22.0145 16.4895C21.827 16.9499 21.7782 17.4563 21.8742 17.9448C21.9702 18.4333 22.2068 18.8819 22.554 19.2339C22.9012 19.586 23.3435 19.8257 23.8249 19.9227C24.3063 20.0197 24.8053 19.9697 25.2587 19.7789C25.7121 19.5882 26.0996 19.2653 26.3722 18.8511C26.6448 18.4369 26.7903 17.95 26.7903 17.4519C26.7891 16.7838 26.5269 16.1434 26.0612 15.6712C25.5955 15.199 24.9642 14.9335 24.3059 14.9328Z" fill="#76787A"/>
<path d="M3.8109 17.3306H0.507695C0.378712 17.3217 0.257908 17.2635 0.169641 17.1676C0.0813749 17.0718 0.0322266 16.9454 0.0322266 16.8142C0.0322266 16.683 0.0813749 16.5567 0.169641 16.4609C0.257908 16.365 0.378712 16.3067 0.507695 16.2979H3.8109C3.93989 16.3067 4.06075 16.365 4.14901 16.4609C4.23728 16.5567 4.28637 16.683 4.28637 16.8142C4.28637 16.9454 4.23728 17.0718 4.14901 17.1676C4.06075 17.2635 3.93989 17.3217 3.8109 17.3306Z" fill="#76787A"/>
</svg>
