<svg xmlns="http://www.w3.org/2000/svg" width="20" height="14.286" viewBox="0 0 20 14.286"><defs><style>.a{fill:#2e2728;}</style></defs><path class="a" d="M49.857,637H34.143A2.143,2.143,0,0,0,32,639.143v10a2.143,2.143,0,0,0,2.143,2.143H49.857A2.143,2.143,0,0,0,52,649.143v-10A2.143,2.143,0,0,0,49.857,637Zm.714,12.143a.714.714,0,0,1-.714.714H34.143a.714.714,0,0,1-.714-.714v-4.286H50.571Zm0-5.714H33.429V642H50.571Zm0-2.858H33.429v-1.428a.714.714,0,0,1,.714-.714H49.857a.714.714,0,0,1,.714.714v1.428Z" transform="translate(-32 -637)"/></svg>