<svg width="28" height="28" viewBox="0 0 28 28" fill="none" xmlns="http://www.w3.org/2000/svg">
<circle cx="14" cy="14" r="14" fill="#151515"/>
<path d="M16.8789 12.1559H15.9089C15.8606 11.9696 15.7737 11.7955 15.6539 11.6449H16.8789C16.9805 11.6449 17.0779 11.6046 17.1497 11.5327C17.2215 11.4609 17.2619 11.3635 17.2619 11.2619C17.2619 11.1603 17.2215 11.0629 17.1497 10.9911C17.0779 10.9193 16.9805 10.8789 16.8789 10.8789H12.2789C12.1773 10.8789 12.0799 10.9193 12.0081 10.9911C11.9362 11.0629 11.8959 11.1603 11.8959 11.2619C11.8959 11.3635 11.9362 11.4609 12.0081 11.5327C12.0799 11.6046 12.1773 11.6449 12.2789 11.6449H13.7599C14.5509 11.6449 14.9089 11.8449 15.0879 12.1559H12.2839C12.1823 12.1559 12.0849 12.1963 12.0131 12.2681C11.9412 12.3399 11.9009 12.4373 11.9009 12.5389C11.9009 12.6405 11.9412 12.7379 12.0131 12.8097C12.0849 12.8816 12.1823 12.9219 12.2839 12.9219H15.2199C15.1939 13.4579 14.9649 13.9429 13.7649 13.9429H12.2839C12.2088 13.9439 12.1355 13.9659 12.0723 14.0066C12.0092 14.0473 11.9588 14.1049 11.9269 14.1729C11.8999 14.2412 11.8928 14.3158 11.9064 14.388C11.92 14.4602 11.9538 14.5271 12.0039 14.5809L15.0679 17.6449C15.1466 17.711 15.2461 17.7472 15.3489 17.7472C15.4517 17.7472 15.5512 17.711 15.6299 17.6449C15.6662 17.6103 15.6951 17.5688 15.7148 17.5227C15.7346 17.4766 15.7448 17.427 15.7448 17.3769C15.7448 17.3268 15.7346 17.2772 15.7148 17.2311C15.6951 17.185 15.6662 17.1435 15.6299 17.1089L13.2299 14.7089H13.7659C15.6039 14.7089 15.9659 13.6369 15.9869 12.9219H16.8809C16.9825 12.9219 17.0799 12.8816 17.1517 12.8097C17.2235 12.7379 17.2639 12.6405 17.2639 12.5389C17.2639 12.4373 17.2235 12.3399 17.1517 12.2681C17.0799 12.1963 16.9825 12.1559 16.8809 12.1559H16.8789Z" fill="white"/>
<path d="M23.5449 14.0709L22.2909 12.7449L22.9549 11.0349C22.9886 10.9437 22.9867 10.8432 22.9496 10.7533C22.9126 10.6635 22.8431 10.5909 22.7549 10.5499L21.0959 9.8099L21.0449 7.9949C21.0381 7.89556 20.9956 7.80203 20.9252 7.73162C20.8548 7.66121 20.7612 7.61868 20.6619 7.6119L18.8449 7.5609L18.1049 5.9019C18.0639 5.81375 17.9913 5.74423 17.9015 5.70718C17.8116 5.67012 17.7111 5.66824 17.6199 5.7019L15.9099 6.3659L14.5819 5.1149C14.5473 5.07859 14.5058 5.04969 14.4597 5.02994C14.4136 5.01019 14.364 5 14.3139 5C14.2638 5 14.2142 5.01019 14.1681 5.02994C14.122 5.04969 14.0805 5.07859 14.0459 5.1149L12.7179 6.3659L11.0079 5.7019C10.9167 5.66824 10.8162 5.67012 10.7263 5.70718C10.6365 5.74423 10.5639 5.81375 10.5229 5.9019L9.7829 7.5609L7.9699 7.6119C7.87055 7.61868 7.77703 7.66121 7.70662 7.73162C7.63621 7.80203 7.59368 7.89556 7.5869 7.9949L7.5359 9.8079L5.8759 10.5449C5.78775 10.5859 5.71823 10.6585 5.68118 10.7483C5.64412 10.8382 5.64224 10.9387 5.6759 11.0299L6.3399 12.7399L5.1149 14.0679C5.07859 14.1025 5.04969 14.144 5.02994 14.1901C5.01018 14.2362 5 14.2858 5 14.3359C5 14.386 5.01018 14.4356 5.02994 14.4817C5.04969 14.5278 5.07859 14.5693 5.1149 14.6039L6.3659 15.9319L5.7019 17.6419C5.66824 17.7331 5.67012 17.8336 5.70718 17.9235C5.74423 18.0133 5.81375 18.0859 5.9019 18.1269L7.5609 18.8669L7.6119 20.6799C7.61868 20.7792 7.66121 20.8728 7.73162 20.9432C7.80203 21.0136 7.89556 21.0561 7.9949 21.0629L9.8079 21.1139L10.5449 22.7769C10.5859 22.8651 10.6585 22.9346 10.7483 22.9716C10.8382 23.0087 10.9387 23.0106 11.0299 22.9769L12.7399 22.3129L14.0679 23.5639C14.1367 23.6296 14.2282 23.6663 14.3234 23.6663C14.4186 23.6663 14.5101 23.6296 14.5789 23.5639L15.9069 22.3129L17.6169 22.9769C17.6991 23.0115 17.791 23.015 17.8757 22.9868C17.9603 22.9587 18.0318 22.9008 18.0769 22.8239L23.5909 14.5779C23.6348 14.4985 23.6538 14.4077 23.6456 14.3173C23.6374 14.227 23.6024 14.1411 23.5449 14.0709ZM18.0309 20.1709C19.1309 19.1709 19.1799 19.0219 19.1539 18.8949L20.5329 16.8269C20.6609 16.8009 20.7629 16.6989 21.2729 15.2949L18.0309 20.1709ZM17.5969 22.1109L15.9629 21.4729C15.8944 21.4472 15.8201 21.4407 15.7481 21.4543C15.6762 21.4679 15.6093 21.501 15.5549 21.5499L14.3259 22.7249L13.1009 21.5509C13.032 21.4858 12.9406 21.45 12.8459 21.4509C12.8015 21.4443 12.7562 21.4535 12.7179 21.4769L11.1349 22.0899L10.4449 20.5299C10.4156 20.4651 10.3692 20.4095 10.3107 20.369C10.2522 20.3285 10.1839 20.3046 10.1129 20.2999L8.4029 20.2489L8.3519 18.5389C8.35062 18.467 8.3281 18.3972 8.28717 18.3381C8.24624 18.279 8.18873 18.2333 8.1219 18.2069L6.5649 17.5179L7.1779 15.9349C7.20363 15.8664 7.21006 15.7921 7.19648 15.7201C7.18291 15.6482 7.14984 15.5813 7.1009 15.5269L5.9269 14.3269L7.1009 13.1019C7.15096 13.0481 7.18476 12.9812 7.19839 12.909C7.21201 12.8368 7.20491 12.7622 7.1779 12.6939L6.5649 11.1109L8.1219 10.4219C8.18669 10.3926 8.24231 10.3462 8.28281 10.2877C8.32332 10.2292 8.34719 10.1609 8.3519 10.0899L8.4029 8.3799L10.1129 8.3289C10.1848 8.32763 10.2546 8.3051 10.3137 8.26417C10.3728 8.22324 10.4185 8.16573 10.4449 8.0989L11.1339 6.5419L12.7169 7.1549C12.7854 7.18063 12.8597 7.18706 12.9317 7.17348C13.0036 7.15991 13.0705 7.12685 13.1249 7.0779L14.3499 5.9039L15.5749 7.0779C15.6287 7.12796 15.6956 7.16176 15.7678 7.17539C15.84 7.18901 15.9146 7.18191 15.9829 7.1549L17.5659 6.5419L18.2549 8.0989C18.2842 8.16369 18.3306 8.21931 18.3891 8.25981C18.4476 8.30032 18.5159 8.3242 18.5869 8.3289L20.2969 8.3799L20.3479 10.0899C20.3492 10.1618 20.3717 10.2316 20.4126 10.2907C20.4536 10.3498 20.5111 10.3955 20.5779 10.4219L22.1349 11.1109L21.4709 12.6939C21.4452 12.7624 21.4387 12.8367 21.4523 12.9087C21.4659 12.9806 21.499 13.0475 21.5479 13.1019L22.7479 14.3779L22.7219 14.4289L20.9349 14.5819C20.861 14.5882 20.7904 14.6156 20.7316 14.6608C20.6727 14.706 20.6281 14.7671 20.6029 14.8369L20.1179 16.1649L18.3049 16.5729C18.2573 16.5816 18.2119 16.5999 18.1716 16.6268C18.1313 16.6537 18.097 16.6885 18.0706 16.7292C18.0443 16.7698 18.0266 16.8155 18.0186 16.8632C18.0105 16.911 18.0123 16.9599 18.0239 17.0069L18.3299 18.8449L17.3089 19.7899C17.256 19.8419 17.2187 19.9077 17.201 19.9797C17.1834 20.0518 17.1861 20.1273 17.2089 20.1979L17.7709 21.9079L17.5969 22.1109Z" fill="white"/>
</svg>
