<svg width="15" height="12" viewBox="0 0 15 12" fill="none" xmlns="http://www.w3.org/2000/svg">
<path d="M2.34375 11.25H4.6875C4.81182 11.25 4.93105 11.2006 5.01896 11.1127C5.10686 11.0248 5.15625 10.9056 5.15625 10.7812V9.375C5.15625 9.25068 5.10686 9.13145 5.01896 9.04354C4.93105 8.95564 4.81182 8.90625 4.6875 8.90625C4.56318 8.90625 4.44395 8.95564 4.35604 9.04354C4.26814 9.13145 4.21875 9.25068 4.21875 9.375V10.3125H2.34375C1.97079 10.3125 1.6131 10.1643 1.34938 9.90062C1.08566 9.6369 0.9375 9.27921 0.9375 8.90625V8.39531C1.59257 8.28514 2.18741 7.9464 2.61641 7.43923C3.04541 6.93206 3.2808 6.28927 3.2808 5.625C3.2808 4.96073 3.04541 4.31794 2.61641 3.81077C2.18741 3.3036 1.59257 2.96486 0.9375 2.85469V2.34375C0.9375 1.97079 1.08566 1.6131 1.34938 1.34938C1.6131 1.08566 1.97079 0.9375 2.34375 0.9375H4.21875V1.875C4.21875 1.99932 4.26814 2.11855 4.35604 2.20646C4.44395 2.29436 4.56318 2.34375 4.6875 2.34375C4.81182 2.34375 4.93105 2.29436 5.01896 2.20646C5.10686 2.11855 5.15625 1.99932 5.15625 1.875V0.46875C5.15625 0.34443 5.10686 0.225201 5.01896 0.137294C4.93105 0.0493861 4.81182 0 4.6875 0H2.34375C1.72238 0.000744308 1.12667 0.247913 0.687291 0.687291C0.247913 1.12667 0.000744308 1.72238 0 2.34375L0 3.28125C0 3.40557 0.049386 3.5248 0.137294 3.61271C0.225201 3.70061 0.34443 3.75 0.46875 3.75C0.966031 3.75 1.44294 3.94754 1.79458 4.29917C2.14621 4.65081 2.34375 5.12772 2.34375 5.625C2.34375 6.12228 2.14621 6.59919 1.79458 6.95082C1.44294 7.30246 0.966031 7.5 0.46875 7.5C0.34443 7.5 0.225201 7.54939 0.137294 7.63729C0.049386 7.7252 0 7.84443 0 7.96875L0 8.90625C0.000744308 9.52762 0.247913 10.1233 0.687291 10.5627C1.12667 11.0021 1.72238 11.2493 2.34375 11.25Z" fill="url(#paint0_linear)"/>
<path d="M12.6562 0H6.5625C6.43818 0 6.31895 0.0493861 6.23104 0.137294C6.14314 0.225201 6.09375 0.34443 6.09375 0.46875C6.09375 0.59307 6.14314 0.712299 6.23104 0.800206C6.31895 0.888114 6.43818 0.9375 6.5625 0.9375H12.6562C13.0292 0.9375 13.3869 1.08566 13.6506 1.34938C13.9143 1.6131 14.0625 1.97079 14.0625 2.34375V2.85469C13.4074 2.96486 12.8126 3.3036 12.3836 3.81077C11.9546 4.31794 11.7192 4.96073 11.7192 5.625C11.7192 6.28927 11.9546 6.93206 12.3836 7.43923C12.8126 7.9464 13.4074 8.28514 14.0625 8.39531V8.90625C14.0625 9.27921 13.9143 9.6369 13.6506 9.90062C13.3869 10.1643 13.0292 10.3125 12.6562 10.3125H6.5625C6.43818 10.3125 6.31895 10.3619 6.23104 10.4498C6.14314 10.5377 6.09375 10.6569 6.09375 10.7812C6.09375 10.9056 6.14314 11.0248 6.23104 11.1127C6.31895 11.2006 6.43818 11.25 6.5625 11.25H12.6562C13.2776 11.2493 13.8733 11.0021 14.3127 10.5627C14.7521 10.1233 14.9993 9.52762 15 8.90625V7.96875C15 7.84443 14.9506 7.7252 14.8627 7.63729C14.7748 7.54939 14.6556 7.5 14.5312 7.5C14.034 7.5 13.5571 7.30246 13.2054 6.95082C12.8538 6.59919 12.6562 6.12228 12.6562 5.625C12.6562 5.12772 12.8538 4.65081 13.2054 4.29917C13.5571 3.94754 14.034 3.75 14.5312 3.75C14.6556 3.75 14.7748 3.70061 14.8627 3.61271C14.9506 3.5248 15 3.40557 15 3.28125V2.34375C14.9993 1.72238 14.7521 1.12667 14.3127 0.687291C13.8733 0.247913 13.2776 0.000744308 12.6562 0Z" fill="url(#paint1_linear)"/>
<path d="M5.15625 3.75C5.15625 3.62568 5.10686 3.50645 5.01896 3.41854C4.93105 3.33064 4.81182 3.28125 4.6875 3.28125C4.56318 3.28125 4.44395 3.33064 4.35604 3.41854C4.26814 3.50645 4.21875 3.62568 4.21875 3.75V4.6875C4.21875 4.81182 4.26814 4.93105 4.35604 5.01896C4.44395 5.10686 4.56318 5.15625 4.6875 5.15625C4.81182 5.15625 4.93105 5.10686 5.01896 5.01896C5.10686 4.93105 5.15625 4.81182 5.15625 4.6875V3.75Z" fill="url(#paint2_linear)"/>
<path d="M4.6875 6.09375C4.56318 6.09375 4.44395 6.14314 4.35604 6.23104C4.26814 6.31895 4.21875 6.43818 4.21875 6.5625V7.5C4.21875 7.62432 4.26814 7.74355 4.35604 7.83146C4.44395 7.91936 4.56318 7.96875 4.6875 7.96875C4.81182 7.96875 4.93105 7.91936 5.01896 7.83146C5.10686 7.74355 5.15625 7.62432 5.15625 7.5V6.5625C5.15625 6.43818 5.10686 6.31895 5.01896 6.23104C4.93105 6.14314 4.81182 6.09375 4.6875 6.09375Z" fill="url(#paint3_linear)"/>
<path d="M7.5 4.6875C7.75888 4.6875 7.96875 4.47763 7.96875 4.21875C7.96875 3.95987 7.75888 3.75 7.5 3.75C7.24112 3.75 7.03125 3.95987 7.03125 4.21875C7.03125 4.47763 7.24112 4.6875 7.5 4.6875Z" fill="url(#paint4_linear)"/>
<path d="M9.84375 7.96875C10.1026 7.96875 10.3125 7.75888 10.3125 7.5C10.3125 7.24112 10.1026 7.03125 9.84375 7.03125C9.58487 7.03125 9.375 7.24112 9.375 7.5C9.375 7.75888 9.58487 7.96875 9.84375 7.96875Z" fill="url(#paint5_linear)"/>
<path d="M6.69987 7.83126C6.78854 7.91768 6.90746 7.96604 7.03127 7.96604C7.15509 7.96604 7.27401 7.91768 7.36268 7.83126L10.6439 4.55001C10.7293 4.4616 10.7766 4.3432 10.7755 4.22029C10.7744 4.09739 10.7251 3.97982 10.6382 3.89291C10.5513 3.806 10.4337 3.7567 10.3108 3.75563C10.1879 3.75456 10.0695 3.80181 9.98112 3.8872L6.69987 7.16845C6.61199 7.25635 6.56262 7.37556 6.56262 7.49985C6.56262 7.62415 6.61199 7.74336 6.69987 7.83126Z" fill="url(#paint6_linear)"/>
<defs>
<linearGradient id="paint0_linear" x1="2.57812" y1="0" x2="2.57813" y2="11.25" gradientUnits="userSpaceOnUse">
<stop stop-color="#F9F295"/>
<stop offset="0.375" stop-color="#E0AA3E"/>
<stop offset="0.692708" stop-color="#F7EF8A"/>
<stop offset="1" stop-color="#B88A44"/>
</linearGradient>
<linearGradient id="paint1_linear" x1="10.5469" y1="0" x2="10.5469" y2="11.25" gradientUnits="userSpaceOnUse">
<stop stop-color="#F9F295"/>
<stop offset="0.375" stop-color="#E0AA3E"/>
<stop offset="0.692708" stop-color="#F7EF8A"/>
<stop offset="1" stop-color="#B88A44"/>
</linearGradient>
<linearGradient id="paint2_linear" x1="4.6875" y1="3.28125" x2="4.6875" y2="5.15625" gradientUnits="userSpaceOnUse">
<stop stop-color="#F9F295"/>
<stop offset="0.375" stop-color="#E0AA3E"/>
<stop offset="0.692708" stop-color="#F7EF8A"/>
<stop offset="1" stop-color="#B88A44"/>
</linearGradient>
<linearGradient id="paint3_linear" x1="4.6875" y1="6.09375" x2="4.6875" y2="7.96875" gradientUnits="userSpaceOnUse">
<stop stop-color="#F9F295"/>
<stop offset="0.375" stop-color="#E0AA3E"/>
<stop offset="0.692708" stop-color="#F7EF8A"/>
<stop offset="1" stop-color="#B88A44"/>
</linearGradient>
<linearGradient id="paint4_linear" x1="7.5" y1="3.75" x2="7.5" y2="4.6875" gradientUnits="userSpaceOnUse">
<stop stop-color="#F9F295"/>
<stop offset="0.375" stop-color="#E0AA3E"/>
<stop offset="0.692708" stop-color="#F7EF8A"/>
<stop offset="1" stop-color="#B88A44"/>
</linearGradient>
<linearGradient id="paint5_linear" x1="9.84375" y1="7.03125" x2="9.84375" y2="7.96875" gradientUnits="userSpaceOnUse">
<stop stop-color="#F9F295"/>
<stop offset="0.375" stop-color="#E0AA3E"/>
<stop offset="0.692708" stop-color="#F7EF8A"/>
<stop offset="1" stop-color="#B88A44"/>
</linearGradient>
<linearGradient id="paint6_linear" x1="8.66907" y1="3.75562" x2="8.66907" y2="7.96604" gradientUnits="userSpaceOnUse">
<stop stop-color="#F9F295"/>
<stop offset="0.375" stop-color="#E0AA3E"/>
<stop offset="0.692708" stop-color="#F7EF8A"/>
<stop offset="1" stop-color="#B88A44"/>
</linearGradient>
</defs>
</svg>
