<svg width="15" height="12" viewBox="0 0 15 12" fill="none" xmlns="http://www.w3.org/2000/svg">
<g filter="url(#filter0_ii)">
<mask id="path-1-inside-1" fill="white">
<path d="M2.34375 11.25H4.6875C4.81182 11.25 4.93105 11.2006 5.01896 11.1127C5.10686 11.0248 5.15625 10.9056 5.15625 10.7812V9.375C5.15625 9.25068 5.10686 9.13145 5.01896 9.04354C4.93105 8.95564 4.81182 8.90625 4.6875 8.90625C4.56318 8.90625 4.44395 8.95564 4.35604 9.04354C4.26814 9.13145 4.21875 9.25068 4.21875 9.375V10.3125H2.34375C1.97079 10.3125 1.6131 10.1643 1.34938 9.90062C1.08566 9.6369 0.9375 9.27921 0.9375 8.90625V8.39531C1.59257 8.28514 2.18741 7.9464 2.61641 7.43923C3.04541 6.93206 3.2808 6.28927 3.2808 5.625C3.2808 4.96073 3.04541 4.31794 2.61641 3.81077C2.18741 3.3036 1.59257 2.96486 0.9375 2.85469V2.34375C0.9375 1.97079 1.08566 1.6131 1.34938 1.34938C1.6131 1.08566 1.97079 0.9375 2.34375 0.9375H4.21875V1.875C4.21875 1.99932 4.26814 2.11855 4.35604 2.20646C4.44395 2.29436 4.56318 2.34375 4.6875 2.34375C4.81182 2.34375 4.93105 2.29436 5.01896 2.20646C5.10686 2.11855 5.15625 1.99932 5.15625 1.875V0.46875C5.15625 0.34443 5.10686 0.225201 5.01896 0.137294C4.93105 0.0493861 4.81182 0 4.6875 0H2.34375C1.72238 0.000744308 1.12667 0.247913 0.687291 0.687291C0.247913 1.12667 0.000744308 1.72238 0 2.34375L0 3.28125C0 3.40557 0.049386 3.5248 0.137294 3.61271C0.225201 3.70061 0.34443 3.75 0.46875 3.75C0.966031 3.75 1.44294 3.94754 1.79458 4.29917C2.14621 4.65081 2.34375 5.12772 2.34375 5.625C2.34375 6.12228 2.14621 6.59919 1.79458 6.95082C1.44294 7.30246 0.966031 7.5 0.46875 7.5C0.34443 7.5 0.225201 7.54939 0.137294 7.63729C0.049386 7.7252 0 7.84443 0 7.96875L0 8.90625C0.000744308 9.52762 0.247913 10.1233 0.687291 10.5627C1.12667 11.0021 1.72238 11.2493 2.34375 11.25Z"/>
</mask>
<path d="M2.34375 11.25H4.6875C4.81182 11.25 4.93105 11.2006 5.01896 11.1127C5.10686 11.0248 5.15625 10.9056 5.15625 10.7812V9.375C5.15625 9.25068 5.10686 9.13145 5.01896 9.04354C4.93105 8.95564 4.81182 8.90625 4.6875 8.90625C4.56318 8.90625 4.44395 8.95564 4.35604 9.04354C4.26814 9.13145 4.21875 9.25068 4.21875 9.375V10.3125H2.34375C1.97079 10.3125 1.6131 10.1643 1.34938 9.90062C1.08566 9.6369 0.9375 9.27921 0.9375 8.90625V8.39531C1.59257 8.28514 2.18741 7.9464 2.61641 7.43923C3.04541 6.93206 3.2808 6.28927 3.2808 5.625C3.2808 4.96073 3.04541 4.31794 2.61641 3.81077C2.18741 3.3036 1.59257 2.96486 0.9375 2.85469V2.34375C0.9375 1.97079 1.08566 1.6131 1.34938 1.34938C1.6131 1.08566 1.97079 0.9375 2.34375 0.9375H4.21875V1.875C4.21875 1.99932 4.26814 2.11855 4.35604 2.20646C4.44395 2.29436 4.56318 2.34375 4.6875 2.34375C4.81182 2.34375 4.93105 2.29436 5.01896 2.20646C5.10686 2.11855 5.15625 1.99932 5.15625 1.875V0.46875C5.15625 0.34443 5.10686 0.225201 5.01896 0.137294C4.93105 0.0493861 4.81182 0 4.6875 0H2.34375C1.72238 0.000744308 1.12667 0.247913 0.687291 0.687291C0.247913 1.12667 0.000744308 1.72238 0 2.34375L0 3.28125C0 3.40557 0.049386 3.5248 0.137294 3.61271C0.225201 3.70061 0.34443 3.75 0.46875 3.75C0.966031 3.75 1.44294 3.94754 1.79458 4.29917C2.14621 4.65081 2.34375 5.12772 2.34375 5.625C2.34375 6.12228 2.14621 6.59919 1.79458 6.95082C1.44294 7.30246 0.966031 7.5 0.46875 7.5C0.34443 7.5 0.225201 7.54939 0.137294 7.63729C0.049386 7.7252 0 7.84443 0 7.96875L0 8.90625C0.000744308 9.52762 0.247913 10.1233 0.687291 10.5627C1.12667 11.0021 1.72238 11.2493 2.34375 11.25Z" fill="#C4C4C4"/>
<path d="M2.34375 9.25C1.23918 9.25 0.34375 10.1454 0.34375 11.25C0.34375 12.3546 1.23918 13.25 2.34375 13.25V9.25ZM4.21875 10.3125V12.3125C5.32332 12.3125 6.21875 11.4171 6.21875 10.3125H4.21875ZM2.34375 10.3125V12.3125V10.3125ZM0.9375 8.90625H-1.0625H0.9375ZM0.9375 8.39531L0.605794 6.42301C-0.357244 6.58498 -1.0625 7.41875 -1.0625 8.39531H0.9375ZM0.9375 2.85469H-1.0625C-1.0625 3.83125 -0.357244 4.66502 0.605794 4.82699L0.9375 2.85469ZM0.9375 2.34375H-1.0625H0.9375ZM2.34375 0.9375V-1.0625V0.9375ZM4.21875 0.9375H6.21875C6.21875 -0.167069 5.32332 -1.0625 4.21875 -1.0625V0.9375ZM4.6875 0V-2V0ZM2.34375 0V-2L2.34135 -2L2.34375 0ZM0 2.34375L-2 2.34135V2.34375H0ZM0 3.28125H-2H0ZM0.46875 3.75V1.75V3.75ZM2.34375 5.625H4.34375H2.34375ZM0 7.96875H-2H0ZM0 8.90625H-2L-2 8.90865L0 8.90625ZM2.34375 13.25H4.6875V9.25H2.34375V13.25ZM4.6875 13.25C5.34225 13.25 5.97019 12.9899 6.43317 12.5269L3.60474 9.69849C3.89191 9.41133 4.28139 9.25 4.6875 9.25V13.25ZM6.43317 12.5269C6.89615 12.0639 7.15625 11.436 7.15625 10.7812H3.15625C3.15625 10.3751 3.31758 9.98566 3.60474 9.69849L6.43317 12.5269ZM7.15625 10.7812V9.375H3.15625V10.7812H7.15625ZM7.15625 9.375C7.15625 8.72025 6.89615 8.09231 6.43317 7.62933L3.60474 10.4578C3.31758 10.1706 3.15625 9.78111 3.15625 9.375H7.15625ZM6.43317 7.62933C5.97019 7.16635 5.34225 6.90625 4.6875 6.90625V10.9062C4.28139 10.9062 3.89191 10.7449 3.60474 10.4578L6.43317 7.62933ZM4.6875 6.90625C4.03275 6.90625 3.40481 7.16635 2.94183 7.62933L5.77026 10.4578C5.48309 10.7449 5.09361 10.9062 4.6875 10.9062V6.90625ZM2.94183 7.62933C2.47885 8.09231 2.21875 8.72025 2.21875 9.375H6.21875C6.21875 9.78111 6.05742 10.1706 5.77026 10.4578L2.94183 7.62933ZM2.21875 9.375V10.3125H6.21875V9.375H2.21875ZM4.21875 8.3125H2.34375V12.3125H4.21875V8.3125ZM2.34375 8.3125C2.50122 8.3125 2.65224 8.37506 2.76359 8.48641L-0.0648324 11.3148C0.573964 11.9536 1.44036 12.3125 2.34375 12.3125V8.3125ZM2.76359 8.48641C2.87494 8.59776 2.9375 8.74878 2.9375 8.90625H-1.0625C-1.0625 9.80964 -0.703628 10.676 -0.0648324 11.3148L2.76359 8.48641ZM2.9375 8.90625V8.39531H-1.0625V8.90625H2.9375ZM1.26921 10.3676C2.39065 10.179 3.40899 9.5991 4.1434 8.73085L1.08942 6.1476C0.965843 6.2937 0.794494 6.39128 0.605794 6.42301L1.26921 10.3676ZM4.1434 8.73085C4.87782 7.86261 5.2808 6.7622 5.2808 5.625H1.2808C1.2808 5.81635 1.21299 6.00151 1.08942 6.1476L4.1434 8.73085ZM5.2808 5.625C5.2808 4.4878 4.87782 3.38739 4.1434 2.51915L1.08942 5.1024C1.21299 5.24849 1.2808 5.43365 1.2808 5.625H5.2808ZM4.1434 2.51915C3.40899 1.6509 2.39065 1.07099 1.26921 0.882387L0.605794 4.82699C0.794494 4.85872 0.965843 4.9563 1.08942 5.1024L4.1434 2.51915ZM2.9375 2.85469V2.34375H-1.0625V2.85469H2.9375ZM2.9375 2.34375C2.9375 2.50122 2.87494 2.65225 2.76359 2.76359L-0.0648324 -0.0648324C-0.703628 0.573963 -1.0625 1.44036 -1.0625 2.34375H2.9375ZM2.76359 2.76359C2.65225 2.87494 2.50122 2.9375 2.34375 2.9375V-1.0625C1.44036 -1.0625 0.573963 -0.703628 -0.0648324 -0.0648324L2.76359 2.76359ZM2.34375 2.9375H4.21875V-1.0625H2.34375V2.9375ZM2.21875 0.9375V1.875H6.21875V0.9375H2.21875ZM2.21875 1.875C2.21875 2.52975 2.47885 3.15769 2.94183 3.62067L5.77026 0.792243C6.05742 1.07941 6.21875 1.46889 6.21875 1.875H2.21875ZM2.94183 3.62067C3.40481 4.08365 4.03275 4.34375 4.6875 4.34375V0.34375C5.09361 0.34375 5.48309 0.505079 5.77026 0.792243L2.94183 3.62067ZM4.6875 4.34375C5.34225 4.34375 5.97019 4.08365 6.43317 3.62067L3.60474 0.792243C3.89191 0.505079 4.28139 0.34375 4.6875 0.34375V4.34375ZM6.43317 3.62067C6.89615 3.15769 7.15625 2.52975 7.15625 1.875H3.15625C3.15625 1.46889 3.31758 1.07941 3.60474 0.792243L6.43317 3.62067ZM7.15625 1.875V0.46875H3.15625V1.875H7.15625ZM7.15625 0.46875C7.15625 -0.186005 6.89615 -0.81394 6.43317 -1.27692L3.60474 1.55151C3.31758 1.26434 3.15625 0.874864 3.15625 0.46875H7.15625ZM6.43317 -1.27692C5.97019 -1.7399 5.34225 -2 4.6875 -2V2C4.28139 2 3.89191 1.83867 3.60474 1.55151L6.43317 -1.27692ZM4.6875 -2H2.34375V2H4.6875V-2ZM2.34135 -2C1.19038 -1.99862 0.0869399 -1.54079 -0.726923 -0.726923L2.1015 2.1015C2.1664 2.03661 2.25438 2.00011 2.34615 2L2.34135 -2ZM-0.726923 -0.726923C-1.54079 0.0869399 -1.99862 1.19038 -2 2.34135L2 2.34615C2.00011 2.25438 2.03661 2.1664 2.1015 2.1015L-0.726923 -0.726923ZM-2 2.34375V3.28125H2V2.34375H-2ZM-2 3.28125C-2 3.936 -1.7399 4.56394 -1.27692 5.02692L1.55151 2.19849C1.83867 2.48566 2 2.87514 2 3.28125H-2ZM-1.27692 5.02692C-0.81394 5.4899 -0.186004 5.75 0.46875 5.75V1.75C0.874864 1.75 1.26434 1.91133 1.55151 2.19849L-1.27692 5.02692ZM0.46875 5.75C0.435598 5.75 0.403804 5.73683 0.380362 5.71339L3.20879 2.88496C2.48209 2.15826 1.49646 1.75 0.46875 1.75V5.75ZM0.380362 5.71339C0.35692 5.68995 0.34375 5.65815 0.34375 5.625H4.34375C4.34375 4.59729 3.93549 3.61166 3.20879 2.88496L0.380362 5.71339ZM0.34375 5.625C0.34375 5.59185 0.35692 5.56005 0.380362 5.53661L3.20879 8.36504C3.93549 7.63834 4.34375 6.65271 4.34375 5.625H0.34375ZM0.380362 5.53661C0.403803 5.51317 0.435597 5.5 0.46875 5.5V9.5C1.49646 9.5 2.48209 9.09174 3.20879 8.36504L0.380362 5.53661ZM0.46875 5.5C-0.185999 5.5 -0.813937 5.7601 -1.27692 6.22308L1.55151 9.05151C1.26434 9.33867 0.874859 9.5 0.46875 9.5V5.5ZM-1.27692 6.22308C-1.7399 6.68606 -2 7.314 -2 7.96875H2C2 8.37486 1.83867 8.76434 1.55151 9.05151L-1.27692 6.22308ZM-2 7.96875V8.90625H2V7.96875H-2ZM-2 8.90865C-1.99862 10.0596 -1.54079 11.1631 -0.726923 11.9769L2.1015 9.1485C2.03661 9.0836 2.00011 8.99562 2 8.90385L-2 8.90865ZM-0.726923 11.9769C0.0869406 12.7908 1.19038 13.2486 2.34135 13.25L2.34615 9.25C2.25437 9.24989 2.16639 9.21339 2.1015 9.1485L-0.726923 11.9769Z" fill="url(#paint0_linear)" fill-opacity="0.7" mask="url(#path-1-inside-1)"/>
<mask id="path-3-inside-2" fill="white">
<path d="M12.6562 0H6.5625C6.43818 0 6.31895 0.0493861 6.23104 0.137294C6.14314 0.225201 6.09375 0.34443 6.09375 0.46875C6.09375 0.59307 6.14314 0.712299 6.23104 0.800206C6.31895 0.888114 6.43818 0.9375 6.5625 0.9375H12.6562C13.0292 0.9375 13.3869 1.08566 13.6506 1.34938C13.9143 1.6131 14.0625 1.97079 14.0625 2.34375V2.85469C13.4074 2.96486 12.8126 3.3036 12.3836 3.81077C11.9546 4.31794 11.7192 4.96073 11.7192 5.625C11.7192 6.28927 11.9546 6.93206 12.3836 7.43923C12.8126 7.9464 13.4074 8.28514 14.0625 8.39531V8.90625C14.0625 9.27921 13.9143 9.6369 13.6506 9.90062C13.3869 10.1643 13.0292 10.3125 12.6562 10.3125H6.5625C6.43818 10.3125 6.31895 10.3619 6.23104 10.4498C6.14314 10.5377 6.09375 10.6569 6.09375 10.7812C6.09375 10.9056 6.14314 11.0248 6.23104 11.1127C6.31895 11.2006 6.43818 11.25 6.5625 11.25H12.6562C13.2776 11.2493 13.8733 11.0021 14.3127 10.5627C14.7521 10.1233 14.9993 9.52762 15 8.90625V7.96875C15 7.84443 14.9506 7.7252 14.8627 7.63729C14.7748 7.54939 14.6556 7.5 14.5312 7.5C14.034 7.5 13.5571 7.30246 13.2054 6.95082C12.8538 6.59919 12.6562 6.12228 12.6562 5.625C12.6562 5.12772 12.8538 4.65081 13.2054 4.29917C13.5571 3.94754 14.034 3.75 14.5312 3.75C14.6556 3.75 14.7748 3.70061 14.8627 3.61271C14.9506 3.5248 15 3.40557 15 3.28125V2.34375C14.9993 1.72238 14.7521 1.12667 14.3127 0.687291C13.8733 0.247913 13.2776 0.000744308 12.6562 0Z"/>
</mask>
<path d="M12.6562 0H6.5625C6.43818 0 6.31895 0.0493861 6.23104 0.137294C6.14314 0.225201 6.09375 0.34443 6.09375 0.46875C6.09375 0.59307 6.14314 0.712299 6.23104 0.800206C6.31895 0.888114 6.43818 0.9375 6.5625 0.9375H12.6562C13.0292 0.9375 13.3869 1.08566 13.6506 1.34938C13.9143 1.6131 14.0625 1.97079 14.0625 2.34375V2.85469C13.4074 2.96486 12.8126 3.3036 12.3836 3.81077C11.9546 4.31794 11.7192 4.96073 11.7192 5.625C11.7192 6.28927 11.9546 6.93206 12.3836 7.43923C12.8126 7.9464 13.4074 8.28514 14.0625 8.39531V8.90625C14.0625 9.27921 13.9143 9.6369 13.6506 9.90062C13.3869 10.1643 13.0292 10.3125 12.6562 10.3125H6.5625C6.43818 10.3125 6.31895 10.3619 6.23104 10.4498C6.14314 10.5377 6.09375 10.6569 6.09375 10.7812C6.09375 10.9056 6.14314 11.0248 6.23104 11.1127C6.31895 11.2006 6.43818 11.25 6.5625 11.25H12.6562C13.2776 11.2493 13.8733 11.0021 14.3127 10.5627C14.7521 10.1233 14.9993 9.52762 15 8.90625V7.96875C15 7.84443 14.9506 7.7252 14.8627 7.63729C14.7748 7.54939 14.6556 7.5 14.5312 7.5C14.034 7.5 13.5571 7.30246 13.2054 6.95082C12.8538 6.59919 12.6562 6.12228 12.6562 5.625C12.6562 5.12772 12.8538 4.65081 13.2054 4.29917C13.5571 3.94754 14.034 3.75 14.5312 3.75C14.6556 3.75 14.7748 3.70061 14.8627 3.61271C14.9506 3.5248 15 3.40557 15 3.28125V2.34375C14.9993 1.72238 14.7521 1.12667 14.3127 0.687291C13.8733 0.247913 13.2776 0.000744308 12.6562 0Z" fill="#C4C4C4"/>
<path d="M14.0625 2.34375H16.0625H14.0625ZM14.0625 2.85469L14.3942 4.82699C15.3572 4.66502 16.0625 3.83125 16.0625 2.85469L14.0625 2.85469ZM11.7192 5.625H13.7192H11.7192ZM14.0625 8.39531H16.0625C16.0625 7.41875 15.3572 6.58498 14.3942 6.42301L14.0625 8.39531ZM14.0625 8.90625H16.0625H14.0625ZM12.6562 10.3125V12.3125V10.3125ZM12.6562 11.25V13.25L12.6586 13.25L12.6562 11.25ZM15 8.90625L17 8.90865V8.90625H15ZM14.5312 3.75V1.75V3.75ZM15 2.34375H17L17 2.34135L15 2.34375ZM12.6562 -2H6.5625V2H12.6562V-2ZM6.5625 -2C5.90775 -2 5.27981 -1.7399 4.81683 -1.27692L7.64526 1.55151C7.35809 1.83867 6.96861 2 6.5625 2V-2ZM4.81683 -1.27692C4.35385 -0.81394 4.09375 -0.186005 4.09375 0.46875H8.09375C8.09375 0.874864 7.93242 1.26434 7.64526 1.55151L4.81683 -1.27692ZM4.09375 0.46875C4.09375 1.1235 4.35385 1.75144 4.81683 2.21442L7.64526 -0.614007C7.93242 -0.326843 8.09375 0.0626359 8.09375 0.46875H4.09375ZM4.81683 2.21442C5.27981 2.6774 5.90775 2.9375 6.5625 2.9375V-1.0625C6.96861 -1.0625 7.35809 -0.901171 7.64526 -0.614007L4.81683 2.21442ZM6.5625 2.9375H12.6562V-1.0625H6.5625V2.9375ZM12.6562 2.9375C12.4988 2.9375 12.3478 2.87494 12.2364 2.76359L15.0648 -0.0648324C14.426 -0.703628 13.5596 -1.0625 12.6562 -1.0625V2.9375ZM12.2364 2.76359C12.1251 2.65224 12.0625 2.50122 12.0625 2.34375H16.0625C16.0625 1.44036 15.7036 0.573964 15.0648 -0.0648324L12.2364 2.76359ZM12.0625 2.34375V2.85469H16.0625V2.34375H12.0625ZM13.7308 0.882387C12.6093 1.07099 11.591 1.6509 10.8566 2.51915L13.9106 5.1024C14.0342 4.9563 14.2055 4.85872 14.3942 4.82699L13.7308 0.882387ZM10.8566 2.51915C10.1222 3.38739 9.7192 4.4878 9.7192 5.625H13.7192C13.7192 5.43365 13.787 5.24849 13.9106 5.1024L10.8566 2.51915ZM9.7192 5.625C9.7192 6.7622 10.1222 7.86261 10.8566 8.73085L13.9106 6.1476C13.787 6.00151 13.7192 5.81635 13.7192 5.625H9.7192ZM10.8566 8.73085C11.591 9.5991 12.6093 10.179 13.7308 10.3676L14.3942 6.42301C14.2055 6.39128 14.0342 6.2937 13.9106 6.1476L10.8566 8.73085ZM12.0625 8.39531V8.90625H16.0625V8.39531H12.0625ZM12.0625 8.90625C12.0625 8.74878 12.1251 8.59776 12.2364 8.48641L15.0648 11.3148C15.7036 10.676 16.0625 9.80964 16.0625 8.90625H12.0625ZM12.2364 8.48641C12.3478 8.37506 12.4988 8.3125 12.6562 8.3125V12.3125C13.5596 12.3125 14.426 11.9536 15.0648 11.3148L12.2364 8.48641ZM12.6562 8.3125H6.5625V12.3125H12.6562V8.3125ZM6.5625 8.3125C5.90775 8.3125 5.27981 8.5726 4.81683 9.03558L7.64526 11.864C7.35809 12.1512 6.96861 12.3125 6.5625 12.3125V8.3125ZM4.81683 9.03558C4.35385 9.49856 4.09375 10.1265 4.09375 10.7812H8.09375C8.09375 11.1874 7.93242 11.5768 7.64526 11.864L4.81683 9.03558ZM4.09375 10.7812C4.09375 11.436 4.35385 12.0639 4.81683 12.5269L7.64526 9.69849C7.93242 9.98566 8.09375 10.3751 8.09375 10.7812H4.09375ZM4.81683 12.5269C5.27981 12.9899 5.90775 13.25 6.5625 13.25V9.25C6.96861 9.25 7.35809 9.41133 7.64526 9.69849L4.81683 12.5269ZM6.5625 13.25H12.6562V9.25H6.5625V13.25ZM12.6586 13.25C13.8096 13.2486 14.9131 12.7908 15.7269 11.9769L12.8985 9.1485C12.8336 9.21339 12.7456 9.24989 12.6539 9.25L12.6586 13.25ZM15.7269 11.9769C16.5408 11.1631 16.9986 10.0596 17 8.90865L13 8.90385C12.9999 8.99563 12.9634 9.08361 12.8985 9.1485L15.7269 11.9769ZM17 8.90625V7.96875H13V8.90625H17ZM17 7.96875C17 7.314 16.7399 6.68606 16.2769 6.22308L13.4485 9.05151C13.1613 8.76434 13 8.37486 13 7.96875H17ZM16.2769 6.22308C15.8139 5.7601 15.186 5.5 14.5312 5.5V9.5C14.1251 9.5 13.7357 9.33868 13.4485 9.05151L16.2769 6.22308ZM14.5312 5.5C14.5644 5.5 14.5962 5.51317 14.6196 5.53661L11.7912 8.36504C12.5179 9.09174 13.5035 9.5 14.5312 9.5V5.5ZM14.6196 5.53661C14.6431 5.56005 14.6562 5.59185 14.6562 5.625H10.6562C10.6562 6.65272 11.0645 7.63834 11.7912 8.36504L14.6196 5.53661ZM14.6562 5.625C14.6562 5.65815 14.6431 5.68995 14.6196 5.71339L11.7912 2.88496C11.0645 3.61166 10.6562 4.59729 10.6562 5.625H14.6562ZM14.6196 5.71339C14.5962 5.73683 14.5644 5.75 14.5312 5.75V1.75C13.5035 1.75 12.5179 2.15826 11.7912 2.88496L14.6196 5.71339ZM14.5312 5.75C15.186 5.75 15.8139 5.4899 16.2769 5.02692L13.4485 2.19849C13.7357 1.91133 14.1251 1.75 14.5312 1.75V5.75ZM16.2769 5.02692C16.7399 4.56394 17 3.936 17 3.28125H13C13 2.87514 13.1613 2.48566 13.4485 2.19849L16.2769 5.02692ZM17 3.28125V2.34375H13V3.28125H17ZM17 2.34135C16.9986 1.19038 16.5408 0.0869406 15.7269 -0.726923L12.8985 2.1015C12.9634 2.16639 12.9999 2.25437 13 2.34615L17 2.34135ZM15.7269 -0.726923C14.9131 -1.54079 13.8096 -1.99862 12.6586 -2L12.6539 2C12.7456 2.00011 12.8336 2.03661 12.8985 2.1015L15.7269 -0.726923Z" fill="url(#paint1_linear)" fill-opacity="0.7" mask="url(#path-3-inside-2)"/>
<path d="M5.15625 3.75C5.15625 3.62568 5.10686 3.50645 5.01896 3.41854C4.93105 3.33064 4.81182 3.28125 4.6875 3.28125C4.56318 3.28125 4.44395 3.33064 4.35604 3.41854C4.26814 3.50645 4.21875 3.62568 4.21875 3.75V4.6875C4.21875 4.81182 4.26814 4.93105 4.35604 5.01896C4.44395 5.10686 4.56318 5.15625 4.6875 5.15625C4.81182 5.15625 4.93105 5.10686 5.01896 5.01896C5.10686 4.93105 5.15625 4.81182 5.15625 4.6875V3.75Z" fill="#C4C4C4"/>
<path d="M4.6875 4.15625C4.7755 4.15625 4.86125 4.17808 4.9375 4.21875C4.86125 4.25942 4.7755 4.28125 4.6875 4.28125C4.5995 4.28125 4.51375 4.25942 4.4375 4.21875C4.51375 4.17808 4.5995 4.15625 4.6875 4.15625Z" stroke="url(#paint2_linear)" stroke-opacity="0.7" stroke-width="2" stroke-linecap="round" stroke-linejoin="round"/>
<path d="M4.6875 6.09375C4.56318 6.09375 4.44395 6.14314 4.35604 6.23104C4.26814 6.31895 4.21875 6.43818 4.21875 6.5625V7.5C4.21875 7.62432 4.26814 7.74355 4.35604 7.83146C4.44395 7.91936 4.56318 7.96875 4.6875 7.96875C4.81182 7.96875 4.93105 7.91936 5.01896 7.83146C5.10686 7.74355 5.15625 7.62432 5.15625 7.5V6.5625C5.15625 6.43818 5.10686 6.31895 5.01896 6.23104C4.93105 6.14314 4.81182 6.09375 4.6875 6.09375Z" fill="#C4C4C4"/>
<path d="M4.6875 6.96875C4.7755 6.96875 4.86125 6.99058 4.9375 7.03125C4.86125 7.07192 4.7755 7.09375 4.6875 7.09375C4.5995 7.09375 4.51375 7.07192 4.4375 7.03125C4.51375 6.99058 4.5995 6.96875 4.6875 6.96875Z" stroke="url(#paint3_linear)" stroke-opacity="0.7" stroke-width="2" stroke-linecap="round" stroke-linejoin="round"/>
<path d="M7.5 4.6875C7.75888 4.6875 7.96875 4.47763 7.96875 4.21875C7.96875 3.95987 7.75888 3.75 7.5 3.75C7.24112 3.75 7.03125 3.95987 7.03125 4.21875C7.03125 4.47763 7.24112 4.6875 7.5 4.6875Z" fill="#C4C4C4"/>
<path d="M7.5 4.6875C7.75888 4.6875 7.96875 4.47763 7.96875 4.21875C7.96875 3.95987 7.75888 3.75 7.5 3.75C7.24112 3.75 7.03125 3.95987 7.03125 4.21875C7.03125 4.47763 7.24112 4.6875 7.5 4.6875Z" stroke="url(#paint4_linear)" stroke-opacity="0.7" stroke-width="2" stroke-linecap="round" stroke-linejoin="round"/>
<path d="M9.84375 7.96875C10.1026 7.96875 10.3125 7.75888 10.3125 7.5C10.3125 7.24112 10.1026 7.03125 9.84375 7.03125C9.58487 7.03125 9.375 7.24112 9.375 7.5C9.375 7.75888 9.58487 7.96875 9.84375 7.96875Z" fill="#C4C4C4"/>
<path d="M9.84375 7.96875C10.1026 7.96875 10.3125 7.75888 10.3125 7.5C10.3125 7.24112 10.1026 7.03125 9.84375 7.03125C9.58487 7.03125 9.375 7.24112 9.375 7.5C9.375 7.75888 9.58487 7.96875 9.84375 7.96875Z" stroke="url(#paint5_linear)" stroke-opacity="0.7" stroke-width="2" stroke-linecap="round" stroke-linejoin="round"/>
<mask id="path-13-inside-3" fill="white">
<path d="M6.69987 7.83138C6.78854 7.9178 6.90746 7.96616 7.03127 7.96616C7.15509 7.96616 7.27401 7.9178 7.36268 7.83138L10.6439 4.55013C10.7293 4.46173 10.7766 4.34332 10.7755 4.22041C10.7744 4.09751 10.7251 3.97994 10.6382 3.89303C10.5513 3.80612 10.4337 3.75682 10.3108 3.75576C10.1879 3.75469 10.0695 3.80193 9.98112 3.88732L6.69987 7.16857C6.61199 7.25647 6.56262 7.37568 6.56262 7.49998C6.56262 7.62427 6.61199 7.74348 6.69987 7.83138Z"/>
</mask>
<path d="M6.69987 7.83138C6.78854 7.9178 6.90746 7.96616 7.03127 7.96616C7.15509 7.96616 7.27401 7.9178 7.36268 7.83138L10.6439 4.55013C10.7293 4.46173 10.7766 4.34332 10.7755 4.22041C10.7744 4.09751 10.7251 3.97994 10.6382 3.89303C10.5513 3.80612 10.4337 3.75682 10.3108 3.75576C10.1879 3.75469 10.0695 3.80193 9.98112 3.88732L6.69987 7.16857C6.61199 7.25647 6.56262 7.37568 6.56262 7.49998C6.56262 7.62427 6.61199 7.74348 6.69987 7.83138Z" fill="#C4C4C4"/>
<path d="M6.69987 7.83138L5.28544 9.24538C5.29159 9.25154 5.29778 9.25765 5.30401 9.26372L6.69987 7.83138ZM7.36268 7.83138L8.75853 9.26372C8.76469 9.25772 8.77081 9.25168 8.77689 9.2456L7.36268 7.83138ZM10.6439 4.55013L12.0581 5.96435C12.0663 5.95615 12.0745 5.94789 12.0825 5.93956L10.6439 4.55013ZM9.98112 3.88732L8.59169 2.44874C8.58336 2.45679 8.57509 2.46491 8.5669 2.47311L9.98112 3.88732ZM6.69987 7.16857L5.28565 5.75436L5.28544 5.75457L6.69987 7.16857ZM5.30401 9.26372C5.76617 9.71411 6.38596 9.96616 7.03127 9.96616V5.96616C7.42895 5.96616 7.81091 6.12149 8.09572 6.39905L5.30401 9.26372ZM7.03127 9.96616C7.67658 9.96616 8.29637 9.71411 8.75853 9.26372L5.96682 6.39905C6.25164 6.12149 6.6336 5.96616 7.03127 5.96616V9.96616ZM8.77689 9.2456L12.0581 5.96435L9.22971 3.13592L5.94846 6.41717L8.77689 9.2456ZM12.0825 5.93956C12.5322 5.47395 12.781 4.85033 12.7754 4.20304L8.77557 4.23779C8.77208 3.8363 8.92642 3.44951 9.20535 3.16071L12.0825 5.93956ZM12.7754 4.20304C12.7698 3.55573 12.5102 2.93654 12.0524 2.47882L9.224 5.30724C8.9401 5.02334 8.77906 4.63929 8.77557 4.23779L12.7754 4.20304ZM12.0524 2.47882C11.5947 2.02109 10.9755 1.76146 10.3282 1.75583L10.2935 5.75568C9.89197 5.75219 9.50791 5.59115 9.224 5.30724L12.0524 2.47882ZM10.3282 1.75583C9.68092 1.75021 9.0573 1.99904 8.59169 2.44874L11.3705 5.3259C11.0817 5.60483 10.6949 5.75917 10.2935 5.75568L10.3282 1.75583ZM8.5669 2.47311L5.28565 5.75436L8.11408 8.58278L11.3953 5.30153L8.5669 2.47311ZM5.28544 5.75457C4.82262 6.21753 4.56262 6.84535 4.56262 7.49998H8.56262C8.56262 7.90601 8.40136 8.29542 8.11429 8.58257L5.28544 5.75457ZM4.56262 7.49998C4.56262 8.1546 4.82262 8.78242 5.28544 9.24538L8.11429 6.41738C8.40136 6.70454 8.56262 7.09395 8.56262 7.49998H4.56262Z" fill="url(#paint6_linear)" fill-opacity="0.7" mask="url(#path-13-inside-3)"/>
</g>
<defs>
<filter id="filter0_ii" x="-0.5" y="-0.5" width="16" height="12.25" filterUnits="userSpaceOnUse" color-interpolation-filters="sRGB">
<feFlood flood-opacity="0" result="BackgroundImageFix"/>
<feBlend mode="normal" in="SourceGraphic" in2="BackgroundImageFix" result="shape"/>
<feColorMatrix in="SourceAlpha" type="matrix" values="0 0 0 0 0 0 0 0 0 0 0 0 0 0 0 0 0 0 127 0" result="hardAlpha"/>
<feOffset dx="-0.5" dy="-0.5"/>
<feGaussianBlur stdDeviation="0.25"/>
<feComposite in2="hardAlpha" operator="arithmetic" k2="-1" k3="1"/>
<feColorMatrix type="matrix" values="0 0 0 0 1 0 0 0 0 1 0 0 0 0 1 0 0 0 0.4 0"/>
<feBlend mode="normal" in2="shape" result="effect1_innerShadow"/>
<feColorMatrix in="SourceAlpha" type="matrix" values="0 0 0 0 0 0 0 0 0 0 0 0 0 0 0 0 0 0 127 0" result="hardAlpha"/>
<feOffset dx="0.5" dy="0.5"/>
<feGaussianBlur stdDeviation="0.25"/>
<feComposite in2="hardAlpha" operator="arithmetic" k2="-1" k3="1"/>
<feColorMatrix type="matrix" values="0 0 0 0 0.127604 0 0 0 0 0.267969 0 0 0 0 0.408333 0 0 0 0.4 0"/>
<feBlend mode="normal" in2="effect1_innerShadow" result="effect2_innerShadow"/>
</filter>
<linearGradient id="paint0_linear" x1="5.45089" y1="11.25" x2="-16.3135" y2="4.30852" gradientUnits="userSpaceOnUse">
<stop stop-color="#48647D"/>
<stop offset="0.234375" stop-color="#6B8299"/>
<stop offset="0.442708" stop-color="#DAE2EB"/>
<stop offset="0.682292" stop-color="#8CA2B7"/>
<stop offset="1" stop-color="#EDF2F7"/>
</linearGradient>
<linearGradient id="paint1_linear" x1="15.5089" y1="11.25" x2="-16.2652" y2="-6.25413" gradientUnits="userSpaceOnUse">
<stop stop-color="#48647D"/>
<stop offset="0.234375" stop-color="#6B8299"/>
<stop offset="0.442708" stop-color="#DAE2EB"/>
<stop offset="0.682292" stop-color="#8CA2B7"/>
<stop offset="1" stop-color="#EDF2F7"/>
</linearGradient>
<linearGradient id="paint2_linear" x1="5.20982" y1="5.15625" x2="1.32091" y2="3.80317" gradientUnits="userSpaceOnUse">
<stop stop-color="#48647D"/>
<stop offset="0.234375" stop-color="#6B8299"/>
<stop offset="0.442708" stop-color="#DAE2EB"/>
<stop offset="0.682292" stop-color="#8CA2B7"/>
<stop offset="1" stop-color="#EDF2F7"/>
</linearGradient>
<linearGradient id="paint3_linear" x1="5.20982" y1="7.96875" x2="1.32091" y2="6.61567" gradientUnits="userSpaceOnUse">
<stop stop-color="#48647D"/>
<stop offset="0.234375" stop-color="#6B8299"/>
<stop offset="0.442708" stop-color="#DAE2EB"/>
<stop offset="0.682292" stop-color="#8CA2B7"/>
<stop offset="1" stop-color="#EDF2F7"/>
</linearGradient>
<linearGradient id="paint4_linear" x1="8.02232" y1="4.6875" x2="5.08498" y2="2.64351" gradientUnits="userSpaceOnUse">
<stop stop-color="#48647D"/>
<stop offset="0.234375" stop-color="#6B8299"/>
<stop offset="0.442708" stop-color="#DAE2EB"/>
<stop offset="0.682292" stop-color="#8CA2B7"/>
<stop offset="1" stop-color="#EDF2F7"/>
</linearGradient>
<linearGradient id="paint5_linear" x1="10.3661" y1="7.96875" x2="7.42873" y2="5.92476" gradientUnits="userSpaceOnUse">
<stop stop-color="#48647D"/>
<stop offset="0.234375" stop-color="#6B8299"/>
<stop offset="0.442708" stop-color="#DAE2EB"/>
<stop offset="0.682292" stop-color="#8CA2B7"/>
<stop offset="1" stop-color="#EDF2F7"/>
</linearGradient>
<linearGradient id="paint6_linear" x1="11.0162" y1="7.96616" x2="-2.17839" y2="-1.22091" gradientUnits="userSpaceOnUse">
<stop stop-color="#48647D"/>
<stop offset="0.234375" stop-color="#6B8299"/>
<stop offset="0.442708" stop-color="#DAE2EB"/>
<stop offset="0.682292" stop-color="#8CA2B7"/>
<stop offset="1" stop-color="#EDF2F7"/>
</linearGradient>
</defs>
</svg>
