<svg xmlns="http://www.w3.org/2000/svg" width="25.218" height="25.218" viewBox="0 0 25.218 25.218"><defs><style>.a{fill:#fff;}.b{fill:#8a8a8a;}.c,.d{stroke:none;}.d{fill:#8a8a8a;}</style></defs><g transform="translate(-331.391 -134.391)"><g class="a" transform="translate(331.391 134.391)"><path class="c" d="M 12.609130859375 24.71826171875 C 9.374660491943359 24.71826171875 6.33379077911377 23.45869064331055 4.046680927276611 21.17158126831055 C 1.759570837020874 18.88446998596191 0.5000008344650269 15.84360122680664 0.5000008344650269 12.609130859375 C 0.5000008344650269 9.374660491943359 1.759570837020874 6.33379077911377 4.046680927276611 4.046680927276611 C 6.33379077911377 1.759570837020874 9.374660491943359 0.5000008344650269 12.609130859375 0.5000008344650269 C 15.84360122680664 0.5000008344650269 18.88446998596191 1.759570837020874 21.17158126831055 4.046680927276611 C 23.45869064331055 6.33379077911377 24.71826171875 9.374660491943359 24.71826171875 12.609130859375 C 24.71826171875 15.84360122680664 23.45869064331055 18.88446998596191 21.17158126831055 21.17158126831055 C 18.88446998596191 23.45869064331055 15.84360122680664 24.71826171875 12.609130859375 24.71826171875 Z"/><path class="d" d="M 12.609130859375 1 C 9.508220672607422 1 6.592910766601562 2.207561492919922 4.400239944458008 4.400239944458008 C 2.207561492919922 6.592910766601562 1 9.508220672607422 1 12.609130859375 C 1 15.71004104614258 2.207561492919922 18.62535095214844 4.400239944458008 20.81801986694336 C 6.592910766601562 23.01070022583008 9.508220672607422 24.21826171875 12.609130859375 24.21826171875 C 15.71004104614258 24.21826171875 18.62535095214844 23.01070022583008 20.81801986694336 20.81801986694336 C 23.01070022583008 18.62535095214844 24.21826171875 15.71004104614258 24.21826171875 12.609130859375 C 24.21826171875 9.508220672607422 23.01070022583008 6.592910766601562 20.81801986694336 4.400239944458008 C 18.62535095214844 2.207561492919922 15.71004104614258 1 12.609130859375 1 M 12.609130859375 0 C 19.57295989990234 0 25.21826171875 5.645299911499023 25.21826171875 12.609130859375 C 25.21826171875 19.57295989990234 19.57295989990234 25.21826171875 12.609130859375 25.21826171875 C 5.645299911499023 25.21826171875 0 19.57295989990234 0 12.609130859375 C 0 5.645299911499023 5.645299911499023 0 12.609130859375 0 Z"/></g><g transform="translate(337.321 140.065)"><path class="b" d="M13.809,12.553,9.46,8.2a5.165,5.165,0,0,0-7.948-6.52A5.165,5.165,0,0,0,8.061,9.612l4.345,4.345a.435.435,0,0,0,.6-.071l.73-.73A.435.435,0,0,0,13.809,12.553ZM5.164,9.1A3.765,3.765,0,1,1,8.929,5.335,3.769,3.769,0,0,1,5.164,9.1Z" transform="translate(0 -0.171)"/></g></g></svg>