<svg width="28" height="28" viewBox="0 0 28 28" fill="none" xmlns="http://www.w3.org/2000/svg">
<circle cx="14" cy="14" r="14" fill="#151515"/>
<path d="M21.9733 11.7581C21.9695 11.7467 21.9619 11.7352 21.9581 11.7276C21.9505 11.7124 21.9429 11.6933 21.9352 11.6819L19.341 7.83809C18.9867 7.31238 18.3962 7 17.76 7H16.6362C16.6324 7 16.6324 7 16.6324 7H10.24C9.60381 7 9.01333 7.31238 8.65905 7.83809L6.06476 11.6819C6.05714 11.6933 6.04952 11.7124 6.0419 11.7276C6.0381 11.7352 6.03048 11.7467 6.02667 11.7581C6.01143 11.8 6.00381 11.8419 6 11.8876C6 11.8876 6 11.8914 6 11.8952C6 12.8133 6.65524 13.5829 7.52381 13.7581V20.3105C7.52381 20.52 7.69524 20.6914 7.90476 20.6914H11.7867C12.2057 20.6914 12.5486 20.3486 12.5486 19.9333V17.5486C12.5486 16.7257 13.2152 16.059 14.0381 16.059C14.819 16.059 15.4514 16.6914 15.4514 17.4724V19.9295C15.4514 20.3486 15.7943 20.6914 16.2133 20.6914H20.0952C20.3048 20.6914 20.4762 20.52 20.4762 20.3105V13.7581C21.3448 13.5829 22 12.8133 22 11.8952C22 11.8914 22 11.8876 22 11.8876C21.9962 11.8419 21.9886 11.8 21.9733 11.7581ZM15.0743 12.2762C14.9143 12.7181 14.4952 13.0381 14 13.0381C13.5048 13.0381 13.0857 12.7181 12.9257 12.2762H15.0743ZM9.36682 7.7619H11.7181H18.5L21 11.5143H7L9.36682 7.7619ZM6.83048 12.2762H8.97905C8.81905 12.7181 8.4 13.0381 7.90476 13.0381C7.40952 13.0381 6.99048 12.7181 6.83048 12.2762ZM19.7143 19.9295H16.2133V17.4724C16.2133 16.2724 15.2381 15.2971 14.0381 15.2971C12.7962 15.2971 11.7867 16.3067 11.7867 17.5486V19.9295H8.28571V13.7581C8.75048 13.6629 9.15429 13.4 9.42857 13.0343C9.77524 13.499 10.3314 13.8 10.9524 13.8C11.5771 13.8 12.1295 13.4914 12.4762 13.0229C12.8229 13.4914 13.3752 13.8 14 13.8C14.6248 13.8 15.1771 13.4914 15.5238 13.0229C15.8705 13.4914 16.4229 13.8 17.0476 13.8C17.6724 13.8 18.2248 13.4914 18.5714 13.0229C18.8457 13.3924 19.2457 13.6629 19.7143 13.7581V19.9295ZM20.0952 13.0381C19.6 13.0381 19.181 12.7181 19.021 12.2762H21.1695C21.0095 12.7181 20.5905 13.0381 20.0952 13.0381Z" fill="white"/>
</svg>
