<svg width="23" height="18" viewBox="0 0 23 18" fill="none" xmlns="http://www.w3.org/2000/svg">
<mask id="path-1-inside-1_588_6904" fill="white">
<path fill-rule="evenodd" clip-rule="evenodd" d="M19.1085 3.30602H21.4988C21.8223 3.30506 22.1341 3.42653 22.3716 3.64603C22.4882 3.75131 22.5814 3.87989 22.6452 4.02345C22.709 4.167 22.742 4.32235 22.742 4.47944C22.742 4.63653 22.709 4.79188 22.6452 4.93543C22.5814 5.07899 22.4882 5.20757 22.3716 5.31286C22.1343 5.53265 21.8223 5.65416 21.4988 5.65286H20.843V16.3249H22.0717C22.2939 16.3249 22.5069 16.4131 22.664 16.5702C22.821 16.7273 22.9093 16.9403 22.9093 17.1624C22.9093 17.3846 22.821 17.5976 22.664 17.7547C22.5069 17.9118 22.2939 18 22.0717 18H0.837563C0.615427 18 0.40239 17.9118 0.245317 17.7547C0.088243 17.5976 0 17.3846 0 17.1624C0 16.9403 0.088243 16.7273 0.245317 16.5702C0.40239 16.4131 0.615427 16.3249 0.837563 16.3249H2.06626V5.65286H1.41045C1.08695 5.65416 0.775013 5.53265 0.537641 5.31286C0.421055 5.20757 0.327858 5.07899 0.264069 4.93543C0.20028 4.79188 0.167319 4.63653 0.167319 4.47944C0.167319 4.32235 0.20028 4.167 0.264069 4.02345C0.327858 3.87989 0.421055 3.75131 0.537641 3.64603C0.775198 3.42653 1.08701 3.30506 1.41045 3.30602H3.80082V0.196258C3.80082 0.144326 3.8214 0.0945122 3.85806 0.057726C3.89472 0.0209398 3.94446 0.000182859 3.99639 0H18.9163C18.9683 0.000182859 19.018 0.0209398 19.0547 0.057726C19.0913 0.0945122 19.1119 0.144326 19.1119 0.196258V3.30602H19.1085ZM2.4581 5.65562V16.3249H6.90644V7.96929H16.0028V16.3249H20.4512V5.65286L2.4581 5.65562ZM5.96453 11.3112H5.56509C5.51514 11.3142 5.46822 11.3361 5.4339 11.3726C5.39958 11.409 5.38048 11.4571 5.38048 11.5072C5.38048 11.5572 5.39958 11.6053 5.4339 11.6418C5.46822 11.6782 5.51514 11.7001 5.56509 11.7031H5.96453C5.99123 11.7047 6.01798 11.7008 6.04313 11.6916C6.06828 11.6825 6.09129 11.6683 6.11077 11.65C6.13024 11.6316 6.14575 11.6095 6.15635 11.5849C6.16696 11.5604 6.17243 11.5339 6.17243 11.5072C6.17243 11.4804 6.16696 11.4539 6.15635 11.4294C6.14575 11.4048 6.13024 11.3827 6.11077 11.3643C6.09129 11.346 6.06828 11.3318 6.04313 11.3227C6.01798 11.3135 5.99123 11.3097 5.96453 11.3112V11.3112ZM4.95696 11.3112H3.78216C3.73221 11.3142 3.68529 11.3361 3.65097 11.3726C3.61665 11.409 3.59754 11.4571 3.59754 11.5072C3.59754 11.5572 3.61665 11.6053 3.65097 11.6418C3.68529 11.6782 3.73221 11.7001 3.78216 11.7031H4.95696C4.98367 11.7047 5.01042 11.7008 5.03557 11.6916C5.06072 11.6825 5.08373 11.6683 5.1032 11.65C5.12267 11.6316 5.13819 11.6095 5.14879 11.5849C5.1594 11.5604 5.16486 11.5339 5.16486 11.5072C5.16486 11.4804 5.1594 11.4539 5.14879 11.4294C5.13819 11.4048 5.12267 11.3827 5.1032 11.3643C5.08373 11.346 5.06072 11.3318 5.03557 11.3227C5.01042 11.3135 4.98367 11.3097 4.95696 11.3112V11.3112ZM17.4333 6.90367H17.8328C17.8827 6.9007 17.9296 6.87877 17.964 6.84236C17.9983 6.80594 18.0174 6.7578 18.0174 6.70776C18.0174 6.65772 17.9983 6.60957 17.964 6.57316C17.9296 6.53674 17.8827 6.51481 17.8328 6.51184H17.4333C17.4066 6.51026 17.3799 6.51415 17.3547 6.52327C17.3296 6.5324 17.3066 6.54658 17.2871 6.56493C17.2676 6.58327 17.2521 6.60541 17.2415 6.62997C17.2309 6.65454 17.2254 6.68101 17.2254 6.70776C17.2254 6.73451 17.2309 6.76098 17.2415 6.78555C17.2521 6.81011 17.2676 6.83225 17.2871 6.85059C17.3066 6.86894 17.3296 6.88311 17.3547 6.89224C17.3799 6.90137 17.4066 6.90526 17.4333 6.90367V6.90367ZM18.4416 6.90367H19.6164C19.6431 6.90526 19.6698 6.90137 19.695 6.89224C19.7201 6.88311 19.7432 6.86894 19.7626 6.85059C19.7821 6.83225 19.7976 6.81011 19.8082 6.78555C19.8188 6.76098 19.8243 6.73451 19.8243 6.70776C19.8243 6.68101 19.8188 6.65454 19.8082 6.62997C19.7976 6.60541 19.7821 6.58327 19.7626 6.56493C19.7432 6.54658 19.7201 6.5324 19.695 6.52327C19.6698 6.51415 19.6431 6.51026 19.6164 6.51184H18.4416C18.4149 6.51026 18.3881 6.51415 18.363 6.52327C18.3378 6.5324 18.3148 6.54658 18.2953 6.56493C18.2759 6.58327 18.2604 6.60541 18.2498 6.62997C18.2392 6.65454 18.2337 6.68101 18.2337 6.70776C18.2337 6.73451 18.2392 6.76098 18.2498 6.78555C18.2604 6.81011 18.2759 6.83225 18.2953 6.85059C18.3148 6.86894 18.3378 6.88311 18.363 6.89224C18.3881 6.90137 18.4149 6.90526 18.4416 6.90367V6.90367ZM7.29827 8.36112V16.3249H11.2587V8.36112H7.29827ZM10.1883 11.8641V12.824C10.1912 12.8739 10.2132 12.9209 10.2496 12.9552C10.286 12.9895 10.3342 13.0086 10.3842 13.0086C10.4342 13.0086 10.4824 12.9895 10.5188 12.9552C10.5552 12.9209 10.5771 12.8739 10.5801 12.824V11.8641C10.5817 11.8374 10.5778 11.8106 10.5687 11.7855C10.5595 11.7603 10.5454 11.7373 10.527 11.7179C10.5087 11.6984 10.4865 11.6829 10.462 11.6723C10.4374 11.6617 10.4109 11.6562 10.3842 11.6562C10.3574 11.6562 10.331 11.6617 10.3064 11.6723C10.2818 11.6829 10.2597 11.6984 10.2414 11.7179C10.223 11.7373 10.2088 11.7603 10.1997 11.7855C10.1906 11.8106 10.1867 11.8374 10.1883 11.8641V11.8641ZM11.6506 8.36181V16.3249H15.611V8.36112L11.6506 8.36181ZM12.533 11.8641V12.824C12.536 12.8739 12.5579 12.9209 12.5944 12.9552C12.6308 12.9895 12.6789 13.0086 12.729 13.0086C12.779 13.0086 12.8271 12.9895 12.8636 12.9552C12.9 12.9209 12.9219 12.8739 12.9249 12.824V11.8641C12.9265 11.8374 12.9226 11.8106 12.9134 11.7855C12.9043 11.7603 12.8901 11.7373 12.8718 11.7179C12.8534 11.6984 12.8313 11.6829 12.8067 11.6723C12.7822 11.6617 12.7557 11.6562 12.729 11.6562C12.7022 11.6562 12.6757 11.6617 12.6512 11.6723C12.6266 11.6829 12.6045 11.6984 12.5861 11.7179C12.5678 11.7373 12.5536 11.7603 12.5445 11.7855C12.5353 11.8106 12.5315 11.8374 12.533 11.8641V11.8641ZM2.26183 5.26103H21.4988C21.7234 5.26234 21.9402 5.17865 22.1056 5.02676C22.2085 4.93155 22.2838 4.81024 22.3233 4.6757H18.0332C18.0065 4.67729 17.9797 4.6734 17.9546 4.66427C17.9294 4.65514 17.9064 4.64097 17.8869 4.62262C17.8675 4.60427 17.8519 4.58214 17.8413 4.55757C17.8307 4.53301 17.8253 4.50654 17.8253 4.47979C17.8253 4.45303 17.8307 4.42656 17.8413 4.402C17.8519 4.37743 17.8675 4.3553 17.8869 4.33695C17.9064 4.31861 17.9294 4.30443 17.9546 4.2953C17.9797 4.28617 18.0065 4.28228 18.0332 4.28387H22.3233C22.2838 4.14913 22.2086 4.02758 22.1056 3.93212C21.9402 3.78023 21.7234 3.69654 21.4988 3.69786H1.41045C1.18588 3.69654 0.969121 3.78023 0.803702 3.93212C0.726736 4.00102 0.665167 4.08538 0.623016 4.17969C0.580864 4.274 0.559077 4.37614 0.559077 4.47944C0.559077 4.58274 0.580864 4.68488 0.623016 4.77919C0.665167 4.8735 0.726736 4.95786 0.803702 5.02676C0.969121 5.17865 1.18588 5.26234 1.41045 5.26103H2.26183ZM16.8715 4.28387H1.04626C1.01955 4.28228 0.992808 4.28617 0.967659 4.2953C0.942511 4.30443 0.919492 4.31861 0.900021 4.33695C0.880551 4.3553 0.865038 4.37743 0.854434 4.402C0.84383 4.42656 0.83836 4.45303 0.83836 4.47979C0.83836 4.50654 0.84383 4.53301 0.854434 4.55757C0.865038 4.58214 0.880551 4.60427 0.900021 4.62262C0.919492 4.64097 0.942511 4.65514 0.967659 4.66427C0.992808 4.6734 1.01955 4.67729 1.04626 4.6757H16.8715C16.8982 4.67729 16.925 4.6734 16.9501 4.66427C16.9753 4.65514 16.9983 4.64097 17.0177 4.62262C17.0372 4.60427 17.0527 4.58214 17.0633 4.55757C17.0739 4.53301 17.0794 4.50654 17.0794 4.47979C17.0794 4.45303 17.0739 4.42656 17.0633 4.402C17.0527 4.37743 17.0372 4.3553 17.0177 4.33695C16.9983 4.31861 16.9753 4.30443 16.9501 4.2953C16.925 4.28617 16.8982 4.28228 16.8715 4.28387V4.28387ZM4.19265 3.30602H18.7166V0.392521H4.19265V3.30533V3.30602ZM15.4845 1.51549C15.4898 1.39429 15.4543 1.27482 15.3837 1.17618C15.3222 1.09241 15.2339 1.03218 15.1335 1.00549C14.9965 0.982696 14.8576 0.973897 14.7189 0.979229H14.155V2.7207H14.5074V2.06419H14.7361C14.8578 2.06718 14.9795 2.05862 15.0996 2.03862C15.1654 2.02379 15.2274 1.99582 15.2821 1.95639C15.3441 1.91182 15.3946 1.85305 15.4293 1.78501C15.4704 1.70128 15.4903 1.60873 15.4873 1.51549H15.4845ZM13.2199 1.18724C13.1395 1.10666 13.0431 1.04376 12.937 1.00259C12.8308 0.961413 12.7173 0.942864 12.6035 0.94813C12.4749 0.945805 12.347 0.969304 12.2276 1.01724C12.1429 1.05409 12.0665 1.10768 12.003 1.1748C11.935 1.24411 11.8799 1.32511 11.8406 1.41391C11.7834 1.55583 11.7561 1.70805 11.7604 1.86102C11.7604 2.13744 11.8369 2.35559 11.9899 2.51545C12.0712 2.59635 12.1685 2.65931 12.2756 2.70026C12.3828 2.7412 12.4973 2.75923 12.6118 2.75317C12.725 2.75851 12.8381 2.73999 12.9437 2.69879C13.0493 2.6576 13.1451 2.59467 13.2248 2.51407C13.3777 2.35513 13.4542 2.13491 13.4542 1.85342C13.4542 1.57193 13.3773 1.3501 13.2234 1.18793L13.2199 1.18724ZM11.0417 0.979921H10.6927V1.66614H10.0017V0.979921H9.64925V2.72139H10.0017V1.96122H10.6927V2.72139H11.0452V0.979921H11.0417ZM8.85522 1.93773C8.80871 1.862 8.74225 1.80055 8.66311 1.76012C8.54248 1.70367 8.41559 1.66168 8.2851 1.63504C8.11441 1.59496 8.00868 1.55557 7.96307 1.51825C7.94682 1.50581 7.93364 1.48981 7.92454 1.47148C7.91544 1.45315 7.91065 1.43299 7.91055 1.41252C7.91008 1.39118 7.91489 1.37005 7.92453 1.35101C7.93417 1.33197 7.94835 1.31559 7.96583 1.30334C8.03658 1.25753 8.12011 1.23551 8.20425 1.24045C8.28234 1.23471 8.36007 1.25566 8.42469 1.29988C8.47991 1.35 8.51421 1.41909 8.52075 1.49338L8.87319 1.48094C8.87355 1.40786 8.85833 1.33554 8.82854 1.26881C8.79875 1.20208 8.75507 1.14247 8.70043 1.09395C8.59055 0.996508 8.424 0.948822 8.20839 0.948822C8.09164 0.945617 7.97547 0.966312 7.86701 1.00964C7.77843 1.04493 7.70273 1.1064 7.65002 1.18585C7.5888 1.27931 7.56367 1.39185 7.57931 1.50247C7.59495 1.61309 7.65029 1.71425 7.73502 1.78708C7.8515 1.87426 7.98654 1.93339 8.12961 1.95984C8.27542 1.99647 8.36872 2.02204 8.41018 2.03655C8.45779 2.05028 8.50109 2.07598 8.53595 2.11118C8.56027 2.14095 8.57303 2.1785 8.57189 2.21692C8.57131 2.24958 8.56329 2.28168 8.54844 2.31078C8.53359 2.33988 8.51231 2.36521 8.4862 2.38484C8.41179 2.43676 8.32164 2.46119 8.2312 2.45395C8.13951 2.45901 8.04911 2.43051 7.97689 2.37378C7.9074 2.30641 7.86344 2.21702 7.8525 2.12086L7.50697 2.15472C7.51648 2.32376 7.59072 2.48264 7.71429 2.59838C7.83246 2.69996 8.00107 2.7511 8.22152 2.7511C8.35069 2.75477 8.47933 2.73317 8.60022 2.68753C8.69702 2.64914 8.77925 2.58118 8.83518 2.49334C8.88967 2.40994 8.9185 2.31239 8.91811 2.21277C8.92143 2.11598 8.89748 2.02019 8.849 1.93635L8.85522 1.93773ZM12.1232 1.84927C12.1232 2.04692 12.1689 2.1948 12.2615 2.29846C12.3044 2.34759 12.3576 2.38672 12.4173 2.41311C12.477 2.43949 12.5417 2.45249 12.607 2.45118C12.6722 2.45299 12.737 2.44036 12.7967 2.4142C12.8564 2.38804 12.9096 2.34898 12.9525 2.29984C13.043 2.19826 13.0907 2.04692 13.0907 1.84444C13.0907 1.64196 13.0465 1.4989 12.9587 1.39732C12.9133 1.3504 12.8589 1.3131 12.7988 1.28762C12.7387 1.26214 12.674 1.24901 12.6087 1.24901C12.5434 1.24901 12.4788 1.26214 12.4186 1.28762C12.3585 1.3131 12.3041 1.3504 12.2587 1.39732C12.1698 1.49683 12.1253 1.64679 12.1253 1.8472L12.1232 1.84927ZM14.5046 1.27431V1.77049H14.6961C14.7891 1.77588 14.8824 1.76655 14.9725 1.74285C15.017 1.72649 15.0552 1.6965 15.0817 1.65716C15.109 1.61633 15.123 1.56805 15.1217 1.51895C15.1239 1.46141 15.1038 1.40526 15.0658 1.36208C15.0298 1.3212 14.9811 1.29368 14.9276 1.28399C14.8441 1.27391 14.76 1.26998 14.676 1.27224L14.5046 1.27431ZM16.0028 16.7174H0.837563C0.719347 16.7174 0.605972 16.7644 0.522381 16.8479C0.43879 16.9315 0.391829 17.0449 0.391829 17.1631C0.391829 17.2813 0.43879 17.3947 0.522381 17.4783C0.605972 17.5619 0.719347 17.6089 0.837563 17.6089H22.0717C22.1899 17.6089 22.3033 17.5619 22.3869 17.4783C22.4705 17.3947 22.5175 17.2813 22.5175 17.1631C22.5175 17.0449 22.4705 16.9315 22.3869 16.8479C22.3033 16.7644 22.1899 16.7174 22.0717 16.7174H16.0028V16.7174Z"/>
</mask>
<path fill-rule="evenodd" clip-rule="evenodd" d="M19.1085 3.30602H21.4988C21.8223 3.30506 22.1341 3.42653 22.3716 3.64603C22.4882 3.75131 22.5814 3.87989 22.6452 4.02345C22.709 4.167 22.742 4.32235 22.742 4.47944C22.742 4.63653 22.709 4.79188 22.6452 4.93543C22.5814 5.07899 22.4882 5.20757 22.3716 5.31286C22.1343 5.53265 21.8223 5.65416 21.4988 5.65286H20.843V16.3249H22.0717C22.2939 16.3249 22.5069 16.4131 22.664 16.5702C22.821 16.7273 22.9093 16.9403 22.9093 17.1624C22.9093 17.3846 22.821 17.5976 22.664 17.7547C22.5069 17.9118 22.2939 18 22.0717 18H0.837563C0.615427 18 0.40239 17.9118 0.245317 17.7547C0.088243 17.5976 0 17.3846 0 17.1624C0 16.9403 0.088243 16.7273 0.245317 16.5702C0.40239 16.4131 0.615427 16.3249 0.837563 16.3249H2.06626V5.65286H1.41045C1.08695 5.65416 0.775013 5.53265 0.537641 5.31286C0.421055 5.20757 0.327858 5.07899 0.264069 4.93543C0.20028 4.79188 0.167319 4.63653 0.167319 4.47944C0.167319 4.32235 0.20028 4.167 0.264069 4.02345C0.327858 3.87989 0.421055 3.75131 0.537641 3.64603C0.775198 3.42653 1.08701 3.30506 1.41045 3.30602H3.80082V0.196258C3.80082 0.144326 3.8214 0.0945122 3.85806 0.057726C3.89472 0.0209398 3.94446 0.000182859 3.99639 0H18.9163C18.9683 0.000182859 19.018 0.0209398 19.0547 0.057726C19.0913 0.0945122 19.1119 0.144326 19.1119 0.196258V3.30602H19.1085ZM2.4581 5.65562V16.3249H6.90644V7.96929H16.0028V16.3249H20.4512V5.65286L2.4581 5.65562ZM5.96453 11.3112H5.56509C5.51514 11.3142 5.46822 11.3361 5.4339 11.3726C5.39958 11.409 5.38048 11.4571 5.38048 11.5072C5.38048 11.5572 5.39958 11.6053 5.4339 11.6418C5.46822 11.6782 5.51514 11.7001 5.56509 11.7031H5.96453C5.99123 11.7047 6.01798 11.7008 6.04313 11.6916C6.06828 11.6825 6.09129 11.6683 6.11077 11.65C6.13024 11.6316 6.14575 11.6095 6.15635 11.5849C6.16696 11.5604 6.17243 11.5339 6.17243 11.5072C6.17243 11.4804 6.16696 11.4539 6.15635 11.4294C6.14575 11.4048 6.13024 11.3827 6.11077 11.3643C6.09129 11.346 6.06828 11.3318 6.04313 11.3227C6.01798 11.3135 5.99123 11.3097 5.96453 11.3112V11.3112ZM4.95696 11.3112H3.78216C3.73221 11.3142 3.68529 11.3361 3.65097 11.3726C3.61665 11.409 3.59754 11.4571 3.59754 11.5072C3.59754 11.5572 3.61665 11.6053 3.65097 11.6418C3.68529 11.6782 3.73221 11.7001 3.78216 11.7031H4.95696C4.98367 11.7047 5.01042 11.7008 5.03557 11.6916C5.06072 11.6825 5.08373 11.6683 5.1032 11.65C5.12267 11.6316 5.13819 11.6095 5.14879 11.5849C5.1594 11.5604 5.16486 11.5339 5.16486 11.5072C5.16486 11.4804 5.1594 11.4539 5.14879 11.4294C5.13819 11.4048 5.12267 11.3827 5.1032 11.3643C5.08373 11.346 5.06072 11.3318 5.03557 11.3227C5.01042 11.3135 4.98367 11.3097 4.95696 11.3112V11.3112ZM17.4333 6.90367H17.8328C17.8827 6.9007 17.9296 6.87877 17.964 6.84236C17.9983 6.80594 18.0174 6.7578 18.0174 6.70776C18.0174 6.65772 17.9983 6.60957 17.964 6.57316C17.9296 6.53674 17.8827 6.51481 17.8328 6.51184H17.4333C17.4066 6.51026 17.3799 6.51415 17.3547 6.52327C17.3296 6.5324 17.3066 6.54658 17.2871 6.56493C17.2676 6.58327 17.2521 6.60541 17.2415 6.62997C17.2309 6.65454 17.2254 6.68101 17.2254 6.70776C17.2254 6.73451 17.2309 6.76098 17.2415 6.78555C17.2521 6.81011 17.2676 6.83225 17.2871 6.85059C17.3066 6.86894 17.3296 6.88311 17.3547 6.89224C17.3799 6.90137 17.4066 6.90526 17.4333 6.90367V6.90367ZM18.4416 6.90367H19.6164C19.6431 6.90526 19.6698 6.90137 19.695 6.89224C19.7201 6.88311 19.7432 6.86894 19.7626 6.85059C19.7821 6.83225 19.7976 6.81011 19.8082 6.78555C19.8188 6.76098 19.8243 6.73451 19.8243 6.70776C19.8243 6.68101 19.8188 6.65454 19.8082 6.62997C19.7976 6.60541 19.7821 6.58327 19.7626 6.56493C19.7432 6.54658 19.7201 6.5324 19.695 6.52327C19.6698 6.51415 19.6431 6.51026 19.6164 6.51184H18.4416C18.4149 6.51026 18.3881 6.51415 18.363 6.52327C18.3378 6.5324 18.3148 6.54658 18.2953 6.56493C18.2759 6.58327 18.2604 6.60541 18.2498 6.62997C18.2392 6.65454 18.2337 6.68101 18.2337 6.70776C18.2337 6.73451 18.2392 6.76098 18.2498 6.78555C18.2604 6.81011 18.2759 6.83225 18.2953 6.85059C18.3148 6.86894 18.3378 6.88311 18.363 6.89224C18.3881 6.90137 18.4149 6.90526 18.4416 6.90367V6.90367ZM7.29827 8.36112V16.3249H11.2587V8.36112H7.29827ZM10.1883 11.8641V12.824C10.1912 12.8739 10.2132 12.9209 10.2496 12.9552C10.286 12.9895 10.3342 13.0086 10.3842 13.0086C10.4342 13.0086 10.4824 12.9895 10.5188 12.9552C10.5552 12.9209 10.5771 12.8739 10.5801 12.824V11.8641C10.5817 11.8374 10.5778 11.8106 10.5687 11.7855C10.5595 11.7603 10.5454 11.7373 10.527 11.7179C10.5087 11.6984 10.4865 11.6829 10.462 11.6723C10.4374 11.6617 10.4109 11.6562 10.3842 11.6562C10.3574 11.6562 10.331 11.6617 10.3064 11.6723C10.2818 11.6829 10.2597 11.6984 10.2414 11.7179C10.223 11.7373 10.2088 11.7603 10.1997 11.7855C10.1906 11.8106 10.1867 11.8374 10.1883 11.8641V11.8641ZM11.6506 8.36181V16.3249H15.611V8.36112L11.6506 8.36181ZM12.533 11.8641V12.824C12.536 12.8739 12.5579 12.9209 12.5944 12.9552C12.6308 12.9895 12.6789 13.0086 12.729 13.0086C12.779 13.0086 12.8271 12.9895 12.8636 12.9552C12.9 12.9209 12.9219 12.8739 12.9249 12.824V11.8641C12.9265 11.8374 12.9226 11.8106 12.9134 11.7855C12.9043 11.7603 12.8901 11.7373 12.8718 11.7179C12.8534 11.6984 12.8313 11.6829 12.8067 11.6723C12.7822 11.6617 12.7557 11.6562 12.729 11.6562C12.7022 11.6562 12.6757 11.6617 12.6512 11.6723C12.6266 11.6829 12.6045 11.6984 12.5861 11.7179C12.5678 11.7373 12.5536 11.7603 12.5445 11.7855C12.5353 11.8106 12.5315 11.8374 12.533 11.8641V11.8641ZM2.26183 5.26103H21.4988C21.7234 5.26234 21.9402 5.17865 22.1056 5.02676C22.2085 4.93155 22.2838 4.81024 22.3233 4.6757H18.0332C18.0065 4.67729 17.9797 4.6734 17.9546 4.66427C17.9294 4.65514 17.9064 4.64097 17.8869 4.62262C17.8675 4.60427 17.8519 4.58214 17.8413 4.55757C17.8307 4.53301 17.8253 4.50654 17.8253 4.47979C17.8253 4.45303 17.8307 4.42656 17.8413 4.402C17.8519 4.37743 17.8675 4.3553 17.8869 4.33695C17.9064 4.31861 17.9294 4.30443 17.9546 4.2953C17.9797 4.28617 18.0065 4.28228 18.0332 4.28387H22.3233C22.2838 4.14913 22.2086 4.02758 22.1056 3.93212C21.9402 3.78023 21.7234 3.69654 21.4988 3.69786H1.41045C1.18588 3.69654 0.969121 3.78023 0.803702 3.93212C0.726736 4.00102 0.665167 4.08538 0.623016 4.17969C0.580864 4.274 0.559077 4.37614 0.559077 4.47944C0.559077 4.58274 0.580864 4.68488 0.623016 4.77919C0.665167 4.8735 0.726736 4.95786 0.803702 5.02676C0.969121 5.17865 1.18588 5.26234 1.41045 5.26103H2.26183ZM16.8715 4.28387H1.04626C1.01955 4.28228 0.992808 4.28617 0.967659 4.2953C0.942511 4.30443 0.919492 4.31861 0.900021 4.33695C0.880551 4.3553 0.865038 4.37743 0.854434 4.402C0.84383 4.42656 0.83836 4.45303 0.83836 4.47979C0.83836 4.50654 0.84383 4.53301 0.854434 4.55757C0.865038 4.58214 0.880551 4.60427 0.900021 4.62262C0.919492 4.64097 0.942511 4.65514 0.967659 4.66427C0.992808 4.6734 1.01955 4.67729 1.04626 4.6757H16.8715C16.8982 4.67729 16.925 4.6734 16.9501 4.66427C16.9753 4.65514 16.9983 4.64097 17.0177 4.62262C17.0372 4.60427 17.0527 4.58214 17.0633 4.55757C17.0739 4.53301 17.0794 4.50654 17.0794 4.47979C17.0794 4.45303 17.0739 4.42656 17.0633 4.402C17.0527 4.37743 17.0372 4.3553 17.0177 4.33695C16.9983 4.31861 16.9753 4.30443 16.9501 4.2953C16.925 4.28617 16.8982 4.28228 16.8715 4.28387V4.28387ZM4.19265 3.30602H18.7166V0.392521H4.19265V3.30533V3.30602ZM15.4845 1.51549C15.4898 1.39429 15.4543 1.27482 15.3837 1.17618C15.3222 1.09241 15.2339 1.03218 15.1335 1.00549C14.9965 0.982696 14.8576 0.973897 14.7189 0.979229H14.155V2.7207H14.5074V2.06419H14.7361C14.8578 2.06718 14.9795 2.05862 15.0996 2.03862C15.1654 2.02379 15.2274 1.99582 15.2821 1.95639C15.3441 1.91182 15.3946 1.85305 15.4293 1.78501C15.4704 1.70128 15.4903 1.60873 15.4873 1.51549H15.4845ZM13.2199 1.18724C13.1395 1.10666 13.0431 1.04376 12.937 1.00259C12.8308 0.961413 12.7173 0.942864 12.6035 0.94813C12.4749 0.945805 12.347 0.969304 12.2276 1.01724C12.1429 1.05409 12.0665 1.10768 12.003 1.1748C11.935 1.24411 11.8799 1.32511 11.8406 1.41391C11.7834 1.55583 11.7561 1.70805 11.7604 1.86102C11.7604 2.13744 11.8369 2.35559 11.9899 2.51545C12.0712 2.59635 12.1685 2.65931 12.2756 2.70026C12.3828 2.7412 12.4973 2.75923 12.6118 2.75317C12.725 2.75851 12.8381 2.73999 12.9437 2.69879C13.0493 2.6576 13.1451 2.59467 13.2248 2.51407C13.3777 2.35513 13.4542 2.13491 13.4542 1.85342C13.4542 1.57193 13.3773 1.3501 13.2234 1.18793L13.2199 1.18724ZM11.0417 0.979921H10.6927V1.66614H10.0017V0.979921H9.64925V2.72139H10.0017V1.96122H10.6927V2.72139H11.0452V0.979921H11.0417ZM8.85522 1.93773C8.80871 1.862 8.74225 1.80055 8.66311 1.76012C8.54248 1.70367 8.41559 1.66168 8.2851 1.63504C8.11441 1.59496 8.00868 1.55557 7.96307 1.51825C7.94682 1.50581 7.93364 1.48981 7.92454 1.47148C7.91544 1.45315 7.91065 1.43299 7.91055 1.41252C7.91008 1.39118 7.91489 1.37005 7.92453 1.35101C7.93417 1.33197 7.94835 1.31559 7.96583 1.30334C8.03658 1.25753 8.12011 1.23551 8.20425 1.24045C8.28234 1.23471 8.36007 1.25566 8.42469 1.29988C8.47991 1.35 8.51421 1.41909 8.52075 1.49338L8.87319 1.48094C8.87355 1.40786 8.85833 1.33554 8.82854 1.26881C8.79875 1.20208 8.75507 1.14247 8.70043 1.09395C8.59055 0.996508 8.424 0.948822 8.20839 0.948822C8.09164 0.945617 7.97547 0.966312 7.86701 1.00964C7.77843 1.04493 7.70273 1.1064 7.65002 1.18585C7.5888 1.27931 7.56367 1.39185 7.57931 1.50247C7.59495 1.61309 7.65029 1.71425 7.73502 1.78708C7.8515 1.87426 7.98654 1.93339 8.12961 1.95984C8.27542 1.99647 8.36872 2.02204 8.41018 2.03655C8.45779 2.05028 8.50109 2.07598 8.53595 2.11118C8.56027 2.14095 8.57303 2.1785 8.57189 2.21692C8.57131 2.24958 8.56329 2.28168 8.54844 2.31078C8.53359 2.33988 8.51231 2.36521 8.4862 2.38484C8.41179 2.43676 8.32164 2.46119 8.2312 2.45395C8.13951 2.45901 8.04911 2.43051 7.97689 2.37378C7.9074 2.30641 7.86344 2.21702 7.8525 2.12086L7.50697 2.15472C7.51648 2.32376 7.59072 2.48264 7.71429 2.59838C7.83246 2.69996 8.00107 2.7511 8.22152 2.7511C8.35069 2.75477 8.47933 2.73317 8.60022 2.68753C8.69702 2.64914 8.77925 2.58118 8.83518 2.49334C8.88967 2.40994 8.9185 2.31239 8.91811 2.21277C8.92143 2.11598 8.89748 2.02019 8.849 1.93635L8.85522 1.93773ZM12.1232 1.84927C12.1232 2.04692 12.1689 2.1948 12.2615 2.29846C12.3044 2.34759 12.3576 2.38672 12.4173 2.41311C12.477 2.43949 12.5417 2.45249 12.607 2.45118C12.6722 2.45299 12.737 2.44036 12.7967 2.4142C12.8564 2.38804 12.9096 2.34898 12.9525 2.29984C13.043 2.19826 13.0907 2.04692 13.0907 1.84444C13.0907 1.64196 13.0465 1.4989 12.9587 1.39732C12.9133 1.3504 12.8589 1.3131 12.7988 1.28762C12.7387 1.26214 12.674 1.24901 12.6087 1.24901C12.5434 1.24901 12.4788 1.26214 12.4186 1.28762C12.3585 1.3131 12.3041 1.3504 12.2587 1.39732C12.1698 1.49683 12.1253 1.64679 12.1253 1.8472L12.1232 1.84927ZM14.5046 1.27431V1.77049H14.6961C14.7891 1.77588 14.8824 1.76655 14.9725 1.74285C15.017 1.72649 15.0552 1.6965 15.0817 1.65716C15.109 1.61633 15.123 1.56805 15.1217 1.51895C15.1239 1.46141 15.1038 1.40526 15.0658 1.36208C15.0298 1.3212 14.9811 1.29368 14.9276 1.28399C14.8441 1.27391 14.76 1.26998 14.676 1.27224L14.5046 1.27431ZM16.0028 16.7174H0.837563C0.719347 16.7174 0.605972 16.7644 0.522381 16.8479C0.43879 16.9315 0.391829 17.0449 0.391829 17.1631C0.391829 17.2813 0.43879 17.3947 0.522381 17.4783C0.605972 17.5619 0.719347 17.6089 0.837563 17.6089H22.0717C22.1899 17.6089 22.3033 17.5619 22.3869 17.4783C22.4705 17.3947 22.5175 17.2813 22.5175 17.1631C22.5175 17.0449 22.4705 16.9315 22.3869 16.8479C22.3033 16.7644 22.1899 16.7174 22.0717 16.7174H16.0028V16.7174Z" fill="url(#paint0_linear_588_6904)" stroke="url(#paint1_linear_588_6904)" stroke-opacity="0.7" stroke-width="2" mask="url(#path-1-inside-1_588_6904)"/>
<defs>
<linearGradient id="paint0_linear_588_6904" x1="24.2184" y1="18" x2="-35.4862" y2="-34.8776" gradientUnits="userSpaceOnUse">
<stop stop-color="#48647D"/>
<stop offset="0.234375" stop-color="#6B8299"/>
<stop offset="0.442708" stop-color="#DAE2EB"/>
<stop offset="0.682292" stop-color="#8CA2B7"/>
<stop offset="1" stop-color="#EDF2F7"/>
</linearGradient>
<linearGradient id="paint1_linear_588_6904" x1="24.2184" y1="18" x2="-35.4862" y2="-34.8776" gradientUnits="userSpaceOnUse">
<stop stop-color="#48647D"/>
<stop offset="0.234375" stop-color="#6B8299"/>
<stop offset="0.442708" stop-color="#DAE2EB"/>
<stop offset="0.682292" stop-color="#8CA2B7"/>
<stop offset="1" stop-color="#EDF2F7"/>
</linearGradient>
</defs>
</svg>
